<?xml version="1.0" encoding="UTF-8"?>
<svg width="178px" height="119px" viewBox="0 0 178 119" version="1.1" xmlns="http://www.w3.org/2000/svg" xmlns:xlink="http://www.w3.org/1999/xlink">
    <!-- Generator: Sketch 51.2 (57519) - http://www.bohemiancoding.com/sketch -->
    <title>Group 11</title>
    <desc>Created with Sketch.</desc>
    <defs></defs>
    <g id="Page-1" stroke="none" stroke-width="1" fill="none" fill-rule="evenodd">
        <g id="Desktop-HD" transform="translate(-273.000000, -1494.000000)">
            <g id="Group-11" transform="translate(273.000000, 1494.000000)">
                <rect id="Rectangle-2-Copy-21" stroke="#9B9B9B" stroke-width="1.61999991" fill="#F9F9F9" x="0.809999957" y="0.809999957" width="176.38" height="117.38" rx="6.47999966"></rect>
                <path d="M0.809999957,31.19 L177.19,31.19 L177.19,6.47999966 C177.19,3.34854529 174.651455,0.809999957 171.52,0.809999957 L6.47999966,0.809999957 C3.34854529,0.809999957 0.809999957,3.34854529 0.809999957,6.47999966 L0.809999957,31.19 Z" id="Rectangle-2-Copy-22" stroke="#9B9B9B" stroke-width="1.61999991" fill="#FFFFFF"></path>
                <g id="brand-copy-11" transform="translate(77.000000, 9.000000)" fill="#4A4A4A" fill-rule="nonzero">
                    <g id="#000000ff">
                        <path d="M0.0243116872,0 L1.17755844,0 C1.19314286,0.585742574 1.17880519,1.17148515 1.18566234,1.75722772 C1.92,1.31168317 2.92176623,1.35742574 3.63179221,1.82554455 C4.16415584,2.17069307 4.56062338,2.71960396 4.65537662,3.33148515 C4.71148052,3.72356436 4.6852987,4.13287129 4.53693506,4.50534653 C4.20342857,5.34118812 3.31885714,5.96613861 2.37007792,5.96079208 C1.8638961,5.98574257 1.36955844,5.80514851 0.982441557,5.49980198 C0.730597401,5.74455446 0.379636363,5.86811881 0.0211948041,5.81940594 C0.013090908,3.87980198 0.00623376512,1.93960396 0.0243116872,0 Z M2.08020779,2.58356436 C1.63885714,2.66257426 1.26296104,3.00237624 1.15324675,3.41643564 C0.967480518,4.04079208 1.44187013,4.74950495 2.12072727,4.83326733 C2.83137662,4.97108911 3.55698701,4.37108911 3.5145974,3.6819802 C3.52955844,2.99524752 2.78088312,2.4249505 2.08020779,2.58356436 Z" id="Shape"></path>
                        <path d="M6.72685714,1.46554455 C7.24737662,1.42455446 7.78098701,1.46673267 8.28093506,1.61762376 C8.28779221,1.97108911 8.28841558,2.32514851 8.28218182,2.67861386 C8.27096104,2.70534653 8.24851948,2.76 8.23667532,2.78732673 C7.776,2.5639604 7.24114286,2.51465347 6.73309091,2.56752475 C6.59594805,2.57524752 6.36841558,2.67267327 6.48997403,2.83128713 C6.94441558,3.06356436 7.43127273,3.23584158 7.8825974,3.47346535 C8.3918961,3.74792079 8.66431169,4.35980198 8.50348052,4.8980198 C8.40623377,5.28118812 8.12446753,5.6150495 7.7467013,5.77841584 C7.16197403,6.03386139 6.4881039,5.99762376 5.8747013,5.86633663 C5.66774026,5.83366337 5.46888312,5.67683168 5.46202597,5.46653465 C5.45142857,5.15881188 5.44706494,4.85049505 5.46950649,4.5439604 C6.00561039,4.77683168 6.61963636,4.95920792 7.20685714,4.79346535 C7.39075325,4.75425743 7.43937662,4.50356436 7.2854026,4.40257426 C6.77672727,4.10019802 6.16332468,3.96950495 5.69080519,3.61009901 C5.23948052,3.22693069 5.17215584,2.51881188 5.52374026,2.05425743 C5.78742857,1.6770297 6.26867532,1.50178218 6.72685714,1.46554455 Z" id="Shape"></path>
                        <path d="M9.87677922,1.92772277 C10.358026,1.52376238 11.0331429,1.41920792 11.654026,1.4560396 C12.1795325,1.48217822 12.7193766,1.65089109 13.0902857,2.01980198 C13.3633247,2.28475248 13.5017143,2.65782178 13.4954805,3.02673267 C13.4985974,3.95465347 13.4998442,4.88257426 13.4954805,5.81049505 C13.2155844,5.82950495 12.9338182,5.82534653 12.6539221,5.81821782 C12.4675325,5.8170297 12.3141818,5.64118812 12.3285195,5.46772277 C12.3235325,4.65564356 12.3297662,3.84356436 12.326026,3.03148515 C12.3397403,2.87584158 12.2275325,2.73683168 12.0797922,2.6809901 C11.7518961,2.54019802 11.3747532,2.54079208 11.0269091,2.6019802 C10.8211948,2.6429703 10.5624935,2.74574257 10.5437922,2.97623762 C10.5238442,3.92257426 10.5537662,4.86950495 10.5294545,5.81584158 C10.1442078,5.82475248 9.75896104,5.82891089 9.37371429,5.81346535 C9.36187013,4.88435644 9.37122078,3.95524752 9.36935065,3.02613861 C9.36374026,2.61267327 9.5414026,2.19564356 9.87677922,1.92772277 Z" id="Shape"></path>
                        <path d="M15.4404156,1.70792079 C16.2052987,1.31940594 17.2313766,1.34970297 17.8946494,1.91405941 C18.1365195,1.66039604 18.4924675,1.54752475 18.8477922,1.59267327 C18.8608831,3.00178218 18.8658701,4.41207921 18.8446753,5.82118812 C18.4918442,5.86158416 18.1377662,5.75049505 17.8958961,5.49920792 C17.5106494,5.8009901 17.0231688,5.98455446 16.5201039,5.96079208 C15.6492468,5.97029703 14.8232727,5.45108911 14.4361558,4.71623762 C14.1899221,4.26594059 14.1375584,3.73366337 14.2366753,3.23821782 C14.3650909,2.58772277 14.8413506,2.02811881 15.4404156,1.70792079 Z M16.3555325,2.57940594 C15.739013,2.65960396 15.2714805,3.26316832 15.3662338,3.84831683 C15.4260779,4.39009901 15.9478442,4.84752475 16.521974,4.84693069 C17.1821299,4.88792079 17.7905455,4.31465347 17.7556364,3.68435644 C17.7730909,3.00831683 17.0493506,2.43920792 16.3555325,2.57940594 Z" id="Shape"></path>
                        <path d="M19.3365195,1.60336634 C19.6232727,1.57841584 19.9118961,1.59326733 20.1992727,1.58910891 C20.3251948,1.59386139 20.4673247,1.58435644 20.5701818,1.66633663 C20.6630649,1.74356436 20.7067013,1.8570297 20.7590649,1.95980198 C21.0545455,2.61207921 21.3581299,3.26079208 21.6536104,3.91247525 C22.0145455,3.15029703 22.3561558,2.37980198 22.7152208,1.6170297 C23.1229091,1.5570297 23.553039,1.59980198 23.9688312,1.5980198 C23.9326753,1.77445545 23.8435325,1.93425743 23.7693506,2.09821782 C23.2282597,3.26613861 22.694026,4.4370297 22.1510649,5.60435644 C21.9877403,6.0029703 21.2777143,5.98039604 21.1449351,5.56871287 C20.6306494,4.45663366 20.1201039,3.34336634 19.6064416,2.23128713 C19.5154286,2.02217822 19.4013506,1.8219802 19.3365195,1.60336634 Z" id="Shape"></path>
                    </g>
                </g>
                <path d="M40.7858986,25 L40.7858986,20.9191506 L41.6303077,20.9191506 L41.6303077,22.4750783 L43.2249951,22.4750783 L43.2249951,20.9191506 L44.0721728,20.9191506 L44.0721728,25 L43.2249951,25 L43.2249951,23.1782911 L41.6303077,23.1782911 L41.6303077,25 L40.7858986,25 Z M46.1762743,24.4435205 C46.4069883,24.4435205 46.584174,24.3613876 46.7078367,24.1971192 C46.8314995,24.0328508 46.8933299,23.7993717 46.8933299,23.4966749 C46.8933299,23.1939781 46.8314995,22.9609604 46.7078367,22.7976149 C46.584174,22.6342693 46.4069883,22.5525978 46.1762743,22.5525978 C45.9455602,22.5525978 45.7679131,22.6342693 45.6433275,22.7976149 C45.5187419,22.9609604 45.4564501,23.1939781 45.4564501,23.4966749 C45.4564501,23.7993717 45.5187419,24.0328508 45.6433275,24.1971192 C45.7679131,24.3613876 45.9455602,24.4435205 46.1762743,24.4435205 Z M47.7211277,23.4966749 C47.7211277,23.9396458 47.5937755,24.3184726 47.3390672,24.6331665 C47.0843589,24.9478605 46.697688,25.1052051 46.1790428,25.1052051 C45.6603977,25.1052051 45.2737268,24.9478605 45.0190185,24.6331665 C44.7643102,24.3184726 44.6369579,23.9396458 44.6369579,23.4966749 C44.6369579,23.0610868 44.7643102,22.6836443 45.0190185,22.3643361 C45.2737268,22.0450279 45.6603977,21.8853761 46.1790428,21.8853761 C46.697688,21.8853761 47.0843589,22.0450279 47.3390672,22.3643361 C47.5937755,22.6836443 47.7211277,23.0610868 47.7211277,23.4966749 Z M51.6580123,21.9158302 C51.7909035,21.9158302 51.9219471,21.9416698 52.051147,21.9933498 C52.1803469,22.0450297 52.2975478,22.1354683 52.4027534,22.2646681 C52.4876562,22.3698737 52.5448724,22.4990716 52.5744038,22.6522657 C52.5928609,22.7537799 52.6020894,22.9023575 52.6020894,23.098003 L52.5965522,25 L51.7881343,25 L51.7881343,23.0786231 C51.7881343,22.964189 51.7696775,22.8700591 51.7327632,22.7962306 C51.6626262,22.6559565 51.5334282,22.5858204 51.3451656,22.5858204 C51.1273715,22.5858204 50.9769483,22.676259 50.8938912,22.8571388 C50.8514398,22.9531158 50.8302145,23.0684711 50.8302145,23.2032081 L50.8302145,25 L50.0356393,25 L50.0356393,23.2032081 C50.0356393,23.024174 50.0171825,22.8940533 49.9802682,22.8128419 C49.9138226,22.6670306 49.7837018,22.5941261 49.589902,22.5941261 C49.3647251,22.5941261 49.213379,22.6670306 49.1358591,22.8128419 C49.0934077,22.895899 49.0721823,23.0195598 49.0721823,23.1838282 L49.0721823,25 L48.2720701,25 L48.2720701,21.9878127 L49.0389597,21.9878127 L49.0389597,22.4280128 C49.1367824,22.2711273 49.2290666,22.1594634 49.3158151,22.0930177 C49.4690092,21.9748921 49.6674203,21.9158302 49.9110543,21.9158302 C50.1417684,21.9158302 50.3281825,21.9665866 50.4703024,22.0681007 C50.5847365,22.1622321 50.6714837,22.2831244 50.7305465,22.4307814 C50.8339064,22.253593 50.9621815,22.1234722 51.1153756,22.0404152 C51.2777982,21.9573581 51.4586753,21.9158302 51.6580123,21.9158302 Z M54.5179291,22.5525978 C54.3352036,22.5525978 54.1935473,22.609814 54.092956,22.7242482 C53.9923647,22.8386823 53.92915,22.9937198 53.90331,23.1893653 L55.1297797,23.1893653 C55.1168597,22.9807998 55.053645,22.8225324 54.9401337,22.7145582 C54.8266224,22.6065841 54.6858889,22.5525978 54.5179291,22.5525978 Z M54.5179291,21.9019875 C54.768946,21.9019875 54.9950423,21.9490524 55.196225,22.0431838 C55.3974076,22.1373151 55.5635192,22.2858927 55.6945648,22.488921 C55.8126904,22.6679551 55.8892863,22.8755946 55.9243548,23.1118458 C55.9446576,23.2502742 55.9529632,23.4496082 55.9492718,23.7098536 L53.8839301,23.7098536 C53.8950044,24.0125504 53.9900571,24.2248041 54.1690912,24.3466211 C54.2779883,24.4222953 54.4090319,24.4601319 54.562226,24.4601319 C54.7246487,24.4601319 54.8566151,24.4139898 54.9581293,24.3217041 C55.0135006,24.2718699 55.0624113,24.2026567 55.1048627,24.1140625 L55.910512,24.1140625 C55.8902092,24.2930966 55.7970021,24.4748966 55.630888,24.6594678 C55.3724883,24.952936 55.0107341,25.099668 54.5456146,25.099668 C54.1617065,25.099668 53.8230234,24.9760071 53.5295551,24.7286817 C53.2360869,24.4813562 53.089355,24.078997 53.089355,23.5215919 C53.089355,22.9992553 53.2217828,22.5987418 53.4866425,22.3200392 C53.7515022,22.0413367 54.095261,21.9019875 54.5179291,21.9019875 Z M65.5367762,23.4579151 L66.5722156,23.4579151 L66.0628015,21.8521535 L65.5367762,23.4579151 Z M65.5893787,20.9191506 L66.5528357,20.9191506 L67.9980212,25 L67.0733239,25 L66.8103113,24.161128 L65.3069861,24.161128 L65.0245936,25 L64.133119,25 L65.5893787,20.9191506 Z M70.0827427,21.9158302 C70.4795709,21.9158302 70.7901073,22.0588708 71.0143613,22.3449562 C71.2386154,22.6310416 71.3507407,23.0001785 71.3507407,23.452378 C71.3507407,23.9211889 71.2399996,24.3097055 71.0185142,24.6179395 C70.7970287,24.9261734 70.4878765,25.0802881 70.0910484,25.0802881 C69.8418772,25.0802881 69.6416205,25.0304546 69.4902721,24.9307861 C69.3998322,24.8717233 69.3020109,24.768365 69.1968053,24.620708 L69.1968053,25 L68.4243786,25 L68.4243786,20.9246877 L69.210648,20.9246877 L69.210648,22.3754103 C69.3103165,22.2351362 69.4201347,22.1280865 69.540106,22.054258 C69.6822259,21.9619724 69.863103,21.9158302 70.0827427,21.9158302 Z M69.8806382,24.4296778 C70.0836666,24.4296778 70.2414726,24.3475448 70.3540611,24.1832764 C70.4666495,24.019008 70.5229429,23.8030629 70.5229429,23.5354346 C70.5229429,23.321332 70.4952576,23.1441463 70.4398863,23.0038722 C70.3346807,22.7380896 70.1408838,22.6052003 69.8584898,22.6052003 C69.5724044,22.6052003 69.375839,22.7353211 69.2687877,22.9955665 C69.2134163,23.1339949 69.1857311,23.3130263 69.1857311,23.5326661 C69.1857311,23.7910658 69.2429473,24.0051652 69.3573814,24.1749707 C69.4718156,24.3447763 69.6462328,24.4296778 69.8806382,24.4296778 Z M73.269349,24.4435205 C73.500063,24.4435205 73.6772488,24.3613876 73.8009115,24.1971192 C73.9245742,24.0328508 73.9864046,23.7993717 73.9864046,23.4966749 C73.9864046,23.1939781 73.9245742,22.9609604 73.8009115,22.7976149 C73.6772488,22.6342693 73.500063,22.5525978 73.269349,22.5525978 C73.038635,22.5525978 72.8609878,22.6342693 72.7364023,22.7976149 C72.6118167,22.9609604 72.5495248,23.1939781 72.5495248,23.4966749 C72.5495248,23.7993717 72.6118167,24.0328508 72.7364023,24.1971192 C72.8609878,24.3613876 73.038635,24.4435205 73.269349,24.4435205 Z M74.8142024,23.4966749 C74.8142024,23.9396458 74.6868502,24.3184726 74.4321419,24.6331665 C74.1774336,24.9478605 73.7907627,25.1052051 73.2721176,25.1052051 C72.7534724,25.1052051 72.3668015,24.9478605 72.1120932,24.6331665 C71.8573849,24.3184726 71.7300327,23.9396458 71.7300327,23.4966749 C71.7300327,23.0610868 71.8573849,22.6836443 72.1120932,22.3643361 C72.3668015,22.0450279 72.7534724,21.8853761 73.2721176,21.8853761 C73.7907627,21.8853761 74.1774336,22.0450279 74.4321419,22.3643361 C74.6868502,22.6836443 74.8142024,23.0610868 74.8142024,23.4966749 Z M76.1652571,21.9822756 L76.1652571,23.8012159 C76.1652571,23.9728671 76.1855596,24.102065 76.2261653,24.1888135 C76.298148,24.3420076 76.4393429,24.4186035 76.6497541,24.4186035 C76.9192281,24.4186035 77.1037965,24.3097082 77.203465,24.0919141 C77.255145,23.9737885 77.2809845,23.8178282 77.2809845,23.6240284 L77.2809845,21.9822756 L78.0810968,21.9822756 L78.0810968,25 L77.3142072,25 L77.3142072,24.5736426 C77.3068243,24.5828712 77.2883675,24.6105564 77.2588361,24.6566992 C77.2293047,24.702842 77.1942367,24.7434471 77.153631,24.7785156 C77.0299683,24.8892584 76.9104602,24.9649314 76.7951032,25.0055371 C76.6797462,25.0461428 76.5445498,25.0664453 76.38951,25.0664453 C75.9428476,25.0664453 75.642001,24.9058708 75.4869612,24.5847168 C75.4002127,24.4075284 75.3568391,24.1463641 75.3568391,23.8012159 L75.3568391,21.9822756 L76.1652571,21.9822756 Z M78.5323712,22.5719777 L78.5323712,22.0099611 L78.9531915,22.0099611 L78.9531915,21.1683205 L79.7339239,21.1683205 L79.7339239,22.0099611 L80.223958,22.0099611 L80.223958,22.5719777 L79.7339239,22.5719777 L79.7339239,24.1666651 C79.7339239,24.2903278 79.7496122,24.3673851 79.7809893,24.3978394 C79.8123664,24.4282936 79.908342,24.4435205 80.068919,24.4435205 C80.0929132,24.4435205 80.1182914,24.4430591 80.1450542,24.4421363 C80.171817,24.4412134 80.198118,24.4398291 80.223958,24.4379834 L80.223958,25.0276855 L79.8502031,25.0415283 C79.4773693,25.0544483 79.2226648,24.9898493 79.0860821,24.8477295 C78.9974879,24.7572896 78.9531915,24.6179404 78.9531915,24.4296778 L78.9531915,22.5719777 L78.5323712,22.5719777 Z M89.4986157,21.6279006 L89.4986157,22.5276808 L90.5008325,22.5276808 C90.6798666,22.5276808 90.8252142,22.4939971 90.9368798,22.4266286 C91.0485454,22.3592601 91.1043774,22.239752 91.1043774,22.0681007 C91.1043774,21.8779924 91.03055,21.7524858 90.882893,21.6915773 C90.7555388,21.6491259 90.5931186,21.6279006 90.3956274,21.6279006 L89.4986157,21.6279006 Z M89.4986157,23.2032081 L89.4986157,24.29125 L90.5008325,24.29125 C90.6798666,24.29125 90.8192157,24.2672561 90.9188842,24.2192676 C91.099764,24.1306734 91.1902025,23.9608705 91.1902025,23.7098536 C91.1902025,23.4975967 91.1025325,23.3517876 90.9271899,23.272422 C90.8293671,23.2281249 90.6918636,23.2050538 90.5146752,23.2032081 L89.4986157,23.2032081 Z M90.6669457,20.9191506 C91.1671338,20.9265335 91.5215052,21.0714197 91.7300707,21.3538137 C91.8555791,21.5273106 91.9183324,21.7349501 91.9183324,21.9767384 C91.9183324,22.2259096 91.8555791,22.4261664 91.7300707,22.5775148 C91.6599336,22.6624175 91.5565753,22.7399363 91.4199926,22.8100734 C91.6285581,22.8857476 91.7859027,23.0057171 91.8920311,23.1699854 C91.9981596,23.3342538 92.051223,23.5335878 92.051223,23.7679932 C92.051223,24.0097815 91.9903154,24.2266495 91.8684984,24.4186035 C91.7909785,24.5459577 91.6940801,24.6530074 91.5778002,24.7397559 C91.4467546,24.8394243 91.2921785,24.9077147 91.1140673,24.9446289 C90.9359561,24.9815432 90.7426206,25 90.5340551,25 L88.6846607,25 L88.6846607,20.9191506 L90.6669457,20.9191506 Z M93.5074827,25 L92.7184447,25 L92.7184447,20.9191506 L93.5074827,20.9191506 L93.5074827,25 Z M95.630964,24.4435205 C95.8616781,24.4435205 96.0388638,24.3613876 96.1625265,24.1971192 C96.2861892,24.0328508 96.3480197,23.7993717 96.3480197,23.4966749 C96.3480197,23.1939781 96.2861892,22.9609604 96.1625265,22.7976149 C96.0388638,22.6342693 95.8616781,22.5525978 95.630964,22.5525978 C95.40025,22.5525978 95.2226029,22.6342693 95.0980173,22.7976149 C94.9734317,22.9609604 94.9111399,23.1939781 94.9111399,23.4966749 C94.9111399,23.7993717 94.9734317,24.0328508 95.0980173,24.1971192 C95.2226029,24.3613876 95.40025,24.4435205 95.630964,24.4435205 Z M97.1758175,23.4966749 C97.1758175,23.9396458 97.0484652,24.3184726 96.7937569,24.6331665 C96.5390486,24.9478605 96.1523777,25.1052051 95.6337326,25.1052051 C95.1150874,25.1052051 94.7284165,24.9478605 94.4737082,24.6331665 C94.2189999,24.3184726 94.0916477,23.9396458 94.0916477,23.4966749 C94.0916477,23.0610868 94.2189999,22.6836443 94.4737082,22.3643361 C94.7284165,22.0450279 95.1150874,21.8853761 95.6337326,21.8853761 C96.1523777,21.8853761 96.5390486,22.0450279 96.7937569,22.3643361 C97.0484652,22.6836443 97.1758175,23.0610868 97.1758175,23.4966749 Z M99.0362861,24.3521582 C99.2208573,24.3521582 99.3768177,24.2824836 99.5041718,24.1431324 C99.631526,24.0037811 99.6952021,23.7818375 99.6952021,23.477295 C99.6952021,23.1912096 99.6347559,22.9734188 99.5138618,22.8239161 C99.3929676,22.6744134 99.2310088,22.5996632 99.0279805,22.5996632 C98.7511236,22.5996632 98.5600953,22.729784 98.4548897,22.9900294 C98.3995183,23.1284578 98.371833,23.2991836 98.371833,23.502212 C98.371833,23.6775547 98.401364,23.833515 98.4604268,23.9700977 C98.5674781,24.224806 98.7594293,24.3521582 99.0362861,24.3521582 Z M98.8397187,21.9102931 C98.9910671,21.9102931 99.1230336,21.9333642 99.235622,21.979507 C99.4275761,22.0588726 99.5826136,22.2046817 99.7007392,22.4169386 L99.7007392,21.9822756 L100.467629,21.9822756 L100.467629,24.8449609 C100.467629,25.2344062 100.402107,25.5278701 100.271061,25.7253613 C100.045885,26.0649723 99.6139944,26.2347753 98.9753779,26.2347753 C98.5896241,26.2347753 98.2749348,26.1591023 98.0313008,26.0077539 C97.7876668,25.8564054 97.6529318,25.6303091 97.6270919,25.329458 L98.4853438,25.329458 C98.5074923,25.4217436 98.5434832,25.4881882 98.5933174,25.5287939 C98.6782202,25.6007767 98.8212607,25.6367675 99.0224433,25.6367675 C99.306683,25.6367675 99.4967885,25.5417148 99.5927656,25.3516064 C99.6555198,25.2297894 99.6868964,25.0249184 99.6868964,24.7369873 L99.6868964,24.5431885 C99.6112222,24.6723884 99.5300121,24.7692868 99.4432636,24.8338867 C99.2863781,24.953858 99.0824299,25.0138428 98.8314131,25.0138428 C98.4438135,25.0138428 98.1341999,24.8777235 97.902563,24.605481 C97.6709261,24.3332384 97.5551094,23.9645629 97.5551094,23.4994434 C97.5551094,23.0509354 97.6667734,22.6739543 97.8901045,22.3684889 C98.1134357,22.0630235 98.4299706,21.9102931 98.8397187,21.9102931 Z M108.967091,22.992798 C108.967091,22.280353 109.15812,21.7312619 109.540182,21.345508 C109.87241,21.0095884 110.295072,20.8416311 110.80818,20.8416311 C111.494785,20.8416311 111.996811,21.0668046 112.314274,21.5171584 C112.489616,21.770021 112.583746,22.0238026 112.596666,22.2785109 L111.743951,22.2785109 C111.68858,22.0828654 111.617521,21.9352106 111.530773,21.8355422 C111.375733,21.6583538 111.145945,21.5697609 110.841403,21.5697609 C110.531323,21.5697609 110.28677,21.6948061 110.107736,21.9449001 C109.928702,22.1949941 109.839186,22.5489041 109.839186,23.0066407 C109.839186,23.4643774 109.933777,23.8072133 110.122963,24.0351587 C110.312148,24.2631042 110.552549,24.3770752 110.844171,24.3770752 C111.143177,24.3770752 111.371119,24.2792539 111.528004,24.0836084 C111.614753,23.9784028 111.686734,23.8205968 111.743951,23.6101856 L112.588361,23.6101856 C112.514532,24.0550023 112.325811,24.4167564 112.022191,24.695459 C111.718572,24.9741616 111.329594,25.1135107 110.855245,25.1135107 C110.268309,25.1135107 109.806888,24.9252509 109.470968,24.5487256 C109.135049,24.1703546 108.967091,23.6517172 108.967091,22.992798 Z M114.529117,24.4435205 C114.759831,24.4435205 114.937017,24.3613876 115.06068,24.1971192 C115.184343,24.0328508 115.246173,23.7993717 115.246173,23.4966749 C115.246173,23.1939781 115.184343,22.9609604 115.06068,22.7976149 C114.937017,22.6342693 114.759831,22.5525978 114.529117,22.5525978 C114.298403,22.5525978 114.120756,22.6342693 113.996171,22.7976149 C113.871585,22.9609604 113.809293,23.1939781 113.809293,23.4966749 C113.809293,23.7993717 113.871585,24.0328508 113.996171,24.1971192 C114.120756,24.3613876 114.298403,24.4435205 114.529117,24.4435205 Z M116.073971,23.4966749 C116.073971,23.9396458 115.946619,24.3184726 115.69191,24.6331665 C115.437202,24.9478605 115.050531,25.1052051 114.531886,25.1052051 C114.013241,25.1052051 113.62657,24.9478605 113.371862,24.6331665 C113.117153,24.3184726 112.989801,23.9396458 112.989801,23.4966749 C112.989801,23.0610868 113.117153,22.6836443 113.371862,22.3643361 C113.62657,22.0450279 114.013241,21.8853761 114.531886,21.8853761 C115.050531,21.8853761 115.437202,22.0450279 115.69191,22.3643361 C115.946619,22.6836443 116.073971,23.0610868 116.073971,23.4966749 Z M118.310963,21.9102931 C118.622888,21.9102931 118.878054,21.9919647 119.076468,22.1553102 C119.274882,22.3186557 119.374088,22.58951 119.374088,22.967881 L119.374088,25 L118.56567,25 L118.56567,23.1644483 C118.56567,23.0057171 118.544444,22.8839019 118.501993,22.7989991 C118.424473,22.6439593 118.276818,22.5664406 118.059024,22.5664406 C117.791396,22.5664406 117.60775,22.6799502 117.508082,22.9069728 C117.456402,23.0269441 117.430562,23.1801359 117.430562,23.3665528 L117.430562,25 L116.644293,25 L116.644293,21.9878127 L117.405645,21.9878127 L117.405645,22.4280128 C117.50716,22.272973 117.603135,22.1613091 117.693575,22.0930177 C117.855998,21.9712007 118.061792,21.9102931 118.310963,21.9102931 Z M119.79214,22.5719777 L119.79214,22.0099611 L120.21296,22.0099611 L120.21296,21.1683205 L120.993692,21.1683205 L120.993692,22.0099611 L121.483726,22.0099611 L121.483726,22.5719777 L120.993692,22.5719777 L120.993692,24.1666651 C120.993692,24.2903278 121.00938,24.3673851 121.040758,24.3978394 C121.072135,24.4282936 121.16811,24.4435205 121.328687,24.4435205 C121.352682,24.4435205 121.37806,24.4430591 121.404823,24.4421363 C121.431585,24.4412134 121.457886,24.4398291 121.483726,24.4379834 L121.483726,25.0276855 L121.109971,25.0415283 C120.737138,25.0544483 120.482433,24.9898493 120.34585,24.8477295 C120.257256,24.7572896 120.21296,24.6179404 120.21296,24.4296778 L120.21296,22.5719777 L119.79214,22.5719777 Z M123.654273,23.5326661 C123.604439,23.5640432 123.554144,23.5894214 123.503387,23.6088013 C123.45263,23.6281813 123.382955,23.6461767 123.294361,23.6627882 L123.117174,23.6960108 C122.951059,23.7255422 122.832013,23.7615331 122.76003,23.8039844 C122.638213,23.8759672 122.577305,23.9876311 122.577305,24.1389795 C122.577305,24.2737165 122.61468,24.3710764 122.689432,24.431062 C122.764183,24.4910477 122.855083,24.5210401 122.962134,24.5210401 C123.13194,24.5210401 123.288362,24.4712066 123.431404,24.3715381 C123.574447,24.2718697 123.648736,24.0900697 123.654273,23.8261329 L123.654273,23.5326661 Z M123.175313,23.1644483 C123.321124,23.1459912 123.425406,23.1229202 123.48816,23.0952345 C123.600748,23.047246 123.657042,22.9724957 123.657042,22.8709816 C123.657042,22.7473188 123.614129,22.6619559 123.528304,22.6148903 C123.442478,22.5678246 123.31651,22.5442921 123.150396,22.5442921 C122.963979,22.5442921 122.832013,22.5904342 122.754493,22.6827198 C122.699121,22.7510112 122.662208,22.8432954 122.643751,22.9595753 L121.882398,22.9595753 C121.89901,22.6956385 121.972837,22.4787705 122.103883,22.308965 C122.312448,22.0431824 122.670511,21.9102931 123.178082,21.9102931 C123.508464,21.9102931 123.801928,21.9758149 124.058482,22.1068605 C124.315036,22.2379061 124.443311,22.4852278 124.443311,22.8488331 L124.443311,24.2331104 C124.443311,24.3290874 124.445157,24.4453656 124.448848,24.5819483 C124.454385,24.6853082 124.470074,24.7554442 124.495914,24.7923584 C124.521754,24.8292727 124.560513,24.8597264 124.612193,24.8837207 L124.612193,25 L123.753941,25 C123.729947,24.9390915 123.713336,24.8818753 123.704107,24.8283496 C123.694879,24.774824 123.687496,24.7139164 123.681959,24.645625 C123.573062,24.7637506 123.447555,24.8643404 123.305435,24.9473975 C123.13563,25.0452202 122.943678,25.0941309 122.729576,25.0941309 C122.45641,25.0941309 122.230776,25.0161507 122.052664,24.860188 C121.874553,24.7042253 121.785499,24.4832046 121.785499,24.1971192 C121.785499,23.826131 121.928539,23.5575839 122.214625,23.3914698 C122.37151,23.3010299 122.602221,23.236431 122.906763,23.197671 L123.175313,23.1644483 Z M126.946084,23.0647804 C126.931319,22.9521919 126.893482,22.8506793 126.832574,22.7602394 C126.74398,22.6384224 126.606476,22.5775148 126.420059,22.5775148 C126.154277,22.5775148 125.972477,22.7094812 125.874654,22.9734181 C125.822974,23.1136922 125.797134,23.3001063 125.797134,23.5326661 C125.797134,23.7541516 125.822974,23.9322601 125.874654,24.0669971 C125.968785,24.318014 126.145971,24.4435205 126.406216,24.4435205 C126.590788,24.4435205 126.721831,24.3936871 126.799351,24.2940186 C126.876871,24.1943501 126.923936,24.0651522 126.940547,23.906421 L127.746197,23.906421 C127.72774,24.1463635 127.640992,24.3733828 127.485953,24.5874854 C127.238627,24.9326336 126.872259,25.1052051 126.386836,25.1052051 C125.901414,25.1052051 125.544274,24.9612417 125.315406,24.6733106 C125.086537,24.3853795 124.972105,24.0116283 124.972105,23.552046 C124.972105,23.0334008 125.098534,22.6301188 125.351397,22.3421876 C125.60426,22.0542565 125.953094,21.9102931 126.397911,21.9102931 C126.776282,21.9102931 127.085895,21.9951946 127.326761,22.1650002 C127.567626,22.3348057 127.710205,22.6347294 127.754502,23.0647804 L126.946084,23.0647804 Z M127.987061,22.5719777 L127.987061,22.0099611 L128.407881,22.0099611 L128.407881,21.1683205 L129.188614,21.1683205 L129.188614,22.0099611 L129.678648,22.0099611 L129.678648,22.5719777 L129.188614,22.5719777 L129.188614,24.1666651 C129.188614,24.2903278 129.204302,24.3673851 129.235679,24.3978394 C129.267056,24.4282936 129.363032,24.4435205 129.523609,24.4435205 C129.547603,24.4435205 129.572981,24.4430591 129.599744,24.4421363 C129.626507,24.4412134 129.652808,24.4398291 129.678648,24.4379834 L129.678648,25.0276855 L129.304893,25.0415283 C128.932059,25.0544483 128.677355,24.9898493 128.540772,24.8477295 C128.452178,24.7572896 128.407881,24.6179404 128.407881,24.4296778 L128.407881,22.5719777 L127.987061,22.5719777 Z M131.824278,20.9191506 L132.690835,20.9191506 L132.690835,23.427461 C132.690835,23.7080093 132.724057,23.9128803 132.790503,24.0420801 C132.893863,24.2709484 133.119036,24.3853809 133.46603,24.3853809 C133.811179,24.3853809 134.035429,24.2709484 134.138789,24.0420801 C134.205235,23.9128803 134.238457,23.7080093 134.238457,23.427461 L134.238457,20.9191506 L135.105015,20.9191506 L135.105015,23.427461 C135.105015,23.8612034 135.037647,24.1989637 134.90291,24.440752 C134.651893,24.8837229 134.172938,25.1052051 133.46603,25.1052051 C132.759123,25.1052051 132.279245,24.8837229 132.026382,24.440752 C131.891645,24.1989637 131.824278,23.8612034 131.824278,23.427461 L131.824278,20.9191506 Z M136.469912,24.036543 C136.486523,24.1768172 136.522514,24.2764841 136.577886,24.3355469 C136.675708,24.4407525 136.856586,24.4933545 137.120522,24.4933545 C137.275562,24.4933545 137.398762,24.4702835 137.490124,24.4241407 C137.581487,24.3779978 137.627168,24.3087847 137.627168,24.2164991 C137.627168,24.1279049 137.590254,24.0605374 137.516426,24.0143946 C137.442597,23.9682518 137.168513,23.8888873 136.694165,23.7762989 C136.352708,23.6913961 136.111846,23.5852693 135.971572,23.4579151 C135.831298,23.3324067 135.761162,23.1515296 135.761162,22.9152784 C135.761162,22.6365759 135.870519,22.3970983 136.089236,22.1968385 C136.307953,21.9965787 136.615721,21.8964504 137.012549,21.8964504 C137.389074,21.8964504 137.695919,21.971662 137.933093,22.1220876 C138.170267,22.2725131 138.306386,22.5322932 138.341455,22.9014357 L137.552417,22.9014357 C137.541343,22.7999215 137.512735,22.7196342 137.466592,22.6605714 C137.379843,22.5535201 137.232188,22.4999952 137.023623,22.4999952 C136.851972,22.4999952 136.729695,22.5267577 136.656789,22.5802833 C136.583884,22.633809 136.547432,22.6965623 136.547432,22.768545 C136.547432,22.8589849 136.586191,22.9245067 136.663711,22.9651124 C136.741231,23.0075638 137.015315,23.0804683 137.485972,23.1838282 C137.799743,23.2576567 138.035067,23.3693206 138.191953,23.5188233 C138.346993,23.6701717 138.424512,23.8593544 138.424512,24.086377 C138.424512,24.3853824 138.313309,24.6294742 138.090901,24.8186597 C137.868492,25.0078452 137.524734,25.1024365 137.059614,25.1024365 C136.585266,25.1024365 136.235047,25.0023081 136.008948,24.8020484 C135.782848,24.6017886 135.6698,24.3466227 135.6698,24.036543 L136.469912,24.036543 Z" id="Home-About-Blog-Cont-Copy-7" fill="#4A4A4A"></path>
            </g>
        </g>
    </g>
</svg>