<?xml version="1.0" encoding="UTF-8"?>
<svg width="178px" height="119px" viewBox="0 0 178 119" version="1.1" xmlns="http://www.w3.org/2000/svg" xmlns:xlink="http://www.w3.org/1999/xlink">
    <!-- Generator: Sketch 51.2 (57519) - http://www.bohemiancoding.com/sketch -->
    <title>Group 9</title>
    <desc>Created with Sketch.</desc>
    <defs></defs>
    <g id="Page-1" stroke="none" stroke-width="1" fill="none" fill-rule="evenodd">
        <g id="Desktop-HD" transform="translate(-752.000000, -1316.000000)">
            <g id="Group-9" transform="translate(752.000000, 1316.000000)">
                <rect id="Rectangle-2-Copy-14" stroke="#9B9B9B" stroke-width="1.61999991" fill="#F9F9F9" x="0.809999957" y="0.809999957" width="176.38" height="117.38" rx="6.47999966"></rect>
                <path d="M0.809999957,22.19 L177.19,22.19 L177.19,6.47999966 C177.19,3.34854529 174.651455,0.809999957 171.52,0.809999957 L6.47999966,0.809999957 C3.34854529,0.809999957 0.809999957,3.34854529 0.809999957,6.47999966 L0.809999957,22.19 Z" id="Rectangle-2-Copy-18" stroke="#9B9B9B" stroke-width="1.61999991" fill="#FFFFFF"></path>
                <g id="brand-copy-8" transform="translate(77.000000, 9.000000)" fill="#4A4A4A" fill-rule="nonzero">
                    <g id="#000000ff">
                        <path d="M0.0243116872,0 L1.17755844,0 C1.19314286,0.585742574 1.17880519,1.17148515 1.18566234,1.75722772 C1.92,1.31168317 2.92176623,1.35742574 3.63179221,1.82554455 C4.16415584,2.17069307 4.56062338,2.71960396 4.65537662,3.33148515 C4.71148052,3.72356436 4.6852987,4.13287129 4.53693506,4.50534653 C4.20342857,5.34118812 3.31885714,5.96613861 2.37007792,5.96079208 C1.8638961,5.98574257 1.36955844,5.80514851 0.982441557,5.49980198 C0.730597401,5.74455446 0.379636363,5.86811881 0.0211948041,5.81940594 C0.013090908,3.87980198 0.00623376512,1.93960396 0.0243116872,0 Z M2.08020779,2.58356436 C1.63885714,2.66257426 1.26296104,3.00237624 1.15324675,3.41643564 C0.967480518,4.04079208 1.44187013,4.74950495 2.12072727,4.83326733 C2.83137662,4.97108911 3.55698701,4.37108911 3.5145974,3.6819802 C3.52955844,2.99524752 2.78088312,2.4249505 2.08020779,2.58356436 Z" id="Shape"></path>
                        <path d="M6.72685714,1.46554455 C7.24737662,1.42455446 7.78098701,1.46673267 8.28093506,1.61762376 C8.28779221,1.97108911 8.28841558,2.32514851 8.28218182,2.67861386 C8.27096104,2.70534653 8.24851948,2.76 8.23667532,2.78732673 C7.776,2.5639604 7.24114286,2.51465347 6.73309091,2.56752475 C6.59594805,2.57524752 6.36841558,2.67267327 6.48997403,2.83128713 C6.94441558,3.06356436 7.43127273,3.23584158 7.8825974,3.47346535 C8.3918961,3.74792079 8.66431169,4.35980198 8.50348052,4.8980198 C8.40623377,5.28118812 8.12446753,5.6150495 7.7467013,5.77841584 C7.16197403,6.03386139 6.4881039,5.99762376 5.8747013,5.86633663 C5.66774026,5.83366337 5.46888312,5.67683168 5.46202597,5.46653465 C5.45142857,5.15881188 5.44706494,4.85049505 5.46950649,4.5439604 C6.00561039,4.77683168 6.61963636,4.95920792 7.20685714,4.79346535 C7.39075325,4.75425743 7.43937662,4.50356436 7.2854026,4.40257426 C6.77672727,4.10019802 6.16332468,3.96950495 5.69080519,3.61009901 C5.23948052,3.22693069 5.17215584,2.51881188 5.52374026,2.05425743 C5.78742857,1.6770297 6.26867532,1.50178218 6.72685714,1.46554455 Z" id="Shape"></path>
                        <path d="M9.87677922,1.92772277 C10.358026,1.52376238 11.0331429,1.41920792 11.654026,1.4560396 C12.1795325,1.48217822 12.7193766,1.65089109 13.0902857,2.01980198 C13.3633247,2.28475248 13.5017143,2.65782178 13.4954805,3.02673267 C13.4985974,3.95465347 13.4998442,4.88257426 13.4954805,5.81049505 C13.2155844,5.82950495 12.9338182,5.82534653 12.6539221,5.81821782 C12.4675325,5.8170297 12.3141818,5.64118812 12.3285195,5.46772277 C12.3235325,4.65564356 12.3297662,3.84356436 12.326026,3.03148515 C12.3397403,2.87584158 12.2275325,2.73683168 12.0797922,2.6809901 C11.7518961,2.54019802 11.3747532,2.54079208 11.0269091,2.6019802 C10.8211948,2.6429703 10.5624935,2.74574257 10.5437922,2.97623762 C10.5238442,3.92257426 10.5537662,4.86950495 10.5294545,5.81584158 C10.1442078,5.82475248 9.75896104,5.82891089 9.37371429,5.81346535 C9.36187013,4.88435644 9.37122078,3.95524752 9.36935065,3.02613861 C9.36374026,2.61267327 9.5414026,2.19564356 9.87677922,1.92772277 Z" id="Shape"></path>
                        <path d="M15.4404156,1.70792079 C16.2052987,1.31940594 17.2313766,1.34970297 17.8946494,1.91405941 C18.1365195,1.66039604 18.4924675,1.54752475 18.8477922,1.59267327 C18.8608831,3.00178218 18.8658701,4.41207921 18.8446753,5.82118812 C18.4918442,5.86158416 18.1377662,5.75049505 17.8958961,5.49920792 C17.5106494,5.8009901 17.0231688,5.98455446 16.5201039,5.96079208 C15.6492468,5.97029703 14.8232727,5.45108911 14.4361558,4.71623762 C14.1899221,4.26594059 14.1375584,3.73366337 14.2366753,3.23821782 C14.3650909,2.58772277 14.8413506,2.02811881 15.4404156,1.70792079 Z M16.3555325,2.57940594 C15.739013,2.65960396 15.2714805,3.26316832 15.3662338,3.84831683 C15.4260779,4.39009901 15.9478442,4.84752475 16.521974,4.84693069 C17.1821299,4.88792079 17.7905455,4.31465347 17.7556364,3.68435644 C17.7730909,3.00831683 17.0493506,2.43920792 16.3555325,2.57940594 Z" id="Shape"></path>
                        <path d="M19.3365195,1.60336634 C19.6232727,1.57841584 19.9118961,1.59326733 20.1992727,1.58910891 C20.3251948,1.59386139 20.4673247,1.58435644 20.5701818,1.66633663 C20.6630649,1.74356436 20.7067013,1.8570297 20.7590649,1.95980198 C21.0545455,2.61207921 21.3581299,3.26079208 21.6536104,3.91247525 C22.0145455,3.15029703 22.3561558,2.37980198 22.7152208,1.6170297 C23.1229091,1.5570297 23.553039,1.59980198 23.9688312,1.5980198 C23.9326753,1.77445545 23.8435325,1.93425743 23.7693506,2.09821782 C23.2282597,3.26613861 22.694026,4.4370297 22.1510649,5.60435644 C21.9877403,6.0029703 21.2777143,5.98039604 21.1449351,5.56871287 C20.6306494,4.45663366 20.1201039,3.34336634 19.6064416,2.23128713 C19.5154286,2.02217822 19.4013506,1.8219802 19.3365195,1.60336634 Z" id="Shape"></path>
                    </g>
                </g>
                <path d="M110.858157,10.6279006 L110.858157,11.5276808 L111.860374,11.5276808 C112.039408,11.5276808 112.184755,11.4939971 112.296421,11.4266286 C112.408087,11.3592601 112.463919,11.239752 112.463919,11.0681007 C112.463919,10.8779924 112.390091,10.7524858 112.242434,10.6915773 C112.11508,10.6491259 111.95266,10.6279006 111.755169,10.6279006 L110.858157,10.6279006 Z M110.858157,12.2032081 L110.858157,13.29125 L111.860374,13.29125 C112.039408,13.29125 112.178757,13.2672561 112.278425,13.2192676 C112.459305,13.1306734 112.549744,12.9608705 112.549744,12.7098536 C112.549744,12.4975967 112.462074,12.3517876 112.286731,12.272422 C112.188908,12.2281249 112.051405,12.2050538 111.874216,12.2032081 L110.858157,12.2032081 Z M112.026487,9.91915061 C112.526675,9.92653346 112.881046,10.0714197 113.089612,10.3538137 C113.21512,10.5273106 113.277874,10.7349501 113.277874,10.9767384 C113.277874,11.2259096 113.21512,11.4261664 113.089612,11.5775148 C113.019475,11.6624175 112.916116,11.7399363 112.779534,11.8100734 C112.988099,11.8857476 113.145444,12.0057171 113.251572,12.1699854 C113.357701,12.3342538 113.410764,12.5335878 113.410764,12.7679932 C113.410764,13.0097815 113.349857,13.2266495 113.22804,13.4186035 C113.15052,13.5459577 113.053621,13.6530074 112.937341,13.7397559 C112.806296,13.8394243 112.65172,13.9077147 112.473608,13.9446289 C112.295497,13.9815432 112.102162,14 111.893596,14 L110.044202,14 L110.044202,9.91915061 L112.026487,9.91915061 Z M114.867024,14 L114.077986,14 L114.077986,9.91915061 L114.867024,9.91915061 L114.867024,14 Z M116.990505,13.4435205 C117.221219,13.4435205 117.398405,13.3613876 117.522068,13.1971192 C117.64573,13.0328508 117.707561,12.7993717 117.707561,12.4966749 C117.707561,12.1939781 117.64573,11.9609604 117.522068,11.7976149 C117.398405,11.6342693 117.221219,11.5525978 116.990505,11.5525978 C116.759791,11.5525978 116.582144,11.6342693 116.457558,11.7976149 C116.332973,11.9609604 116.270681,12.1939781 116.270681,12.4966749 C116.270681,12.7993717 116.332973,13.0328508 116.457558,13.1971192 C116.582144,13.3613876 116.759791,13.4435205 116.990505,13.4435205 Z M118.535359,12.4966749 C118.535359,12.9396458 118.408006,13.3184726 118.153298,13.6331665 C117.89859,13.9478605 117.511919,14.1052051 116.993274,14.1052051 C116.474629,14.1052051 116.087958,13.9478605 115.833249,13.6331665 C115.578541,13.3184726 115.451189,12.9396458 115.451189,12.4966749 C115.451189,12.0610868 115.578541,11.6836443 115.833249,11.3643361 C116.087958,11.0450279 116.474629,10.8853761 116.993274,10.8853761 C117.511919,10.8853761 117.89859,11.0450279 118.153298,11.3643361 C118.408006,11.6836443 118.535359,12.0610868 118.535359,12.4966749 Z M120.395827,13.3521582 C120.580399,13.3521582 120.736359,13.2824836 120.863713,13.1431324 C120.991067,13.0037811 121.054743,12.7818375 121.054743,12.477295 C121.054743,12.1912096 120.994297,11.9734188 120.873403,11.8239161 C120.752509,11.6744134 120.59055,11.5996632 120.387522,11.5996632 C120.110665,11.5996632 119.919636,11.729784 119.814431,11.9900294 C119.759059,12.1284578 119.731374,12.2991836 119.731374,12.502212 C119.731374,12.6775547 119.760905,12.833515 119.819968,12.9700977 C119.927019,13.224806 120.11897,13.3521582 120.395827,13.3521582 Z M120.19926,10.9102931 C120.350608,10.9102931 120.482575,10.9333642 120.595163,10.979507 C120.787117,11.0588726 120.942155,11.2046817 121.06028,11.4169386 L121.06028,10.9822756 L121.82717,10.9822756 L121.82717,13.8449609 C121.82717,14.2344062 121.761648,14.5278701 121.630603,14.7253613 C121.405426,15.0649723 120.973536,15.2347753 120.334919,15.2347753 C119.949165,15.2347753 119.634476,15.1591023 119.390842,15.0077539 C119.147208,14.8564054 119.012473,14.6303091 118.986633,14.329458 L119.844885,14.329458 C119.867033,14.4217436 119.903024,14.4881882 119.952859,14.5287939 C120.037761,14.6007767 120.180802,14.6367675 120.381985,14.6367675 C120.666224,14.6367675 120.85633,14.5417148 120.952307,14.3516064 C121.015061,14.2297894 121.046438,14.0249184 121.046438,13.7369873 L121.046438,13.5431885 C120.970763,13.6723884 120.889553,13.7692868 120.802805,13.8338867 C120.645919,13.953858 120.441971,14.0138428 120.190954,14.0138428 C119.803355,14.0138428 119.493741,13.8777235 119.262104,13.605481 C119.030467,13.3332384 118.914651,12.9645629 118.914651,12.4994434 C118.914651,12.0509354 119.026315,11.6739543 119.249646,11.3684889 C119.472977,11.0630235 119.789512,10.9102931 120.19926,10.9102931 Z M130.326632,11.992798 C130.326632,11.280353 130.517661,10.7312619 130.899723,10.345508 C131.231951,10.0095884 131.654613,9.84163108 132.167721,9.84163108 C132.854326,9.84163108 133.356352,10.0668046 133.673815,10.5171584 C133.849158,10.770021 133.943287,11.0238026 133.956207,11.2785109 L133.103493,11.2785109 C133.048121,11.0828654 132.977062,10.9352106 132.890314,10.8355422 C132.735274,10.6583538 132.505486,10.5697609 132.200944,10.5697609 C131.890864,10.5697609 131.646311,10.6948061 131.467277,10.9449001 C131.288243,11.1949941 131.198727,11.5489041 131.198727,12.0066407 C131.198727,12.4643774 131.293318,12.8072133 131.482504,13.0351587 C131.671689,13.2631042 131.91209,13.3770752 132.203712,13.3770752 C132.502718,13.3770752 132.73066,13.2792539 132.887545,13.0836084 C132.974294,12.9784028 133.046276,12.8205968 133.103493,12.6101856 L133.947902,12.6101856 C133.874073,13.0550023 133.685352,13.4167564 133.381732,13.695459 C133.078113,13.9741616 132.689135,14.1135107 132.214787,14.1135107 C131.62785,14.1135107 131.166429,13.9252509 130.830509,13.5487256 C130.49459,13.1703546 130.326632,12.6517172 130.326632,11.992798 Z M135.888659,13.4435205 C136.119373,13.4435205 136.296558,13.3613876 136.420221,13.1971192 C136.543884,13.0328508 136.605714,12.7993717 136.605714,12.4966749 C136.605714,12.1939781 136.543884,11.9609604 136.420221,11.7976149 C136.296558,11.6342693 136.119373,11.5525978 135.888659,11.5525978 C135.657944,11.5525978 135.480297,11.6342693 135.355712,11.7976149 C135.231126,11.9609604 135.168834,12.1939781 135.168834,12.4966749 C135.168834,12.7993717 135.231126,13.0328508 135.355712,13.1971192 C135.480297,13.3613876 135.657944,13.4435205 135.888659,13.4435205 Z M137.433512,12.4966749 C137.433512,12.9396458 137.30616,13.3184726 137.051451,13.6331665 C136.796743,13.9478605 136.410072,14.1052051 135.891427,14.1052051 C135.372782,14.1052051 134.986111,13.9478605 134.731403,13.6331665 C134.476694,13.3184726 134.349342,12.9396458 134.349342,12.4966749 C134.349342,12.0610868 134.476694,11.6836443 134.731403,11.3643361 C134.986111,11.0450279 135.372782,10.8853761 135.891427,10.8853761 C136.410072,10.8853761 136.796743,11.0450279 137.051451,11.3643361 C137.30616,11.6836443 137.433512,12.0610868 137.433512,12.4966749 Z M139.670504,10.9102931 C139.982429,10.9102931 140.237595,10.9919647 140.436009,11.1553102 C140.634423,11.3186557 140.733629,11.58951 140.733629,11.967881 L140.733629,14 L139.925211,14 L139.925211,12.1644483 C139.925211,12.0057171 139.903986,11.8839019 139.861534,11.7989991 C139.784014,11.6439593 139.63636,11.5664406 139.418566,11.5664406 C139.150937,11.5664406 138.967292,11.6799502 138.867623,11.9069728 C138.815943,12.0269441 138.790104,12.1801359 138.790104,12.3665528 L138.790104,14 L138.003834,14 L138.003834,10.9878127 L138.765187,10.9878127 L138.765187,11.4280128 C138.866701,11.272973 138.962676,11.1613091 139.053116,11.0930177 C139.215539,10.9712007 139.421333,10.9102931 139.670504,10.9102931 Z M141.151681,11.5719777 L141.151681,11.0099611 L141.572501,11.0099611 L141.572501,10.1683205 L142.353233,10.1683205 L142.353233,11.0099611 L142.843268,11.0099611 L142.843268,11.5719777 L142.353233,11.5719777 L142.353233,13.1666651 C142.353233,13.2903278 142.368922,13.3673851 142.400299,13.3978394 C142.431676,13.4282936 142.527651,13.4435205 142.688228,13.4435205 C142.712223,13.4435205 142.737601,13.4430591 142.764364,13.4421363 C142.791127,13.4412134 142.817428,13.4398291 142.843268,13.4379834 L142.843268,14.0276855 L142.469513,14.0415283 C142.096679,14.0544483 141.841974,13.9898493 141.705392,13.8477295 C141.616797,13.7572896 141.572501,13.6179404 141.572501,13.4296778 L141.572501,11.5719777 L141.151681,11.5719777 Z M145.013814,12.5326661 C144.96398,12.5640432 144.913685,12.5894214 144.862928,12.6088013 C144.812171,12.6281813 144.742496,12.6461767 144.653902,12.6627882 L144.476715,12.6960108 C144.310601,12.7255422 144.191554,12.7615331 144.119571,12.8039844 C143.997754,12.8759672 143.936847,12.9876311 143.936847,13.1389795 C143.936847,13.2737165 143.974222,13.3710764 144.048973,13.431062 C144.123724,13.4910477 144.214624,13.5210401 144.321676,13.5210401 C144.491481,13.5210401 144.647903,13.4712066 144.790946,13.3715381 C144.933988,13.2718697 145.008277,13.0900697 145.013814,12.8261329 L145.013814,12.5326661 Z M144.534854,12.1644483 C144.680666,12.1459912 144.784947,12.1229202 144.847701,12.0952345 C144.960289,12.047246 145.016583,11.9724957 145.016583,11.8709816 C145.016583,11.7473188 144.973671,11.6619559 144.887845,11.6148903 C144.802019,11.5678246 144.676051,11.5442921 144.509937,11.5442921 C144.32352,11.5442921 144.191554,11.5904342 144.114034,11.6827198 C144.058663,11.7510112 144.021749,11.8432954 144.003292,11.9595753 L143.241939,11.9595753 C143.258551,11.6956385 143.332378,11.4787705 143.463424,11.308965 C143.671989,11.0431824 144.030052,10.9102931 144.537623,10.9102931 C144.868005,10.9102931 145.161469,10.9758149 145.418023,11.1068605 C145.674577,11.2379061 145.802852,11.4852278 145.802852,11.8488331 L145.802852,13.2331104 C145.802852,13.3290874 145.804698,13.4453656 145.808389,13.5819483 C145.813927,13.6853082 145.829615,13.7554442 145.855455,13.7923584 C145.881295,13.8292727 145.920054,13.8597264 145.971734,13.8837207 L145.971734,14 L145.113482,14 C145.089488,13.9390915 145.072877,13.8818753 145.063648,13.8283496 C145.05442,13.774824 145.047037,13.7139164 145.0415,13.645625 C144.932603,13.7637506 144.807096,13.8643404 144.664976,13.9473975 C144.495171,14.0452202 144.30322,14.0941309 144.089117,14.0941309 C143.815952,14.0941309 143.590317,14.0161507 143.412205,13.860188 C143.234094,13.7042253 143.14504,13.4832046 143.14504,13.1971192 C143.14504,12.826131 143.288081,12.5575839 143.574166,12.3914698 C143.731051,12.3010299 143.961762,12.236431 144.266305,12.197671 L144.534854,12.1644483 Z M148.305626,12.0647804 C148.29086,11.9521919 148.253023,11.8506793 148.192115,11.7602394 C148.103521,11.6384224 147.966017,11.5775148 147.7796,11.5775148 C147.513818,11.5775148 147.332018,11.7094812 147.234195,11.9734181 C147.182515,12.1136922 147.156675,12.3001063 147.156675,12.5326661 C147.156675,12.7541516 147.182515,12.9322601 147.234195,13.0669971 C147.328326,13.318014 147.505512,13.4435205 147.765757,13.4435205 C147.950329,13.4435205 148.081372,13.3936871 148.158892,13.2940186 C148.236412,13.1943501 148.283477,13.0651522 148.300089,12.906421 L149.105738,12.906421 C149.087281,13.1463635 149.000534,13.3733828 148.845494,13.5874854 C148.598168,13.9326336 148.2318,14.1052051 147.746378,14.1052051 C147.260955,14.1052051 146.903815,13.9612417 146.674947,13.6733106 C146.446079,13.3853795 146.331646,13.0116283 146.331646,12.552046 C146.331646,12.0334008 146.458076,11.6301188 146.710938,11.3421876 C146.963801,11.0542565 147.312635,10.9102931 147.757452,10.9102931 C148.135823,10.9102931 148.445436,10.9951946 148.686302,11.1650002 C148.927167,11.3348057 149.069746,11.6347294 149.114044,12.0647804 L148.305626,12.0647804 Z M149.346602,11.5719777 L149.346602,11.0099611 L149.767422,11.0099611 L149.767422,10.1683205 L150.548155,10.1683205 L150.548155,11.0099611 L151.038189,11.0099611 L151.038189,11.5719777 L150.548155,11.5719777 L150.548155,13.1666651 C150.548155,13.2903278 150.563843,13.3673851 150.59522,13.3978394 C150.626597,13.4282936 150.722573,13.4435205 150.88315,13.4435205 C150.907144,13.4435205 150.932522,13.4430591 150.959285,13.4421363 C150.986048,13.4412134 151.012349,13.4398291 151.038189,13.4379834 L151.038189,14.0276855 L150.664434,14.0415283 C150.2916,14.0544483 150.036896,13.9898493 149.900313,13.8477295 C149.811719,13.7572896 149.767422,13.6179404 149.767422,13.4296778 L149.767422,11.5719777 L149.346602,11.5719777 Z M153.183819,9.91915061 L154.050376,9.91915061 L154.050376,12.427461 C154.050376,12.7080093 154.083599,12.9128803 154.150044,13.0420801 C154.253404,13.2709484 154.478578,13.3853809 154.825572,13.3853809 C155.17072,13.3853809 155.39497,13.2709484 155.49833,13.0420801 C155.564776,12.9128803 155.597998,12.7080093 155.597998,12.427461 L155.597998,9.91915061 L156.464556,9.91915061 L156.464556,12.427461 C156.464556,12.8612034 156.397188,13.1989637 156.262451,13.440752 C156.011435,13.8837229 155.532479,14.1052051 154.825572,14.1052051 C154.118664,14.1052051 153.638786,13.8837229 153.385923,13.440752 C153.251186,13.1989637 153.183819,12.8612034 153.183819,12.427461 L153.183819,9.91915061 Z M157.829453,13.036543 C157.846065,13.1768172 157.882055,13.2764841 157.937427,13.3355469 C158.03525,13.4407525 158.216127,13.4933545 158.480064,13.4933545 C158.635103,13.4933545 158.758303,13.4702835 158.849666,13.4241407 C158.941028,13.3779978 158.986709,13.3087847 158.986709,13.2164991 C158.986709,13.1279049 158.949795,13.0605374 158.875967,13.0143946 C158.802138,12.9682518 158.528054,12.8888873 158.053706,12.7762989 C157.712249,12.6913961 157.471388,12.5852693 157.331113,12.4579151 C157.190839,12.3324067 157.120703,12.1515296 157.120703,11.9152784 C157.120703,11.6365759 157.23006,11.3970983 157.448777,11.1968385 C157.667494,10.9965787 157.975262,10.8964504 158.37209,10.8964504 C158.748615,10.8964504 159.05546,10.971662 159.292634,11.1220876 C159.529808,11.2725131 159.665928,11.5322932 159.700996,11.9014357 L158.911958,11.9014357 C158.900884,11.7999215 158.872276,11.7196342 158.826133,11.6605714 C158.739384,11.5535201 158.59173,11.4999952 158.383164,11.4999952 C158.211513,11.4999952 158.089236,11.5267577 158.016331,11.5802833 C157.943425,11.633809 157.906973,11.6965623 157.906973,11.768545 C157.906973,11.8589849 157.945732,11.9245067 158.023252,11.9651124 C158.100772,12.0075638 158.374856,12.0804683 158.845513,12.1838282 C159.159284,12.2576567 159.394609,12.3693206 159.551494,12.5188233 C159.706534,12.6701717 159.784053,12.8593544 159.784053,13.086377 C159.784053,13.3853824 159.67285,13.6294742 159.450442,13.8186597 C159.228034,14.0078452 158.884275,14.1024365 158.419155,14.1024365 C157.944807,14.1024365 157.594589,14.0023081 157.368489,13.8020484 C157.142389,13.6017886 157.029341,13.3466227 157.029341,13.036543 L157.829453,13.036543 Z" id="Blog-Contact-Us" fill="#4A4A4A"></path>
                <path d="M28.4235128,14 L28.4235128,9.91915061 L29.267922,9.91915061 L29.267922,11.4750783 L30.8626094,11.4750783 L30.8626094,9.91915061 L31.7097871,9.91915061 L31.7097871,14 L30.8626094,14 L30.8626094,12.1782911 L29.267922,12.1782911 L29.267922,14 L28.4235128,14 Z M33.8138885,13.4435205 C34.0446026,13.4435205 34.2217883,13.3613876 34.345451,13.1971192 C34.4691137,13.0328508 34.5309442,12.7993717 34.5309442,12.4966749 C34.5309442,12.1939781 34.4691137,11.9609604 34.345451,11.7976149 C34.2217883,11.6342693 34.0446026,11.5525978 33.8138885,11.5525978 C33.5831745,11.5525978 33.4055274,11.6342693 33.2809418,11.7976149 C33.1563562,11.9609604 33.0940643,12.1939781 33.0940643,12.4966749 C33.0940643,12.7993717 33.1563562,13.0328508 33.2809418,13.1971192 C33.4055274,13.3613876 33.5831745,13.4435205 33.8138885,13.4435205 Z M35.358742,12.4966749 C35.358742,12.9396458 35.2313897,13.3184726 34.9766814,13.6331665 C34.7219731,13.9478605 34.3353022,14.1052051 33.8166571,14.1052051 C33.2980119,14.1052051 32.911341,13.9478605 32.6566327,13.6331665 C32.4019244,13.3184726 32.2745722,12.9396458 32.2745722,12.4966749 C32.2745722,12.0610868 32.4019244,11.6836443 32.6566327,11.3643361 C32.911341,11.0450279 33.2980119,10.8853761 33.8166571,10.8853761 C34.3353022,10.8853761 34.7219731,11.0450279 34.9766814,11.3643361 C35.2313897,11.6836443 35.358742,12.0610868 35.358742,12.4966749 Z M39.2956265,10.9158302 C39.4285178,10.9158302 39.5595614,10.9416698 39.6887613,10.9933498 C39.8179611,11.0450297 39.9351621,11.1354683 40.0403677,11.2646681 C40.1252705,11.3698737 40.1824867,11.4990716 40.2120181,11.6522657 C40.2304752,11.7537799 40.2397036,11.9023575 40.2397036,12.098003 L40.2341665,14 L39.4257486,14 L39.4257486,12.0786231 C39.4257486,11.964189 39.4072917,11.8700591 39.3703775,11.7962306 C39.3002404,11.6559565 39.1710425,11.5858204 38.9827799,11.5858204 C38.7649858,11.5858204 38.6145625,11.676259 38.5315055,11.8571388 C38.4890541,11.9531158 38.4678287,12.0684711 38.4678287,12.2032081 L38.4678287,14 L37.6732536,14 L37.6732536,12.2032081 C37.6732536,12.024174 37.6547967,11.8940533 37.6178825,11.8128419 C37.5514368,11.6670306 37.4213161,11.5941261 37.2275163,11.5941261 C37.0023394,11.5941261 36.8509932,11.6670306 36.7734733,11.8128419 C36.731022,11.895899 36.7097966,12.0195598 36.7097966,12.1838282 L36.7097966,14 L35.9096843,14 L35.9096843,10.9878127 L36.6765739,10.9878127 L36.6765739,11.4280128 C36.7743967,11.2711273 36.8666809,11.1594634 36.9534294,11.0930177 C37.1066235,10.9748921 37.3050346,10.9158302 37.5486686,10.9158302 C37.7793826,10.9158302 37.9657968,10.9665866 38.1079166,11.0681007 C38.2223508,11.1622321 38.309098,11.2831244 38.3681607,11.4307814 C38.4715206,11.253593 38.5997957,11.1234722 38.7529898,11.0404152 C38.9154125,10.9573581 39.0962896,10.9158302 39.2956265,10.9158302 Z M42.1555434,11.5525978 C41.9728178,11.5525978 41.8311616,11.609814 41.7305702,11.7242482 C41.6299789,11.8386823 41.5667642,11.9937198 41.5409243,12.1893653 L42.7673939,12.1893653 C42.7544739,11.9807998 42.6912592,11.8225324 42.5777479,11.7145582 C42.4642366,11.6065841 42.3235032,11.5525978 42.1555434,11.5525978 Z M42.1555434,10.9019875 C42.4065602,10.9019875 42.6326566,10.9490524 42.8338392,11.0431838 C43.0350219,11.1373151 43.2011335,11.2858927 43.332179,11.488921 C43.4503046,11.6679551 43.5269005,11.8755946 43.5619691,12.1118458 C43.5822719,12.2502742 43.5905775,12.4496082 43.5868861,12.7098536 L41.5215444,12.7098536 C41.5326186,13.0125504 41.6276714,13.2248041 41.8067055,13.3466211 C41.9156025,13.4222953 42.0466461,13.4601319 42.1998402,13.4601319 C42.3622629,13.4601319 42.4942294,13.4139898 42.5957435,13.3217041 C42.6511149,13.2718699 42.7000255,13.2026567 42.7424769,13.1140625 L43.5481263,13.1140625 C43.5278235,13.2930966 43.4346164,13.4748966 43.2685023,13.6594678 C43.0101026,13.952936 42.6483484,14.099668 42.1832289,14.099668 C41.7993208,14.099668 41.4606376,13.9760071 41.1671694,13.7286817 C40.8737011,13.4813562 40.7269692,13.078997 40.7269692,12.5215919 C40.7269692,11.9992553 40.8593971,11.5987418 41.1242568,11.3200392 C41.3891165,11.0413367 41.7328753,10.9019875 42.1555434,10.9019875 Z M53.1743904,12.4579151 L54.2098298,12.4579151 L53.7004158,10.8521535 L53.1743904,12.4579151 Z M53.226993,9.91915061 L54.19045,9.91915061 L55.6356354,14 L54.7109382,14 L54.4479255,13.161128 L52.9446004,13.161128 L52.6622078,14 L51.7707333,14 L53.226993,9.91915061 Z M57.720357,10.9158302 C58.1171851,10.9158302 58.4277216,11.0588708 58.6519756,11.3449562 C58.8762296,11.6310416 58.988355,12.0001785 58.988355,12.452378 C58.988355,12.9211889 58.8776139,13.3097055 58.6561284,13.6179395 C58.434643,13.9261734 58.1254908,14.0802881 57.7286627,14.0802881 C57.4794915,14.0802881 57.2792347,14.0304546 57.1278863,13.9307861 C57.0374464,13.8717233 56.9396251,13.768365 56.8344195,13.620708 L56.8344195,14 L56.0619928,14 L56.0619928,9.92468772 L56.8482623,9.92468772 L56.8482623,11.3754103 C56.9479308,11.2351362 57.057749,11.1280865 57.1777203,11.054258 C57.3198401,10.9619724 57.5007172,10.9158302 57.720357,10.9158302 Z M57.5182525,13.4296778 C57.7212809,13.4296778 57.8790869,13.3475448 57.9916753,13.1832764 C58.1042638,13.019008 58.1605572,12.8030629 58.1605572,12.5354346 C58.1605572,12.321332 58.1328719,12.1441463 58.0775005,12.0038722 C57.9722949,11.7380896 57.778498,11.6052003 57.4961041,11.6052003 C57.2100187,11.6052003 57.0134533,11.7353211 56.906402,11.9955665 C56.8510306,12.1339949 56.8233453,12.3130263 56.8233453,12.5326661 C56.8233453,12.7910658 56.8805615,13.0051652 56.9949957,13.1749707 C57.1094299,13.3447763 57.2838471,13.4296778 57.5182525,13.4296778 Z M60.9069633,13.4435205 C61.1376773,13.4435205 61.314863,13.3613876 61.4385257,13.1971192 C61.5621885,13.0328508 61.6240189,12.7993717 61.6240189,12.4966749 C61.6240189,12.1939781 61.5621885,11.9609604 61.4385257,11.7976149 C61.314863,11.6342693 61.1376773,11.5525978 60.9069633,11.5525978 C60.6762492,11.5525978 60.4986021,11.6342693 60.3740165,11.7976149 C60.2494309,11.9609604 60.1871391,12.1939781 60.1871391,12.4966749 C60.1871391,12.7993717 60.2494309,13.0328508 60.3740165,13.1971192 C60.4986021,13.3613876 60.6762492,13.4435205 60.9069633,13.4435205 Z M62.4518167,12.4966749 C62.4518167,12.9396458 62.3244645,13.3184726 62.0697562,13.6331665 C61.8150479,13.9478605 61.428377,14.1052051 60.9097318,14.1052051 C60.3910867,14.1052051 60.0044158,13.9478605 59.7497075,13.6331665 C59.4949992,13.3184726 59.3676469,12.9396458 59.3676469,12.4966749 C59.3676469,12.0610868 59.4949992,11.6836443 59.7497075,11.3643361 C60.0044158,11.0450279 60.3910867,10.8853761 60.9097318,10.8853761 C61.428377,10.8853761 61.8150479,11.0450279 62.0697562,11.3643361 C62.3244645,11.6836443 62.4518167,12.0610868 62.4518167,12.4966749 Z M63.8028713,10.9822756 L63.8028713,12.8012159 C63.8028713,12.9728671 63.8231738,13.102065 63.8637795,13.1888135 C63.9357623,13.3420076 64.0769572,13.4186035 64.2873684,13.4186035 C64.5568424,13.4186035 64.7414108,13.3097082 64.8410793,13.0919141 C64.8927592,12.9737885 64.9185988,12.8178282 64.9185988,12.6240284 L64.9185988,10.9822756 L65.7187111,10.9822756 L65.7187111,14 L64.9518215,14 L64.9518215,13.5736426 C64.9444386,13.5828712 64.9259818,13.6105564 64.8964504,13.6566992 C64.866919,13.702842 64.831851,13.7434471 64.7912453,13.7785156 C64.6675826,13.8892584 64.5480745,13.9649314 64.4327175,14.0055371 C64.3173605,14.0461428 64.1821641,14.0664453 64.0271242,14.0664453 C63.5804619,14.0664453 63.2796153,13.9058708 63.1245755,13.5847168 C63.037827,13.4075284 62.9944534,13.1463641 62.9944534,12.8012159 L62.9944534,10.9822756 L63.8028713,10.9822756 Z M66.1699854,11.5719777 L66.1699854,11.0099611 L66.5908057,11.0099611 L66.5908057,10.1683205 L67.3715381,10.1683205 L67.3715381,11.0099611 L67.8615723,11.0099611 L67.8615723,11.5719777 L67.3715381,11.5719777 L67.3715381,13.1666651 C67.3715381,13.2903278 67.3872264,13.3673851 67.4186035,13.3978394 C67.4499807,13.4282936 67.5459563,13.4435205 67.7065332,13.4435205 C67.7305275,13.4435205 67.7559056,13.4430591 67.7826685,13.4421363 C67.8094313,13.4412134 67.8357323,13.4398291 67.8615723,13.4379834 L67.8615723,14.0276855 L67.4878174,14.0415283 C67.1149835,14.0544483 66.8602791,13.9898493 66.7236964,13.8477295 C66.6351022,13.7572896 66.5908057,13.6179404 66.5908057,13.4296778 L66.5908057,11.5719777 L66.1699854,11.5719777 Z" id="Home-About" fill="#4A4A4A"></path>
            </g>
        </g>
    </g>
</svg>