<?xml version="1.0" encoding="UTF-8"?>
<svg width="665px" height="67px" viewBox="0 0 665 67" version="1.1" xmlns="http://www.w3.org/2000/svg" xmlns:xlink="http://www.w3.org/1999/xlink">
    <!-- Generator: Sketch 49.3 (51167) - http://www.bohemiancoding.com/sketch -->
    <title>Group 2</title>
    <desc>Created with Sketch.</desc>
    <defs></defs>
    <g id="Page-1" stroke="none" stroke-width="1" fill="none" fill-rule="evenodd">
        <g id="Artboard" transform="translate(-143.000000, -257.000000)">
            <g id="Group-2" transform="translate(143.000000, 257.000000)">
                <rect id="Rectangle-4" fill="#FFFFFF" x="0" y="0" width="665" height="67"></rect>
                <path d="M218,28.3076172 L220.105469,28.3076172 L220.105469,36.5722656 L225.095703,36.5722656 L225.095703,38.3837891 L218,38.3837891 L218,28.3076172 Z M231.008789,36.8798828 C231.842778,36.8798828 232.504718,36.5722687 232.994629,35.9570312 C233.48454,35.3417938 233.729492,34.4668025 233.729492,33.3320312 C233.729492,32.2018173 233.48454,31.3279653 232.994629,30.7104492 C232.504718,30.0929331 231.842778,29.7841797 231.008789,29.7841797 C230.174801,29.7841797 229.509443,30.0917938 229.012695,30.7070312 C228.515948,31.3222687 228.267578,32.19726 228.267578,33.3320312 C228.267578,34.4668025 228.515948,35.3417938 229.012695,35.9570312 C229.509443,36.5722687 230.174801,36.8798828 231.008789,36.8798828 Z M235.834961,33.3320312 C235.834961,35.1412851 235.326828,36.5266879 234.310547,37.4882812 C233.549475,38.2721393 232.4489,38.6640625 231.008789,38.6640625 C229.568678,38.6640625 228.468103,38.2721393 227.707031,37.4882812 C226.686193,36.5266879 226.175781,35.1412851 226.175781,33.3320312 C226.175781,31.4863189 226.686193,30.1009161 227.707031,29.1757812 C228.468103,28.3919232 229.568678,28 231.008789,28 C232.4489,28 233.549475,28.3919232 234.310547,29.1757812 C235.326828,30.1009161 235.834961,31.4863189 235.834961,33.3320312 Z M239.546875,30.0576172 L239.546875,32.7646484 L241.932617,32.7646484 C242.406578,32.7646484 242.762043,32.7099615 242.999023,32.6005859 C243.418296,32.4091787 243.62793,32.0309273 243.62793,31.4658203 C243.62793,30.8551402 243.425132,30.444988 243.019531,30.2353516 C242.791666,30.1168614 242.449872,30.0576172 241.994141,30.0576172 L239.546875,30.0576172 Z M242.431641,28.3076172 C243.138024,28.3212891 243.681476,28.4078768 244.062012,28.5673828 C244.442547,28.7268888 244.764973,28.961587 245.029297,29.2714844 C245.248048,29.526694 245.421223,29.8092432 245.548828,30.1191406 C245.676433,30.429038 245.740234,30.7822246 245.740234,31.1787109 C245.740234,31.657229 245.619467,32.1277646 245.37793,32.590332 C245.136392,33.0528994 244.737633,33.3798819 244.181641,33.5712891 C244.646487,33.758139 244.975748,34.0235985 245.169434,34.3676758 C245.363119,34.711753 245.459961,35.2369756 245.459961,35.9433594 L245.459961,36.6201172 C245.459961,37.0804059 245.47819,37.3925773 245.514648,37.5566406 C245.569336,37.8164075 245.696939,38.0078119 245.897461,38.1308594 L245.897461,38.3837891 L243.580078,38.3837891 C243.516276,38.1604807 243.470703,37.9804694 243.443359,37.84375 C243.388672,37.5611965 243.35905,37.2718114 243.354492,36.9755859 L243.34082,36.0390625 C243.331706,35.3964812 243.214357,34.9681 242.98877,34.7539062 C242.763182,34.5397125 242.340498,34.4326172 241.720703,34.4326172 L239.546875,34.4326172 L239.546875,38.3837891 L237.489258,38.3837891 L237.489258,28.3076172 L242.431641,28.3076172 Z M255.00293,30.0917969 L249.670898,30.0917969 L249.670898,32.2314453 L254.56543,32.2314453 L254.56543,33.9814453 L249.670898,33.9814453 L249.670898,36.5722656 L255.249023,36.5722656 L255.249023,38.3837891 L247.613281,38.3837891 L247.613281,28.3076172 L255.00293,28.3076172 L255.00293,30.0917969 Z M263.568359,28.3076172 L266.59668,28.3076172 L266.59668,38.3837891 L264.634766,38.3837891 L264.634766,31.5683594 C264.634766,31.3723949 264.637044,31.0978208 264.641602,30.7446289 C264.646159,30.391437 264.648438,30.1191416 264.648438,29.9277344 L262.741211,38.3837891 L260.697266,38.3837891 L258.803711,29.9277344 C258.803711,30.1191416 258.80599,30.391437 258.810547,30.7446289 C258.815104,31.0978208 258.817383,31.3723949 258.817383,31.5683594 L258.817383,38.3837891 L256.855469,38.3837891 L256.855469,28.3076172 L259.917969,28.3076172 L261.75,36.2304688 L263.568359,28.3076172 Z" id="LOREM-IPSUM-DOLOR-SI" fill="#797979"></path>
                <path d="M313.091797,38.3701172 L311,38.3701172 L311,28.2939453 L313.091797,28.2939453 L313.091797,38.3701172 Z M320.727539,31.5 C320.727539,30.9759088 320.589682,30.6022147 320.313965,30.3789062 C320.038247,30.1555978 319.652021,30.0439453 319.155273,30.0439453 L317.193359,30.0439453 L317.193359,33.0107422 L319.155273,33.0107422 C319.652021,33.0107422 320.038247,32.8899752 320.313965,32.6484375 C320.589682,32.4068998 320.727539,32.0240912 320.727539,31.5 Z M322.8125,31.4863281 C322.8125,32.6757872 322.511722,33.5165991 321.910156,34.0087891 C321.308591,34.500979 320.44955,34.7470703 319.333008,34.7470703 L317.193359,34.7470703 L317.193359,38.3701172 L315.101562,38.3701172 L315.101562,28.2939453 L319.490234,28.2939453 C320.501958,28.2939453 321.308591,28.5537083 321.910156,29.0732422 C322.511722,29.592776 322.8125,30.39713 322.8125,31.4863281 Z M325.916016,35.2597656 C325.979818,35.7200544 326.105142,36.0641265 326.291992,36.2919922 C326.633791,36.7067078 327.219397,36.9140625 328.048828,36.9140625 C328.545575,36.9140625 328.948892,36.8593755 329.258789,36.75 C329.846683,36.5403635 330.140625,36.150719 330.140625,35.5810547 C330.140625,35.2483707 329.994793,34.9908863 329.703125,34.8085938 C329.411457,34.6308585 328.953454,34.4736335 328.329102,34.3369141 L327.262695,34.0976562 C326.214513,33.8606759 325.489911,33.6031915 325.088867,33.3251953 C324.409827,32.8603492 324.070312,32.1334685 324.070312,31.1445312 C324.070312,30.242183 324.398434,29.492516 325.054688,28.8955078 C325.710941,28.2984996 326.674798,28 327.946289,28 C329.008143,28 329.913896,28.2814099 330.663574,28.8442383 C331.413252,29.4070666 331.806315,30.223953 331.842773,31.2949219 L329.819336,31.2949219 C329.782877,30.6887991 329.518557,30.2581393 329.026367,30.0029297 C328.698241,29.8343091 328.290367,29.75 327.802734,29.75 C327.260414,29.75 326.827476,29.8593739 326.503906,30.078125 C326.180337,30.2968761 326.018555,30.6022116 326.018555,30.9941406 C326.018555,31.3541685 326.178058,31.623046 326.49707,31.8007812 C326.702149,31.9192714 327.139645,32.0582674 327.80957,32.2177734 L329.545898,32.6347656 C330.30697,32.8170582 330.881183,33.0608709 331.268555,33.3662109 C331.87012,33.8401716 332.170898,34.5260372 332.170898,35.4238281 C332.170898,36.3444056 331.818851,37.1088837 331.114746,37.7172852 C330.410641,38.3256866 329.416022,38.6298828 328.130859,38.6298828 C326.818353,38.6298828 325.786137,38.3302439 325.03418,37.730957 C324.282223,37.1316702 323.90625,36.3079479 323.90625,35.2597656 L325.916016,35.2597656 Z M333.729492,28.2939453 L335.869141,28.2939453 L335.869141,34.4873047 C335.869141,35.1800165 335.951171,35.6858708 336.115234,36.0048828 C336.370444,36.5699898 336.926428,36.8525391 337.783203,36.8525391 C338.635421,36.8525391 339.189126,36.5699898 339.444336,36.0048828 C339.608399,35.6858708 339.69043,35.1800165 339.69043,34.4873047 L339.69043,28.2939453 L341.830078,28.2939453 L341.830078,34.4873047 C341.830078,35.5582736 341.663739,36.3922496 341.331055,36.9892578 C340.71126,38.0830133 339.528655,38.6298828 337.783203,38.6298828 C336.037752,38.6298828 334.852868,38.0830133 334.228516,36.9892578 C333.895832,36.3922496 333.729492,35.5582736 333.729492,34.4873047 L333.729492,28.2939453 Z M350.518555,28.2939453 L353.546875,28.2939453 L353.546875,38.3701172 L351.584961,38.3701172 L351.584961,31.5546875 C351.584961,31.358723 351.58724,31.0841489 351.591797,30.730957 C351.596354,30.3777652 351.598633,30.1054697 351.598633,29.9140625 L349.691406,38.3701172 L347.647461,38.3701172 L345.753906,29.9140625 C345.753906,30.1054697 345.756185,30.3777652 345.760742,30.730957 C345.7653,31.0841489 345.767578,31.358723 345.767578,31.5546875 L345.767578,38.3701172 L343.805664,38.3701172 L343.805664,28.2939453 L346.868164,28.2939453 L348.700195,36.2167969 L350.518555,28.2939453 Z" id="LOREM-IPSUM-DOLOR-SI-Copy" fill="#797979"></path>
                <path d="M415.043945,30.0576172 L415.043945,36.6337891 L416.985352,36.6337891 C417.978846,36.6337891 418.671548,36.1438851 419.063477,35.1640625 C419.27767,34.6262994 419.384766,33.9860063 419.384766,33.2431641 C419.384766,32.2177683 419.224123,31.430504 418.902832,30.8813477 C418.581541,30.3321913 417.942388,30.0576172 416.985352,30.0576172 L415.043945,30.0576172 Z M417.34082,28.3076172 C417.965172,28.3167318 418.484698,28.3896478 418.899414,28.5263672 C419.605798,28.7587902 420.177732,29.1848927 420.615234,29.8046875 C420.966148,30.3059921 421.205403,30.8483044 421.333008,31.4316406 C421.460613,32.0149769 421.524414,32.5709609 421.524414,33.0996094 C421.524414,34.4394598 421.255537,35.5742141 420.717773,36.5039062 C419.988603,37.7571677 418.862963,38.3837891 417.34082,38.3837891 L413,38.3837891 L413,28.3076172 L417.34082,28.3076172 Z M427.567383,36.8798828 C428.401371,36.8798828 429.063311,36.5722687 429.553223,35.9570312 C430.043134,35.3417938 430.288086,34.4668025 430.288086,33.3320312 C430.288086,32.2018173 430.043134,31.3279653 429.553223,30.7104492 C429.063311,30.0929331 428.401371,29.7841797 427.567383,29.7841797 C426.733394,29.7841797 426.068036,30.0917938 425.571289,30.7070312 C425.074542,31.3222687 424.826172,32.19726 424.826172,33.3320312 C424.826172,34.4668025 425.074542,35.3417938 425.571289,35.9570312 C426.068036,36.5722687 426.733394,36.8798828 427.567383,36.8798828 Z M432.393555,33.3320312 C432.393555,35.1412851 431.885422,36.5266879 430.869141,37.4882812 C430.108069,38.2721393 429.007494,38.6640625 427.567383,38.6640625 C426.127271,38.6640625 425.026697,38.2721393 424.265625,37.4882812 C423.244787,36.5266879 422.734375,35.1412851 422.734375,33.3320312 C422.734375,31.4863189 423.244787,30.1009161 424.265625,29.1757812 C425.026697,28.3919232 426.127271,28 427.567383,28 C429.007494,28 430.108069,28.3919232 430.869141,29.1757812 C431.885422,30.1009161 432.393555,31.4863189 432.393555,33.3320312 Z M434,28.3076172 L436.105469,28.3076172 L436.105469,36.5722656 L441.095703,36.5722656 L441.095703,38.3837891 L434,38.3837891 L434,28.3076172 Z M447.008789,36.8798828 C447.842778,36.8798828 448.504718,36.5722687 448.994629,35.9570312 C449.48454,35.3417938 449.729492,34.4668025 449.729492,33.3320312 C449.729492,32.2018173 449.48454,31.3279653 448.994629,30.7104492 C448.504718,30.0929331 447.842778,29.7841797 447.008789,29.7841797 C446.174801,29.7841797 445.509443,30.0917938 445.012695,30.7070312 C444.515948,31.3222687 444.267578,32.19726 444.267578,33.3320312 C444.267578,34.4668025 444.515948,35.3417938 445.012695,35.9570312 C445.509443,36.5722687 446.174801,36.8798828 447.008789,36.8798828 Z M451.834961,33.3320312 C451.834961,35.1412851 451.326828,36.5266879 450.310547,37.4882812 C449.549475,38.2721393 448.4489,38.6640625 447.008789,38.6640625 C445.568678,38.6640625 444.468103,38.2721393 443.707031,37.4882812 C442.686193,36.5266879 442.175781,35.1412851 442.175781,33.3320312 C442.175781,31.4863189 442.686193,30.1009161 443.707031,29.1757812 C444.468103,28.3919232 445.568678,28 447.008789,28 C448.4489,28 449.549475,28.3919232 450.310547,29.1757812 C451.326828,30.1009161 451.834961,31.4863189 451.834961,33.3320312 Z M455.546875,30.0576172 L455.546875,32.7646484 L457.932617,32.7646484 C458.406578,32.7646484 458.762043,32.7099615 458.999023,32.6005859 C459.418296,32.4091787 459.62793,32.0309273 459.62793,31.4658203 C459.62793,30.8551402 459.425132,30.444988 459.019531,30.2353516 C458.791666,30.1168614 458.449872,30.0576172 457.994141,30.0576172 L455.546875,30.0576172 Z M458.431641,28.3076172 C459.138024,28.3212891 459.681476,28.4078768 460.062012,28.5673828 C460.442547,28.7268888 460.764973,28.961587 461.029297,29.2714844 C461.248048,29.526694 461.421223,29.8092432 461.548828,30.1191406 C461.676433,30.429038 461.740234,30.7822246 461.740234,31.1787109 C461.740234,31.657229 461.619467,32.1277646 461.37793,32.590332 C461.136392,33.0528994 460.737633,33.3798819 460.181641,33.5712891 C460.646487,33.758139 460.975748,34.0235985 461.169434,34.3676758 C461.363119,34.711753 461.459961,35.2369756 461.459961,35.9433594 L461.459961,36.6201172 C461.459961,37.0804059 461.47819,37.3925773 461.514648,37.5566406 C461.569336,37.8164075 461.696939,38.0078119 461.897461,38.1308594 L461.897461,38.3837891 L459.580078,38.3837891 C459.516276,38.1604807 459.470703,37.9804694 459.443359,37.84375 C459.388672,37.5611965 459.35905,37.2718114 459.354492,36.9755859 L459.34082,36.0390625 C459.331706,35.3964812 459.214357,34.9681 458.98877,34.7539062 C458.763182,34.5397125 458.340498,34.4326172 457.720703,34.4326172 L455.546875,34.4326172 L455.546875,38.3837891 L453.489258,38.3837891 L453.489258,28.3076172 L458.431641,28.3076172 Z" id="LOREM-IPSUM-DOLOR-SI-Copy-2" fill="#797979"></path>
                <path d="M517.009766,35.2597656 C517.073568,35.7200544 517.198892,36.0641265 517.385742,36.2919922 C517.727541,36.7067078 518.313147,36.9140625 519.142578,36.9140625 C519.639325,36.9140625 520.042642,36.8593755 520.352539,36.75 C520.940433,36.5403635 521.234375,36.150719 521.234375,35.5810547 C521.234375,35.2483707 521.088543,34.9908863 520.796875,34.8085938 C520.505207,34.6308585 520.047204,34.4736335 519.422852,34.3369141 L518.356445,34.0976562 C517.308263,33.8606759 516.583661,33.6031915 516.182617,33.3251953 C515.503577,32.8603492 515.164062,32.1334685 515.164062,31.1445312 C515.164062,30.242183 515.492184,29.492516 516.148438,28.8955078 C516.804691,28.2984996 517.768548,28 519.040039,28 C520.101893,28 521.007646,28.2814099 521.757324,28.8442383 C522.507002,29.4070666 522.900065,30.223953 522.936523,31.2949219 L520.913086,31.2949219 C520.876627,30.6887991 520.612307,30.2581393 520.120117,30.0029297 C519.791991,29.8343091 519.384117,29.75 518.896484,29.75 C518.354164,29.75 517.921226,29.8593739 517.597656,30.078125 C517.274087,30.2968761 517.112305,30.6022116 517.112305,30.9941406 C517.112305,31.3541685 517.271808,31.623046 517.59082,31.8007812 C517.795899,31.9192714 518.233395,32.0582674 518.90332,32.2177734 L520.639648,32.6347656 C521.40072,32.8170582 521.974933,33.0608709 522.362305,33.3662109 C522.96387,33.8401716 523.264648,34.5260372 523.264648,35.4238281 C523.264648,36.3444056 522.912601,37.1088837 522.208496,37.7172852 C521.504391,38.3256866 520.509772,38.6298828 519.224609,38.6298828 C517.912103,38.6298828 516.879887,38.3302439 516.12793,37.730957 C515.375973,37.1316702 515,36.3079479 515,35.2597656 L517.009766,35.2597656 Z M526.750977,38.3701172 L524.65918,38.3701172 L524.65918,28.2939453 L526.750977,28.2939453 L526.750977,38.3701172 Z M536.03418,28.2939453 L536.03418,30.078125 L533.019531,30.078125 L533.019531,38.3701172 L530.900391,38.3701172 L530.900391,30.078125 L527.87207,30.078125 L527.87207,28.2939453 L536.03418,28.2939453 Z M543.90918,34.5625 L546.46582,34.5625 L545.208008,30.5976562 L543.90918,34.5625 Z M544.039062,28.2939453 L546.417969,28.2939453 L549.986328,38.3701172 L547.703125,38.3701172 L547.053711,36.2988281 L543.341797,36.2988281 L542.644531,38.3701172 L540.443359,38.3701172 L544.039062,28.2939453 Z M557.943359,28.2939453 L560.97168,28.2939453 L560.97168,38.3701172 L559.009766,38.3701172 L559.009766,31.5546875 C559.009766,31.358723 559.012044,31.0841489 559.016602,30.730957 C559.021159,30.3777652 559.023438,30.1054697 559.023438,29.9140625 L557.116211,38.3701172 L555.072266,38.3701172 L553.178711,29.9140625 C553.178711,30.1054697 553.18099,30.3777652 553.185547,30.730957 C553.190104,31.0841489 553.192383,31.358723 553.192383,31.5546875 L553.192383,38.3701172 L551.230469,38.3701172 L551.230469,28.2939453 L554.292969,28.2939453 L556.125,36.2167969 L557.943359,28.2939453 Z M570.37793,30.078125 L565.045898,30.078125 L565.045898,32.2177734 L569.94043,32.2177734 L569.94043,33.9677734 L565.045898,33.9677734 L565.045898,36.5585938 L570.624023,36.5585938 L570.624023,38.3701172 L562.988281,38.3701172 L562.988281,28.2939453 L570.37793,28.2939453 L570.37793,30.078125 Z M579.585938,28.2939453 L579.585938,30.078125 L576.571289,30.078125 L576.571289,38.3701172 L574.452148,38.3701172 L574.452148,30.078125 L571.423828,30.078125 L571.423828,28.2939453 L579.585938,28.2939453 Z" id="LOREM-IPSUM-DOLOR-SI-Copy-3" fill="#797979"></path>
            </g>
        </g>
    </g>
</svg>