<?xml version="1.0" encoding="UTF-8"?>
<svg width="665px" height="172px" viewBox="0 0 665 172" version="1.1" xmlns="http://www.w3.org/2000/svg" xmlns:xlink="http://www.w3.org/1999/xlink">
    <!-- Generator: Sketch 49.3 (51167) - http://www.bohemiancoding.com/sketch -->
    <title>Group 2</title>
    <desc>Created with Sketch.</desc>
    <defs></defs>
    <g id="Page-1" stroke="none" stroke-width="1" fill="none" fill-rule="evenodd">
        <g id="Artboard" transform="translate(-143.000000, -257.000000)">
            <g id="Group-2" transform="translate(143.000000, 257.000000)">
                <rect id="Rectangle-4" fill="#FFFFFF" x="0" y="0" width="665" height="172"></rect>
                <path d="M218,28.3076172 L220.105469,28.3076172 L220.105469,36.5722656 L225.095703,36.5722656 L225.095703,38.3837891 L218,38.3837891 L218,28.3076172 Z M231.008789,36.8798828 C231.842778,36.8798828 232.504718,36.5722687 232.994629,35.9570312 C233.48454,35.3417938 233.729492,34.4668025 233.729492,33.3320312 C233.729492,32.2018173 233.48454,31.3279653 232.994629,30.7104492 C232.504718,30.0929331 231.842778,29.7841797 231.008789,29.7841797 C230.174801,29.7841797 229.509443,30.0917938 229.012695,30.7070312 C228.515948,31.3222687 228.267578,32.19726 228.267578,33.3320312 C228.267578,34.4668025 228.515948,35.3417938 229.012695,35.9570312 C229.509443,36.5722687 230.174801,36.8798828 231.008789,36.8798828 Z M235.834961,33.3320312 C235.834961,35.1412851 235.326828,36.5266879 234.310547,37.4882812 C233.549475,38.2721393 232.4489,38.6640625 231.008789,38.6640625 C229.568678,38.6640625 228.468103,38.2721393 227.707031,37.4882812 C226.686193,36.5266879 226.175781,35.1412851 226.175781,33.3320312 C226.175781,31.4863189 226.686193,30.1009161 227.707031,29.1757812 C228.468103,28.3919232 229.568678,28 231.008789,28 C232.4489,28 233.549475,28.3919232 234.310547,29.1757812 C235.326828,30.1009161 235.834961,31.4863189 235.834961,33.3320312 Z M239.546875,30.0576172 L239.546875,32.7646484 L241.932617,32.7646484 C242.406578,32.7646484 242.762043,32.7099615 242.999023,32.6005859 C243.418296,32.4091787 243.62793,32.0309273 243.62793,31.4658203 C243.62793,30.8551402 243.425132,30.444988 243.019531,30.2353516 C242.791666,30.1168614 242.449872,30.0576172 241.994141,30.0576172 L239.546875,30.0576172 Z M242.431641,28.3076172 C243.138024,28.3212891 243.681476,28.4078768 244.062012,28.5673828 C244.442547,28.7268888 244.764973,28.961587 245.029297,29.2714844 C245.248048,29.526694 245.421223,29.8092432 245.548828,30.1191406 C245.676433,30.429038 245.740234,30.7822246 245.740234,31.1787109 C245.740234,31.657229 245.619467,32.1277646 245.37793,32.590332 C245.136392,33.0528994 244.737633,33.3798819 244.181641,33.5712891 C244.646487,33.758139 244.975748,34.0235985 245.169434,34.3676758 C245.363119,34.711753 245.459961,35.2369756 245.459961,35.9433594 L245.459961,36.6201172 C245.459961,37.0804059 245.47819,37.3925773 245.514648,37.5566406 C245.569336,37.8164075 245.696939,38.0078119 245.897461,38.1308594 L245.897461,38.3837891 L243.580078,38.3837891 C243.516276,38.1604807 243.470703,37.9804694 243.443359,37.84375 C243.388672,37.5611965 243.35905,37.2718114 243.354492,36.9755859 L243.34082,36.0390625 C243.331706,35.3964812 243.214357,34.9681 242.98877,34.7539062 C242.763182,34.5397125 242.340498,34.4326172 241.720703,34.4326172 L239.546875,34.4326172 L239.546875,38.3837891 L237.489258,38.3837891 L237.489258,28.3076172 L242.431641,28.3076172 Z M255.00293,30.0917969 L249.670898,30.0917969 L249.670898,32.2314453 L254.56543,32.2314453 L254.56543,33.9814453 L249.670898,33.9814453 L249.670898,36.5722656 L255.249023,36.5722656 L255.249023,38.3837891 L247.613281,38.3837891 L247.613281,28.3076172 L255.00293,28.3076172 L255.00293,30.0917969 Z M263.568359,28.3076172 L266.59668,28.3076172 L266.59668,38.3837891 L264.634766,38.3837891 L264.634766,31.5683594 C264.634766,31.3723949 264.637044,31.0978208 264.641602,30.7446289 C264.646159,30.391437 264.648438,30.1191416 264.648438,29.9277344 L262.741211,38.3837891 L260.697266,38.3837891 L258.803711,29.9277344 C258.803711,30.1191416 258.80599,30.391437 258.810547,30.7446289 C258.815104,31.0978208 258.817383,31.3723949 258.817383,31.5683594 L258.817383,38.3837891 L256.855469,38.3837891 L256.855469,28.3076172 L259.917969,28.3076172 L261.75,36.2304688 L263.568359,28.3076172 Z" id="LOREM-IPSUM-DOLOR-SI" fill="#797979"></path>
                <path d="M313.091797,38.3701172 L311,38.3701172 L311,28.2939453 L313.091797,28.2939453 L313.091797,38.3701172 Z M320.727539,31.5 C320.727539,30.9759088 320.589682,30.6022147 320.313965,30.3789062 C320.038247,30.1555978 319.652021,30.0439453 319.155273,30.0439453 L317.193359,30.0439453 L317.193359,33.0107422 L319.155273,33.0107422 C319.652021,33.0107422 320.038247,32.8899752 320.313965,32.6484375 C320.589682,32.4068998 320.727539,32.0240912 320.727539,31.5 Z M322.8125,31.4863281 C322.8125,32.6757872 322.511722,33.5165991 321.910156,34.0087891 C321.308591,34.500979 320.44955,34.7470703 319.333008,34.7470703 L317.193359,34.7470703 L317.193359,38.3701172 L315.101562,38.3701172 L315.101562,28.2939453 L319.490234,28.2939453 C320.501958,28.2939453 321.308591,28.5537083 321.910156,29.0732422 C322.511722,29.592776 322.8125,30.39713 322.8125,31.4863281 Z M325.916016,35.2597656 C325.979818,35.7200544 326.105142,36.0641265 326.291992,36.2919922 C326.633791,36.7067078 327.219397,36.9140625 328.048828,36.9140625 C328.545575,36.9140625 328.948892,36.8593755 329.258789,36.75 C329.846683,36.5403635 330.140625,36.150719 330.140625,35.5810547 C330.140625,35.2483707 329.994793,34.9908863 329.703125,34.8085938 C329.411457,34.6308585 328.953454,34.4736335 328.329102,34.3369141 L327.262695,34.0976562 C326.214513,33.8606759 325.489911,33.6031915 325.088867,33.3251953 C324.409827,32.8603492 324.070312,32.1334685 324.070312,31.1445312 C324.070312,30.242183 324.398434,29.492516 325.054688,28.8955078 C325.710941,28.2984996 326.674798,28 327.946289,28 C329.008143,28 329.913896,28.2814099 330.663574,28.8442383 C331.413252,29.4070666 331.806315,30.223953 331.842773,31.2949219 L329.819336,31.2949219 C329.782877,30.6887991 329.518557,30.2581393 329.026367,30.0029297 C328.698241,29.8343091 328.290367,29.75 327.802734,29.75 C327.260414,29.75 326.827476,29.8593739 326.503906,30.078125 C326.180337,30.2968761 326.018555,30.6022116 326.018555,30.9941406 C326.018555,31.3541685 326.178058,31.623046 326.49707,31.8007812 C326.702149,31.9192714 327.139645,32.0582674 327.80957,32.2177734 L329.545898,32.6347656 C330.30697,32.8170582 330.881183,33.0608709 331.268555,33.3662109 C331.87012,33.8401716 332.170898,34.5260372 332.170898,35.4238281 C332.170898,36.3444056 331.818851,37.1088837 331.114746,37.7172852 C330.410641,38.3256866 329.416022,38.6298828 328.130859,38.6298828 C326.818353,38.6298828 325.786137,38.3302439 325.03418,37.730957 C324.282223,37.1316702 323.90625,36.3079479 323.90625,35.2597656 L325.916016,35.2597656 Z M333.729492,28.2939453 L335.869141,28.2939453 L335.869141,34.4873047 C335.869141,35.1800165 335.951171,35.6858708 336.115234,36.0048828 C336.370444,36.5699898 336.926428,36.8525391 337.783203,36.8525391 C338.635421,36.8525391 339.189126,36.5699898 339.444336,36.0048828 C339.608399,35.6858708 339.69043,35.1800165 339.69043,34.4873047 L339.69043,28.2939453 L341.830078,28.2939453 L341.830078,34.4873047 C341.830078,35.5582736 341.663739,36.3922496 341.331055,36.9892578 C340.71126,38.0830133 339.528655,38.6298828 337.783203,38.6298828 C336.037752,38.6298828 334.852868,38.0830133 334.228516,36.9892578 C333.895832,36.3922496 333.729492,35.5582736 333.729492,34.4873047 L333.729492,28.2939453 Z M350.518555,28.2939453 L353.546875,28.2939453 L353.546875,38.3701172 L351.584961,38.3701172 L351.584961,31.5546875 C351.584961,31.358723 351.58724,31.0841489 351.591797,30.730957 C351.596354,30.3777652 351.598633,30.1054697 351.598633,29.9140625 L349.691406,38.3701172 L347.647461,38.3701172 L345.753906,29.9140625 C345.753906,30.1054697 345.756185,30.3777652 345.760742,30.730957 C345.7653,31.0841489 345.767578,31.358723 345.767578,31.5546875 L345.767578,38.3701172 L343.805664,38.3701172 L343.805664,28.2939453 L346.868164,28.2939453 L348.700195,36.2167969 L350.518555,28.2939453 Z" id="LOREM-IPSUM-DOLOR-SI-Copy" fill="#797979"></path>
                <path d="M218.837891,56.0830078 L220.492188,56.0830078 L220.492188,62.5766602 L224.413086,62.5766602 L224.413086,64 L218.837891,64 L218.837891,56.0830078 Z M229.059082,62.8183594 C229.714359,62.8183594 230.234454,62.5766626 230.619385,62.0932617 C231.004315,61.6098609 231.196777,60.9223677 231.196777,60.0307617 C231.196777,59.1427364 231.004315,58.4561385 230.619385,57.9709473 C230.234454,57.485756 229.714359,57.2431641 229.059082,57.2431641 C228.403805,57.2431641 227.881024,57.4848609 227.490723,57.9682617 C227.100421,58.4516626 226.905273,59.1391557 226.905273,60.0307617 C226.905273,60.9223677 227.100421,61.6098609 227.490723,62.0932617 C227.881024,62.5766626 228.403805,62.8183594 229.059082,62.8183594 Z M232.851074,60.0307617 C232.851074,61.4523183 232.451827,62.5408491 231.65332,63.2963867 C231.055336,63.9122752 230.190598,64.2202148 229.059082,64.2202148 C227.927566,64.2202148 227.062829,63.9122752 226.464844,63.2963867 C225.662756,62.5408491 225.261719,61.4523183 225.261719,60.0307617 C225.261719,58.5805592 225.662756,57.4920284 226.464844,56.7651367 C227.062829,56.1492482 227.927566,55.8413086 229.059082,55.8413086 C230.190598,55.8413086 231.055336,56.1492482 231.65332,56.7651367 C232.451827,57.4920284 232.851074,58.5805592 232.851074,60.0307617 Z M235.767578,57.4580078 L235.767578,59.5849609 L237.64209,59.5849609 C238.014488,59.5849609 238.293782,59.5419926 238.47998,59.4560547 C238.809409,59.3056633 238.974121,59.0084658 238.974121,58.5644531 C238.974121,58.084633 238.81478,57.7623706 238.496094,57.5976562 C238.317056,57.5045568 238.048504,57.4580078 237.69043,57.4580078 L235.767578,57.4580078 Z M238.03418,56.0830078 C238.589195,56.0937501 239.016193,56.1617832 239.315186,56.2871094 C239.614178,56.4124355 239.867512,56.5968412 240.075195,56.840332 C240.247071,57.0408539 240.383138,57.2628569 240.483398,57.5063477 C240.583659,57.7498385 240.633789,58.0273422 240.633789,58.3388672 C240.633789,58.7148456 240.538901,59.0845522 240.349121,59.447998 C240.159341,59.8114439 239.846031,60.0683586 239.40918,60.21875 C239.774416,60.3655606 240.033121,60.574136 240.185303,60.8444824 C240.337484,61.1148288 240.413574,61.5275037 240.413574,62.0825195 L240.413574,62.6142578 C240.413574,62.9759133 240.427897,63.2211908 240.456543,63.3500977 C240.499512,63.5542002 240.599771,63.7045894 240.757324,63.8012695 L240.757324,64 L238.936523,64 C238.886393,63.8245434 238.850586,63.683106 238.829102,63.5756836 C238.786133,63.3536773 238.762858,63.1263032 238.759277,62.8935547 L238.748535,62.1577148 C238.741374,61.6528295 238.649171,61.3162443 238.471924,61.1479492 C238.294677,60.9796541 237.962568,60.8955078 237.475586,60.8955078 L235.767578,60.8955078 L235.767578,64 L234.150879,64 L234.150879,56.0830078 L238.03418,56.0830078 Z M247.911621,57.4848633 L243.722168,57.4848633 L243.722168,59.1660156 L247.567871,59.1660156 L247.567871,60.5410156 L243.722168,60.5410156 L243.722168,62.5766602 L248.10498,62.5766602 L248.10498,64 L242.105469,64 L242.105469,56.0830078 L247.911621,56.0830078 L247.911621,57.4848633 Z M254.641602,56.0830078 L257.020996,56.0830078 L257.020996,64 L255.479492,64 L255.479492,58.6450195 C255.479492,58.4910474 255.481283,58.2753106 255.484863,57.9978027 C255.488444,57.7202948 255.490234,57.5063484 255.490234,57.355957 L253.991699,64 L252.385742,64 L250.897949,57.355957 C250.897949,57.5063484 250.89974,57.7202948 250.90332,57.9978027 C250.906901,58.2753106 250.908691,58.4910474 250.908691,58.6450195 L250.908691,64 L249.367188,64 L249.367188,56.0830078 L251.773438,56.0830078 L253.212891,62.3081055 L254.641602,56.0830078 Z M220.352539,86 L218.708984,86 L218.708984,78.0830078 L220.352539,78.0830078 L220.352539,86 Z M226.352051,80.6020508 C226.352051,80.1902649 226.243735,79.896648 226.0271,79.7211914 C225.810464,79.5457348 225.507001,79.4580078 225.116699,79.4580078 L223.575195,79.4580078 L223.575195,81.7890625 L225.116699,81.7890625 C225.507001,81.7890625 225.810464,81.6941741 226.0271,81.5043945 C226.243735,81.3146149 226.352051,81.0138367 226.352051,80.6020508 Z M227.990234,80.5913086 C227.990234,81.5258836 227.753909,82.1865215 227.28125,82.5732422 C226.808591,82.9599629 226.133631,83.1533203 225.256348,83.1533203 L223.575195,83.1533203 L223.575195,86 L221.931641,86 L221.931641,78.0830078 L225.379883,78.0830078 C226.174809,78.0830078 226.808591,78.2871073 227.28125,78.6953125 C227.753909,79.1035177 227.990234,79.73551 227.990234,80.5913086 Z M230.428711,83.5561523 C230.478841,83.9178078 230.57731,84.1881501 230.724121,84.3671875 C230.992677,84.6930355 231.452796,84.855957 232.104492,84.855957 C232.494794,84.855957 232.811685,84.8129887 233.055176,84.7270508 C233.517092,84.5623364 233.748047,84.2561871 233.748047,83.8085938 C233.748047,83.5471992 233.633465,83.34489 233.404297,83.2016602 C233.175129,83.062011 232.815269,82.9384771 232.324707,82.8310547 L231.486816,82.6430664 C230.663245,82.4568676 230.093914,82.2545584 229.778809,82.0361328 C229.245277,81.6708966 228.978516,81.099776 228.978516,80.3227539 C228.978516,79.613766 229.236326,79.0247419 229.751953,78.5556641 C230.267581,78.0865862 231.024897,77.8520508 232.023926,77.8520508 C232.85824,77.8520508 233.569903,78.0731586 234.158936,78.5153809 C234.747968,78.9576031 235.056803,79.5994424 235.085449,80.440918 L233.495605,80.440918 C233.466959,79.9646786 233.259279,79.6263031 232.872559,79.4257812 C232.614745,79.2932936 232.294273,79.2270508 231.911133,79.2270508 C231.485024,79.2270508 231.144858,79.3129874 230.890625,79.4848633 C230.636392,79.6567391 230.509277,79.8966456 230.509277,80.2045898 C230.509277,80.4874689 230.634602,80.6987298 230.885254,80.8383789 C231.046388,80.9314783 231.390134,81.0406895 231.916504,81.1660156 L233.280762,81.4936523 C233.878746,81.6368822 234.329914,81.8284493 234.634277,82.0683594 C235.106936,82.4407571 235.343262,82.9796514 235.343262,83.6850586 C235.343262,84.4083695 235.066653,85.0090308 234.513428,85.4870605 C233.960202,85.9650903 233.178716,86.2041016 232.168945,86.2041016 C231.13769,86.2041016 230.326663,85.968671 229.73584,85.4978027 C229.145017,85.0269345 228.849609,84.3797242 228.849609,83.5561523 L230.428711,83.5561523 Z M236.567871,78.0830078 L238.249023,78.0830078 L238.249023,82.9492188 C238.249023,83.4934923 238.313476,83.8909493 238.442383,84.1416016 C238.642905,84.5856142 239.079749,84.8076172 239.75293,84.8076172 C240.422529,84.8076172 240.857584,84.5856142 241.058105,84.1416016 C241.187012,83.8909493 241.251465,83.4934923 241.251465,82.9492188 L241.251465,78.0830078 L242.932617,78.0830078 L242.932617,82.9492188 C242.932617,83.7906943 242.801922,84.4459612 242.540527,84.9150391 C242.053546,85.7744184 241.124356,86.2041016 239.75293,86.2041016 C238.381504,86.2041016 237.450523,85.7744184 236.959961,84.9150391 C236.698566,84.4459612 236.567871,83.7906943 236.567871,82.9492188 L236.567871,78.0830078 Z M249.759277,78.0830078 L252.138672,78.0830078 L252.138672,86 L250.597168,86 L250.597168,80.6450195 C250.597168,80.4910474 250.598958,80.2753106 250.602539,79.9978027 C250.60612,79.7202948 250.60791,79.5063484 250.60791,79.355957 L249.109375,86 L247.503418,86 L246.015625,79.355957 C246.015625,79.5063484 246.017415,79.7202948 246.020996,79.9978027 C246.024577,80.2753106 246.026367,80.4910474 246.026367,80.6450195 L246.026367,86 L244.484863,86 L244.484863,78.0830078 L246.891113,78.0830078 L248.330566,84.3081055 L249.759277,78.0830078 Z M220.443848,101.458008 L220.443848,106.625 L221.969238,106.625 C222.749841,106.625 223.294107,106.240075 223.602051,105.470215 C223.770346,105.047687 223.854492,104.544599 223.854492,103.960938 C223.854492,103.155269 223.728273,102.536705 223.47583,102.105225 C223.223387,101.673745 222.721195,101.458008 221.969238,101.458008 L220.443848,101.458008 Z M222.248535,100.083008 C222.739098,100.090169 223.147297,100.14746 223.473145,100.254883 C224.02816,100.437501 224.477537,100.772296 224.821289,101.259277 C225.097007,101.65316 225.284993,102.079262 225.385254,102.537598 C225.485515,102.995933 225.535645,103.432778 225.535645,103.848145 C225.535645,104.900884 225.324384,105.792477 224.901855,106.522949 C224.328936,107.507655 223.444505,108 222.248535,108 L218.837891,108 L218.837891,100.083008 L222.248535,100.083008 Z M230.283691,106.818359 C230.938968,106.818359 231.459064,106.576663 231.843994,106.093262 C232.228924,105.609861 232.421387,104.922368 232.421387,104.030762 C232.421387,103.142736 232.228924,102.456138 231.843994,101.970947 C231.459064,101.485756 230.938968,101.243164 230.283691,101.243164 C229.628415,101.243164 229.105633,101.484861 228.715332,101.968262 C228.325031,102.451663 228.129883,103.139156 228.129883,104.030762 C228.129883,104.922368 228.325031,105.609861 228.715332,106.093262 C229.105633,106.576663 229.628415,106.818359 230.283691,106.818359 Z M234.075684,104.030762 C234.075684,105.452318 233.676436,106.540849 232.87793,107.296387 C232.279945,107.912275 231.415207,108.220215 230.283691,108.220215 C229.152175,108.220215 228.287438,107.912275 227.689453,107.296387 C226.887366,106.540849 226.486328,105.452318 226.486328,104.030762 C226.486328,102.580559 226.887366,101.492028 227.689453,100.765137 C228.287438,100.149248 229.152175,99.8413086 230.283691,99.8413086 C231.415207,99.8413086 232.279945,100.149248 232.87793,100.765137 C233.676436,101.492028 234.075684,102.580559 234.075684,104.030762 Z M235.337891,100.083008 L236.992188,100.083008 L236.992188,106.57666 L240.913086,106.57666 L240.913086,108 L235.337891,108 L235.337891,100.083008 Z M245.559082,106.818359 C246.214359,106.818359 246.734454,106.576663 247.119385,106.093262 C247.504315,105.609861 247.696777,104.922368 247.696777,104.030762 C247.696777,103.142736 247.504315,102.456138 247.119385,101.970947 C246.734454,101.485756 246.214359,101.243164 245.559082,101.243164 C244.903805,101.243164 244.381024,101.484861 243.990723,101.968262 C243.600421,102.451663 243.405273,103.139156 243.405273,104.030762 C243.405273,104.922368 243.600421,105.609861 243.990723,106.093262 C244.381024,106.576663 244.903805,106.818359 245.559082,106.818359 Z M249.351074,104.030762 C249.351074,105.452318 248.951827,106.540849 248.15332,107.296387 C247.555336,107.912275 246.690598,108.220215 245.559082,108.220215 C244.427566,108.220215 243.562829,107.912275 242.964844,107.296387 C242.162756,106.540849 241.761719,105.452318 241.761719,104.030762 C241.761719,102.580559 242.162756,101.492028 242.964844,100.765137 C243.562829,100.149248 244.427566,99.8413086 245.559082,99.8413086 C246.690598,99.8413086 247.555336,100.149248 248.15332,100.765137 C248.951827,101.492028 249.351074,102.580559 249.351074,104.030762 Z M252.267578,101.458008 L252.267578,103.584961 L254.14209,103.584961 C254.514488,103.584961 254.793782,103.541993 254.97998,103.456055 C255.309409,103.305663 255.474121,103.008466 255.474121,102.564453 C255.474121,102.084633 255.31478,101.762371 254.996094,101.597656 C254.817056,101.504557 254.548504,101.458008 254.19043,101.458008 L252.267578,101.458008 Z M254.53418,100.083008 C255.089195,100.09375 255.516193,100.161783 255.815186,100.287109 C256.114178,100.412436 256.367512,100.596841 256.575195,100.840332 C256.747071,101.040854 256.883138,101.262857 256.983398,101.506348 C257.083659,101.749838 257.133789,102.027342 257.133789,102.338867 C257.133789,102.714846 257.038901,103.084552 256.849121,103.447998 C256.659341,103.811444 256.346031,104.068359 255.90918,104.21875 C256.274416,104.365561 256.533121,104.574136 256.685303,104.844482 C256.837484,105.114829 256.913574,105.527504 256.913574,106.08252 L256.913574,106.614258 C256.913574,106.975913 256.927897,107.221191 256.956543,107.350098 C256.999512,107.5542 257.099771,107.704589 257.257324,107.80127 L257.257324,108 L255.436523,108 C255.386393,107.824543 255.350586,107.683106 255.329102,107.575684 C255.286133,107.353677 255.262858,107.126303 255.259277,106.893555 L255.248535,106.157715 C255.241374,105.65283 255.149171,105.316244 254.971924,105.147949 C254.794677,104.979654 254.462568,104.895508 253.975586,104.895508 L252.267578,104.895508 L252.267578,108 L250.650879,108 L250.650879,100.083008 L254.53418,100.083008 Z M220.035645,127.556152 C220.085775,127.917808 220.184244,128.18815 220.331055,128.367188 C220.599611,128.693035 221.05973,128.855957 221.711426,128.855957 C222.101727,128.855957 222.418619,128.812989 222.662109,128.727051 C223.124026,128.562336 223.35498,128.256187 223.35498,127.808594 C223.35498,127.547199 223.240398,127.34489 223.01123,127.20166 C222.782063,127.062011 222.422203,126.938477 221.931641,126.831055 L221.09375,126.643066 C220.270178,126.456868 219.700848,126.254558 219.385742,126.036133 C218.852211,125.670897 218.585449,125.099776 218.585449,124.322754 C218.585449,123.613766 218.843259,123.024742 219.358887,122.555664 C219.874514,122.086586 220.631831,121.852051 221.630859,121.852051 C222.465173,121.852051 223.176836,122.073159 223.765869,122.515381 C224.354902,122.957603 224.663737,123.599442 224.692383,124.440918 L223.102539,124.440918 C223.073893,123.964679 222.866213,123.626303 222.479492,123.425781 C222.221678,123.293294 221.901206,123.227051 221.518066,123.227051 C221.091958,123.227051 220.751792,123.312987 220.497559,123.484863 C220.243326,123.656739 220.116211,123.896646 220.116211,124.20459 C220.116211,124.487469 220.241535,124.69873 220.492188,124.838379 C220.653321,124.931478 220.997068,125.040689 221.523438,125.166016 L222.887695,125.493652 C223.48568,125.636882 223.936847,125.828449 224.241211,126.068359 C224.71387,126.440757 224.950195,126.979651 224.950195,127.685059 C224.950195,128.40837 224.673587,129.009031 224.120361,129.487061 C223.567136,129.96509 222.78565,130.204102 221.775879,130.204102 C220.744624,130.204102 219.933597,129.968671 219.342773,129.497803 C218.75195,129.026934 218.456543,128.379724 218.456543,127.556152 L220.035645,127.556152 Z M227.689453,130 L226.045898,130 L226.045898,122.083008 L227.689453,122.083008 L227.689453,130 Z M234.983398,122.083008 L234.983398,123.484863 L232.614746,123.484863 L232.614746,130 L230.949707,130 L230.949707,123.484863 L228.570312,123.484863 L228.570312,122.083008 L234.983398,122.083008 Z M241.170898,127.008301 L243.179688,127.008301 L242.191406,123.893066 L241.170898,127.008301 Z M241.272949,122.083008 L243.14209,122.083008 L245.945801,130 L244.151855,130 L243.641602,128.372559 L240.725098,128.372559 L240.177246,130 L238.447754,130 L241.272949,122.083008 Z M252.197754,122.083008 L254.577148,122.083008 L254.577148,130 L253.035645,130 L253.035645,124.64502 C253.035645,124.491047 253.037435,124.275311 253.041016,123.997803 C253.044596,123.720295 253.046387,123.506348 253.046387,123.355957 L251.547852,130 L249.941895,130 L248.454102,123.355957 C248.454102,123.506348 248.455892,123.720295 248.459473,123.997803 C248.463053,124.275311 248.464844,124.491047 248.464844,124.64502 L248.464844,130 L246.92334,130 L246.92334,122.083008 L249.32959,122.083008 L250.769043,128.308105 L252.197754,122.083008 Z M261.967773,123.484863 L257.77832,123.484863 L257.77832,125.166016 L261.624023,125.166016 L261.624023,126.541016 L257.77832,126.541016 L257.77832,128.57666 L262.161133,128.57666 L262.161133,130 L256.161621,130 L256.161621,122.083008 L261.967773,122.083008 L261.967773,123.484863 Z M269.202637,122.083008 L269.202637,123.484863 L266.833984,123.484863 L266.833984,130 L265.168945,130 L265.168945,123.484863 L262.789551,123.484863 L262.789551,122.083008 L269.202637,122.083008 Z" id="LOREM-IPSUM-DOLOR-SI" fill="#B6B6B6"></path>
                <path d="M413.837891,56.0830078 L415.492188,56.0830078 L415.492188,62.5766602 L419.413086,62.5766602 L419.413086,64 L413.837891,64 L413.837891,56.0830078 Z M424.059082,62.8183594 C424.714359,62.8183594 425.234454,62.5766626 425.619385,62.0932617 C426.004315,61.6098609 426.196777,60.9223677 426.196777,60.0307617 C426.196777,59.1427364 426.004315,58.4561385 425.619385,57.9709473 C425.234454,57.485756 424.714359,57.2431641 424.059082,57.2431641 C423.403805,57.2431641 422.881024,57.4848609 422.490723,57.9682617 C422.100421,58.4516626 421.905273,59.1391557 421.905273,60.0307617 C421.905273,60.9223677 422.100421,61.6098609 422.490723,62.0932617 C422.881024,62.5766626 423.403805,62.8183594 424.059082,62.8183594 Z M427.851074,60.0307617 C427.851074,61.4523183 427.451827,62.5408491 426.65332,63.2963867 C426.055336,63.9122752 425.190598,64.2202148 424.059082,64.2202148 C422.927566,64.2202148 422.062829,63.9122752 421.464844,63.2963867 C420.662756,62.5408491 420.261719,61.4523183 420.261719,60.0307617 C420.261719,58.5805592 420.662756,57.4920284 421.464844,56.7651367 C422.062829,56.1492482 422.927566,55.8413086 424.059082,55.8413086 C425.190598,55.8413086 426.055336,56.1492482 426.65332,56.7651367 C427.451827,57.4920284 427.851074,58.5805592 427.851074,60.0307617 Z M430.767578,57.4580078 L430.767578,59.5849609 L432.64209,59.5849609 C433.014488,59.5849609 433.293782,59.5419926 433.47998,59.4560547 C433.809409,59.3056633 433.974121,59.0084658 433.974121,58.5644531 C433.974121,58.084633 433.81478,57.7623706 433.496094,57.5976562 C433.317056,57.5045568 433.048504,57.4580078 432.69043,57.4580078 L430.767578,57.4580078 Z M433.03418,56.0830078 C433.589195,56.0937501 434.016193,56.1617832 434.315186,56.2871094 C434.614178,56.4124355 434.867512,56.5968412 435.075195,56.840332 C435.247071,57.0408539 435.383138,57.2628569 435.483398,57.5063477 C435.583659,57.7498385 435.633789,58.0273422 435.633789,58.3388672 C435.633789,58.7148456 435.538901,59.0845522 435.349121,59.447998 C435.159341,59.8114439 434.846031,60.0683586 434.40918,60.21875 C434.774416,60.3655606 435.033121,60.574136 435.185303,60.8444824 C435.337484,61.1148288 435.413574,61.5275037 435.413574,62.0825195 L435.413574,62.6142578 C435.413574,62.9759133 435.427897,63.2211908 435.456543,63.3500977 C435.499512,63.5542002 435.599771,63.7045894 435.757324,63.8012695 L435.757324,64 L433.936523,64 C433.886393,63.8245434 433.850586,63.683106 433.829102,63.5756836 C433.786133,63.3536773 433.762858,63.1263032 433.759277,62.8935547 L433.748535,62.1577148 C433.741374,61.6528295 433.649171,61.3162443 433.471924,61.1479492 C433.294677,60.9796541 432.962568,60.8955078 432.475586,60.8955078 L430.767578,60.8955078 L430.767578,64 L429.150879,64 L429.150879,56.0830078 L433.03418,56.0830078 Z M442.911621,57.4848633 L438.722168,57.4848633 L438.722168,59.1660156 L442.567871,59.1660156 L442.567871,60.5410156 L438.722168,60.5410156 L438.722168,62.5766602 L443.10498,62.5766602 L443.10498,64 L437.105469,64 L437.105469,56.0830078 L442.911621,56.0830078 L442.911621,57.4848633 Z M449.641602,56.0830078 L452.020996,56.0830078 L452.020996,64 L450.479492,64 L450.479492,58.6450195 C450.479492,58.4910474 450.481283,58.2753106 450.484863,57.9978027 C450.488444,57.7202948 450.490234,57.5063484 450.490234,57.355957 L448.991699,64 L447.385742,64 L445.897949,57.355957 C445.897949,57.5063484 445.89974,57.7202948 445.90332,57.9978027 C445.906901,58.2753106 445.908691,58.4910474 445.908691,58.6450195 L445.908691,64 L444.367188,64 L444.367188,56.0830078 L446.773438,56.0830078 L448.212891,62.3081055 L449.641602,56.0830078 Z M415.352539,86 L413.708984,86 L413.708984,78.0830078 L415.352539,78.0830078 L415.352539,86 Z M421.352051,80.6020508 C421.352051,80.1902649 421.243735,79.896648 421.0271,79.7211914 C420.810464,79.5457348 420.507001,79.4580078 420.116699,79.4580078 L418.575195,79.4580078 L418.575195,81.7890625 L420.116699,81.7890625 C420.507001,81.7890625 420.810464,81.6941741 421.0271,81.5043945 C421.243735,81.3146149 421.352051,81.0138367 421.352051,80.6020508 Z M422.990234,80.5913086 C422.990234,81.5258836 422.753909,82.1865215 422.28125,82.5732422 C421.808591,82.9599629 421.133631,83.1533203 420.256348,83.1533203 L418.575195,83.1533203 L418.575195,86 L416.931641,86 L416.931641,78.0830078 L420.379883,78.0830078 C421.174809,78.0830078 421.808591,78.2871073 422.28125,78.6953125 C422.753909,79.1035177 422.990234,79.73551 422.990234,80.5913086 Z M425.428711,83.5561523 C425.478841,83.9178078 425.57731,84.1881501 425.724121,84.3671875 C425.992677,84.6930355 426.452796,84.855957 427.104492,84.855957 C427.494794,84.855957 427.811685,84.8129887 428.055176,84.7270508 C428.517092,84.5623364 428.748047,84.2561871 428.748047,83.8085938 C428.748047,83.5471992 428.633465,83.34489 428.404297,83.2016602 C428.175129,83.062011 427.815269,82.9384771 427.324707,82.8310547 L426.486816,82.6430664 C425.663245,82.4568676 425.093914,82.2545584 424.778809,82.0361328 C424.245277,81.6708966 423.978516,81.099776 423.978516,80.3227539 C423.978516,79.613766 424.236326,79.0247419 424.751953,78.5556641 C425.267581,78.0865862 426.024897,77.8520508 427.023926,77.8520508 C427.85824,77.8520508 428.569903,78.0731586 429.158936,78.5153809 C429.747968,78.9576031 430.056803,79.5994424 430.085449,80.440918 L428.495605,80.440918 C428.466959,79.9646786 428.259279,79.6263031 427.872559,79.4257812 C427.614745,79.2932936 427.294273,79.2270508 426.911133,79.2270508 C426.485024,79.2270508 426.144858,79.3129874 425.890625,79.4848633 C425.636392,79.6567391 425.509277,79.8966456 425.509277,80.2045898 C425.509277,80.4874689 425.634602,80.6987298 425.885254,80.8383789 C426.046388,80.9314783 426.390134,81.0406895 426.916504,81.1660156 L428.280762,81.4936523 C428.878746,81.6368822 429.329914,81.8284493 429.634277,82.0683594 C430.106936,82.4407571 430.343262,82.9796514 430.343262,83.6850586 C430.343262,84.4083695 430.066653,85.0090308 429.513428,85.4870605 C428.960202,85.9650903 428.178716,86.2041016 427.168945,86.2041016 C426.13769,86.2041016 425.326663,85.968671 424.73584,85.4978027 C424.145017,85.0269345 423.849609,84.3797242 423.849609,83.5561523 L425.428711,83.5561523 Z M431.567871,78.0830078 L433.249023,78.0830078 L433.249023,82.9492188 C433.249023,83.4934923 433.313476,83.8909493 433.442383,84.1416016 C433.642905,84.5856142 434.079749,84.8076172 434.75293,84.8076172 C435.422529,84.8076172 435.857584,84.5856142 436.058105,84.1416016 C436.187012,83.8909493 436.251465,83.4934923 436.251465,82.9492188 L436.251465,78.0830078 L437.932617,78.0830078 L437.932617,82.9492188 C437.932617,83.7906943 437.801922,84.4459612 437.540527,84.9150391 C437.053546,85.7744184 436.124356,86.2041016 434.75293,86.2041016 C433.381504,86.2041016 432.450523,85.7744184 431.959961,84.9150391 C431.698566,84.4459612 431.567871,83.7906943 431.567871,82.9492188 L431.567871,78.0830078 Z M444.759277,78.0830078 L447.138672,78.0830078 L447.138672,86 L445.597168,86 L445.597168,80.6450195 C445.597168,80.4910474 445.598958,80.2753106 445.602539,79.9978027 C445.60612,79.7202948 445.60791,79.5063484 445.60791,79.355957 L444.109375,86 L442.503418,86 L441.015625,79.355957 C441.015625,79.5063484 441.017415,79.7202948 441.020996,79.9978027 C441.024577,80.2753106 441.026367,80.4910474 441.026367,80.6450195 L441.026367,86 L439.484863,86 L439.484863,78.0830078 L441.891113,78.0830078 L443.330566,84.3081055 L444.759277,78.0830078 Z M415.443848,101.458008 L415.443848,106.625 L416.969238,106.625 C417.749841,106.625 418.294107,106.240075 418.602051,105.470215 C418.770346,105.047687 418.854492,104.544599 418.854492,103.960938 C418.854492,103.155269 418.728273,102.536705 418.47583,102.105225 C418.223387,101.673745 417.721195,101.458008 416.969238,101.458008 L415.443848,101.458008 Z M417.248535,100.083008 C417.739098,100.090169 418.147297,100.14746 418.473145,100.254883 C419.02816,100.437501 419.477537,100.772296 419.821289,101.259277 C420.097007,101.65316 420.284993,102.079262 420.385254,102.537598 C420.485515,102.995933 420.535645,103.432778 420.535645,103.848145 C420.535645,104.900884 420.324384,105.792477 419.901855,106.522949 C419.328936,107.507655 418.444505,108 417.248535,108 L413.837891,108 L413.837891,100.083008 L417.248535,100.083008 Z M425.283691,106.818359 C425.938968,106.818359 426.459064,106.576663 426.843994,106.093262 C427.228924,105.609861 427.421387,104.922368 427.421387,104.030762 C427.421387,103.142736 427.228924,102.456138 426.843994,101.970947 C426.459064,101.485756 425.938968,101.243164 425.283691,101.243164 C424.628415,101.243164 424.105633,101.484861 423.715332,101.968262 C423.325031,102.451663 423.129883,103.139156 423.129883,104.030762 C423.129883,104.922368 423.325031,105.609861 423.715332,106.093262 C424.105633,106.576663 424.628415,106.818359 425.283691,106.818359 Z M429.075684,104.030762 C429.075684,105.452318 428.676436,106.540849 427.87793,107.296387 C427.279945,107.912275 426.415207,108.220215 425.283691,108.220215 C424.152175,108.220215 423.287438,107.912275 422.689453,107.296387 C421.887366,106.540849 421.486328,105.452318 421.486328,104.030762 C421.486328,102.580559 421.887366,101.492028 422.689453,100.765137 C423.287438,100.149248 424.152175,99.8413086 425.283691,99.8413086 C426.415207,99.8413086 427.279945,100.149248 427.87793,100.765137 C428.676436,101.492028 429.075684,102.580559 429.075684,104.030762 Z M430.337891,100.083008 L431.992188,100.083008 L431.992188,106.57666 L435.913086,106.57666 L435.913086,108 L430.337891,108 L430.337891,100.083008 Z M440.559082,106.818359 C441.214359,106.818359 441.734454,106.576663 442.119385,106.093262 C442.504315,105.609861 442.696777,104.922368 442.696777,104.030762 C442.696777,103.142736 442.504315,102.456138 442.119385,101.970947 C441.734454,101.485756 441.214359,101.243164 440.559082,101.243164 C439.903805,101.243164 439.381024,101.484861 438.990723,101.968262 C438.600421,102.451663 438.405273,103.139156 438.405273,104.030762 C438.405273,104.922368 438.600421,105.609861 438.990723,106.093262 C439.381024,106.576663 439.903805,106.818359 440.559082,106.818359 Z M444.351074,104.030762 C444.351074,105.452318 443.951827,106.540849 443.15332,107.296387 C442.555336,107.912275 441.690598,108.220215 440.559082,108.220215 C439.427566,108.220215 438.562829,107.912275 437.964844,107.296387 C437.162756,106.540849 436.761719,105.452318 436.761719,104.030762 C436.761719,102.580559 437.162756,101.492028 437.964844,100.765137 C438.562829,100.149248 439.427566,99.8413086 440.559082,99.8413086 C441.690598,99.8413086 442.555336,100.149248 443.15332,100.765137 C443.951827,101.492028 444.351074,102.580559 444.351074,104.030762 Z M447.267578,101.458008 L447.267578,103.584961 L449.14209,103.584961 C449.514488,103.584961 449.793782,103.541993 449.97998,103.456055 C450.309409,103.305663 450.474121,103.008466 450.474121,102.564453 C450.474121,102.084633 450.31478,101.762371 449.996094,101.597656 C449.817056,101.504557 449.548504,101.458008 449.19043,101.458008 L447.267578,101.458008 Z M449.53418,100.083008 C450.089195,100.09375 450.516193,100.161783 450.815186,100.287109 C451.114178,100.412436 451.367512,100.596841 451.575195,100.840332 C451.747071,101.040854 451.883138,101.262857 451.983398,101.506348 C452.083659,101.749838 452.133789,102.027342 452.133789,102.338867 C452.133789,102.714846 452.038901,103.084552 451.849121,103.447998 C451.659341,103.811444 451.346031,104.068359 450.90918,104.21875 C451.274416,104.365561 451.533121,104.574136 451.685303,104.844482 C451.837484,105.114829 451.913574,105.527504 451.913574,106.08252 L451.913574,106.614258 C451.913574,106.975913 451.927897,107.221191 451.956543,107.350098 C451.999512,107.5542 452.099771,107.704589 452.257324,107.80127 L452.257324,108 L450.436523,108 C450.386393,107.824543 450.350586,107.683106 450.329102,107.575684 C450.286133,107.353677 450.262858,107.126303 450.259277,106.893555 L450.248535,106.157715 C450.241374,105.65283 450.149171,105.316244 449.971924,105.147949 C449.794677,104.979654 449.462568,104.895508 448.975586,104.895508 L447.267578,104.895508 L447.267578,108 L445.650879,108 L445.650879,100.083008 L449.53418,100.083008 Z M415.035645,127.556152 C415.085775,127.917808 415.184244,128.18815 415.331055,128.367188 C415.599611,128.693035 416.05973,128.855957 416.711426,128.855957 C417.101727,128.855957 417.418619,128.812989 417.662109,128.727051 C418.124026,128.562336 418.35498,128.256187 418.35498,127.808594 C418.35498,127.547199 418.240398,127.34489 418.01123,127.20166 C417.782063,127.062011 417.422203,126.938477 416.931641,126.831055 L416.09375,126.643066 C415.270178,126.456868 414.700848,126.254558 414.385742,126.036133 C413.852211,125.670897 413.585449,125.099776 413.585449,124.322754 C413.585449,123.613766 413.843259,123.024742 414.358887,122.555664 C414.874514,122.086586 415.631831,121.852051 416.630859,121.852051 C417.465173,121.852051 418.176836,122.073159 418.765869,122.515381 C419.354902,122.957603 419.663737,123.599442 419.692383,124.440918 L418.102539,124.440918 C418.073893,123.964679 417.866213,123.626303 417.479492,123.425781 C417.221678,123.293294 416.901206,123.227051 416.518066,123.227051 C416.091958,123.227051 415.751792,123.312987 415.497559,123.484863 C415.243326,123.656739 415.116211,123.896646 415.116211,124.20459 C415.116211,124.487469 415.241535,124.69873 415.492188,124.838379 C415.653321,124.931478 415.997068,125.040689 416.523438,125.166016 L417.887695,125.493652 C418.48568,125.636882 418.936847,125.828449 419.241211,126.068359 C419.71387,126.440757 419.950195,126.979651 419.950195,127.685059 C419.950195,128.40837 419.673587,129.009031 419.120361,129.487061 C418.567136,129.96509 417.78565,130.204102 416.775879,130.204102 C415.744624,130.204102 414.933597,129.968671 414.342773,129.497803 C413.75195,129.026934 413.456543,128.379724 413.456543,127.556152 L415.035645,127.556152 Z M422.689453,130 L421.045898,130 L421.045898,122.083008 L422.689453,122.083008 L422.689453,130 Z M429.983398,122.083008 L429.983398,123.484863 L427.614746,123.484863 L427.614746,130 L425.949707,130 L425.949707,123.484863 L423.570312,123.484863 L423.570312,122.083008 L429.983398,122.083008 Z M436.170898,127.008301 L438.179688,127.008301 L437.191406,123.893066 L436.170898,127.008301 Z M436.272949,122.083008 L438.14209,122.083008 L440.945801,130 L439.151855,130 L438.641602,128.372559 L435.725098,128.372559 L435.177246,130 L433.447754,130 L436.272949,122.083008 Z M447.197754,122.083008 L449.577148,122.083008 L449.577148,130 L448.035645,130 L448.035645,124.64502 C448.035645,124.491047 448.037435,124.275311 448.041016,123.997803 C448.044596,123.720295 448.046387,123.506348 448.046387,123.355957 L446.547852,130 L444.941895,130 L443.454102,123.355957 C443.454102,123.506348 443.455892,123.720295 443.459473,123.997803 C443.463053,124.275311 443.464844,124.491047 443.464844,124.64502 L443.464844,130 L441.92334,130 L441.92334,122.083008 L444.32959,122.083008 L445.769043,128.308105 L447.197754,122.083008 Z M456.967773,123.484863 L452.77832,123.484863 L452.77832,125.166016 L456.624023,125.166016 L456.624023,126.541016 L452.77832,126.541016 L452.77832,128.57666 L457.161133,128.57666 L457.161133,130 L451.161621,130 L451.161621,122.083008 L456.967773,122.083008 L456.967773,123.484863 Z M464.202637,122.083008 L464.202637,123.484863 L461.833984,123.484863 L461.833984,130 L460.168945,130 L460.168945,123.484863 L457.789551,123.484863 L457.789551,122.083008 L464.202637,122.083008 Z" id="LOREM-IPSUM-DOLOR-SI-Copy-5" fill="#B6B6B6"></path>
                <path d="M311.837891,56.0830078 L313.492188,56.0830078 L313.492188,62.5766602 L317.413086,62.5766602 L317.413086,64 L311.837891,64 L311.837891,56.0830078 Z M322.059082,62.8183594 C322.714359,62.8183594 323.234454,62.5766626 323.619385,62.0932617 C324.004315,61.6098609 324.196777,60.9223677 324.196777,60.0307617 C324.196777,59.1427364 324.004315,58.4561385 323.619385,57.9709473 C323.234454,57.485756 322.714359,57.2431641 322.059082,57.2431641 C321.403805,57.2431641 320.881024,57.4848609 320.490723,57.9682617 C320.100421,58.4516626 319.905273,59.1391557 319.905273,60.0307617 C319.905273,60.9223677 320.100421,61.6098609 320.490723,62.0932617 C320.881024,62.5766626 321.403805,62.8183594 322.059082,62.8183594 Z M325.851074,60.0307617 C325.851074,61.4523183 325.451827,62.5408491 324.65332,63.2963867 C324.055336,63.9122752 323.190598,64.2202148 322.059082,64.2202148 C320.927566,64.2202148 320.062829,63.9122752 319.464844,63.2963867 C318.662756,62.5408491 318.261719,61.4523183 318.261719,60.0307617 C318.261719,58.5805592 318.662756,57.4920284 319.464844,56.7651367 C320.062829,56.1492482 320.927566,55.8413086 322.059082,55.8413086 C323.190598,55.8413086 324.055336,56.1492482 324.65332,56.7651367 C325.451827,57.4920284 325.851074,58.5805592 325.851074,60.0307617 Z M328.767578,57.4580078 L328.767578,59.5849609 L330.64209,59.5849609 C331.014488,59.5849609 331.293782,59.5419926 331.47998,59.4560547 C331.809409,59.3056633 331.974121,59.0084658 331.974121,58.5644531 C331.974121,58.084633 331.81478,57.7623706 331.496094,57.5976562 C331.317056,57.5045568 331.048504,57.4580078 330.69043,57.4580078 L328.767578,57.4580078 Z M331.03418,56.0830078 C331.589195,56.0937501 332.016193,56.1617832 332.315186,56.2871094 C332.614178,56.4124355 332.867512,56.5968412 333.075195,56.840332 C333.247071,57.0408539 333.383138,57.2628569 333.483398,57.5063477 C333.583659,57.7498385 333.633789,58.0273422 333.633789,58.3388672 C333.633789,58.7148456 333.538901,59.0845522 333.349121,59.447998 C333.159341,59.8114439 332.846031,60.0683586 332.40918,60.21875 C332.774416,60.3655606 333.033121,60.574136 333.185303,60.8444824 C333.337484,61.1148288 333.413574,61.5275037 333.413574,62.0825195 L333.413574,62.6142578 C333.413574,62.9759133 333.427897,63.2211908 333.456543,63.3500977 C333.499512,63.5542002 333.599771,63.7045894 333.757324,63.8012695 L333.757324,64 L331.936523,64 C331.886393,63.8245434 331.850586,63.683106 331.829102,63.5756836 C331.786133,63.3536773 331.762858,63.1263032 331.759277,62.8935547 L331.748535,62.1577148 C331.741374,61.6528295 331.649171,61.3162443 331.471924,61.1479492 C331.294677,60.9796541 330.962568,60.8955078 330.475586,60.8955078 L328.767578,60.8955078 L328.767578,64 L327.150879,64 L327.150879,56.0830078 L331.03418,56.0830078 Z M340.911621,57.4848633 L336.722168,57.4848633 L336.722168,59.1660156 L340.567871,59.1660156 L340.567871,60.5410156 L336.722168,60.5410156 L336.722168,62.5766602 L341.10498,62.5766602 L341.10498,64 L335.105469,64 L335.105469,56.0830078 L340.911621,56.0830078 L340.911621,57.4848633 Z M347.641602,56.0830078 L350.020996,56.0830078 L350.020996,64 L348.479492,64 L348.479492,58.6450195 C348.479492,58.4910474 348.481283,58.2753106 348.484863,57.9978027 C348.488444,57.7202948 348.490234,57.5063484 348.490234,57.355957 L346.991699,64 L345.385742,64 L343.897949,57.355957 C343.897949,57.5063484 343.89974,57.7202948 343.90332,57.9978027 C343.906901,58.2753106 343.908691,58.4910474 343.908691,58.6450195 L343.908691,64 L342.367188,64 L342.367188,56.0830078 L344.773438,56.0830078 L346.212891,62.3081055 L347.641602,56.0830078 Z M313.352539,86 L311.708984,86 L311.708984,78.0830078 L313.352539,78.0830078 L313.352539,86 Z M319.352051,80.6020508 C319.352051,80.1902649 319.243735,79.896648 319.0271,79.7211914 C318.810464,79.5457348 318.507001,79.4580078 318.116699,79.4580078 L316.575195,79.4580078 L316.575195,81.7890625 L318.116699,81.7890625 C318.507001,81.7890625 318.810464,81.6941741 319.0271,81.5043945 C319.243735,81.3146149 319.352051,81.0138367 319.352051,80.6020508 Z M320.990234,80.5913086 C320.990234,81.5258836 320.753909,82.1865215 320.28125,82.5732422 C319.808591,82.9599629 319.133631,83.1533203 318.256348,83.1533203 L316.575195,83.1533203 L316.575195,86 L314.931641,86 L314.931641,78.0830078 L318.379883,78.0830078 C319.174809,78.0830078 319.808591,78.2871073 320.28125,78.6953125 C320.753909,79.1035177 320.990234,79.73551 320.990234,80.5913086 Z M323.428711,83.5561523 C323.478841,83.9178078 323.57731,84.1881501 323.724121,84.3671875 C323.992677,84.6930355 324.452796,84.855957 325.104492,84.855957 C325.494794,84.855957 325.811685,84.8129887 326.055176,84.7270508 C326.517092,84.5623364 326.748047,84.2561871 326.748047,83.8085938 C326.748047,83.5471992 326.633465,83.34489 326.404297,83.2016602 C326.175129,83.062011 325.815269,82.9384771 325.324707,82.8310547 L324.486816,82.6430664 C323.663245,82.4568676 323.093914,82.2545584 322.778809,82.0361328 C322.245277,81.6708966 321.978516,81.099776 321.978516,80.3227539 C321.978516,79.613766 322.236326,79.0247419 322.751953,78.5556641 C323.267581,78.0865862 324.024897,77.8520508 325.023926,77.8520508 C325.85824,77.8520508 326.569903,78.0731586 327.158936,78.5153809 C327.747968,78.9576031 328.056803,79.5994424 328.085449,80.440918 L326.495605,80.440918 C326.466959,79.9646786 326.259279,79.6263031 325.872559,79.4257812 C325.614745,79.2932936 325.294273,79.2270508 324.911133,79.2270508 C324.485024,79.2270508 324.144858,79.3129874 323.890625,79.4848633 C323.636392,79.6567391 323.509277,79.8966456 323.509277,80.2045898 C323.509277,80.4874689 323.634602,80.6987298 323.885254,80.8383789 C324.046388,80.9314783 324.390134,81.0406895 324.916504,81.1660156 L326.280762,81.4936523 C326.878746,81.6368822 327.329914,81.8284493 327.634277,82.0683594 C328.106936,82.4407571 328.343262,82.9796514 328.343262,83.6850586 C328.343262,84.4083695 328.066653,85.0090308 327.513428,85.4870605 C326.960202,85.9650903 326.178716,86.2041016 325.168945,86.2041016 C324.13769,86.2041016 323.326663,85.968671 322.73584,85.4978027 C322.145017,85.0269345 321.849609,84.3797242 321.849609,83.5561523 L323.428711,83.5561523 Z M329.567871,78.0830078 L331.249023,78.0830078 L331.249023,82.9492188 C331.249023,83.4934923 331.313476,83.8909493 331.442383,84.1416016 C331.642905,84.5856142 332.079749,84.8076172 332.75293,84.8076172 C333.422529,84.8076172 333.857584,84.5856142 334.058105,84.1416016 C334.187012,83.8909493 334.251465,83.4934923 334.251465,82.9492188 L334.251465,78.0830078 L335.932617,78.0830078 L335.932617,82.9492188 C335.932617,83.7906943 335.801922,84.4459612 335.540527,84.9150391 C335.053546,85.7744184 334.124356,86.2041016 332.75293,86.2041016 C331.381504,86.2041016 330.450523,85.7744184 329.959961,84.9150391 C329.698566,84.4459612 329.567871,83.7906943 329.567871,82.9492188 L329.567871,78.0830078 Z M342.759277,78.0830078 L345.138672,78.0830078 L345.138672,86 L343.597168,86 L343.597168,80.6450195 C343.597168,80.4910474 343.598958,80.2753106 343.602539,79.9978027 C343.60612,79.7202948 343.60791,79.5063484 343.60791,79.355957 L342.109375,86 L340.503418,86 L339.015625,79.355957 C339.015625,79.5063484 339.017415,79.7202948 339.020996,79.9978027 C339.024577,80.2753106 339.026367,80.4910474 339.026367,80.6450195 L339.026367,86 L337.484863,86 L337.484863,78.0830078 L339.891113,78.0830078 L341.330566,84.3081055 L342.759277,78.0830078 Z M313.443848,101.458008 L313.443848,106.625 L314.969238,106.625 C315.749841,106.625 316.294107,106.240075 316.602051,105.470215 C316.770346,105.047687 316.854492,104.544599 316.854492,103.960938 C316.854492,103.155269 316.728273,102.536705 316.47583,102.105225 C316.223387,101.673745 315.721195,101.458008 314.969238,101.458008 L313.443848,101.458008 Z M315.248535,100.083008 C315.739098,100.090169 316.147297,100.14746 316.473145,100.254883 C317.02816,100.437501 317.477537,100.772296 317.821289,101.259277 C318.097007,101.65316 318.284993,102.079262 318.385254,102.537598 C318.485515,102.995933 318.535645,103.432778 318.535645,103.848145 C318.535645,104.900884 318.324384,105.792477 317.901855,106.522949 C317.328936,107.507655 316.444505,108 315.248535,108 L311.837891,108 L311.837891,100.083008 L315.248535,100.083008 Z M323.283691,106.818359 C323.938968,106.818359 324.459064,106.576663 324.843994,106.093262 C325.228924,105.609861 325.421387,104.922368 325.421387,104.030762 C325.421387,103.142736 325.228924,102.456138 324.843994,101.970947 C324.459064,101.485756 323.938968,101.243164 323.283691,101.243164 C322.628415,101.243164 322.105633,101.484861 321.715332,101.968262 C321.325031,102.451663 321.129883,103.139156 321.129883,104.030762 C321.129883,104.922368 321.325031,105.609861 321.715332,106.093262 C322.105633,106.576663 322.628415,106.818359 323.283691,106.818359 Z M327.075684,104.030762 C327.075684,105.452318 326.676436,106.540849 325.87793,107.296387 C325.279945,107.912275 324.415207,108.220215 323.283691,108.220215 C322.152175,108.220215 321.287438,107.912275 320.689453,107.296387 C319.887366,106.540849 319.486328,105.452318 319.486328,104.030762 C319.486328,102.580559 319.887366,101.492028 320.689453,100.765137 C321.287438,100.149248 322.152175,99.8413086 323.283691,99.8413086 C324.415207,99.8413086 325.279945,100.149248 325.87793,100.765137 C326.676436,101.492028 327.075684,102.580559 327.075684,104.030762 Z M328.337891,100.083008 L329.992188,100.083008 L329.992188,106.57666 L333.913086,106.57666 L333.913086,108 L328.337891,108 L328.337891,100.083008 Z M338.559082,106.818359 C339.214359,106.818359 339.734454,106.576663 340.119385,106.093262 C340.504315,105.609861 340.696777,104.922368 340.696777,104.030762 C340.696777,103.142736 340.504315,102.456138 340.119385,101.970947 C339.734454,101.485756 339.214359,101.243164 338.559082,101.243164 C337.903805,101.243164 337.381024,101.484861 336.990723,101.968262 C336.600421,102.451663 336.405273,103.139156 336.405273,104.030762 C336.405273,104.922368 336.600421,105.609861 336.990723,106.093262 C337.381024,106.576663 337.903805,106.818359 338.559082,106.818359 Z M342.351074,104.030762 C342.351074,105.452318 341.951827,106.540849 341.15332,107.296387 C340.555336,107.912275 339.690598,108.220215 338.559082,108.220215 C337.427566,108.220215 336.562829,107.912275 335.964844,107.296387 C335.162756,106.540849 334.761719,105.452318 334.761719,104.030762 C334.761719,102.580559 335.162756,101.492028 335.964844,100.765137 C336.562829,100.149248 337.427566,99.8413086 338.559082,99.8413086 C339.690598,99.8413086 340.555336,100.149248 341.15332,100.765137 C341.951827,101.492028 342.351074,102.580559 342.351074,104.030762 Z M345.267578,101.458008 L345.267578,103.584961 L347.14209,103.584961 C347.514488,103.584961 347.793782,103.541993 347.97998,103.456055 C348.309409,103.305663 348.474121,103.008466 348.474121,102.564453 C348.474121,102.084633 348.31478,101.762371 347.996094,101.597656 C347.817056,101.504557 347.548504,101.458008 347.19043,101.458008 L345.267578,101.458008 Z M347.53418,100.083008 C348.089195,100.09375 348.516193,100.161783 348.815186,100.287109 C349.114178,100.412436 349.367512,100.596841 349.575195,100.840332 C349.747071,101.040854 349.883138,101.262857 349.983398,101.506348 C350.083659,101.749838 350.133789,102.027342 350.133789,102.338867 C350.133789,102.714846 350.038901,103.084552 349.849121,103.447998 C349.659341,103.811444 349.346031,104.068359 348.90918,104.21875 C349.274416,104.365561 349.533121,104.574136 349.685303,104.844482 C349.837484,105.114829 349.913574,105.527504 349.913574,106.08252 L349.913574,106.614258 C349.913574,106.975913 349.927897,107.221191 349.956543,107.350098 C349.999512,107.5542 350.099771,107.704589 350.257324,107.80127 L350.257324,108 L348.436523,108 C348.386393,107.824543 348.350586,107.683106 348.329102,107.575684 C348.286133,107.353677 348.262858,107.126303 348.259277,106.893555 L348.248535,106.157715 C348.241374,105.65283 348.149171,105.316244 347.971924,105.147949 C347.794677,104.979654 347.462568,104.895508 346.975586,104.895508 L345.267578,104.895508 L345.267578,108 L343.650879,108 L343.650879,100.083008 L347.53418,100.083008 Z M313.035645,127.556152 C313.085775,127.917808 313.184244,128.18815 313.331055,128.367188 C313.599611,128.693035 314.05973,128.855957 314.711426,128.855957 C315.101727,128.855957 315.418619,128.812989 315.662109,128.727051 C316.124026,128.562336 316.35498,128.256187 316.35498,127.808594 C316.35498,127.547199 316.240398,127.34489 316.01123,127.20166 C315.782063,127.062011 315.422203,126.938477 314.931641,126.831055 L314.09375,126.643066 C313.270178,126.456868 312.700848,126.254558 312.385742,126.036133 C311.852211,125.670897 311.585449,125.099776 311.585449,124.322754 C311.585449,123.613766 311.843259,123.024742 312.358887,122.555664 C312.874514,122.086586 313.631831,121.852051 314.630859,121.852051 C315.465173,121.852051 316.176836,122.073159 316.765869,122.515381 C317.354902,122.957603 317.663737,123.599442 317.692383,124.440918 L316.102539,124.440918 C316.073893,123.964679 315.866213,123.626303 315.479492,123.425781 C315.221678,123.293294 314.901206,123.227051 314.518066,123.227051 C314.091958,123.227051 313.751792,123.312987 313.497559,123.484863 C313.243326,123.656739 313.116211,123.896646 313.116211,124.20459 C313.116211,124.487469 313.241535,124.69873 313.492188,124.838379 C313.653321,124.931478 313.997068,125.040689 314.523438,125.166016 L315.887695,125.493652 C316.48568,125.636882 316.936847,125.828449 317.241211,126.068359 C317.71387,126.440757 317.950195,126.979651 317.950195,127.685059 C317.950195,128.40837 317.673587,129.009031 317.120361,129.487061 C316.567136,129.96509 315.78565,130.204102 314.775879,130.204102 C313.744624,130.204102 312.933597,129.968671 312.342773,129.497803 C311.75195,129.026934 311.456543,128.379724 311.456543,127.556152 L313.035645,127.556152 Z M320.689453,130 L319.045898,130 L319.045898,122.083008 L320.689453,122.083008 L320.689453,130 Z M327.983398,122.083008 L327.983398,123.484863 L325.614746,123.484863 L325.614746,130 L323.949707,130 L323.949707,123.484863 L321.570312,123.484863 L321.570312,122.083008 L327.983398,122.083008 Z M334.170898,127.008301 L336.179688,127.008301 L335.191406,123.893066 L334.170898,127.008301 Z M334.272949,122.083008 L336.14209,122.083008 L338.945801,130 L337.151855,130 L336.641602,128.372559 L333.725098,128.372559 L333.177246,130 L331.447754,130 L334.272949,122.083008 Z M345.197754,122.083008 L347.577148,122.083008 L347.577148,130 L346.035645,130 L346.035645,124.64502 C346.035645,124.491047 346.037435,124.275311 346.041016,123.997803 C346.044596,123.720295 346.046387,123.506348 346.046387,123.355957 L344.547852,130 L342.941895,130 L341.454102,123.355957 C341.454102,123.506348 341.455892,123.720295 341.459473,123.997803 C341.463053,124.275311 341.464844,124.491047 341.464844,124.64502 L341.464844,130 L339.92334,130 L339.92334,122.083008 L342.32959,122.083008 L343.769043,128.308105 L345.197754,122.083008 Z M354.967773,123.484863 L350.77832,123.484863 L350.77832,125.166016 L354.624023,125.166016 L354.624023,126.541016 L350.77832,126.541016 L350.77832,128.57666 L355.161133,128.57666 L355.161133,130 L349.161621,130 L349.161621,122.083008 L354.967773,122.083008 L354.967773,123.484863 Z M362.202637,122.083008 L362.202637,123.484863 L359.833984,123.484863 L359.833984,130 L358.168945,130 L358.168945,123.484863 L355.789551,123.484863 L355.789551,122.083008 L362.202637,122.083008 Z" id="LOREM-IPSUM-DOLOR-SI-Copy-4" fill="#B6B6B6"></path>
                <path d="M515.837891,56.0830078 L517.492188,56.0830078 L517.492188,62.5766602 L521.413086,62.5766602 L521.413086,64 L515.837891,64 L515.837891,56.0830078 Z M526.059082,62.8183594 C526.714359,62.8183594 527.234454,62.5766626 527.619385,62.0932617 C528.004315,61.6098609 528.196777,60.9223677 528.196777,60.0307617 C528.196777,59.1427364 528.004315,58.4561385 527.619385,57.9709473 C527.234454,57.485756 526.714359,57.2431641 526.059082,57.2431641 C525.403805,57.2431641 524.881024,57.4848609 524.490723,57.9682617 C524.100421,58.4516626 523.905273,59.1391557 523.905273,60.0307617 C523.905273,60.9223677 524.100421,61.6098609 524.490723,62.0932617 C524.881024,62.5766626 525.403805,62.8183594 526.059082,62.8183594 Z M529.851074,60.0307617 C529.851074,61.4523183 529.451827,62.5408491 528.65332,63.2963867 C528.055336,63.9122752 527.190598,64.2202148 526.059082,64.2202148 C524.927566,64.2202148 524.062829,63.9122752 523.464844,63.2963867 C522.662756,62.5408491 522.261719,61.4523183 522.261719,60.0307617 C522.261719,58.5805592 522.662756,57.4920284 523.464844,56.7651367 C524.062829,56.1492482 524.927566,55.8413086 526.059082,55.8413086 C527.190598,55.8413086 528.055336,56.1492482 528.65332,56.7651367 C529.451827,57.4920284 529.851074,58.5805592 529.851074,60.0307617 Z M532.767578,57.4580078 L532.767578,59.5849609 L534.64209,59.5849609 C535.014488,59.5849609 535.293782,59.5419926 535.47998,59.4560547 C535.809409,59.3056633 535.974121,59.0084658 535.974121,58.5644531 C535.974121,58.084633 535.81478,57.7623706 535.496094,57.5976562 C535.317056,57.5045568 535.048504,57.4580078 534.69043,57.4580078 L532.767578,57.4580078 Z M535.03418,56.0830078 C535.589195,56.0937501 536.016193,56.1617832 536.315186,56.2871094 C536.614178,56.4124355 536.867512,56.5968412 537.075195,56.840332 C537.247071,57.0408539 537.383138,57.2628569 537.483398,57.5063477 C537.583659,57.7498385 537.633789,58.0273422 537.633789,58.3388672 C537.633789,58.7148456 537.538901,59.0845522 537.349121,59.447998 C537.159341,59.8114439 536.846031,60.0683586 536.40918,60.21875 C536.774416,60.3655606 537.033121,60.574136 537.185303,60.8444824 C537.337484,61.1148288 537.413574,61.5275037 537.413574,62.0825195 L537.413574,62.6142578 C537.413574,62.9759133 537.427897,63.2211908 537.456543,63.3500977 C537.499512,63.5542002 537.599771,63.7045894 537.757324,63.8012695 L537.757324,64 L535.936523,64 C535.886393,63.8245434 535.850586,63.683106 535.829102,63.5756836 C535.786133,63.3536773 535.762858,63.1263032 535.759277,62.8935547 L535.748535,62.1577148 C535.741374,61.6528295 535.649171,61.3162443 535.471924,61.1479492 C535.294677,60.9796541 534.962568,60.8955078 534.475586,60.8955078 L532.767578,60.8955078 L532.767578,64 L531.150879,64 L531.150879,56.0830078 L535.03418,56.0830078 Z M544.911621,57.4848633 L540.722168,57.4848633 L540.722168,59.1660156 L544.567871,59.1660156 L544.567871,60.5410156 L540.722168,60.5410156 L540.722168,62.5766602 L545.10498,62.5766602 L545.10498,64 L539.105469,64 L539.105469,56.0830078 L544.911621,56.0830078 L544.911621,57.4848633 Z M551.641602,56.0830078 L554.020996,56.0830078 L554.020996,64 L552.479492,64 L552.479492,58.6450195 C552.479492,58.4910474 552.481283,58.2753106 552.484863,57.9978027 C552.488444,57.7202948 552.490234,57.5063484 552.490234,57.355957 L550.991699,64 L549.385742,64 L547.897949,57.355957 C547.897949,57.5063484 547.89974,57.7202948 547.90332,57.9978027 C547.906901,58.2753106 547.908691,58.4910474 547.908691,58.6450195 L547.908691,64 L546.367188,64 L546.367188,56.0830078 L548.773438,56.0830078 L550.212891,62.3081055 L551.641602,56.0830078 Z M517.352539,86 L515.708984,86 L515.708984,78.0830078 L517.352539,78.0830078 L517.352539,86 Z M523.352051,80.6020508 C523.352051,80.1902649 523.243735,79.896648 523.0271,79.7211914 C522.810464,79.5457348 522.507001,79.4580078 522.116699,79.4580078 L520.575195,79.4580078 L520.575195,81.7890625 L522.116699,81.7890625 C522.507001,81.7890625 522.810464,81.6941741 523.0271,81.5043945 C523.243735,81.3146149 523.352051,81.0138367 523.352051,80.6020508 Z M524.990234,80.5913086 C524.990234,81.5258836 524.753909,82.1865215 524.28125,82.5732422 C523.808591,82.9599629 523.133631,83.1533203 522.256348,83.1533203 L520.575195,83.1533203 L520.575195,86 L518.931641,86 L518.931641,78.0830078 L522.379883,78.0830078 C523.174809,78.0830078 523.808591,78.2871073 524.28125,78.6953125 C524.753909,79.1035177 524.990234,79.73551 524.990234,80.5913086 Z M527.428711,83.5561523 C527.478841,83.9178078 527.57731,84.1881501 527.724121,84.3671875 C527.992677,84.6930355 528.452796,84.855957 529.104492,84.855957 C529.494794,84.855957 529.811685,84.8129887 530.055176,84.7270508 C530.517092,84.5623364 530.748047,84.2561871 530.748047,83.8085938 C530.748047,83.5471992 530.633465,83.34489 530.404297,83.2016602 C530.175129,83.062011 529.815269,82.9384771 529.324707,82.8310547 L528.486816,82.6430664 C527.663245,82.4568676 527.093914,82.2545584 526.778809,82.0361328 C526.245277,81.6708966 525.978516,81.099776 525.978516,80.3227539 C525.978516,79.613766 526.236326,79.0247419 526.751953,78.5556641 C527.267581,78.0865862 528.024897,77.8520508 529.023926,77.8520508 C529.85824,77.8520508 530.569903,78.0731586 531.158936,78.5153809 C531.747968,78.9576031 532.056803,79.5994424 532.085449,80.440918 L530.495605,80.440918 C530.466959,79.9646786 530.259279,79.6263031 529.872559,79.4257812 C529.614745,79.2932936 529.294273,79.2270508 528.911133,79.2270508 C528.485024,79.2270508 528.144858,79.3129874 527.890625,79.4848633 C527.636392,79.6567391 527.509277,79.8966456 527.509277,80.2045898 C527.509277,80.4874689 527.634602,80.6987298 527.885254,80.8383789 C528.046388,80.9314783 528.390134,81.0406895 528.916504,81.1660156 L530.280762,81.4936523 C530.878746,81.6368822 531.329914,81.8284493 531.634277,82.0683594 C532.106936,82.4407571 532.343262,82.9796514 532.343262,83.6850586 C532.343262,84.4083695 532.066653,85.0090308 531.513428,85.4870605 C530.960202,85.9650903 530.178716,86.2041016 529.168945,86.2041016 C528.13769,86.2041016 527.326663,85.968671 526.73584,85.4978027 C526.145017,85.0269345 525.849609,84.3797242 525.849609,83.5561523 L527.428711,83.5561523 Z M533.567871,78.0830078 L535.249023,78.0830078 L535.249023,82.9492188 C535.249023,83.4934923 535.313476,83.8909493 535.442383,84.1416016 C535.642905,84.5856142 536.079749,84.8076172 536.75293,84.8076172 C537.422529,84.8076172 537.857584,84.5856142 538.058105,84.1416016 C538.187012,83.8909493 538.251465,83.4934923 538.251465,82.9492188 L538.251465,78.0830078 L539.932617,78.0830078 L539.932617,82.9492188 C539.932617,83.7906943 539.801922,84.4459612 539.540527,84.9150391 C539.053546,85.7744184 538.124356,86.2041016 536.75293,86.2041016 C535.381504,86.2041016 534.450523,85.7744184 533.959961,84.9150391 C533.698566,84.4459612 533.567871,83.7906943 533.567871,82.9492188 L533.567871,78.0830078 Z M546.759277,78.0830078 L549.138672,78.0830078 L549.138672,86 L547.597168,86 L547.597168,80.6450195 C547.597168,80.4910474 547.598958,80.2753106 547.602539,79.9978027 C547.60612,79.7202948 547.60791,79.5063484 547.60791,79.355957 L546.109375,86 L544.503418,86 L543.015625,79.355957 C543.015625,79.5063484 543.017415,79.7202948 543.020996,79.9978027 C543.024577,80.2753106 543.026367,80.4910474 543.026367,80.6450195 L543.026367,86 L541.484863,86 L541.484863,78.0830078 L543.891113,78.0830078 L545.330566,84.3081055 L546.759277,78.0830078 Z M517.443848,101.458008 L517.443848,106.625 L518.969238,106.625 C519.749841,106.625 520.294107,106.240075 520.602051,105.470215 C520.770346,105.047687 520.854492,104.544599 520.854492,103.960938 C520.854492,103.155269 520.728273,102.536705 520.47583,102.105225 C520.223387,101.673745 519.721195,101.458008 518.969238,101.458008 L517.443848,101.458008 Z M519.248535,100.083008 C519.739098,100.090169 520.147297,100.14746 520.473145,100.254883 C521.02816,100.437501 521.477537,100.772296 521.821289,101.259277 C522.097007,101.65316 522.284993,102.079262 522.385254,102.537598 C522.485515,102.995933 522.535645,103.432778 522.535645,103.848145 C522.535645,104.900884 522.324384,105.792477 521.901855,106.522949 C521.328936,107.507655 520.444505,108 519.248535,108 L515.837891,108 L515.837891,100.083008 L519.248535,100.083008 Z M527.283691,106.818359 C527.938968,106.818359 528.459064,106.576663 528.843994,106.093262 C529.228924,105.609861 529.421387,104.922368 529.421387,104.030762 C529.421387,103.142736 529.228924,102.456138 528.843994,101.970947 C528.459064,101.485756 527.938968,101.243164 527.283691,101.243164 C526.628415,101.243164 526.105633,101.484861 525.715332,101.968262 C525.325031,102.451663 525.129883,103.139156 525.129883,104.030762 C525.129883,104.922368 525.325031,105.609861 525.715332,106.093262 C526.105633,106.576663 526.628415,106.818359 527.283691,106.818359 Z M531.075684,104.030762 C531.075684,105.452318 530.676436,106.540849 529.87793,107.296387 C529.279945,107.912275 528.415207,108.220215 527.283691,108.220215 C526.152175,108.220215 525.287438,107.912275 524.689453,107.296387 C523.887366,106.540849 523.486328,105.452318 523.486328,104.030762 C523.486328,102.580559 523.887366,101.492028 524.689453,100.765137 C525.287438,100.149248 526.152175,99.8413086 527.283691,99.8413086 C528.415207,99.8413086 529.279945,100.149248 529.87793,100.765137 C530.676436,101.492028 531.075684,102.580559 531.075684,104.030762 Z M532.337891,100.083008 L533.992188,100.083008 L533.992188,106.57666 L537.913086,106.57666 L537.913086,108 L532.337891,108 L532.337891,100.083008 Z M542.559082,106.818359 C543.214359,106.818359 543.734454,106.576663 544.119385,106.093262 C544.504315,105.609861 544.696777,104.922368 544.696777,104.030762 C544.696777,103.142736 544.504315,102.456138 544.119385,101.970947 C543.734454,101.485756 543.214359,101.243164 542.559082,101.243164 C541.903805,101.243164 541.381024,101.484861 540.990723,101.968262 C540.600421,102.451663 540.405273,103.139156 540.405273,104.030762 C540.405273,104.922368 540.600421,105.609861 540.990723,106.093262 C541.381024,106.576663 541.903805,106.818359 542.559082,106.818359 Z M546.351074,104.030762 C546.351074,105.452318 545.951827,106.540849 545.15332,107.296387 C544.555336,107.912275 543.690598,108.220215 542.559082,108.220215 C541.427566,108.220215 540.562829,107.912275 539.964844,107.296387 C539.162756,106.540849 538.761719,105.452318 538.761719,104.030762 C538.761719,102.580559 539.162756,101.492028 539.964844,100.765137 C540.562829,100.149248 541.427566,99.8413086 542.559082,99.8413086 C543.690598,99.8413086 544.555336,100.149248 545.15332,100.765137 C545.951827,101.492028 546.351074,102.580559 546.351074,104.030762 Z M549.267578,101.458008 L549.267578,103.584961 L551.14209,103.584961 C551.514488,103.584961 551.793782,103.541993 551.97998,103.456055 C552.309409,103.305663 552.474121,103.008466 552.474121,102.564453 C552.474121,102.084633 552.31478,101.762371 551.996094,101.597656 C551.817056,101.504557 551.548504,101.458008 551.19043,101.458008 L549.267578,101.458008 Z M551.53418,100.083008 C552.089195,100.09375 552.516193,100.161783 552.815186,100.287109 C553.114178,100.412436 553.367512,100.596841 553.575195,100.840332 C553.747071,101.040854 553.883138,101.262857 553.983398,101.506348 C554.083659,101.749838 554.133789,102.027342 554.133789,102.338867 C554.133789,102.714846 554.038901,103.084552 553.849121,103.447998 C553.659341,103.811444 553.346031,104.068359 552.90918,104.21875 C553.274416,104.365561 553.533121,104.574136 553.685303,104.844482 C553.837484,105.114829 553.913574,105.527504 553.913574,106.08252 L553.913574,106.614258 C553.913574,106.975913 553.927897,107.221191 553.956543,107.350098 C553.999512,107.5542 554.099771,107.704589 554.257324,107.80127 L554.257324,108 L552.436523,108 C552.386393,107.824543 552.350586,107.683106 552.329102,107.575684 C552.286133,107.353677 552.262858,107.126303 552.259277,106.893555 L552.248535,106.157715 C552.241374,105.65283 552.149171,105.316244 551.971924,105.147949 C551.794677,104.979654 551.462568,104.895508 550.975586,104.895508 L549.267578,104.895508 L549.267578,108 L547.650879,108 L547.650879,100.083008 L551.53418,100.083008 Z M517.035645,127.556152 C517.085775,127.917808 517.184244,128.18815 517.331055,128.367188 C517.599611,128.693035 518.05973,128.855957 518.711426,128.855957 C519.101727,128.855957 519.418619,128.812989 519.662109,128.727051 C520.124026,128.562336 520.35498,128.256187 520.35498,127.808594 C520.35498,127.547199 520.240398,127.34489 520.01123,127.20166 C519.782063,127.062011 519.422203,126.938477 518.931641,126.831055 L518.09375,126.643066 C517.270178,126.456868 516.700848,126.254558 516.385742,126.036133 C515.852211,125.670897 515.585449,125.099776 515.585449,124.322754 C515.585449,123.613766 515.843259,123.024742 516.358887,122.555664 C516.874514,122.086586 517.631831,121.852051 518.630859,121.852051 C519.465173,121.852051 520.176836,122.073159 520.765869,122.515381 C521.354902,122.957603 521.663737,123.599442 521.692383,124.440918 L520.102539,124.440918 C520.073893,123.964679 519.866213,123.626303 519.479492,123.425781 C519.221678,123.293294 518.901206,123.227051 518.518066,123.227051 C518.091958,123.227051 517.751792,123.312987 517.497559,123.484863 C517.243326,123.656739 517.116211,123.896646 517.116211,124.20459 C517.116211,124.487469 517.241535,124.69873 517.492188,124.838379 C517.653321,124.931478 517.997068,125.040689 518.523438,125.166016 L519.887695,125.493652 C520.48568,125.636882 520.936847,125.828449 521.241211,126.068359 C521.71387,126.440757 521.950195,126.979651 521.950195,127.685059 C521.950195,128.40837 521.673587,129.009031 521.120361,129.487061 C520.567136,129.96509 519.78565,130.204102 518.775879,130.204102 C517.744624,130.204102 516.933597,129.968671 516.342773,129.497803 C515.75195,129.026934 515.456543,128.379724 515.456543,127.556152 L517.035645,127.556152 Z M524.689453,130 L523.045898,130 L523.045898,122.083008 L524.689453,122.083008 L524.689453,130 Z M531.983398,122.083008 L531.983398,123.484863 L529.614746,123.484863 L529.614746,130 L527.949707,130 L527.949707,123.484863 L525.570312,123.484863 L525.570312,122.083008 L531.983398,122.083008 Z M538.170898,127.008301 L540.179688,127.008301 L539.191406,123.893066 L538.170898,127.008301 Z M538.272949,122.083008 L540.14209,122.083008 L542.945801,130 L541.151855,130 L540.641602,128.372559 L537.725098,128.372559 L537.177246,130 L535.447754,130 L538.272949,122.083008 Z M549.197754,122.083008 L551.577148,122.083008 L551.577148,130 L550.035645,130 L550.035645,124.64502 C550.035645,124.491047 550.037435,124.275311 550.041016,123.997803 C550.044596,123.720295 550.046387,123.506348 550.046387,123.355957 L548.547852,130 L546.941895,130 L545.454102,123.355957 C545.454102,123.506348 545.455892,123.720295 545.459473,123.997803 C545.463053,124.275311 545.464844,124.491047 545.464844,124.64502 L545.464844,130 L543.92334,130 L543.92334,122.083008 L546.32959,122.083008 L547.769043,128.308105 L549.197754,122.083008 Z M558.967773,123.484863 L554.77832,123.484863 L554.77832,125.166016 L558.624023,125.166016 L558.624023,126.541016 L554.77832,126.541016 L554.77832,128.57666 L559.161133,128.57666 L559.161133,130 L553.161621,130 L553.161621,122.083008 L558.967773,122.083008 L558.967773,123.484863 Z M566.202637,122.083008 L566.202637,123.484863 L563.833984,123.484863 L563.833984,130 L562.168945,130 L562.168945,123.484863 L559.789551,123.484863 L559.789551,122.083008 L566.202637,122.083008 Z" id="LOREM-IPSUM-DOLOR-SI-Copy-6" fill="#B6B6B6"></path>
                <path d="M415.043945,30.0576172 L415.043945,36.6337891 L416.985352,36.6337891 C417.978846,36.6337891 418.671548,36.1438851 419.063477,35.1640625 C419.27767,34.6262994 419.384766,33.9860063 419.384766,33.2431641 C419.384766,32.2177683 419.224123,31.430504 418.902832,30.8813477 C418.581541,30.3321913 417.942388,30.0576172 416.985352,30.0576172 L415.043945,30.0576172 Z M417.34082,28.3076172 C417.965172,28.3167318 418.484698,28.3896478 418.899414,28.5263672 C419.605798,28.7587902 420.177732,29.1848927 420.615234,29.8046875 C420.966148,30.3059921 421.205403,30.8483044 421.333008,31.4316406 C421.460613,32.0149769 421.524414,32.5709609 421.524414,33.0996094 C421.524414,34.4394598 421.255537,35.5742141 420.717773,36.5039062 C419.988603,37.7571677 418.862963,38.3837891 417.34082,38.3837891 L413,38.3837891 L413,28.3076172 L417.34082,28.3076172 Z M427.567383,36.8798828 C428.401371,36.8798828 429.063311,36.5722687 429.553223,35.9570312 C430.043134,35.3417938 430.288086,34.4668025 430.288086,33.3320312 C430.288086,32.2018173 430.043134,31.3279653 429.553223,30.7104492 C429.063311,30.0929331 428.401371,29.7841797 427.567383,29.7841797 C426.733394,29.7841797 426.068036,30.0917938 425.571289,30.7070312 C425.074542,31.3222687 424.826172,32.19726 424.826172,33.3320312 C424.826172,34.4668025 425.074542,35.3417938 425.571289,35.9570312 C426.068036,36.5722687 426.733394,36.8798828 427.567383,36.8798828 Z M432.393555,33.3320312 C432.393555,35.1412851 431.885422,36.5266879 430.869141,37.4882812 C430.108069,38.2721393 429.007494,38.6640625 427.567383,38.6640625 C426.127271,38.6640625 425.026697,38.2721393 424.265625,37.4882812 C423.244787,36.5266879 422.734375,35.1412851 422.734375,33.3320312 C422.734375,31.4863189 423.244787,30.1009161 424.265625,29.1757812 C425.026697,28.3919232 426.127271,28 427.567383,28 C429.007494,28 430.108069,28.3919232 430.869141,29.1757812 C431.885422,30.1009161 432.393555,31.4863189 432.393555,33.3320312 Z M434,28.3076172 L436.105469,28.3076172 L436.105469,36.5722656 L441.095703,36.5722656 L441.095703,38.3837891 L434,38.3837891 L434,28.3076172 Z M447.008789,36.8798828 C447.842778,36.8798828 448.504718,36.5722687 448.994629,35.9570312 C449.48454,35.3417938 449.729492,34.4668025 449.729492,33.3320312 C449.729492,32.2018173 449.48454,31.3279653 448.994629,30.7104492 C448.504718,30.0929331 447.842778,29.7841797 447.008789,29.7841797 C446.174801,29.7841797 445.509443,30.0917938 445.012695,30.7070312 C444.515948,31.3222687 444.267578,32.19726 444.267578,33.3320312 C444.267578,34.4668025 444.515948,35.3417938 445.012695,35.9570312 C445.509443,36.5722687 446.174801,36.8798828 447.008789,36.8798828 Z M451.834961,33.3320312 C451.834961,35.1412851 451.326828,36.5266879 450.310547,37.4882812 C449.549475,38.2721393 448.4489,38.6640625 447.008789,38.6640625 C445.568678,38.6640625 444.468103,38.2721393 443.707031,37.4882812 C442.686193,36.5266879 442.175781,35.1412851 442.175781,33.3320312 C442.175781,31.4863189 442.686193,30.1009161 443.707031,29.1757812 C444.468103,28.3919232 445.568678,28 447.008789,28 C448.4489,28 449.549475,28.3919232 450.310547,29.1757812 C451.326828,30.1009161 451.834961,31.4863189 451.834961,33.3320312 Z M455.546875,30.0576172 L455.546875,32.7646484 L457.932617,32.7646484 C458.406578,32.7646484 458.762043,32.7099615 458.999023,32.6005859 C459.418296,32.4091787 459.62793,32.0309273 459.62793,31.4658203 C459.62793,30.8551402 459.425132,30.444988 459.019531,30.2353516 C458.791666,30.1168614 458.449872,30.0576172 457.994141,30.0576172 L455.546875,30.0576172 Z M458.431641,28.3076172 C459.138024,28.3212891 459.681476,28.4078768 460.062012,28.5673828 C460.442547,28.7268888 460.764973,28.961587 461.029297,29.2714844 C461.248048,29.526694 461.421223,29.8092432 461.548828,30.1191406 C461.676433,30.429038 461.740234,30.7822246 461.740234,31.1787109 C461.740234,31.657229 461.619467,32.1277646 461.37793,32.590332 C461.136392,33.0528994 460.737633,33.3798819 460.181641,33.5712891 C460.646487,33.758139 460.975748,34.0235985 461.169434,34.3676758 C461.363119,34.711753 461.459961,35.2369756 461.459961,35.9433594 L461.459961,36.6201172 C461.459961,37.0804059 461.47819,37.3925773 461.514648,37.5566406 C461.569336,37.8164075 461.696939,38.0078119 461.897461,38.1308594 L461.897461,38.3837891 L459.580078,38.3837891 C459.516276,38.1604807 459.470703,37.9804694 459.443359,37.84375 C459.388672,37.5611965 459.35905,37.2718114 459.354492,36.9755859 L459.34082,36.0390625 C459.331706,35.3964812 459.214357,34.9681 458.98877,34.7539062 C458.763182,34.5397125 458.340498,34.4326172 457.720703,34.4326172 L455.546875,34.4326172 L455.546875,38.3837891 L453.489258,38.3837891 L453.489258,28.3076172 L458.431641,28.3076172 Z" id="LOREM-IPSUM-DOLOR-SI-Copy-2" fill="#797979"></path>
                <path d="M517.009766,35.2597656 C517.073568,35.7200544 517.198892,36.0641265 517.385742,36.2919922 C517.727541,36.7067078 518.313147,36.9140625 519.142578,36.9140625 C519.639325,36.9140625 520.042642,36.8593755 520.352539,36.75 C520.940433,36.5403635 521.234375,36.150719 521.234375,35.5810547 C521.234375,35.2483707 521.088543,34.9908863 520.796875,34.8085938 C520.505207,34.6308585 520.047204,34.4736335 519.422852,34.3369141 L518.356445,34.0976562 C517.308263,33.8606759 516.583661,33.6031915 516.182617,33.3251953 C515.503577,32.8603492 515.164062,32.1334685 515.164062,31.1445312 C515.164062,30.242183 515.492184,29.492516 516.148438,28.8955078 C516.804691,28.2984996 517.768548,28 519.040039,28 C520.101893,28 521.007646,28.2814099 521.757324,28.8442383 C522.507002,29.4070666 522.900065,30.223953 522.936523,31.2949219 L520.913086,31.2949219 C520.876627,30.6887991 520.612307,30.2581393 520.120117,30.0029297 C519.791991,29.8343091 519.384117,29.75 518.896484,29.75 C518.354164,29.75 517.921226,29.8593739 517.597656,30.078125 C517.274087,30.2968761 517.112305,30.6022116 517.112305,30.9941406 C517.112305,31.3541685 517.271808,31.623046 517.59082,31.8007812 C517.795899,31.9192714 518.233395,32.0582674 518.90332,32.2177734 L520.639648,32.6347656 C521.40072,32.8170582 521.974933,33.0608709 522.362305,33.3662109 C522.96387,33.8401716 523.264648,34.5260372 523.264648,35.4238281 C523.264648,36.3444056 522.912601,37.1088837 522.208496,37.7172852 C521.504391,38.3256866 520.509772,38.6298828 519.224609,38.6298828 C517.912103,38.6298828 516.879887,38.3302439 516.12793,37.730957 C515.375973,37.1316702 515,36.3079479 515,35.2597656 L517.009766,35.2597656 Z M526.750977,38.3701172 L524.65918,38.3701172 L524.65918,28.2939453 L526.750977,28.2939453 L526.750977,38.3701172 Z M536.03418,28.2939453 L536.03418,30.078125 L533.019531,30.078125 L533.019531,38.3701172 L530.900391,38.3701172 L530.900391,30.078125 L527.87207,30.078125 L527.87207,28.2939453 L536.03418,28.2939453 Z M543.90918,34.5625 L546.46582,34.5625 L545.208008,30.5976562 L543.90918,34.5625 Z M544.039062,28.2939453 L546.417969,28.2939453 L549.986328,38.3701172 L547.703125,38.3701172 L547.053711,36.2988281 L543.341797,36.2988281 L542.644531,38.3701172 L540.443359,38.3701172 L544.039062,28.2939453 Z M557.943359,28.2939453 L560.97168,28.2939453 L560.97168,38.3701172 L559.009766,38.3701172 L559.009766,31.5546875 C559.009766,31.358723 559.012044,31.0841489 559.016602,30.730957 C559.021159,30.3777652 559.023438,30.1054697 559.023438,29.9140625 L557.116211,38.3701172 L555.072266,38.3701172 L553.178711,29.9140625 C553.178711,30.1054697 553.18099,30.3777652 553.185547,30.730957 C553.190104,31.0841489 553.192383,31.358723 553.192383,31.5546875 L553.192383,38.3701172 L551.230469,38.3701172 L551.230469,28.2939453 L554.292969,28.2939453 L556.125,36.2167969 L557.943359,28.2939453 Z M570.37793,30.078125 L565.045898,30.078125 L565.045898,32.2177734 L569.94043,32.2177734 L569.94043,33.9677734 L565.045898,33.9677734 L565.045898,36.5585938 L570.624023,36.5585938 L570.624023,38.3701172 L562.988281,38.3701172 L562.988281,28.2939453 L570.37793,28.2939453 L570.37793,30.078125 Z M579.585938,28.2939453 L579.585938,30.078125 L576.571289,30.078125 L576.571289,38.3701172 L574.452148,38.3701172 L574.452148,30.078125 L571.423828,30.078125 L571.423828,28.2939453 L579.585938,28.2939453 Z" id="LOREM-IPSUM-DOLOR-SI-Copy-3" fill="#797979"></path>
            </g>
        </g>
    </g>
</svg>