<?xml version="1.0" encoding="UTF-8"?>
<svg width="665px" height="74px" viewBox="0 0 665 74" version="1.1" xmlns="http://www.w3.org/2000/svg" xmlns:xlink="http://www.w3.org/1999/xlink">
    <!-- Generator: Sketch 49.3 (51167) - http://www.bohemiancoding.com/sketch -->
    <title>Group</title>
    <desc>Created with Sketch.</desc>
    <defs></defs>
    <g id="Page-1" stroke="none" stroke-width="1" fill="none" fill-rule="evenodd">
        <g id="Artboard" transform="translate(-143.000000, -183.000000)">
            <g id="Group" transform="translate(143.000000, 183.000000)">
                <rect id="Rectangle-4" fill="#FFFFFF" x="0" y="0" width="665" height="74"></rect>
                <path d="M276.994141,41 L274.902344,41 L274.902344,30.9238281 L276.994141,30.9238281 L276.994141,41 Z M286.277344,30.9238281 L286.277344,32.7080078 L283.262695,32.7080078 L283.262695,41 L281.143555,41 L281.143555,32.7080078 L278.115234,32.7080078 L278.115234,30.9238281 L286.277344,30.9238281 Z M294.958984,32.7080078 L289.626953,32.7080078 L289.626953,34.8476562 L294.521484,34.8476562 L294.521484,36.5976562 L289.626953,36.5976562 L289.626953,39.1884766 L295.205078,39.1884766 L295.205078,41 L287.569336,41 L287.569336,30.9238281 L294.958984,30.9238281 L294.958984,32.7080078 Z M303.524414,30.9238281 L306.552734,30.9238281 L306.552734,41 L304.59082,41 L304.59082,34.1845703 C304.59082,33.9886058 304.593099,33.7140317 304.597656,33.3608398 C304.602214,33.007648 304.604492,32.7353525 304.604492,32.5439453 L302.697266,41 L300.65332,41 L298.759766,32.5439453 C298.759766,32.7353525 298.762044,33.007648 298.766602,33.3608398 C298.771159,33.7140317 298.773438,33.9886058 298.773438,34.1845703 L298.773438,41 L296.811523,41 L296.811523,30.9238281 L299.874023,30.9238281 L301.706055,38.8466797 L303.524414,30.9238281 Z M349.332031,41 L347.240234,41 L347.240234,30.9238281 L349.332031,30.9238281 L349.332031,41 Z M358.615234,30.9238281 L358.615234,32.7080078 L355.600586,32.7080078 L355.600586,41 L353.481445,41 L353.481445,32.7080078 L350.453125,32.7080078 L350.453125,30.9238281 L358.615234,30.9238281 Z M367.296875,32.7080078 L361.964844,32.7080078 L361.964844,34.8476562 L366.859375,34.8476562 L366.859375,36.5976562 L361.964844,36.5976562 L361.964844,39.1884766 L367.542969,39.1884766 L367.542969,41 L359.907227,41 L359.907227,30.9238281 L367.296875,30.9238281 L367.296875,32.7080078 Z M375.862305,30.9238281 L378.890625,30.9238281 L378.890625,41 L376.928711,41 L376.928711,34.1845703 C376.928711,33.9886058 376.93099,33.7140317 376.935547,33.3608398 C376.940104,33.007648 376.942383,32.7353525 376.942383,32.5439453 L375.035156,41 L372.991211,41 L371.097656,32.5439453 C371.097656,32.7353525 371.099935,33.007648 371.104492,33.3608398 C371.10905,33.7140317 371.111328,33.9886058 371.111328,34.1845703 L371.111328,41 L369.149414,41 L369.149414,30.9238281 L372.211914,30.9238281 L374.043945,38.8466797 L375.862305,30.9238281 Z M421.786133,32.6738281 L421.786133,39.25 L423.727539,39.25 C424.721034,39.25 425.413735,38.760096 425.805664,37.7802734 C426.019858,37.2425103 426.126953,36.6022173 426.126953,35.859375 C426.126953,34.8339792 425.96631,34.046715 425.64502,33.4975586 C425.323729,32.9484022 424.684575,32.6738281 423.727539,32.6738281 L421.786133,32.6738281 Z M424.083008,30.9238281 C424.70736,30.9329428 425.226886,31.0058587 425.641602,31.1425781 C426.347985,31.3750012 426.91992,31.8011037 427.357422,32.4208984 C427.708335,32.922203 427.947591,33.4645153 428.075195,34.0478516 C428.2028,34.6311878 428.266602,35.1871718 428.266602,35.7158203 C428.266602,37.0556708 427.997724,38.190425 427.459961,39.1201172 C426.730791,40.3733787 425.605151,41 424.083008,41 L419.742188,41 L419.742188,30.9238281 L424.083008,30.9238281 Z M431.958008,32.6738281 L431.958008,35.3808594 L434.34375,35.3808594 C434.817711,35.3808594 435.173176,35.3261724 435.410156,35.2167969 C435.829429,35.0253897 436.039062,34.6471382 436.039062,34.0820312 C436.039062,33.4713511 435.836265,33.061199 435.430664,32.8515625 C435.202798,32.7330723 434.861005,32.6738281 434.405273,32.6738281 L431.958008,32.6738281 Z M434.842773,30.9238281 C435.549157,30.9375001 436.092609,31.0240877 436.473145,31.1835938 C436.85368,31.3430998 437.176105,31.5777979 437.44043,31.8876953 C437.659181,32.1429049 437.832356,32.4254542 437.959961,32.7353516 C438.087566,33.0452489 438.151367,33.3984355 438.151367,33.7949219 C438.151367,34.2734399 438.0306,34.7439756 437.789062,35.206543 C437.547525,35.6691104 437.148766,35.9960928 436.592773,36.1875 C437.05762,36.3743499 437.386881,36.6398095 437.580566,36.9838867 C437.774252,37.327964 437.871094,37.8531866 437.871094,38.5595703 L437.871094,39.2363281 C437.871094,39.6966169 437.889323,40.0087882 437.925781,40.1728516 C437.980469,40.4326185 438.108072,40.6240228 438.308594,40.7470703 L438.308594,41 L435.991211,41 C435.927409,40.7766916 435.881836,40.5966804 435.854492,40.4599609 C435.799804,40.1774074 435.770182,39.8880223 435.765625,39.5917969 L435.751953,38.6552734 C435.742838,38.0126921 435.625489,37.584311 435.399902,37.3701172 C435.174315,37.1559234 434.751631,37.0488281 434.131836,37.0488281 L431.958008,37.0488281 L431.958008,41 L429.900391,41 L429.900391,30.9238281 L434.842773,30.9238281 Z M444.419922,39.4960938 C445.25391,39.4960938 445.91585,39.1884796 446.405762,38.5732422 C446.895673,37.9580047 447.140625,37.0830135 447.140625,35.9482422 C447.140625,34.8180282 446.895673,33.9441763 446.405762,33.3266602 C445.91585,32.709144 445.25391,32.4003906 444.419922,32.4003906 C443.585933,32.4003906 442.920575,32.7080047 442.423828,33.3232422 C441.927081,33.9384796 441.678711,34.8134709 441.678711,35.9482422 C441.678711,37.0830135 441.927081,37.9580047 442.423828,38.5732422 C442.920575,39.1884796 443.585933,39.4960938 444.419922,39.4960938 Z M449.246094,35.9482422 C449.246094,37.757496 448.737961,39.1428988 447.72168,40.1044922 C446.960608,40.8883503 445.860033,41.2802734 444.419922,41.2802734 C442.979811,41.2802734 441.879236,40.8883503 441.118164,40.1044922 C440.097326,39.1428988 439.586914,37.757496 439.586914,35.9482422 C439.586914,34.1025298 440.097326,32.717127 441.118164,31.7919922 C441.879236,31.0081341 442.979811,30.6162109 444.419922,30.6162109 C445.860033,30.6162109 446.960608,31.0081341 447.72168,31.7919922 C448.737961,32.717127 449.246094,34.1025298 449.246094,35.9482422 Z M456.526367,34.1298828 C456.526367,33.6057917 456.38851,33.2320975 456.112793,33.0087891 C455.837075,32.7854807 455.450849,32.6738281 454.954102,32.6738281 L452.992188,32.6738281 L452.992188,35.640625 L454.954102,35.640625 C455.450849,35.640625 455.837075,35.519858 456.112793,35.2783203 C456.38851,35.0367826 456.526367,34.653974 456.526367,34.1298828 Z M458.611328,34.1162109 C458.611328,35.30567 458.31055,36.1464819 457.708984,36.6386719 C457.107419,37.1308618 456.248378,37.3769531 455.131836,37.3769531 L452.992188,37.3769531 L452.992188,41 L450.900391,41 L450.900391,30.9238281 L455.289062,30.9238281 C456.300786,30.9238281 457.107419,31.1835912 457.708984,31.703125 C458.31055,32.2226588 458.611328,33.0270128 458.611328,34.1162109 Z M462.234375,32.6738281 L462.234375,39.25 L464.175781,39.25 C465.169276,39.25 465.861977,38.760096 466.253906,37.7802734 C466.4681,37.2425103 466.575195,36.6022173 466.575195,35.859375 C466.575195,34.8339792 466.414552,34.046715 466.093262,33.4975586 C465.771971,32.9484022 465.132817,32.6738281 464.175781,32.6738281 L462.234375,32.6738281 Z M464.53125,30.9238281 C465.155602,30.9329428 465.675128,31.0058587 466.089844,31.1425781 C466.796227,31.3750012 467.368162,31.8011037 467.805664,32.4208984 C468.156577,32.922203 468.395833,33.4645153 468.523438,34.0478516 C468.651042,34.6311878 468.714844,35.1871718 468.714844,35.7158203 C468.714844,37.0556708 468.445966,38.190425 467.908203,39.1201172 C467.179033,40.3733787 466.053393,41 464.53125,41 L460.19043,41 L460.19043,30.9238281 L464.53125,30.9238281 Z M474.757812,39.4960938 C475.591801,39.4960938 476.253741,39.1884796 476.743652,38.5732422 C477.233564,37.9580047 477.478516,37.0830135 477.478516,35.9482422 C477.478516,34.8180282 477.233564,33.9441763 476.743652,33.3266602 C476.253741,32.709144 475.591801,32.4003906 474.757812,32.4003906 C473.923824,32.4003906 473.258466,32.7080047 472.761719,33.3232422 C472.264971,33.9384796 472.016602,34.8134709 472.016602,35.9482422 C472.016602,37.0830135 472.264971,37.9580047 472.761719,38.5732422 C473.258466,39.1884796 473.923824,39.4960938 474.757812,39.4960938 Z M479.583984,35.9482422 C479.583984,37.757496 479.075851,39.1428988 478.05957,40.1044922 C477.298499,40.8883503 476.197924,41.2802734 474.757812,41.2802734 C473.317701,41.2802734 472.217126,40.8883503 471.456055,40.1044922 C470.435216,39.1428988 469.924805,37.757496 469.924805,35.9482422 C469.924805,34.1025298 470.435216,32.717127 471.456055,31.7919922 C472.217126,31.0081341 473.317701,30.6162109 474.757812,30.6162109 C476.197924,30.6162109 477.298499,31.0081341 478.05957,31.7919922 C479.075851,32.717127 479.583984,34.1025298 479.583984,35.9482422 Z M482.564453,30.9238281 L483.897461,36.6933594 L484.18457,38.2998047 L484.478516,36.7275391 L485.613281,30.9238281 L487.834961,30.9238281 L489.03125,36.6933594 L489.338867,38.2998047 L489.646484,36.7548828 L490.993164,30.9238281 L493.132812,30.9238281 L490.295898,41 L488.286133,41 L487.069336,35.1074219 L486.713867,33.1591797 L486.358398,35.1074219 L485.141602,41 L483.186523,41 L480.329102,30.9238281 L482.564453,30.9238281 Z M494.370117,30.9238281 L496.578125,30.9238281 L500.59082,37.9580078 L500.59082,30.9238281 L502.552734,30.9238281 L502.552734,41 L500.447266,41 L496.332031,33.8427734 L496.332031,41 L494.370117,41 L494.370117,30.9238281 Z M549.228516,41 L547.136719,41 L547.136719,30.9238281 L549.228516,30.9238281 L549.228516,41 Z M558.511719,30.9238281 L558.511719,32.7080078 L555.49707,32.7080078 L555.49707,41 L553.37793,41 L553.37793,32.7080078 L550.349609,32.7080078 L550.349609,30.9238281 L558.511719,30.9238281 Z M567.193359,32.7080078 L561.861328,32.7080078 L561.861328,34.8476562 L566.755859,34.8476562 L566.755859,36.5976562 L561.861328,36.5976562 L561.861328,39.1884766 L567.439453,39.1884766 L567.439453,41 L559.803711,41 L559.803711,30.9238281 L567.193359,30.9238281 L567.193359,32.7080078 Z M575.758789,30.9238281 L578.787109,30.9238281 L578.787109,41 L576.825195,41 L576.825195,34.1845703 C576.825195,33.9886058 576.827474,33.7140317 576.832031,33.3608398 C576.836589,33.007648 576.838867,32.7353525 576.838867,32.5439453 L574.931641,41 L572.887695,41 L570.994141,32.5439453 C570.994141,32.7353525 570.996419,33.007648 571.000977,33.3608398 C571.005534,33.7140317 571.007812,33.9886058 571.007812,34.1845703 L571.007812,41 L569.045898,41 L569.045898,30.9238281 L572.108398,30.9238281 L573.94043,38.8466797 L575.758789,30.9238281 Z" id="ITEM-ITEM-DROPDOWN-I" fill="#797979"></path>
                <polygon id="Rectangle-5" fill="#797979" points="509 33 520 33 514.5 40"></polygon>
            </g>
        </g>
    </g>
</svg>