<?xml version="1.0" encoding="UTF-8"?>
<svg width="196px" height="185px" viewBox="0 0 196 185" version="1.1" xmlns="http://www.w3.org/2000/svg" xmlns:xlink="http://www.w3.org/1999/xlink">
    <!-- Generator: Sketch 49.3 (51167) - http://www.bohemiancoding.com/sketch -->
    <title>Group 2</title>
    <desc>Created with Sketch.</desc>
    <defs></defs>
    <g id="Page-1" stroke="none" stroke-width="1" fill="none" fill-rule="evenodd">
        <g id="Artboard" transform="translate(-540.000000, -337.000000)">
            <g id="Group-2" transform="translate(540.000000, 337.000000)">
                <rect id="Rectangle-4-Copy" fill="#FFFFFF" x="0" y="0" width="196" height="185"></rect>
                <path d="M22.0664062,27.9238281 L24.171875,27.9238281 L24.171875,36.1884766 L29.1621094,36.1884766 L29.1621094,38 L22.0664062,38 L22.0664062,27.9238281 Z M35.0751953,36.4960938 C35.9091839,36.4960938 36.5711239,36.1884796 37.0610352,35.5732422 C37.5509465,34.9580047 37.7958984,34.0830135 37.7958984,32.9482422 C37.7958984,31.8180282 37.5509465,30.9441763 37.0610352,30.3266602 C36.5711239,29.709144 35.9091839,29.4003906 35.0751953,29.4003906 C34.2412068,29.4003906 33.5758488,29.7080047 33.0791016,30.3232422 C32.5823543,30.9384796 32.3339844,31.8134709 32.3339844,32.9482422 C32.3339844,34.0830135 32.5823543,34.9580047 33.0791016,35.5732422 C33.5758488,36.1884796 34.2412068,36.4960938 35.0751953,36.4960938 Z M39.9013672,32.9482422 C39.9013672,34.757496 39.3932342,36.1428988 38.3769531,37.1044922 C37.6158816,37.8883503 36.5153067,38.2802734 35.0751953,38.2802734 C33.6350839,38.2802734 32.534509,37.8883503 31.7734375,37.1044922 C30.7525991,36.1428988 30.2421875,34.757496 30.2421875,32.9482422 C30.2421875,31.1025298 30.7525991,29.717127 31.7734375,28.7919922 C32.534509,28.0081341 33.6350839,27.6162109 35.0751953,27.6162109 C36.5153067,27.6162109 37.6158816,28.0081341 38.3769531,28.7919922 C39.3932342,29.717127 39.9013672,31.1025298 39.9013672,32.9482422 Z M43.6132812,29.6738281 L43.6132812,32.3808594 L45.9990234,32.3808594 C46.4729841,32.3808594 46.8284493,32.3261724 47.0654297,32.2167969 C47.4847026,32.0253897 47.6943359,31.6471382 47.6943359,31.0820312 C47.6943359,30.4713511 47.4915385,30.061199 47.0859375,29.8515625 C46.8580718,29.7330723 46.5162783,29.6738281 46.0605469,29.6738281 L43.6132812,29.6738281 Z M46.4980469,27.9238281 C47.2044306,27.9375001 47.7478822,28.0240877 48.128418,28.1835938 C48.5089537,28.3430998 48.8313789,28.5777979 49.0957031,28.8876953 C49.3144542,29.1429049 49.4876296,29.4254542 49.6152344,29.7353516 C49.7428392,30.0452489 49.8066406,30.3984355 49.8066406,30.7949219 C49.8066406,31.2734399 49.6858736,31.7439756 49.4443359,32.206543 C49.2027983,32.6691104 48.8040392,32.9960928 48.2480469,33.1875 C48.7128929,33.3743499 49.042154,33.6398095 49.2358398,33.9838867 C49.4295257,34.327964 49.5263672,34.8531866 49.5263672,35.5595703 L49.5263672,36.2363281 C49.5263672,36.6966169 49.5445962,37.0087882 49.5810547,37.1728516 C49.6357425,37.4326185 49.7633454,37.6240228 49.9638672,37.7470703 L49.9638672,38 L47.6464844,38 C47.582682,37.7766916 47.5371095,37.5966804 47.5097656,37.4599609 C47.4550779,37.1774074 47.4254558,36.8880223 47.4208984,36.5917969 L47.4072266,35.6552734 C47.3981119,35.0126921 47.2807628,34.584311 47.0551758,34.3701172 C46.8295887,34.1559234 46.4069041,34.0488281 45.7871094,34.0488281 L43.6132812,34.0488281 L43.6132812,38 L41.5556641,38 L41.5556641,27.9238281 L46.4980469,27.9238281 Z M59.0693359,29.7080078 L53.7373047,29.7080078 L53.7373047,31.8476562 L58.6318359,31.8476562 L58.6318359,33.5976562 L53.7373047,33.5976562 L53.7373047,36.1884766 L59.3154297,36.1884766 L59.3154297,38 L51.6796875,38 L51.6796875,27.9238281 L59.0693359,27.9238281 L59.0693359,29.7080078 Z M67.6347656,27.9238281 L70.6630859,27.9238281 L70.6630859,38 L68.7011719,38 L68.7011719,31.1845703 C68.7011719,30.9886058 68.7034505,30.7140317 68.7080078,30.3608398 C68.7125651,30.007648 68.7148438,29.7353525 68.7148438,29.5439453 L66.8076172,38 L64.7636719,38 L62.8701172,29.5439453 C62.8701172,29.7353525 62.8723958,30.007648 62.8769531,30.3608398 C62.8815104,30.7140317 62.8837891,30.9886058 62.8837891,31.1845703 L62.8837891,38 L60.921875,38 L60.921875,27.9238281 L63.984375,27.9238281 L65.8164062,35.8466797 L67.6347656,27.9238281 Z M23.9941406,77 L21.9023438,77 L21.9023438,66.9238281 L23.9941406,66.9238281 L23.9941406,77 Z M31.6298828,70.1298828 C31.6298828,69.6057917 31.4920261,69.2320975 31.2163086,69.0087891 C30.9405911,68.7854807 30.5543645,68.6738281 30.0576172,68.6738281 L28.0957031,68.6738281 L28.0957031,71.640625 L30.0576172,71.640625 C30.5543645,71.640625 30.9405911,71.519858 31.2163086,71.2783203 C31.4920261,71.0367826 31.6298828,70.653974 31.6298828,70.1298828 Z M33.7148438,70.1162109 C33.7148438,71.30567 33.4140655,72.1464819 32.8125,72.6386719 C32.2109345,73.1308618 31.3518936,73.3769531 30.2353516,73.3769531 L28.0957031,73.3769531 L28.0957031,77 L26.0039062,77 L26.0039062,66.9238281 L30.3925781,66.9238281 C31.4043019,66.9238281 32.2109345,67.1835912 32.8125,67.703125 C33.4140655,68.2226588 33.7148438,69.0270128 33.7148438,70.1162109 Z M36.8183594,73.8896484 C36.8821618,74.3499372 37.007486,74.6940093 37.1943359,74.921875 C37.5361345,75.3365906 38.1217406,75.5439453 38.9511719,75.5439453 C39.4479192,75.5439453 39.8512354,75.4892584 40.1611328,75.3798828 C40.7490264,75.1702463 41.0429688,74.7806018 41.0429688,74.2109375 C41.0429688,73.8782535 40.8971369,73.6207691 40.6054688,73.4384766 C40.3138006,73.2607413 39.8557974,73.1035163 39.2314453,72.9667969 L38.1650391,72.7275391 C37.1168567,72.4905587 36.3922546,72.2330743 35.9912109,71.9550781 C35.3121711,71.4902321 34.9726562,70.7633513 34.9726562,69.7744141 C34.9726562,68.8720658 35.300778,68.1223988 35.9570312,67.5253906 C36.6132845,66.9283824 37.5771421,66.6298828 38.8486328,66.6298828 C39.9104871,66.6298828 40.8162397,66.9112928 41.565918,67.4741211 C42.3155962,68.0369494 42.7086587,68.8538358 42.7451172,69.9248047 L40.7216797,69.9248047 C40.6852212,69.3186819 40.4209009,68.8880221 39.9287109,68.6328125 C39.6005843,68.4641919 39.1927108,68.3798828 38.7050781,68.3798828 C38.1627577,68.3798828 37.7298193,68.4892567 37.40625,68.7080078 C37.0826807,68.9267589 36.9208984,69.2320944 36.9208984,69.6240234 C36.9208984,69.9840513 37.0804021,70.2529288 37.3994141,70.4306641 C37.6044932,70.5491542 38.0419888,70.6881502 38.7119141,70.8476562 L40.4482422,71.2646484 C41.2093137,71.446941 41.7835267,71.6907537 42.1708984,71.9960938 C42.7724639,72.4700545 43.0732422,73.15592 43.0732422,74.0537109 C43.0732422,74.9742885 42.7211949,75.7387665 42.0170898,76.347168 C41.3129848,76.9555694 40.3183658,77.2597656 39.0332031,77.2597656 C37.7206966,77.2597656 36.6884803,76.9601267 35.9365234,76.3608398 C35.1845666,75.761553 34.8085938,74.9378308 34.8085938,73.8896484 L36.8183594,73.8896484 Z M44.6318359,66.9238281 L46.7714844,66.9238281 L46.7714844,73.1171875 C46.7714844,73.8098993 46.8535148,74.3157536 47.0175781,74.6347656 C47.2727877,75.1998726 47.8287718,75.4824219 48.6855469,75.4824219 C49.5377647,75.4824219 50.0914701,75.1998726 50.3466797,74.6347656 C50.510743,74.3157536 50.5927734,73.8098993 50.5927734,73.1171875 L50.5927734,66.9238281 L52.7324219,66.9238281 L52.7324219,73.1171875 C52.7324219,74.1881564 52.5660824,75.0221324 52.2333984,75.6191406 C51.6136037,76.7128961 50.4309983,77.2597656 48.6855469,77.2597656 C46.9400954,77.2597656 45.7552115,76.7128961 45.1308594,75.6191406 C44.7981754,75.0221324 44.6318359,74.1881564 44.6318359,73.1171875 L44.6318359,66.9238281 Z M61.4208984,66.9238281 L64.4492188,66.9238281 L64.4492188,77 L62.4873047,77 L62.4873047,70.1845703 C62.4873047,69.9886058 62.4895833,69.7140317 62.4941406,69.3608398 C62.4986979,69.007648 62.5009766,68.7353525 62.5009766,68.5439453 L60.59375,77 L58.5498047,77 L56.65625,68.5439453 C56.65625,68.7353525 56.6585286,69.007648 56.6630859,69.3608398 C56.6676433,69.7140317 56.6699219,69.9886058 56.6699219,70.1845703 L56.6699219,77 L54.7080078,77 L54.7080078,66.9238281 L57.7705078,66.9238281 L59.6025391,74.8466797 L61.4208984,66.9238281 Z M24.1103516,107.673828 L24.1103516,114.25 L26.0517578,114.25 C27.0452524,114.25 27.7379538,113.760096 28.1298828,112.780273 C28.3440766,112.24251 28.4511719,111.602217 28.4511719,110.859375 C28.4511719,109.833979 28.290529,109.046715 27.9692383,108.497559 C27.6479476,107.948402 27.0087938,107.673828 26.0517578,107.673828 L24.1103516,107.673828 Z M26.4072266,105.923828 C27.0315786,105.932943 27.5511047,106.005859 27.9658203,106.142578 C28.6722041,106.375001 29.2441384,106.801104 29.6816406,107.420898 C30.0325538,107.922203 30.2718093,108.464515 30.3994141,109.047852 C30.5270189,109.631188 30.5908203,110.187172 30.5908203,110.71582 C30.5908203,112.055671 30.3219428,113.190425 29.7841797,114.120117 C29.0550094,115.373379 27.9293696,116 26.4072266,116 L22.0664062,116 L22.0664062,105.923828 L26.4072266,105.923828 Z M36.6337891,114.496094 C37.4677776,114.496094 38.1297176,114.18848 38.6196289,113.573242 C39.1095402,112.958005 39.3544922,112.083013 39.3544922,110.948242 C39.3544922,109.818028 39.1095402,108.944176 38.6196289,108.32666 C38.1297176,107.709144 37.4677776,107.400391 36.6337891,107.400391 C35.7998005,107.400391 35.1344426,107.708005 34.6376953,108.323242 C34.140948,108.93848 33.8925781,109.813471 33.8925781,110.948242 C33.8925781,112.083013 34.140948,112.958005 34.6376953,113.573242 C35.1344426,114.18848 35.7998005,114.496094 36.6337891,114.496094 Z M41.4599609,110.948242 C41.4599609,112.757496 40.951828,114.142899 39.9355469,115.104492 C39.1744754,115.88835 38.0739004,116.280273 36.6337891,116.280273 C35.1936777,116.280273 34.0931028,115.88835 33.3320312,115.104492 C32.3111928,114.142899 31.8007812,112.757496 31.8007812,110.948242 C31.8007812,109.10253 32.3111928,107.717127 33.3320312,106.791992 C34.0931028,106.008134 35.1936777,105.616211 36.6337891,105.616211 C38.0739004,105.616211 39.1744754,106.008134 39.9355469,106.791992 C40.951828,107.717127 41.4599609,109.10253 41.4599609,110.948242 Z M43.0664062,105.923828 L45.171875,105.923828 L45.171875,114.188477 L50.1621094,114.188477 L50.1621094,116 L43.0664062,116 L43.0664062,105.923828 Z M56.0751953,114.496094 C56.9091839,114.496094 57.5711239,114.18848 58.0610352,113.573242 C58.5509465,112.958005 58.7958984,112.083013 58.7958984,110.948242 C58.7958984,109.818028 58.5509465,108.944176 58.0610352,108.32666 C57.5711239,107.709144 56.9091839,107.400391 56.0751953,107.400391 C55.2412068,107.400391 54.5758488,107.708005 54.0791016,108.323242 C53.5823543,108.93848 53.3339844,109.813471 53.3339844,110.948242 C53.3339844,112.083013 53.5823543,112.958005 54.0791016,113.573242 C54.5758488,114.18848 55.2412068,114.496094 56.0751953,114.496094 Z M60.9013672,110.948242 C60.9013672,112.757496 60.3932342,114.142899 59.3769531,115.104492 C58.6158816,115.88835 57.5153067,116.280273 56.0751953,116.280273 C54.6350839,116.280273 53.534509,115.88835 52.7734375,115.104492 C51.7525991,114.142899 51.2421875,112.757496 51.2421875,110.948242 C51.2421875,109.10253 51.7525991,107.717127 52.7734375,106.791992 C53.534509,106.008134 54.6350839,105.616211 56.0751953,105.616211 C57.5153067,105.616211 58.6158816,106.008134 59.3769531,106.791992 C60.3932342,107.717127 60.9013672,109.10253 60.9013672,110.948242 Z M64.6132812,107.673828 L64.6132812,110.380859 L66.9990234,110.380859 C67.4729841,110.380859 67.8284493,110.326172 68.0654297,110.216797 C68.4847026,110.02539 68.6943359,109.647138 68.6943359,109.082031 C68.6943359,108.471351 68.4915385,108.061199 68.0859375,107.851562 C67.8580718,107.733072 67.5162783,107.673828 67.0605469,107.673828 L64.6132812,107.673828 Z M67.4980469,105.923828 C68.2044306,105.9375 68.7478822,106.024088 69.128418,106.183594 C69.5089537,106.3431 69.8313789,106.577798 70.0957031,106.887695 C70.3144542,107.142905 70.4876296,107.425454 70.6152344,107.735352 C70.7428392,108.045249 70.8066406,108.398436 70.8066406,108.794922 C70.8066406,109.27344 70.6858736,109.743976 70.4443359,110.206543 C70.2027983,110.66911 69.8040392,110.996093 69.2480469,111.1875 C69.7128929,111.37435 70.042154,111.639809 70.2358398,111.983887 C70.4295257,112.327964 70.5263672,112.853187 70.5263672,113.55957 L70.5263672,114.236328 C70.5263672,114.696617 70.5445962,115.008788 70.5810547,115.172852 C70.6357425,115.432618 70.7633454,115.624023 70.9638672,115.74707 L70.9638672,116 L68.6464844,116 C68.582682,115.776692 68.5371095,115.59668 68.5097656,115.459961 C68.4550779,115.177407 68.4254558,114.888022 68.4208984,114.591797 L68.4072266,113.655273 C68.3981119,113.012692 68.2807628,112.584311 68.0551758,112.370117 C67.8295887,112.155923 67.4069041,112.048828 66.7871094,112.048828 L64.6132812,112.048828 L64.6132812,116 L62.5556641,116 L62.5556641,105.923828 L67.4980469,105.923828 Z M23.5908203,151.889648 C23.6546227,152.349937 23.779947,152.694009 23.9667969,152.921875 C24.3085955,153.336591 24.8942016,153.543945 25.7236328,153.543945 C26.2203801,153.543945 26.6236964,153.489258 26.9335938,153.379883 C27.5214873,153.170246 27.8154297,152.780602 27.8154297,152.210938 C27.8154297,151.878254 27.6695978,151.620769 27.3779297,151.438477 C27.0862616,151.260741 26.6282583,151.103516 26.0039062,150.966797 L24.9375,150.727539 C23.8893177,150.490559 23.1647155,150.233074 22.7636719,149.955078 C22.084632,149.490232 21.7451172,148.763351 21.7451172,147.774414 C21.7451172,146.872066 22.0732389,146.122399 22.7294922,145.525391 C23.3857455,144.928382 24.349603,144.629883 25.6210938,144.629883 C26.682948,144.629883 27.5887007,144.911293 28.3383789,145.474121 C29.0880571,146.036949 29.4811196,146.853836 29.5175781,147.924805 L27.4941406,147.924805 C27.4576821,147.318682 27.1933618,146.888022 26.7011719,146.632812 C26.3730452,146.464192 25.9651717,146.379883 25.4775391,146.379883 C24.9352186,146.379883 24.5022803,146.489257 24.1787109,146.708008 C23.8551416,146.926759 23.6933594,147.232094 23.6933594,147.624023 C23.6933594,147.984051 23.852863,148.252929 24.171875,148.430664 C24.3769542,148.549154 24.8144498,148.68815 25.484375,148.847656 L27.2207031,149.264648 C27.9817746,149.446941 28.5559876,149.690754 28.9433594,149.996094 C29.5449249,150.470054 29.8457031,151.15592 29.8457031,152.053711 C29.8457031,152.974288 29.4936559,153.738766 28.7895508,154.347168 C28.0854457,154.955569 27.0908267,155.259766 25.8056641,155.259766 C24.4931575,155.259766 23.4609413,154.960127 22.7089844,154.36084 C21.9570275,153.761553 21.5810547,152.937831 21.5810547,151.889648 L23.5908203,151.889648 Z M33.3320312,155 L31.2402344,155 L31.2402344,144.923828 L33.3320312,144.923828 L33.3320312,155 Z M42.6152344,144.923828 L42.6152344,146.708008 L39.6005859,146.708008 L39.6005859,155 L37.4814453,155 L37.4814453,146.708008 L34.453125,146.708008 L34.453125,144.923828 L42.6152344,144.923828 Z M50.4902344,151.192383 L53.046875,151.192383 L51.7890625,147.227539 L50.4902344,151.192383 Z M50.6201172,144.923828 L52.9990234,144.923828 L56.5673828,155 L54.2841797,155 L53.6347656,152.928711 L49.9228516,152.928711 L49.2255859,155 L47.0244141,155 L50.6201172,144.923828 Z M64.5244141,144.923828 L67.5527344,144.923828 L67.5527344,155 L65.5908203,155 L65.5908203,148.18457 C65.5908203,147.988606 65.5930989,147.714032 65.5976562,147.36084 C65.6022136,147.007648 65.6044922,146.735353 65.6044922,146.543945 L63.6972656,155 L61.6533203,155 L59.7597656,146.543945 C59.7597656,146.735353 59.7620442,147.007648 59.7666016,147.36084 C59.7711589,147.714032 59.7734375,147.988606 59.7734375,148.18457 L59.7734375,155 L57.8115234,155 L57.8115234,144.923828 L60.8740234,144.923828 L62.7060547,152.84668 L64.5244141,144.923828 Z M76.9589844,146.708008 L71.6269531,146.708008 L71.6269531,148.847656 L76.5214844,148.847656 L76.5214844,150.597656 L71.6269531,150.597656 L71.6269531,153.188477 L77.2050781,153.188477 L77.2050781,155 L69.5693359,155 L69.5693359,144.923828 L76.9589844,144.923828 L76.9589844,146.708008 Z M86.1669922,144.923828 L86.1669922,146.708008 L83.1523438,146.708008 L83.1523438,155 L81.0332031,155 L81.0332031,146.708008 L78.0048828,146.708008 L78.0048828,144.923828 L86.1669922,144.923828 Z" id="LOREM-IPSUM-DOLOR-SI" fill="#797979"></path>
            </g>
        </g>
    </g>
</svg>