<?xml version="1.0" encoding="UTF-8"?>
<svg width="178px" height="119px" viewBox="0 0 178 119" version="1.1" xmlns="http://www.w3.org/2000/svg" xmlns:xlink="http://www.w3.org/1999/xlink">
    <!-- Generator: Sketch 51.2 (57519) - http://www.bohemiancoding.com/sketch -->
    <title>Group 17</title>
    <desc>Created with Sketch.</desc>
    <defs>
        <path d="M90,38 L133,38 L133,74 C133,76.7614237 130.761424,79 128,79 L95,79 C92.2385763,79 90,76.7614237 90,74 L90,38 Z" id="path-1"></path>
        <mask id="mask-2" maskContentUnits="userSpaceOnUse" maskUnits="objectBoundingBox" x="0" y="0" width="43" height="41" fill="white">
            <use xlink:href="#path-1"></use>
        </mask>
    </defs>
    <g id="Page-1" stroke="none" stroke-width="1" fill="none" fill-rule="evenodd">
        <g id="Desktop-HD" transform="translate(-514.000000, -2193.000000)">
            <g id="Group-17" transform="translate(514.000000, 2193.000000)">
                <rect id="Rectangle-2-Copy-35" stroke="#9B9B9B" stroke-width="1.61999991" fill="#F9F9F9" x="0.809999957" y="0.809999957" width="176.38" height="117.38" rx="6.47999966"></rect>
                <path d="M0.809999957,22.19 L177.19,22.19 L177.19,6.47999966 C177.19,3.34854529 174.651455,0.809999957 171.52,0.809999957 L6.47999966,0.809999957 C3.34854529,0.809999957 0.809999957,3.34854529 0.809999957,6.47999966 L0.809999957,22.19 Z" id="Rectangle-2-Copy-36" stroke="#9B9B9B" stroke-width="1.61999991" fill="#FFFFFF"></path>
                <use id="Rectangle-2-Copy-37" stroke="#9B9B9B" mask="url(#mask-2)" stroke-width="3.23999983" fill="#FFFFFF" stroke-dasharray="3,5" xlink:href="#path-1"></use>
                <g id="brand-copy-16" transform="translate(11.000000, 9.000000)" fill="#4A4A4A" fill-rule="nonzero">
                    <g id="#000000ff">
                        <path d="M0.0243116872,0 L1.17755844,0 C1.19314286,0.585742574 1.17880519,1.17148515 1.18566234,1.75722772 C1.92,1.31168317 2.92176623,1.35742574 3.63179221,1.82554455 C4.16415584,2.17069307 4.56062338,2.71960396 4.65537662,3.33148515 C4.71148052,3.72356436 4.6852987,4.13287129 4.53693506,4.50534653 C4.20342857,5.34118812 3.31885714,5.96613861 2.37007792,5.96079208 C1.8638961,5.98574257 1.36955844,5.80514851 0.982441557,5.49980198 C0.730597401,5.74455446 0.379636363,5.86811881 0.0211948041,5.81940594 C0.013090908,3.87980198 0.00623376512,1.93960396 0.0243116872,0 Z M2.08020779,2.58356436 C1.63885714,2.66257426 1.26296104,3.00237624 1.15324675,3.41643564 C0.967480518,4.04079208 1.44187013,4.74950495 2.12072727,4.83326733 C2.83137662,4.97108911 3.55698701,4.37108911 3.5145974,3.6819802 C3.52955844,2.99524752 2.78088312,2.4249505 2.08020779,2.58356436 Z" id="Shape"></path>
                        <path d="M6.72685714,1.46554455 C7.24737662,1.42455446 7.78098701,1.46673267 8.28093506,1.61762376 C8.28779221,1.97108911 8.28841558,2.32514851 8.28218182,2.67861386 C8.27096104,2.70534653 8.24851948,2.76 8.23667532,2.78732673 C7.776,2.5639604 7.24114286,2.51465347 6.73309091,2.56752475 C6.59594805,2.57524752 6.36841558,2.67267327 6.48997403,2.83128713 C6.94441558,3.06356436 7.43127273,3.23584158 7.8825974,3.47346535 C8.3918961,3.74792079 8.66431169,4.35980198 8.50348052,4.8980198 C8.40623377,5.28118812 8.12446753,5.6150495 7.7467013,5.77841584 C7.16197403,6.03386139 6.4881039,5.99762376 5.8747013,5.86633663 C5.66774026,5.83366337 5.46888312,5.67683168 5.46202597,5.46653465 C5.45142857,5.15881188 5.44706494,4.85049505 5.46950649,4.5439604 C6.00561039,4.77683168 6.61963636,4.95920792 7.20685714,4.79346535 C7.39075325,4.75425743 7.43937662,4.50356436 7.2854026,4.40257426 C6.77672727,4.10019802 6.16332468,3.96950495 5.69080519,3.61009901 C5.23948052,3.22693069 5.17215584,2.51881188 5.52374026,2.05425743 C5.78742857,1.6770297 6.26867532,1.50178218 6.72685714,1.46554455 Z" id="Shape"></path>
                        <path d="M9.87677922,1.92772277 C10.358026,1.52376238 11.0331429,1.41920792 11.654026,1.4560396 C12.1795325,1.48217822 12.7193766,1.65089109 13.0902857,2.01980198 C13.3633247,2.28475248 13.5017143,2.65782178 13.4954805,3.02673267 C13.4985974,3.95465347 13.4998442,4.88257426 13.4954805,5.81049505 C13.2155844,5.82950495 12.9338182,5.82534653 12.6539221,5.81821782 C12.4675325,5.8170297 12.3141818,5.64118812 12.3285195,5.46772277 C12.3235325,4.65564356 12.3297662,3.84356436 12.326026,3.03148515 C12.3397403,2.87584158 12.2275325,2.73683168 12.0797922,2.6809901 C11.7518961,2.54019802 11.3747532,2.54079208 11.0269091,2.6019802 C10.8211948,2.6429703 10.5624935,2.74574257 10.5437922,2.97623762 C10.5238442,3.92257426 10.5537662,4.86950495 10.5294545,5.81584158 C10.1442078,5.82475248 9.75896104,5.82891089 9.37371429,5.81346535 C9.36187013,4.88435644 9.37122078,3.95524752 9.36935065,3.02613861 C9.36374026,2.61267327 9.5414026,2.19564356 9.87677922,1.92772277 Z" id="Shape"></path>
                        <path d="M15.4404156,1.70792079 C16.2052987,1.31940594 17.2313766,1.34970297 17.8946494,1.91405941 C18.1365195,1.66039604 18.4924675,1.54752475 18.8477922,1.59267327 C18.8608831,3.00178218 18.8658701,4.41207921 18.8446753,5.82118812 C18.4918442,5.86158416 18.1377662,5.75049505 17.8958961,5.49920792 C17.5106494,5.8009901 17.0231688,5.98455446 16.5201039,5.96079208 C15.6492468,5.97029703 14.8232727,5.45108911 14.4361558,4.71623762 C14.1899221,4.26594059 14.1375584,3.73366337 14.2366753,3.23821782 C14.3650909,2.58772277 14.8413506,2.02811881 15.4404156,1.70792079 Z M16.3555325,2.57940594 C15.739013,2.65960396 15.2714805,3.26316832 15.3662338,3.84831683 C15.4260779,4.39009901 15.9478442,4.84752475 16.521974,4.84693069 C17.1821299,4.88792079 17.7905455,4.31465347 17.7556364,3.68435644 C17.7730909,3.00831683 17.0493506,2.43920792 16.3555325,2.57940594 Z" id="Shape"></path>
                        <path d="M19.3365195,1.60336634 C19.6232727,1.57841584 19.9118961,1.59326733 20.1992727,1.58910891 C20.3251948,1.59386139 20.4673247,1.58435644 20.5701818,1.66633663 C20.6630649,1.74356436 20.7067013,1.8570297 20.7590649,1.95980198 C21.0545455,2.61207921 21.3581299,3.26079208 21.6536104,3.91247525 C22.0145455,3.15029703 22.3561558,2.37980198 22.7152208,1.6170297 C23.1229091,1.5570297 23.553039,1.59980198 23.9688312,1.5980198 C23.9326753,1.77445545 23.8435325,1.93425743 23.7693506,2.09821782 C23.2282597,3.26613861 22.694026,4.4370297 22.1510649,5.60435644 C21.9877403,6.0029703 21.2777143,5.98039604 21.1449351,5.56871287 C20.6306494,4.45663366 20.1201039,3.34336634 19.6064416,2.23128713 C19.5154286,2.02217822 19.4013506,1.8219802 19.3365195,1.60336634 Z" id="Shape"></path>
                    </g>
                </g>
                <path d="M70,14.1583689 L70,10.0775195 L70.8444091,10.0775195 L70.8444091,11.6334472 L72.4390966,11.6334472 L72.4390966,10.0775195 L73.2862742,10.0775195 L73.2862742,14.1583689 L72.4390966,14.1583689 L72.4390966,12.33666 L70.8444091,12.33666 L70.8444091,14.1583689 L70,14.1583689 Z M75.3903757,13.6018895 C75.6210897,13.6018895 75.7982754,13.5197565 75.9219382,13.3554881 C76.0456009,13.1912197 76.1074313,12.9577406 76.1074313,12.6550438 C76.1074313,12.352347 76.0456009,12.1193293 75.9219382,11.9559838 C75.7982754,11.7926382 75.6210897,11.7109667 75.3903757,11.7109667 C75.1596617,11.7109667 74.9820145,11.7926382 74.8574289,11.9559838 C74.7328434,12.1193293 74.6705515,12.352347 74.6705515,12.6550438 C74.6705515,12.9577406 74.7328434,13.1912197 74.8574289,13.3554881 C74.9820145,13.5197565 75.1596617,13.6018895 75.3903757,13.6018895 Z M76.9352291,12.6550438 C76.9352291,13.0980147 76.8078769,13.4768415 76.5531686,13.7915354 C76.2984603,14.1062294 75.9117894,14.263574 75.3931442,14.263574 C74.8744991,14.263574 74.4878282,14.1062294 74.2331199,13.7915354 C73.9784116,13.4768415 73.8510594,13.0980147 73.8510594,12.6550438 C73.8510594,12.2194557 73.9784116,11.8420132 74.2331199,11.522705 C74.4878282,11.2033968 74.8744991,11.0437451 75.3931442,11.0437451 C75.9117894,11.0437451 76.2984603,11.2033968 76.5531686,11.522705 C76.8078769,11.8420132 76.9352291,12.2194557 76.9352291,12.6550438 Z M80.8721137,11.0741992 C81.005005,11.0741992 81.1360486,11.1000387 81.2652484,11.1517187 C81.3944483,11.2033986 81.5116493,11.2938372 81.6168549,11.423037 C81.7017576,11.5282426 81.7589738,11.6574406 81.7885052,11.8106347 C81.8069624,11.9121488 81.8161908,12.0607265 81.8161908,12.256372 L81.8106537,14.1583689 L81.0022357,14.1583689 L81.0022357,12.2369921 C81.0022357,12.1225579 80.9837789,12.028428 80.9468647,11.9545995 C80.8767276,11.8143254 80.7475297,11.7441894 80.559267,11.7441894 C80.341473,11.7441894 80.1910497,11.8346279 80.1079926,12.0155077 C80.0655412,12.1114847 80.0443159,12.22684 80.0443159,12.361577 L80.0443159,14.1583689 L79.2497407,14.1583689 L79.2497407,12.361577 C79.2497407,12.1825429 79.2312839,12.0524222 79.1943696,11.9712108 C79.127924,11.8253996 78.9978032,11.752495 78.8040034,11.752495 C78.5788265,11.752495 78.4274804,11.8253996 78.3499605,11.9712108 C78.3075091,12.0542679 78.2862837,12.1779288 78.2862837,12.3421971 L78.2862837,14.1583689 L77.4861715,14.1583689 L77.4861715,11.1461816 L78.2530611,11.1461816 L78.2530611,11.5863818 C78.3508838,11.4294962 78.4431681,11.3178323 78.5299165,11.2513867 C78.6831107,11.1332611 78.8815217,11.0741992 79.1251558,11.0741992 C79.3558698,11.0741992 79.5422839,11.1249555 79.6844038,11.2264697 C79.7988379,11.320601 79.8855851,11.4414933 79.9446479,11.5891503 C80.0480078,11.4119619 80.1762829,11.2818412 80.329477,11.1987841 C80.4918997,11.1157271 80.6727768,11.0741992 80.8721137,11.0741992 Z M83.7320305,11.7109667 C83.549305,11.7109667 83.4076487,11.7681829 83.3070574,11.8826171 C83.2064661,11.9970512 83.1432514,12.1520888 83.1174114,12.3477343 L84.3438811,12.3477343 C84.3309611,12.1391688 84.2677464,11.9809013 84.1542351,11.8729271 C84.0407238,11.764953 83.8999903,11.7109667 83.7320305,11.7109667 Z M83.7320305,11.0603564 C83.9830474,11.0603564 84.2091437,11.1074213 84.4103264,11.2015527 C84.611509,11.295684 84.7776206,11.4442616 84.9086662,11.64729 C85.0267918,11.826324 85.1033877,12.0339636 85.1384562,12.2702147 C85.1587591,12.4086431 85.1670646,12.6079771 85.1633732,12.8682225 L83.0980315,12.8682225 C83.1091058,13.1709193 83.2041586,13.383173 83.3831927,13.50499 C83.4920897,13.5806643 83.6231333,13.6185008 83.7763274,13.6185008 C83.9387501,13.6185008 84.0707165,13.5723587 84.1722307,13.4800731 C84.2276021,13.4302388 84.2765127,13.3610257 84.3189641,13.2724315 L85.1246135,13.2724315 C85.1043106,13.4514656 85.0111036,13.6332655 84.8449894,13.8178367 C84.5865897,14.111305 84.2248356,14.2580369 83.7597161,14.2580369 C83.3758079,14.2580369 83.0371248,14.134376 82.7436566,13.8870506 C82.4501883,13.6397251 82.3034564,13.2373659 82.3034564,12.6799608 C82.3034564,12.1576242 82.4358842,11.7571107 82.700744,11.4784081 C82.9656037,11.1997056 83.3093624,11.0603564 83.7320305,11.0603564 Z M94.7508776,12.616284 L95.786317,12.616284 L95.276903,11.0105224 L94.7508776,12.616284 Z M94.8034801,10.0775195 L95.7669371,10.0775195 L97.2121226,14.1583689 L96.2874254,14.1583689 L96.0244127,13.3194969 L94.5210876,13.3194969 L94.238695,14.1583689 L93.3472204,14.1583689 L94.8034801,10.0775195 Z M99.2968442,11.0741992 C99.6936723,11.0741992 100.004209,11.2172397 100.228463,11.5033251 C100.452717,11.7894105 100.564842,12.1585474 100.564842,12.6107469 C100.564842,13.0795578 100.454101,13.4680744 100.232616,13.7763084 C100.01113,14.0845423 99.7019779,14.238657 99.3051498,14.238657 C99.0559787,14.238657 98.8557219,14.1888235 98.7043735,14.0891551 C98.6139336,14.0300923 98.5161123,13.9267339 98.4109067,13.7790769 L98.4109067,14.1583689 L97.63848,14.1583689 L97.63848,10.0830566 L98.4247495,10.0830566 L98.4247495,11.5337792 C98.5244179,11.3935051 98.6342362,11.2864554 98.7542075,11.2126269 C98.8963273,11.1203413 99.0772044,11.0741992 99.2968442,11.0741992 Z M99.0947397,13.5880467 C99.297768,13.5880467 99.455574,13.5059137 99.5681625,13.3416453 C99.6807509,13.1773769 99.7370443,12.9614318 99.7370443,12.6938036 C99.7370443,12.4797009 99.7093591,12.3025152 99.6539877,12.1622411 C99.5487821,11.8964585 99.3549852,11.7635692 99.0725912,11.7635692 C98.7865058,11.7635692 98.5899404,11.89369 98.4828891,12.1539354 C98.4275177,12.2923639 98.3998325,12.4713953 98.3998325,12.691035 C98.3998325,12.9494347 98.4570487,13.1635341 98.5714829,13.3333397 C98.685917,13.5031452 98.8603342,13.5880467 99.0947397,13.5880467 Z M102.48345,13.6018895 C102.714164,13.6018895 102.89135,13.5197565 103.015013,13.3554881 C103.138676,13.1912197 103.200506,12.9577406 103.200506,12.6550438 C103.200506,12.352347 103.138676,12.1193293 103.015013,11.9559838 C102.89135,11.7926382 102.714164,11.7109667 102.48345,11.7109667 C102.252736,11.7109667 102.075089,11.7926382 101.950504,11.9559838 C101.825918,12.1193293 101.763626,12.352347 101.763626,12.6550438 C101.763626,12.9577406 101.825918,13.1912197 101.950504,13.3554881 C102.075089,13.5197565 102.252736,13.6018895 102.48345,13.6018895 Z M104.028304,12.6550438 C104.028304,13.0980147 103.900952,13.4768415 103.646243,13.7915354 C103.391535,14.1062294 103.004864,14.263574 102.486219,14.263574 C101.967574,14.263574 101.580903,14.1062294 101.326195,13.7915354 C101.071486,13.4768415 100.944134,13.0980147 100.944134,12.6550438 C100.944134,12.2194557 101.071486,11.8420132 101.326195,11.522705 C101.580903,11.2033968 101.967574,11.0437451 102.486219,11.0437451 C103.004864,11.0437451 103.391535,11.2033968 103.646243,11.522705 C103.900952,11.8420132 104.028304,12.2194557 104.028304,12.6550438 Z M105.379358,11.1406445 L105.379358,12.9595848 C105.379358,13.131236 105.399661,13.260434 105.440267,13.3471824 C105.512249,13.5003766 105.653444,13.5769725 105.863856,13.5769725 C106.13333,13.5769725 106.317898,13.4680771 106.417566,13.250283 C106.469246,13.1321574 106.495086,12.9761971 106.495086,12.7823973 L106.495086,11.1406445 L107.295198,11.1406445 L107.295198,14.1583689 L106.528309,14.1583689 L106.528309,13.7320115 C106.520926,13.7412401 106.502469,13.7689254 106.472938,13.8150682 C106.443406,13.861211 106.408338,13.901816 106.367732,13.9368846 C106.24407,14.0476273 106.124562,14.1233004 106.009205,14.163906 C105.893848,14.2045117 105.758651,14.2248142 105.603611,14.2248142 C105.156949,14.2248142 104.856102,14.0642397 104.701063,13.7430857 C104.614314,13.5658974 104.570941,13.304733 104.570941,12.9595848 L104.570941,11.1406445 L105.379358,11.1406445 Z M107.746473,11.7303466 L107.746473,11.16833 L108.167293,11.16833 L108.167293,10.3266894 L108.948025,10.3266894 L108.948025,11.16833 L109.438059,11.16833 L109.438059,11.7303466 L108.948025,11.7303466 L108.948025,13.325034 C108.948025,13.4486967 108.963714,13.5257541 108.995091,13.5562083 C109.026468,13.5866626 109.122443,13.6018895 109.28302,13.6018895 C109.307015,13.6018895 109.332393,13.601428 109.359156,13.6005052 C109.385918,13.5995823 109.412219,13.5981981 109.438059,13.5963523 L109.438059,14.1860545 L109.064305,14.1998972 C108.691471,14.2128172 108.436766,14.1482183 108.300184,14.0060984 C108.211589,13.9156585 108.167293,13.7763093 108.167293,13.5880467 L108.167293,11.7303466 L107.746473,11.7303466 Z M118.712717,10.7862695 L118.712717,11.6860497 L119.714934,11.6860497 C119.893968,11.6860497 120.039316,11.652366 120.150981,11.5849975 C120.262647,11.517629 120.318479,11.3981209 120.318479,11.2264697 C120.318479,11.0363613 120.244651,10.9108547 120.096994,10.8499462 C119.96964,10.8074949 119.80722,10.7862695 119.609729,10.7862695 L118.712717,10.7862695 Z M118.712717,12.361577 L118.712717,13.449619 L119.714934,13.449619 C119.893968,13.449619 120.033317,13.4256251 120.132986,13.3776365 C120.313865,13.2890424 120.404304,13.1192394 120.404304,12.8682225 C120.404304,12.6559656 120.316634,12.5101565 120.141291,12.4307909 C120.043469,12.3864938 119.905965,12.3634227 119.728777,12.361577 L118.712717,12.361577 Z M119.881047,10.0775195 C120.381235,10.0849024 120.735607,10.2297886 120.944172,10.5121826 C121.069681,10.6856795 121.132434,10.8933191 121.132434,11.1351074 C121.132434,11.3842785 121.069681,11.5845353 120.944172,11.7358837 C120.874035,11.8207865 120.770677,11.8983052 120.634094,11.9684423 C120.842659,12.0441165 121.000004,12.164086 121.106133,12.3283544 C121.212261,12.4926228 121.265324,12.6919567 121.265324,12.9263621 C121.265324,13.1681505 121.204417,13.3850184 121.0826,13.5769725 C121.00508,13.7043266 120.908181,13.8113763 120.791902,13.8981248 C120.660856,13.9977933 120.50628,14.0660836 120.328169,14.1029978 C120.150057,14.1399121 119.956722,14.1583689 119.748157,14.1583689 L117.898762,14.1583689 L117.898762,10.0775195 L119.881047,10.0775195 Z M122.721584,14.1583689 L121.932546,14.1583689 L121.932546,10.0775195 L122.721584,10.0775195 L122.721584,14.1583689 Z M124.845065,13.6018895 C125.075779,13.6018895 125.252965,13.5197565 125.376628,13.3554881 C125.500291,13.1912197 125.562121,12.9577406 125.562121,12.6550438 C125.562121,12.352347 125.500291,12.1193293 125.376628,11.9559838 C125.252965,11.7926382 125.075779,11.7109667 124.845065,11.7109667 C124.614351,11.7109667 124.436704,11.7926382 124.312119,11.9559838 C124.187533,12.1193293 124.125241,12.352347 124.125241,12.6550438 C124.125241,12.9577406 124.187533,13.1912197 124.312119,13.3554881 C124.436704,13.5197565 124.614351,13.6018895 124.845065,13.6018895 Z M126.389919,12.6550438 C126.389919,13.0980147 126.262567,13.4768415 126.007858,13.7915354 C125.75315,14.1062294 125.366479,14.263574 124.847834,14.263574 C124.329189,14.263574 123.942518,14.1062294 123.68781,13.7915354 C123.433101,13.4768415 123.305749,13.0980147 123.305749,12.6550438 C123.305749,12.2194557 123.433101,11.8420132 123.68781,11.522705 C123.942518,11.2033968 124.329189,11.0437451 124.847834,11.0437451 C125.366479,11.0437451 125.75315,11.2033968 126.007858,11.522705 C126.262567,11.8420132 126.389919,12.2194557 126.389919,12.6550438 Z M128.250388,13.5105272 C128.434959,13.5105272 128.590919,13.4408526 128.718273,13.3015013 C128.845627,13.16215 128.909304,12.9402064 128.909304,12.6356639 C128.909304,12.3495785 128.848857,12.1317877 128.727963,11.9822851 C128.607069,11.8327824 128.44511,11.7580321 128.242082,11.7580321 C127.965225,11.7580321 127.774197,11.8881529 127.668991,12.1483983 C127.61362,12.2868267 127.585934,12.4575526 127.585934,12.6605809 C127.585934,12.8359236 127.615465,12.9918839 127.674528,13.1284666 C127.78158,13.3831749 127.973531,13.5105272 128.250388,13.5105272 Z M128.05382,11.0686621 C128.205169,11.0686621 128.337135,11.0917331 128.449723,11.1378759 C128.641678,11.2172415 128.796715,11.3630506 128.914841,11.5753075 L128.914841,11.1406445 L129.68173,11.1406445 L129.68173,14.0033299 C129.68173,14.3927752 129.616208,14.686239 129.485163,14.8837302 C129.259986,15.2233413 128.828096,15.3931442 128.189479,15.3931442 C127.803725,15.3931442 127.489036,15.3174712 127.245402,15.1661228 C127.001768,15.0147744 126.867033,14.788678 126.841193,14.4878269 L127.699445,14.4878269 C127.721594,14.5801125 127.757585,14.6465572 127.807419,14.6871628 C127.892322,14.7591456 128.035362,14.7951365 128.236545,14.7951365 C128.520784,14.7951365 128.71089,14.7000837 128.806867,14.5099753 C128.869621,14.3881583 128.900998,14.1832874 128.900998,13.8953562 L128.900998,13.7015574 C128.825324,13.8307573 128.744114,13.9276557 128.657365,13.9922556 C128.50048,14.1122269 128.296531,14.1722117 128.045515,14.1722117 C127.657915,14.1722117 127.348301,14.0360925 127.116664,13.7638499 C126.885028,13.4916073 126.769211,13.1229318 126.769211,12.6578124 C126.769211,12.2093043 126.880875,11.8323232 127.104206,11.5268578 C127.327537,11.2213925 127.644072,11.0686621 128.05382,11.0686621 Z M138.181193,12.1511669 C138.181193,11.4387219 138.372221,10.8896308 138.754283,10.5038769 C139.086512,10.1679573 139.509173,10 140.022281,10 C140.708886,10 141.210913,10.2251735 141.528375,10.6755273 C141.703718,10.9283899 141.797848,11.1821715 141.810768,11.4368798 L140.958053,11.4368798 C140.902682,11.2412343 140.831623,11.0935795 140.744874,10.9939111 C140.589834,10.8167227 140.360047,10.7281298 140.055504,10.7281298 C139.745424,10.7281298 139.500871,10.853175 139.321837,11.103269 C139.142803,11.353363 139.053287,11.707273 139.053287,12.1650097 C139.053287,12.6227463 139.147879,12.9655822 139.337064,13.1935277 C139.52625,13.4214731 139.76665,13.5354441 140.058273,13.5354441 C140.357278,13.5354441 140.58522,13.4376229 140.742106,13.2419774 C140.828854,13.1367718 140.900836,12.9789657 140.958053,12.7685545 L141.802462,12.7685545 C141.728634,13.2133712 141.539912,13.5751254 141.236293,13.8538279 C140.932673,14.1325305 140.543695,14.2718797 140.069347,14.2718797 C139.48241,14.2718797 139.020989,14.0836198 138.68507,13.7070945 C138.34915,13.3287235 138.181193,12.8100862 138.181193,12.1511669 Z M143.743219,13.6018895 C143.973933,13.6018895 144.151118,13.5197565 144.274781,13.3554881 C144.398444,13.1912197 144.460274,12.9577406 144.460274,12.6550438 C144.460274,12.352347 144.398444,12.1193293 144.274781,11.9559838 C144.151118,11.7926382 143.973933,11.7109667 143.743219,11.7109667 C143.512505,11.7109667 143.334858,11.7926382 143.210272,11.9559838 C143.085686,12.1193293 143.023395,12.352347 143.023395,12.6550438 C143.023395,12.9577406 143.085686,13.1912197 143.210272,13.3554881 C143.334858,13.5197565 143.512505,13.6018895 143.743219,13.6018895 Z M145.288072,12.6550438 C145.288072,13.0980147 145.16072,13.4768415 144.906012,13.7915354 C144.651303,14.1062294 144.264632,14.263574 143.745987,14.263574 C143.227342,14.263574 142.840671,14.1062294 142.585963,13.7915354 C142.331255,13.4768415 142.203902,13.0980147 142.203902,12.6550438 C142.203902,12.2194557 142.331255,11.8420132 142.585963,11.522705 C142.840671,11.2033968 143.227342,11.0437451 143.745987,11.0437451 C144.264632,11.0437451 144.651303,11.2033968 144.906012,11.522705 C145.16072,11.8420132 145.288072,12.2194557 145.288072,12.6550438 Z M147.525064,11.0686621 C147.83699,11.0686621 148.092156,11.1503336 148.29057,11.3136791 C148.488984,11.4770247 148.588189,11.7478789 148.588189,12.1262499 L148.588189,14.1583689 L147.779771,14.1583689 L147.779771,12.3228173 C147.779771,12.164086 147.758546,12.0422708 147.716095,11.9573681 C147.638575,11.8023282 147.49092,11.7248095 147.273126,11.7248095 C147.005498,11.7248095 146.821852,11.8383191 146.722183,12.0653417 C146.670503,12.185313 146.644664,12.3385048 146.644664,12.5249217 L146.644664,14.1583689 L145.858394,14.1583689 L145.858394,11.1461816 L146.619747,11.1461816 L146.619747,11.5863818 C146.721261,11.4313419 146.817237,11.319678 146.907677,11.2513867 C147.070099,11.1295696 147.275893,11.0686621 147.525064,11.0686621 Z M149.006241,11.7303466 L149.006241,11.16833 L149.427061,11.16833 L149.427061,10.3266894 L150.207794,10.3266894 L150.207794,11.16833 L150.697828,11.16833 L150.697828,11.7303466 L150.207794,11.7303466 L150.207794,13.325034 C150.207794,13.4486967 150.223482,13.5257541 150.254859,13.5562083 C150.286236,13.5866626 150.382212,13.6018895 150.542789,13.6018895 C150.566783,13.6018895 150.592161,13.601428 150.618924,13.6005052 C150.645687,13.5995823 150.671988,13.5981981 150.697828,13.5963523 L150.697828,14.1860545 L150.324073,14.1998972 C149.951239,14.2128172 149.696535,14.1482183 149.559952,14.0060984 C149.471358,13.9156585 149.427061,13.7763093 149.427061,13.5880467 L149.427061,11.7303466 L149.006241,11.7303466 Z M152.868375,12.691035 C152.81854,12.7224121 152.768245,12.7477903 152.717488,12.7671703 C152.666731,12.7865502 152.597057,12.8045457 152.508462,12.8211571 L152.331275,12.8543797 C152.165161,12.8839111 152.046114,12.919902 151.974131,12.9623534 C151.852314,13.0343361 151.791407,13.1460001 151.791407,13.2973485 C151.791407,13.4320855 151.828782,13.5294453 151.903533,13.589431 C151.978285,13.6494166 152.069185,13.679409 152.176236,13.679409 C152.346041,13.679409 152.502463,13.6295755 152.645506,13.529907 C152.788549,13.4302386 152.862837,13.2484386 152.868375,12.9845018 L152.868375,12.691035 Z M152.389415,12.3228173 C152.535226,12.3043601 152.639507,12.2812891 152.702261,12.2536034 C152.81485,12.2056149 152.871143,12.1308647 152.871143,12.0293505 C152.871143,11.9056878 152.828231,11.8203248 152.742405,11.7732592 C152.65658,11.7261935 152.530612,11.702661 152.364498,11.702661 C152.178081,11.702661 152.046114,11.7488032 151.968594,11.8410888 C151.913223,11.9093801 151.876309,12.0016644 151.857852,12.1179442 L151.0965,12.1179442 C151.113111,11.8540074 151.186938,11.6371394 151.317984,11.4673339 C151.526549,11.2015513 151.884612,11.0686621 152.392183,11.0686621 C152.722566,11.0686621 153.016029,11.1341839 153.272583,11.2652294 C153.529137,11.396275 153.657413,11.6435967 153.657413,12.007202 L153.657413,13.3914793 C153.657413,13.4874563 153.659258,13.6037345 153.66295,13.7403172 C153.668487,13.8436771 153.684175,13.9138131 153.710015,13.9507273 C153.735855,13.9876416 153.774614,14.0180954 153.826294,14.0420896 L153.826294,14.1583689 L152.968042,14.1583689 C152.944048,14.0974604 152.927437,14.0402442 152.918208,13.9867185 C152.90898,13.9331929 152.901597,13.8722853 152.89606,13.8039939 C152.787163,13.9221195 152.661656,14.0227093 152.519537,14.1057664 C152.349731,14.2035891 152.15778,14.2524998 151.943677,14.2524998 C151.670512,14.2524998 151.444877,14.1745196 151.266766,14.0185569 C151.088654,13.8625942 150.9996,13.6415735 150.9996,13.3554881 C150.9996,12.9844999 151.142641,12.7159528 151.428726,12.5498387 C151.585612,12.4593988 151.816322,12.3947999 152.120865,12.3560399 L152.389415,12.3228173 Z M156.160186,12.2231493 C156.14542,12.1105608 156.107584,12.0090482 156.046675,11.9186083 C155.958081,11.7967913 155.820577,11.7358837 155.634161,11.7358837 C155.368378,11.7358837 155.186578,11.8678501 155.088755,12.131787 C155.037075,12.2720611 155.011236,12.4584753 155.011236,12.691035 C155.011236,12.9125205 155.037075,13.090629 155.088755,13.225366 C155.182887,13.4763829 155.360072,13.6018895 155.620318,13.6018895 C155.804889,13.6018895 155.935933,13.552056 156.013452,13.4523875 C156.090972,13.3527191 156.138037,13.2235211 156.154649,13.0647899 L156.960298,13.0647899 C156.941841,13.3047325 156.855094,13.5317517 156.700054,13.7458543 C156.452729,14.0910025 156.08636,14.263574 155.600938,14.263574 C155.115516,14.263574 154.758376,14.1196106 154.529507,13.8316795 C154.300639,13.5437484 154.186206,13.1699972 154.186206,12.7104149 C154.186206,12.1917698 154.312636,11.7884877 154.565498,11.5005566 C154.818361,11.2126254 155.167195,11.0686621 155.612012,11.0686621 C155.990383,11.0686621 156.299997,11.1535635 156.540862,11.3233691 C156.781728,11.4931746 156.924307,11.7930983 156.968604,12.2231493 L156.160186,12.2231493 Z M157.201162,11.7303466 L157.201162,11.16833 L157.621983,11.16833 L157.621983,10.3266894 L158.402715,10.3266894 L158.402715,11.16833 L158.892749,11.16833 L158.892749,11.7303466 L158.402715,11.7303466 L158.402715,13.325034 C158.402715,13.4486967 158.418403,13.5257541 158.44978,13.5562083 C158.481158,13.5866626 158.577133,13.6018895 158.73771,13.6018895 C158.761704,13.6018895 158.787083,13.601428 158.813845,13.6005052 C158.840608,13.5995823 158.866909,13.5981981 158.892749,13.5963523 L158.892749,14.1860545 L158.518994,14.1998972 C158.14616,14.2128172 157.891456,14.1482183 157.754873,14.0060984 C157.666279,13.9156585 157.621983,13.7763093 157.621983,13.5880467 L157.621983,11.7303466 L157.201162,11.7303466 Z M161.038379,10.0775195 L161.904937,10.0775195 L161.904937,12.5858299 C161.904937,12.8663782 161.938159,13.0712492 162.004605,13.200449 C162.107964,13.4293174 162.333138,13.5437498 162.680132,13.5437498 C163.02528,13.5437498 163.249531,13.4293174 163.352891,13.200449 C163.419336,13.0712492 163.452559,12.8663782 163.452559,12.5858299 L163.452559,10.0775195 L164.319116,10.0775195 L164.319116,12.5858299 C164.319116,13.0195723 164.251749,13.3573326 164.117012,13.5991209 C163.865995,14.0420918 163.38704,14.263574 162.680132,14.263574 C161.973224,14.263574 161.493346,14.0420918 161.240483,13.5991209 C161.105746,13.3573326 161.038379,13.0195723 161.038379,12.5858299 L161.038379,10.0775195 Z M165.684013,13.1949119 C165.700625,13.3351861 165.736616,13.434853 165.791987,13.4939158 C165.88981,13.5991214 166.070687,13.6517234 166.334624,13.6517234 C166.489664,13.6517234 166.612863,13.6286524 166.704226,13.5825096 C166.795589,13.5363668 166.841269,13.4671536 166.841269,13.374868 C166.841269,13.2862738 166.804356,13.2189063 166.730527,13.1727635 C166.656699,13.1266207 166.382614,13.0472563 165.908266,12.9346678 C165.56681,12.849765 165.325948,12.7436382 165.185674,12.616284 C165.0454,12.4907756 164.975264,12.3098985 164.975264,12.0736474 C164.975264,11.7949448 165.08462,11.5554672 165.303337,11.3552074 C165.522054,11.1549477 165.829822,11.0548193 166.22665,11.0548193 C166.603175,11.0548193 166.910021,11.1300309 167.147195,11.2804565 C167.384369,11.430882 167.520488,11.6906621 167.555556,12.0598046 L166.766518,12.0598046 C166.755444,11.9582904 166.726836,11.8780031 166.680693,11.8189403 C166.593945,11.711889 166.44629,11.6583642 166.237724,11.6583642 C166.066073,11.6583642 165.943797,11.6851266 165.870891,11.7386523 C165.797985,11.7921779 165.761533,11.8549312 165.761533,11.926914 C165.761533,12.0173539 165.800292,12.0828757 165.877812,12.1234813 C165.955332,12.1659327 166.229416,12.2388373 166.700073,12.3421971 C167.013844,12.4160256 167.249169,12.5276895 167.406054,12.6771922 C167.561094,12.8285406 167.638613,13.0177233 167.638613,13.2447459 C167.638613,13.5437513 167.52741,13.7878431 167.305002,13.9770286 C167.082594,14.1662141 166.738835,14.2608054 166.273716,14.2608054 C165.799368,14.2608054 165.449149,14.1606771 165.223049,13.9604173 C164.996949,13.7601575 164.883901,13.5049916 164.883901,13.1949119 L165.684013,13.1949119 Z" id="Home-About-Blog-Cont-Copy-18" fill="#4A4A4A"></path>
                <path d="M99.2126269,50 L98.3654492,50 L98.3654492,45.9191506 L99.2126269,45.9191506 L99.2126269,50 Z M99.6334472,47.5719777 L99.6334472,47.0099611 L100.054267,47.0099611 L100.054267,46.1683205 L100.835,46.1683205 L100.835,47.0099611 L101.325034,47.0099611 L101.325034,47.5719777 L100.835,47.5719777 L100.835,49.1666651 C100.835,49.2903278 100.850688,49.3673851 100.882065,49.3978394 C100.913442,49.4282936 101.009418,49.4435205 101.169995,49.4435205 C101.193989,49.4435205 101.219367,49.4430591 101.24613,49.4421363 C101.272893,49.4412134 101.299194,49.4398291 101.325034,49.4379834 L101.325034,50.0276855 L100.951279,50.0415283 C100.578445,50.0544483 100.323741,49.9898493 100.187158,49.8477295 C100.098564,49.7572896 100.054267,49.6179404 100.054267,49.4296778 L100.054267,47.5719777 L99.6334472,47.5719777 Z M103.022158,47.5525978 C102.839432,47.5525978 102.697776,47.609814 102.597185,47.7242482 C102.496593,47.8386823 102.433379,47.9937198 102.407539,48.1893653 L103.634008,48.1893653 C103.621089,47.9807998 103.557874,47.8225324 103.444363,47.7145582 C103.330851,47.6065841 103.190118,47.5525978 103.022158,47.5525978 Z M103.022158,46.9019875 C103.273175,46.9019875 103.499271,46.9490524 103.700454,47.0431838 C103.901636,47.1373151 104.067748,47.2858927 104.198794,47.488921 C104.316919,47.6679551 104.393515,47.8755946 104.428584,48.1118458 C104.448886,48.2502742 104.457192,48.4496082 104.453501,48.7098536 L102.388159,48.7098536 C102.399233,49.0125504 102.494286,49.2248041 102.67332,49.3466211 C102.782217,49.4222953 102.913261,49.4601319 103.066455,49.4601319 C103.228877,49.4601319 103.360844,49.4139898 103.462358,49.3217041 C103.517729,49.2718699 103.56664,49.2026567 103.609091,49.1140625 L104.414741,49.1140625 C104.394438,49.2930966 104.301231,49.4748966 104.135117,49.6594678 C103.876717,49.952936 103.514963,50.099668 103.049843,50.099668 C102.665935,50.099668 102.327252,49.9760071 102.033784,49.7286817 C101.740316,49.4813562 101.593584,49.078997 101.593584,48.5215919 C101.593584,47.9992553 101.726012,47.5987418 101.990871,47.3200392 C102.255731,47.0413367 102.59949,46.9019875 103.022158,46.9019875 Z M108.357163,46.9158302 C108.490054,46.9158302 108.621097,46.9416698 108.750297,46.9933498 C108.879497,47.0450297 108.996698,47.1354683 109.101904,47.2646681 C109.186806,47.3698737 109.244023,47.4990716 109.273554,47.6522657 C109.292011,47.7537799 109.30124,47.9023575 109.30124,48.098003 L109.295703,50 L108.487285,50 L108.487285,48.0786231 C108.487285,47.964189 108.468828,47.8700591 108.431914,47.7962306 C108.361776,47.6559565 108.232579,47.5858204 108.044316,47.5858204 C107.826522,47.5858204 107.676099,47.676259 107.593041,47.8571388 C107.55059,47.9531158 107.529365,48.0684711 107.529365,48.2032081 L107.529365,50 L106.73479,50 L106.73479,48.2032081 C106.73479,48.024174 106.716333,47.8940533 106.679418,47.8128419 C106.612973,47.6670306 106.482852,47.5941261 106.289052,47.5941261 C106.063875,47.5941261 105.912529,47.6670306 105.835009,47.8128419 C105.792558,47.895899 105.771333,48.0195598 105.771333,48.1838282 L105.771333,50 L104.97122,50 L104.97122,46.9878127 L105.73811,46.9878127 L105.73811,47.4280128 C105.835933,47.2711273 105.928217,47.1594634 106.014965,47.0930177 C106.16816,46.9748921 106.366571,46.9158302 106.610205,46.9158302 C106.840919,46.9158302 107.027333,46.9665866 107.169453,47.0681007 C107.283887,47.1622321 107.370634,47.2831244 107.429697,47.4307814 C107.533057,47.253593 107.661332,47.1234722 107.814526,47.0404152 C107.976949,46.9573581 108.157826,46.9158302 108.357163,46.9158302 Z M99.2126269,60 L98.3654492,60 L98.3654492,55.9191506 L99.2126269,55.9191506 L99.2126269,60 Z M99.6334472,57.5719777 L99.6334472,57.0099611 L100.054267,57.0099611 L100.054267,56.1683205 L100.835,56.1683205 L100.835,57.0099611 L101.325034,57.0099611 L101.325034,57.5719777 L100.835,57.5719777 L100.835,59.1666651 C100.835,59.2903278 100.850688,59.3673851 100.882065,59.3978394 C100.913442,59.4282936 101.009418,59.4435205 101.169995,59.4435205 C101.193989,59.4435205 101.219367,59.4430591 101.24613,59.4421363 C101.272893,59.4412134 101.299194,59.4398291 101.325034,59.4379834 L101.325034,60.0276855 L100.951279,60.0415283 C100.578445,60.0544483 100.323741,59.9898493 100.187158,59.8477295 C100.098564,59.7572896 100.054267,59.6179404 100.054267,59.4296778 L100.054267,57.5719777 L99.6334472,57.5719777 Z M103.022158,57.5525978 C102.839432,57.5525978 102.697776,57.609814 102.597185,57.7242482 C102.496593,57.8386823 102.433379,57.9937198 102.407539,58.1893653 L103.634008,58.1893653 C103.621089,57.9807998 103.557874,57.8225324 103.444363,57.7145582 C103.330851,57.6065841 103.190118,57.5525978 103.022158,57.5525978 Z M103.022158,56.9019875 C103.273175,56.9019875 103.499271,56.9490524 103.700454,57.0431838 C103.901636,57.1373151 104.067748,57.2858927 104.198794,57.488921 C104.316919,57.6679551 104.393515,57.8755946 104.428584,58.1118458 C104.448886,58.2502742 104.457192,58.4496082 104.453501,58.7098536 L102.388159,58.7098536 C102.399233,59.0125504 102.494286,59.2248041 102.67332,59.3466211 C102.782217,59.4222953 102.913261,59.4601319 103.066455,59.4601319 C103.228877,59.4601319 103.360844,59.4139898 103.462358,59.3217041 C103.517729,59.2718699 103.56664,59.2026567 103.609091,59.1140625 L104.414741,59.1140625 C104.394438,59.2930966 104.301231,59.4748966 104.135117,59.6594678 C103.876717,59.952936 103.514963,60.099668 103.049843,60.099668 C102.665935,60.099668 102.327252,59.9760071 102.033784,59.7286817 C101.740316,59.4813562 101.593584,59.078997 101.593584,58.5215919 C101.593584,57.9992553 101.726012,57.5987418 101.990871,57.3200392 C102.255731,57.0413367 102.59949,56.9019875 103.022158,56.9019875 Z M108.357163,56.9158302 C108.490054,56.9158302 108.621097,56.9416698 108.750297,56.9933498 C108.879497,57.0450297 108.996698,57.1354683 109.101904,57.2646681 C109.186806,57.3698737 109.244023,57.4990716 109.273554,57.6522657 C109.292011,57.7537799 109.30124,57.9023575 109.30124,58.098003 L109.295703,60 L108.487285,60 L108.487285,58.0786231 C108.487285,57.964189 108.468828,57.8700591 108.431914,57.7962306 C108.361776,57.6559565 108.232579,57.5858204 108.044316,57.5858204 C107.826522,57.5858204 107.676099,57.676259 107.593041,57.8571388 C107.55059,57.9531158 107.529365,58.0684711 107.529365,58.2032081 L107.529365,60 L106.73479,60 L106.73479,58.2032081 C106.73479,58.024174 106.716333,57.8940533 106.679418,57.8128419 C106.612973,57.6670306 106.482852,57.5941261 106.289052,57.5941261 C106.063875,57.5941261 105.912529,57.6670306 105.835009,57.8128419 C105.792558,57.895899 105.771333,58.0195598 105.771333,58.1838282 L105.771333,60 L104.97122,60 L104.97122,56.9878127 L105.73811,56.9878127 L105.73811,57.4280128 C105.835933,57.2711273 105.928217,57.1594634 106.014965,57.0930177 C106.16816,56.9748921 106.366571,56.9158302 106.610205,56.9158302 C106.840919,56.9158302 107.027333,56.9665866 107.169453,57.0681007 C107.283887,57.1622321 107.370634,57.2831244 107.429697,57.4307814 C107.533057,57.253593 107.661332,57.1234722 107.814526,57.0404152 C107.976949,56.9573581 108.157826,56.9158302 108.357163,56.9158302 Z M99.2126269,70 L98.3654492,70 L98.3654492,65.9191506 L99.2126269,65.9191506 L99.2126269,70 Z M99.6334472,67.5719777 L99.6334472,67.0099611 L100.054267,67.0099611 L100.054267,66.1683205 L100.835,66.1683205 L100.835,67.0099611 L101.325034,67.0099611 L101.325034,67.5719777 L100.835,67.5719777 L100.835,69.1666651 C100.835,69.2903278 100.850688,69.3673851 100.882065,69.3978394 C100.913442,69.4282936 101.009418,69.4435205 101.169995,69.4435205 C101.193989,69.4435205 101.219367,69.4430591 101.24613,69.4421363 C101.272893,69.4412134 101.299194,69.4398291 101.325034,69.4379834 L101.325034,70.0276855 L100.951279,70.0415283 C100.578445,70.0544483 100.323741,69.9898493 100.187158,69.8477295 C100.098564,69.7572896 100.054267,69.6179404 100.054267,69.4296778 L100.054267,67.5719777 L99.6334472,67.5719777 Z M103.022158,67.5525978 C102.839432,67.5525978 102.697776,67.609814 102.597185,67.7242482 C102.496593,67.8386823 102.433379,67.9937198 102.407539,68.1893653 L103.634008,68.1893653 C103.621089,67.9807998 103.557874,67.8225324 103.444363,67.7145582 C103.330851,67.6065841 103.190118,67.5525978 103.022158,67.5525978 Z M103.022158,66.9019875 C103.273175,66.9019875 103.499271,66.9490524 103.700454,67.0431838 C103.901636,67.1373151 104.067748,67.2858927 104.198794,67.488921 C104.316919,67.6679551 104.393515,67.8755946 104.428584,68.1118458 C104.448886,68.2502742 104.457192,68.4496082 104.453501,68.7098536 L102.388159,68.7098536 C102.399233,69.0125504 102.494286,69.2248041 102.67332,69.3466211 C102.782217,69.4222953 102.913261,69.4601319 103.066455,69.4601319 C103.228877,69.4601319 103.360844,69.4139898 103.462358,69.3217041 C103.517729,69.2718699 103.56664,69.2026567 103.609091,69.1140625 L104.414741,69.1140625 C104.394438,69.2930966 104.301231,69.4748966 104.135117,69.6594678 C103.876717,69.952936 103.514963,70.099668 103.049843,70.099668 C102.665935,70.099668 102.327252,69.9760071 102.033784,69.7286817 C101.740316,69.4813562 101.593584,69.078997 101.593584,68.5215919 C101.593584,67.9992553 101.726012,67.5987418 101.990871,67.3200392 C102.255731,67.0413367 102.59949,66.9019875 103.022158,66.9019875 Z M108.357163,66.9158302 C108.490054,66.9158302 108.621097,66.9416698 108.750297,66.9933498 C108.879497,67.0450297 108.996698,67.1354683 109.101904,67.2646681 C109.186806,67.3698737 109.244023,67.4990716 109.273554,67.6522657 C109.292011,67.7537799 109.30124,67.9023575 109.30124,68.098003 L109.295703,70 L108.487285,70 L108.487285,68.0786231 C108.487285,67.964189 108.468828,67.8700591 108.431914,67.7962306 C108.361776,67.6559565 108.232579,67.5858204 108.044316,67.5858204 C107.826522,67.5858204 107.676099,67.676259 107.593041,67.8571388 C107.55059,67.9531158 107.529365,68.0684711 107.529365,68.2032081 L107.529365,70 L106.73479,70 L106.73479,68.2032081 C106.73479,68.024174 106.716333,67.8940533 106.679418,67.8128419 C106.612973,67.6670306 106.482852,67.5941261 106.289052,67.5941261 C106.063875,67.5941261 105.912529,67.6670306 105.835009,67.8128419 C105.792558,67.895899 105.771333,68.0195598 105.771333,68.1838282 L105.771333,70 L104.97122,70 L104.97122,66.9878127 L105.73811,66.9878127 L105.73811,67.4280128 C105.835933,67.2711273 105.928217,67.1594634 106.014965,67.0930177 C106.16816,66.9748921 106.366571,66.9158302 106.610205,66.9158302 C106.840919,66.9158302 107.027333,66.9665866 107.169453,67.0681007 C107.283887,67.1622321 107.370634,67.2831244 107.429697,67.4307814 C107.533057,67.253593 107.661332,67.1234722 107.814526,67.0404152 C107.976949,66.9573581 108.157826,66.9158302 108.357163,66.9158302 Z" id="Item-Item-Item-Copy-4" fill="#9B9B9B"></path>
                <path id="Line" d="M107.121576,32.7402612 L113.871576,20.7402612 L112.128424,20.7402612 L118.878424,32.7402612 L119.368686,33.6118368 L121.111837,32.6313143 L120.621576,31.7597388 L113.871576,19.7597388 L113,18.2102711 L112.128424,19.7597388 L105.378424,31.7597388 L104.888163,32.6313143 L106.631314,33.6118368 L107.121576,32.7402612 Z M112,22 L112,32.25 L112,37 L112,38 L114,38 L114,37 L114,32.25 L114,22 L114,21 L112,21 L112,22 Z" fill="#979797" fill-rule="nonzero"></path>
            </g>
        </g>
    </g>
</svg>