<?xml version="1.0" encoding="UTF-8"?>
<svg width="178px" height="119px" viewBox="0 0 178 119" version="1.1" xmlns="http://www.w3.org/2000/svg" xmlns:xlink="http://www.w3.org/1999/xlink">
    <!-- Generator: Sketch 51.2 (57519) - http://www.bohemiancoding.com/sketch -->
    <title>Group 14</title>
    <desc>Created with Sketch.</desc>
    <defs></defs>
    <g id="Page-1" stroke="none" stroke-width="1" fill="none" fill-rule="evenodd">
        <g id="Desktop-HD" transform="translate(-752.000000, -2003.000000)">
            <g id="Group-14" transform="translate(752.000000, 2003.000000)">
                <rect id="Rectangle-2-Copy-29" stroke="#9B9B9B" stroke-width="1.61999991" fill="#F9F9F9" x="0.809999957" y="0.809999957" width="176.38" height="117.38" rx="6.47999966"></rect>
                <path d="M0.809999957,22.19 L177.19,22.19 L177.19,6.47999966 C177.19,3.34854529 174.651455,0.809999957 171.52,0.809999957 L6.47999966,0.809999957 C3.34854529,0.809999957 0.809999957,3.34854529 0.809999957,6.47999966 L0.809999957,22.19 Z" id="Rectangle-2-Copy-30" stroke="#9B9B9B" stroke-width="1.61999991" fill="#FFFFFF"></path>
                <rect id="Rectangle-2-Copy-31" stroke="#9B9B9B" stroke-width="1.61999991" fill="#FFFFFF" x="0.809999957" y="22.81" width="176.38" height="18.3800001"></rect>
                <g id="brand-copy-14" transform="translate(11.000000, 9.000000)" fill="#4A4A4A" fill-rule="nonzero">
                    <g id="#000000ff">
                        <path d="M0.0243116872,0 L1.17755844,0 C1.19314286,0.585742574 1.17880519,1.17148515 1.18566234,1.75722772 C1.92,1.31168317 2.92176623,1.35742574 3.63179221,1.82554455 C4.16415584,2.17069307 4.56062338,2.71960396 4.65537662,3.33148515 C4.71148052,3.72356436 4.6852987,4.13287129 4.53693506,4.50534653 C4.20342857,5.34118812 3.31885714,5.96613861 2.37007792,5.96079208 C1.8638961,5.98574257 1.36955844,5.80514851 0.982441557,5.49980198 C0.730597401,5.74455446 0.379636363,5.86811881 0.0211948041,5.81940594 C0.013090908,3.87980198 0.00623376512,1.93960396 0.0243116872,0 Z M2.08020779,2.58356436 C1.63885714,2.66257426 1.26296104,3.00237624 1.15324675,3.41643564 C0.967480518,4.04079208 1.44187013,4.74950495 2.12072727,4.83326733 C2.83137662,4.97108911 3.55698701,4.37108911 3.5145974,3.6819802 C3.52955844,2.99524752 2.78088312,2.4249505 2.08020779,2.58356436 Z" id="Shape"></path>
                        <path d="M6.72685714,1.46554455 C7.24737662,1.42455446 7.78098701,1.46673267 8.28093506,1.61762376 C8.28779221,1.97108911 8.28841558,2.32514851 8.28218182,2.67861386 C8.27096104,2.70534653 8.24851948,2.76 8.23667532,2.78732673 C7.776,2.5639604 7.24114286,2.51465347 6.73309091,2.56752475 C6.59594805,2.57524752 6.36841558,2.67267327 6.48997403,2.83128713 C6.94441558,3.06356436 7.43127273,3.23584158 7.8825974,3.47346535 C8.3918961,3.74792079 8.66431169,4.35980198 8.50348052,4.8980198 C8.40623377,5.28118812 8.12446753,5.6150495 7.7467013,5.77841584 C7.16197403,6.03386139 6.4881039,5.99762376 5.8747013,5.86633663 C5.66774026,5.83366337 5.46888312,5.67683168 5.46202597,5.46653465 C5.45142857,5.15881188 5.44706494,4.85049505 5.46950649,4.5439604 C6.00561039,4.77683168 6.61963636,4.95920792 7.20685714,4.79346535 C7.39075325,4.75425743 7.43937662,4.50356436 7.2854026,4.40257426 C6.77672727,4.10019802 6.16332468,3.96950495 5.69080519,3.61009901 C5.23948052,3.22693069 5.17215584,2.51881188 5.52374026,2.05425743 C5.78742857,1.6770297 6.26867532,1.50178218 6.72685714,1.46554455 Z" id="Shape"></path>
                        <path d="M9.87677922,1.92772277 C10.358026,1.52376238 11.0331429,1.41920792 11.654026,1.4560396 C12.1795325,1.48217822 12.7193766,1.65089109 13.0902857,2.01980198 C13.3633247,2.28475248 13.5017143,2.65782178 13.4954805,3.02673267 C13.4985974,3.95465347 13.4998442,4.88257426 13.4954805,5.81049505 C13.2155844,5.82950495 12.9338182,5.82534653 12.6539221,5.81821782 C12.4675325,5.8170297 12.3141818,5.64118812 12.3285195,5.46772277 C12.3235325,4.65564356 12.3297662,3.84356436 12.326026,3.03148515 C12.3397403,2.87584158 12.2275325,2.73683168 12.0797922,2.6809901 C11.7518961,2.54019802 11.3747532,2.54079208 11.0269091,2.6019802 C10.8211948,2.6429703 10.5624935,2.74574257 10.5437922,2.97623762 C10.5238442,3.92257426 10.5537662,4.86950495 10.5294545,5.81584158 C10.1442078,5.82475248 9.75896104,5.82891089 9.37371429,5.81346535 C9.36187013,4.88435644 9.37122078,3.95524752 9.36935065,3.02613861 C9.36374026,2.61267327 9.5414026,2.19564356 9.87677922,1.92772277 Z" id="Shape"></path>
                        <path d="M15.4404156,1.70792079 C16.2052987,1.31940594 17.2313766,1.34970297 17.8946494,1.91405941 C18.1365195,1.66039604 18.4924675,1.54752475 18.8477922,1.59267327 C18.8608831,3.00178218 18.8658701,4.41207921 18.8446753,5.82118812 C18.4918442,5.86158416 18.1377662,5.75049505 17.8958961,5.49920792 C17.5106494,5.8009901 17.0231688,5.98455446 16.5201039,5.96079208 C15.6492468,5.97029703 14.8232727,5.45108911 14.4361558,4.71623762 C14.1899221,4.26594059 14.1375584,3.73366337 14.2366753,3.23821782 C14.3650909,2.58772277 14.8413506,2.02811881 15.4404156,1.70792079 Z M16.3555325,2.57940594 C15.739013,2.65960396 15.2714805,3.26316832 15.3662338,3.84831683 C15.4260779,4.39009901 15.9478442,4.84752475 16.521974,4.84693069 C17.1821299,4.88792079 17.7905455,4.31465347 17.7556364,3.68435644 C17.7730909,3.00831683 17.0493506,2.43920792 16.3555325,2.57940594 Z" id="Shape"></path>
                        <path d="M19.3365195,1.60336634 C19.6232727,1.57841584 19.9118961,1.59326733 20.1992727,1.58910891 C20.3251948,1.59386139 20.4673247,1.58435644 20.5701818,1.66633663 C20.6630649,1.74356436 20.7067013,1.8570297 20.7590649,1.95980198 C21.0545455,2.61207921 21.3581299,3.26079208 21.6536104,3.91247525 C22.0145455,3.15029703 22.3561558,2.37980198 22.7152208,1.6170297 C23.1229091,1.5570297 23.553039,1.59980198 23.9688312,1.5980198 C23.9326753,1.77445545 23.8435325,1.93425743 23.7693506,2.09821782 C23.2282597,3.26613861 22.694026,4.4370297 22.1510649,5.60435644 C21.9877403,6.0029703 21.2777143,5.98039604 21.1449351,5.56871287 C20.6306494,4.45663366 20.1201039,3.34336634 19.6064416,2.23128713 C19.5154286,2.02217822 19.4013506,1.8219802 19.3365195,1.60336634 Z" id="Shape"></path>
                    </g>
                </g>
                <path d="M71.1454398,14 L71.1454398,9.91915061 L71.9898489,9.91915061 L71.9898489,11.4750783 L73.5845363,11.4750783 L73.5845363,9.91915061 L74.431714,9.91915061 L74.431714,14 L73.5845363,14 L73.5845363,12.1782911 L71.9898489,12.1782911 L71.9898489,14 L71.1454398,14 Z M76.5358154,13.4435205 C76.7665295,13.4435205 76.9437152,13.3613876 77.0673779,13.1971192 C77.1910406,13.0328508 77.2528711,12.7993717 77.2528711,12.4966749 C77.2528711,12.1939781 77.1910406,11.9609604 77.0673779,11.7976149 C76.9437152,11.6342693 76.7665295,11.5525978 76.5358154,11.5525978 C76.3051014,11.5525978 76.1274543,11.6342693 76.0028687,11.7976149 C75.8782831,11.9609604 75.8159913,12.1939781 75.8159913,12.4966749 C75.8159913,12.7993717 75.8782831,13.0328508 76.0028687,13.1971192 C76.1274543,13.3613876 76.3051014,13.4435205 76.5358154,13.4435205 Z M78.0806689,12.4966749 C78.0806689,12.9396458 77.9533166,13.3184726 77.6986084,13.6331665 C77.4439001,13.9478605 77.0572291,14.1052051 76.538584,14.1052051 C76.0199389,14.1052051 75.6332679,13.9478605 75.3785596,13.6331665 C75.1238514,13.3184726 74.9964991,12.9396458 74.9964991,12.4966749 C74.9964991,12.0610868 75.1238514,11.6836443 75.3785596,11.3643361 C75.6332679,11.0450279 76.0199389,10.8853761 76.538584,10.8853761 C77.0572291,10.8853761 77.4439001,11.0450279 77.6986084,11.3643361 C77.9533166,11.6836443 78.0806689,12.0610868 78.0806689,12.4966749 Z M82.0175534,10.9158302 C82.1504447,10.9158302 82.2814883,10.9416698 82.4106882,10.9933498 C82.539888,11.0450297 82.657089,11.1354683 82.7622946,11.2646681 C82.8471974,11.3698737 82.9044136,11.4990716 82.933945,11.6522657 C82.9524021,11.7537799 82.9616305,11.9023575 82.9616305,12.098003 L82.9560934,14 L82.1476755,14 L82.1476755,12.0786231 C82.1476755,11.964189 82.1292187,11.8700591 82.0923044,11.7962306 C82.0221673,11.6559565 81.8929694,11.5858204 81.7047068,11.5858204 C81.4869127,11.5858204 81.3364894,11.676259 81.2534324,11.8571388 C81.210981,11.9531158 81.1897556,12.0684711 81.1897556,12.2032081 L81.1897556,14 L80.3951805,14 L80.3951805,12.2032081 C80.3951805,12.024174 80.3767236,11.8940533 80.3398094,11.8128419 C80.2733637,11.6670306 80.143243,11.5941261 79.9494432,11.5941261 C79.7242663,11.5941261 79.5729202,11.6670306 79.4954002,11.8128419 C79.4529489,11.895899 79.4317235,12.0195598 79.4317235,12.1838282 L79.4317235,14 L78.6316112,14 L78.6316112,10.9878127 L79.3985008,10.9878127 L79.3985008,11.4280128 C79.4963236,11.2711273 79.5886078,11.1594634 79.6753563,11.0930177 C79.8285504,10.9748921 80.0269615,10.9158302 80.2705955,10.9158302 C80.5013096,10.9158302 80.6877237,10.9665866 80.8298435,11.0681007 C80.9442777,11.1622321 81.0310249,11.2831244 81.0900877,11.4307814 C81.1934476,11.253593 81.3217226,11.1234722 81.4749167,11.0404152 C81.6373394,10.9573581 81.8182165,10.9158302 82.0175534,10.9158302 Z M84.8774703,11.5525978 C84.6947448,11.5525978 84.5530885,11.609814 84.4524972,11.7242482 C84.3519058,11.8386823 84.2886911,11.9937198 84.2628512,12.1893653 L85.4893208,12.1893653 C85.4764008,11.9807998 85.4131861,11.8225324 85.2996748,11.7145582 C85.1861635,11.6065841 85.0454301,11.5525978 84.8774703,11.5525978 Z M84.8774703,10.9019875 C85.1284871,10.9019875 85.3545835,10.9490524 85.5557661,11.0431838 C85.7569488,11.1373151 85.9230604,11.2858927 86.054106,11.488921 C86.1722315,11.6679551 86.2488275,11.8755946 86.283896,12.1118458 C86.3041988,12.2502742 86.3125044,12.4496082 86.308813,12.7098536 L84.2434713,12.7098536 C84.2545456,13.0125504 84.3495983,13.2248041 84.5286324,13.3466211 C84.6375294,13.4222953 84.768573,13.4601319 84.9217671,13.4601319 C85.0841898,13.4601319 85.2161563,13.4139898 85.3176704,13.3217041 C85.3730418,13.2718699 85.4219525,13.2026567 85.4644038,13.1140625 L86.2700532,13.1140625 C86.2497504,13.2930966 86.1565433,13.4748966 85.9904292,13.6594678 C85.7320295,13.952936 85.3702753,14.099668 84.9051558,14.099668 C84.5212477,14.099668 84.1825646,13.9760071 83.8890963,13.7286817 C83.5956281,13.4813562 83.4488961,13.078997 83.4488961,12.5215919 C83.4488961,11.9992553 83.581324,11.5987418 83.8461837,11.3200392 C84.1110434,11.0413367 84.4548022,10.9019875 84.8774703,10.9019875 Z M95.8963173,12.4579151 L96.9317567,12.4579151 L96.4223427,10.8521535 L95.8963173,12.4579151 Z M95.9489199,9.91915061 L96.9123769,9.91915061 L98.3575623,14 L97.4328651,14 L97.1698524,13.161128 L95.6665273,13.161128 L95.3841348,14 L94.4926602,14 L95.9489199,9.91915061 Z M100.442284,10.9158302 C100.839112,10.9158302 101.149648,11.0588708 101.373903,11.3449562 C101.598157,11.6310416 101.710282,12.0001785 101.710282,12.452378 C101.710282,12.9211889 101.599541,13.3097055 101.378055,13.6179395 C101.15657,13.9261734 100.847418,14.0802881 100.45059,14.0802881 C100.201418,14.0802881 100.001162,14.0304546 99.8498132,13.9307861 C99.7593733,13.8717233 99.6615521,13.768365 99.5563465,13.620708 L99.5563465,14 L98.7839197,14 L98.7839197,9.92468772 L99.5701892,9.92468772 L99.5701892,11.3754103 C99.6698577,11.2351362 99.7796759,11.1280865 99.8996472,11.054258 C100.041767,10.9619724 100.222644,10.9158302 100.442284,10.9158302 Z M100.240179,13.4296778 C100.443208,13.4296778 100.601014,13.3475448 100.713602,13.1832764 C100.826191,13.019008 100.882484,12.8030629 100.882484,12.5354346 C100.882484,12.321332 100.854799,12.1441463 100.799427,12.0038722 C100.694222,11.7380896 100.500425,11.6052003 100.218031,11.6052003 C99.9319456,11.6052003 99.7353802,11.7353211 99.6283289,11.9955665 C99.5729575,12.1339949 99.5452722,12.3130263 99.5452722,12.5326661 C99.5452722,12.7910658 99.6024885,13.0051652 99.7169226,13.1749707 C99.8313568,13.3447763 100.005774,13.4296778 100.240179,13.4296778 Z M103.62889,13.4435205 C103.859604,13.4435205 104.03679,13.3613876 104.160453,13.1971192 C104.284115,13.0328508 104.345946,12.7993717 104.345946,12.4966749 C104.345946,12.1939781 104.284115,11.9609604 104.160453,11.7976149 C104.03679,11.6342693 103.859604,11.5525978 103.62889,11.5525978 C103.398176,11.5525978 103.220529,11.6342693 103.095943,11.7976149 C102.971358,11.9609604 102.909066,12.1939781 102.909066,12.4966749 C102.909066,12.7993717 102.971358,13.0328508 103.095943,13.1971192 C103.220529,13.3613876 103.398176,13.4435205 103.62889,13.4435205 Z M105.173744,12.4966749 C105.173744,12.9396458 105.046391,13.3184726 104.791683,13.6331665 C104.536975,13.9478605 104.150304,14.1052051 103.631659,14.1052051 C103.113014,14.1052051 102.726343,13.9478605 102.471634,13.6331665 C102.216926,13.3184726 102.089574,12.9396458 102.089574,12.4966749 C102.089574,12.0610868 102.216926,11.6836443 102.471634,11.3643361 C102.726343,11.0450279 103.113014,10.8853761 103.631659,10.8853761 C104.150304,10.8853761 104.536975,11.0450279 104.791683,11.3643361 C105.046391,11.6836443 105.173744,12.0610868 105.173744,12.4966749 Z M106.524798,10.9822756 L106.524798,12.8012159 C106.524798,12.9728671 106.545101,13.102065 106.585706,13.1888135 C106.657689,13.3420076 106.798884,13.4186035 107.009295,13.4186035 C107.278769,13.4186035 107.463338,13.3097082 107.563006,13.0919141 C107.614686,12.9737885 107.640526,12.8178282 107.640526,12.6240284 L107.640526,10.9822756 L108.440638,10.9822756 L108.440638,14 L107.673748,14 L107.673748,13.5736426 C107.666366,13.5828712 107.647909,13.6105564 107.618377,13.6566992 C107.588846,13.702842 107.553778,13.7434471 107.513172,13.7785156 C107.389509,13.8892584 107.270001,13.9649314 107.154644,14.0055371 C107.039287,14.0461428 106.904091,14.0664453 106.749051,14.0664453 C106.302389,14.0664453 106.001542,13.9058708 105.846502,13.5847168 C105.759754,13.4075284 105.71638,13.1463641 105.71638,12.8012159 L105.71638,10.9822756 L106.524798,10.9822756 Z M108.891912,11.5719777 L108.891912,11.0099611 L109.312733,11.0099611 L109.312733,10.1683205 L110.093465,10.1683205 L110.093465,11.0099611 L110.583499,11.0099611 L110.583499,11.5719777 L110.093465,11.5719777 L110.093465,13.1666651 C110.093465,13.2903278 110.109153,13.3673851 110.14053,13.3978394 C110.171908,13.4282936 110.267883,13.4435205 110.42846,13.4435205 C110.452454,13.4435205 110.477833,13.4430591 110.504595,13.4421363 C110.531358,13.4412134 110.557659,13.4398291 110.583499,13.4379834 L110.583499,14.0276855 L110.209744,14.0415283 C109.83691,14.0544483 109.582206,13.9898493 109.445623,13.8477295 C109.357029,13.7572896 109.312733,13.6179404 109.312733,13.4296778 L109.312733,11.5719777 L108.891912,11.5719777 Z M119.858157,10.6279006 L119.858157,11.5276808 L120.860374,11.5276808 C121.039408,11.5276808 121.184755,11.4939971 121.296421,11.4266286 C121.408087,11.3592601 121.463919,11.239752 121.463919,11.0681007 C121.463919,10.8779924 121.390091,10.7524858 121.242434,10.6915773 C121.11508,10.6491259 120.95266,10.6279006 120.755169,10.6279006 L119.858157,10.6279006 Z M119.858157,12.2032081 L119.858157,13.29125 L120.860374,13.29125 C121.039408,13.29125 121.178757,13.2672561 121.278425,13.2192676 C121.459305,13.1306734 121.549744,12.9608705 121.549744,12.7098536 C121.549744,12.4975967 121.462074,12.3517876 121.286731,12.272422 C121.188908,12.2281249 121.051405,12.2050538 120.874216,12.2032081 L119.858157,12.2032081 Z M121.026487,9.91915061 C121.526675,9.92653346 121.881046,10.0714197 122.089612,10.3538137 C122.21512,10.5273106 122.277874,10.7349501 122.277874,10.9767384 C122.277874,11.2259096 122.21512,11.4261664 122.089612,11.5775148 C122.019475,11.6624175 121.916116,11.7399363 121.779534,11.8100734 C121.988099,11.8857476 122.145444,12.0057171 122.251572,12.1699854 C122.357701,12.3342538 122.410764,12.5335878 122.410764,12.7679932 C122.410764,13.0097815 122.349857,13.2266495 122.22804,13.4186035 C122.15052,13.5459577 122.053621,13.6530074 121.937341,13.7397559 C121.806296,13.8394243 121.65172,13.9077147 121.473608,13.9446289 C121.295497,13.9815432 121.102162,14 120.893596,14 L119.044202,14 L119.044202,9.91915061 L121.026487,9.91915061 Z M123.867024,14 L123.077986,14 L123.077986,9.91915061 L123.867024,9.91915061 L123.867024,14 Z M125.990505,13.4435205 C126.221219,13.4435205 126.398405,13.3613876 126.522068,13.1971192 C126.64573,13.0328508 126.707561,12.7993717 126.707561,12.4966749 C126.707561,12.1939781 126.64573,11.9609604 126.522068,11.7976149 C126.398405,11.6342693 126.221219,11.5525978 125.990505,11.5525978 C125.759791,11.5525978 125.582144,11.6342693 125.457558,11.7976149 C125.332973,11.9609604 125.270681,12.1939781 125.270681,12.4966749 C125.270681,12.7993717 125.332973,13.0328508 125.457558,13.1971192 C125.582144,13.3613876 125.759791,13.4435205 125.990505,13.4435205 Z M127.535359,12.4966749 C127.535359,12.9396458 127.408006,13.3184726 127.153298,13.6331665 C126.89859,13.9478605 126.511919,14.1052051 125.993274,14.1052051 C125.474629,14.1052051 125.087958,13.9478605 124.833249,13.6331665 C124.578541,13.3184726 124.451189,12.9396458 124.451189,12.4966749 C124.451189,12.0610868 124.578541,11.6836443 124.833249,11.3643361 C125.087958,11.0450279 125.474629,10.8853761 125.993274,10.8853761 C126.511919,10.8853761 126.89859,11.0450279 127.153298,11.3643361 C127.408006,11.6836443 127.535359,12.0610868 127.535359,12.4966749 Z M129.395827,13.3521582 C129.580399,13.3521582 129.736359,13.2824836 129.863713,13.1431324 C129.991067,13.0037811 130.054743,12.7818375 130.054743,12.477295 C130.054743,12.1912096 129.994297,11.9734188 129.873403,11.8239161 C129.752509,11.6744134 129.59055,11.5996632 129.387522,11.5996632 C129.110665,11.5996632 128.919636,11.729784 128.814431,11.9900294 C128.759059,12.1284578 128.731374,12.2991836 128.731374,12.502212 C128.731374,12.6775547 128.760905,12.833515 128.819968,12.9700977 C128.927019,13.224806 129.11897,13.3521582 129.395827,13.3521582 Z M129.19926,10.9102931 C129.350608,10.9102931 129.482575,10.9333642 129.595163,10.979507 C129.787117,11.0588726 129.942155,11.2046817 130.06028,11.4169386 L130.06028,10.9822756 L130.82717,10.9822756 L130.82717,13.8449609 C130.82717,14.2344062 130.761648,14.5278701 130.630603,14.7253613 C130.405426,15.0649723 129.973536,15.2347753 129.334919,15.2347753 C128.949165,15.2347753 128.634476,15.1591023 128.390842,15.0077539 C128.147208,14.8564054 128.012473,14.6303091 127.986633,14.329458 L128.844885,14.329458 C128.867033,14.4217436 128.903024,14.4881882 128.952859,14.5287939 C129.037761,14.6007767 129.180802,14.6367675 129.381985,14.6367675 C129.666224,14.6367675 129.85633,14.5417148 129.952307,14.3516064 C130.015061,14.2297894 130.046438,14.0249184 130.046438,13.7369873 L130.046438,13.5431885 C129.970763,13.6723884 129.889553,13.7692868 129.802805,13.8338867 C129.645919,13.953858 129.441971,14.0138428 129.190954,14.0138428 C128.803355,14.0138428 128.493741,13.8777235 128.262104,13.605481 C128.030467,13.3332384 127.914651,12.9645629 127.914651,12.4994434 C127.914651,12.0509354 128.026315,11.6739543 128.249646,11.3684889 C128.472977,11.0630235 128.789512,10.9102931 129.19926,10.9102931 Z M139.326632,11.992798 C139.326632,11.280353 139.517661,10.7312619 139.899723,10.345508 C140.231951,10.0095884 140.654613,9.84163108 141.167721,9.84163108 C141.854326,9.84163108 142.356352,10.0668046 142.673815,10.5171584 C142.849158,10.770021 142.943287,11.0238026 142.956207,11.2785109 L142.103493,11.2785109 C142.048121,11.0828654 141.977062,10.9352106 141.890314,10.8355422 C141.735274,10.6583538 141.505486,10.5697609 141.200944,10.5697609 C140.890864,10.5697609 140.646311,10.6948061 140.467277,10.9449001 C140.288243,11.1949941 140.198727,11.5489041 140.198727,12.0066407 C140.198727,12.4643774 140.293318,12.8072133 140.482504,13.0351587 C140.671689,13.2631042 140.91209,13.3770752 141.203712,13.3770752 C141.502718,13.3770752 141.73066,13.2792539 141.887545,13.0836084 C141.974294,12.9784028 142.046276,12.8205968 142.103493,12.6101856 L142.947902,12.6101856 C142.874073,13.0550023 142.685352,13.4167564 142.381732,13.695459 C142.078113,13.9741616 141.689135,14.1135107 141.214787,14.1135107 C140.62785,14.1135107 140.166429,13.9252509 139.830509,13.5487256 C139.49459,13.1703546 139.326632,12.6517172 139.326632,11.992798 Z M144.888659,13.4435205 C145.119373,13.4435205 145.296558,13.3613876 145.420221,13.1971192 C145.543884,13.0328508 145.605714,12.7993717 145.605714,12.4966749 C145.605714,12.1939781 145.543884,11.9609604 145.420221,11.7976149 C145.296558,11.6342693 145.119373,11.5525978 144.888659,11.5525978 C144.657944,11.5525978 144.480297,11.6342693 144.355712,11.7976149 C144.231126,11.9609604 144.168834,12.1939781 144.168834,12.4966749 C144.168834,12.7993717 144.231126,13.0328508 144.355712,13.1971192 C144.480297,13.3613876 144.657944,13.4435205 144.888659,13.4435205 Z M146.433512,12.4966749 C146.433512,12.9396458 146.30616,13.3184726 146.051451,13.6331665 C145.796743,13.9478605 145.410072,14.1052051 144.891427,14.1052051 C144.372782,14.1052051 143.986111,13.9478605 143.731403,13.6331665 C143.476694,13.3184726 143.349342,12.9396458 143.349342,12.4966749 C143.349342,12.0610868 143.476694,11.6836443 143.731403,11.3643361 C143.986111,11.0450279 144.372782,10.8853761 144.891427,10.8853761 C145.410072,10.8853761 145.796743,11.0450279 146.051451,11.3643361 C146.30616,11.6836443 146.433512,12.0610868 146.433512,12.4966749 Z M148.670504,10.9102931 C148.982429,10.9102931 149.237595,10.9919647 149.436009,11.1553102 C149.634423,11.3186557 149.733629,11.58951 149.733629,11.967881 L149.733629,14 L148.925211,14 L148.925211,12.1644483 C148.925211,12.0057171 148.903986,11.8839019 148.861534,11.7989991 C148.784014,11.6439593 148.63636,11.5664406 148.418566,11.5664406 C148.150937,11.5664406 147.967292,11.6799502 147.867623,11.9069728 C147.815943,12.0269441 147.790104,12.1801359 147.790104,12.3665528 L147.790104,14 L147.003834,14 L147.003834,10.9878127 L147.765187,10.9878127 L147.765187,11.4280128 C147.866701,11.272973 147.962676,11.1613091 148.053116,11.0930177 C148.215539,10.9712007 148.421333,10.9102931 148.670504,10.9102931 Z M150.151681,11.5719777 L150.151681,11.0099611 L150.572501,11.0099611 L150.572501,10.1683205 L151.353233,10.1683205 L151.353233,11.0099611 L151.843268,11.0099611 L151.843268,11.5719777 L151.353233,11.5719777 L151.353233,13.1666651 C151.353233,13.2903278 151.368922,13.3673851 151.400299,13.3978394 C151.431676,13.4282936 151.527651,13.4435205 151.688228,13.4435205 C151.712223,13.4435205 151.737601,13.4430591 151.764364,13.4421363 C151.791127,13.4412134 151.817428,13.4398291 151.843268,13.4379834 L151.843268,14.0276855 L151.469513,14.0415283 C151.096679,14.0544483 150.841974,13.9898493 150.705392,13.8477295 C150.616797,13.7572896 150.572501,13.6179404 150.572501,13.4296778 L150.572501,11.5719777 L150.151681,11.5719777 Z M154.013814,12.5326661 C153.96398,12.5640432 153.913685,12.5894214 153.862928,12.6088013 C153.812171,12.6281813 153.742496,12.6461767 153.653902,12.6627882 L153.476715,12.6960108 C153.310601,12.7255422 153.191554,12.7615331 153.119571,12.8039844 C152.997754,12.8759672 152.936847,12.9876311 152.936847,13.1389795 C152.936847,13.2737165 152.974222,13.3710764 153.048973,13.431062 C153.123724,13.4910477 153.214624,13.5210401 153.321676,13.5210401 C153.491481,13.5210401 153.647903,13.4712066 153.790946,13.3715381 C153.933988,13.2718697 154.008277,13.0900697 154.013814,12.8261329 L154.013814,12.5326661 Z M153.534854,12.1644483 C153.680666,12.1459912 153.784947,12.1229202 153.847701,12.0952345 C153.960289,12.047246 154.016583,11.9724957 154.016583,11.8709816 C154.016583,11.7473188 153.973671,11.6619559 153.887845,11.6148903 C153.802019,11.5678246 153.676051,11.5442921 153.509937,11.5442921 C153.32352,11.5442921 153.191554,11.5904342 153.114034,11.6827198 C153.058663,11.7510112 153.021749,11.8432954 153.003292,11.9595753 L152.241939,11.9595753 C152.258551,11.6956385 152.332378,11.4787705 152.463424,11.308965 C152.671989,11.0431824 153.030052,10.9102931 153.537623,10.9102931 C153.868005,10.9102931 154.161469,10.9758149 154.418023,11.1068605 C154.674577,11.2379061 154.802852,11.4852278 154.802852,11.8488331 L154.802852,13.2331104 C154.802852,13.3290874 154.804698,13.4453656 154.808389,13.5819483 C154.813927,13.6853082 154.829615,13.7554442 154.855455,13.7923584 C154.881295,13.8292727 154.920054,13.8597264 154.971734,13.8837207 L154.971734,14 L154.113482,14 C154.089488,13.9390915 154.072877,13.8818753 154.063648,13.8283496 C154.05442,13.774824 154.047037,13.7139164 154.0415,13.645625 C153.932603,13.7637506 153.807096,13.8643404 153.664976,13.9473975 C153.495171,14.0452202 153.30322,14.0941309 153.089117,14.0941309 C152.815952,14.0941309 152.590317,14.0161507 152.412205,13.860188 C152.234094,13.7042253 152.14504,13.4832046 152.14504,13.1971192 C152.14504,12.826131 152.288081,12.5575839 152.574166,12.3914698 C152.731051,12.3010299 152.961762,12.236431 153.266305,12.197671 L153.534854,12.1644483 Z M157.305626,12.0647804 C157.29086,11.9521919 157.253023,11.8506793 157.192115,11.7602394 C157.103521,11.6384224 156.966017,11.5775148 156.7796,11.5775148 C156.513818,11.5775148 156.332018,11.7094812 156.234195,11.9734181 C156.182515,12.1136922 156.156675,12.3001063 156.156675,12.5326661 C156.156675,12.7541516 156.182515,12.9322601 156.234195,13.0669971 C156.328326,13.318014 156.505512,13.4435205 156.765757,13.4435205 C156.950329,13.4435205 157.081372,13.3936871 157.158892,13.2940186 C157.236412,13.1943501 157.283477,13.0651522 157.300089,12.906421 L158.105738,12.906421 C158.087281,13.1463635 158.000534,13.3733828 157.845494,13.5874854 C157.598168,13.9326336 157.2318,14.1052051 156.746378,14.1052051 C156.260955,14.1052051 155.903815,13.9612417 155.674947,13.6733106 C155.446079,13.3853795 155.331646,13.0116283 155.331646,12.552046 C155.331646,12.0334008 155.458076,11.6301188 155.710938,11.3421876 C155.963801,11.0542565 156.312635,10.9102931 156.757452,10.9102931 C157.135823,10.9102931 157.445436,10.9951946 157.686302,11.1650002 C157.927167,11.3348057 158.069746,11.6347294 158.114044,12.0647804 L157.305626,12.0647804 Z M158.346602,11.5719777 L158.346602,11.0099611 L158.767422,11.0099611 L158.767422,10.1683205 L159.548155,10.1683205 L159.548155,11.0099611 L160.038189,11.0099611 L160.038189,11.5719777 L159.548155,11.5719777 L159.548155,13.1666651 C159.548155,13.2903278 159.563843,13.3673851 159.59522,13.3978394 C159.626597,13.4282936 159.722573,13.4435205 159.88315,13.4435205 C159.907144,13.4435205 159.932522,13.4430591 159.959285,13.4421363 C159.986048,13.4412134 160.012349,13.4398291 160.038189,13.4379834 L160.038189,14.0276855 L159.664434,14.0415283 C159.2916,14.0544483 159.036896,13.9898493 158.900313,13.8477295 C158.811719,13.7572896 158.767422,13.6179404 158.767422,13.4296778 L158.767422,11.5719777 L158.346602,11.5719777 Z M162.183819,9.91915061 L163.050376,9.91915061 L163.050376,12.427461 C163.050376,12.7080093 163.083599,12.9128803 163.150044,13.0420801 C163.253404,13.2709484 163.478578,13.3853809 163.825572,13.3853809 C164.17072,13.3853809 164.39497,13.2709484 164.49833,13.0420801 C164.564776,12.9128803 164.597998,12.7080093 164.597998,12.427461 L164.597998,9.91915061 L165.464556,9.91915061 L165.464556,12.427461 C165.464556,12.8612034 165.397188,13.1989637 165.262451,13.440752 C165.011435,13.8837229 164.532479,14.1052051 163.825572,14.1052051 C163.118664,14.1052051 162.638786,13.8837229 162.385923,13.440752 C162.251186,13.1989637 162.183819,12.8612034 162.183819,12.427461 L162.183819,9.91915061 Z M166.829453,13.036543 C166.846065,13.1768172 166.882055,13.2764841 166.937427,13.3355469 C167.03525,13.4407525 167.216127,13.4933545 167.480064,13.4933545 C167.635103,13.4933545 167.758303,13.4702835 167.849666,13.4241407 C167.941028,13.3779978 167.986709,13.3087847 167.986709,13.2164991 C167.986709,13.1279049 167.949795,13.0605374 167.875967,13.0143946 C167.802138,12.9682518 167.528054,12.8888873 167.053706,12.7762989 C166.712249,12.6913961 166.471388,12.5852693 166.331113,12.4579151 C166.190839,12.3324067 166.120703,12.1515296 166.120703,11.9152784 C166.120703,11.6365759 166.23006,11.3970983 166.448777,11.1968385 C166.667494,10.9965787 166.975262,10.8964504 167.37209,10.8964504 C167.748615,10.8964504 168.05546,10.971662 168.292634,11.1220876 C168.529808,11.2725131 168.665928,11.5322932 168.700996,11.9014357 L167.911958,11.9014357 C167.900884,11.7999215 167.872276,11.7196342 167.826133,11.6605714 C167.739384,11.5535201 167.59173,11.4999952 167.383164,11.4999952 C167.211513,11.4999952 167.089236,11.5267577 167.016331,11.5802833 C166.943425,11.633809 166.906973,11.6965623 166.906973,11.768545 C166.906973,11.8589849 166.945732,11.9245067 167.023252,11.9651124 C167.100772,12.0075638 167.374856,12.0804683 167.845513,12.1838282 C168.159284,12.2576567 168.394609,12.3693206 168.551494,12.5188233 C168.706534,12.6701717 168.784053,12.8593544 168.784053,13.086377 C168.784053,13.3853824 168.67285,13.6294742 168.450442,13.8186597 C168.228034,14.0078452 167.884275,14.1024365 167.419155,14.1024365 C166.944807,14.1024365 166.594589,14.0023081 166.368489,13.8020484 C166.142389,13.6017886 166.029341,13.3466227 166.029341,13.036543 L166.829453,13.036543 Z" id="Home-About-Blog-Cont-Copy-11" fill="#4A4A4A"></path>
                <path d="M18.2126269,34 L17.3654492,34 L17.3654492,29.9191506 L18.2126269,29.9191506 L18.2126269,34 Z M18.6334472,31.5719777 L18.6334472,31.0099611 L19.0542675,31.0099611 L19.0542675,30.1683205 L19.8349998,30.1683205 L19.8349998,31.0099611 L20.325034,31.0099611 L20.325034,31.5719777 L19.8349998,31.5719777 L19.8349998,33.1666651 C19.8349998,33.2903278 19.8506882,33.3673851 19.8820653,33.3978394 C19.9134424,33.4282936 20.009418,33.4435205 20.1699949,33.4435205 C20.1939892,33.4435205 20.2193674,33.4430591 20.2461302,33.4421363 C20.272893,33.4412134 20.299194,33.4398291 20.325034,33.4379834 L20.325034,34.0276855 L19.9512791,34.0415283 C19.5784453,34.0544483 19.3237408,33.9898493 19.1871581,33.8477295 C19.0985639,33.7572896 19.0542675,33.6179404 19.0542675,33.4296778 L19.0542675,31.5719777 L18.6334472,31.5719777 Z M22.0221579,31.5525978 C21.8394324,31.5525978 21.6977761,31.609814 21.5971848,31.7242482 C21.4965935,31.8386823 21.4333788,31.9937198 21.4075388,32.1893653 L22.6340085,32.1893653 C22.6210885,31.9807998 22.5578738,31.8225324 22.4443625,31.7145582 C22.3308512,31.6065841 22.1901178,31.5525978 22.0221579,31.5525978 Z M22.0221579,30.9019875 C22.2731748,30.9019875 22.4992712,30.9490524 22.7004538,31.0431838 C22.9016364,31.1373151 23.067748,31.2858927 23.1987936,31.488921 C23.3169192,31.6679551 23.3935151,31.8755946 23.4285836,32.1118458 C23.4488865,32.2502742 23.4571921,32.4496082 23.4535006,32.7098536 L21.3881589,32.7098536 C21.3992332,33.0125504 21.494286,33.2248041 21.6733201,33.3466211 C21.7822171,33.4222953 21.9132607,33.4601319 22.0664548,33.4601319 C22.2288775,33.4601319 22.3608439,33.4139898 22.4623581,33.3217041 C22.5177295,33.2718699 22.5666401,33.2026567 22.6090915,33.1140625 L23.4147409,33.1140625 C23.394438,33.2930966 23.301231,33.4748966 23.1351169,33.6594678 C22.8767171,33.952936 22.514963,34.099668 22.0498435,34.099668 C21.6659353,34.099668 21.3272522,33.9760071 21.033784,33.7286817 C20.7403157,33.4813562 20.5935838,33.078997 20.5935838,32.5215919 C20.5935838,31.9992553 20.7260117,31.5987418 20.9908714,31.3200392 C21.2557311,31.0413367 21.5994898,30.9019875 22.0221579,30.9019875 Z M27.3571625,30.9158302 C27.4900538,30.9158302 27.6210974,30.9416698 27.7502973,30.9933498 C27.8794971,31.0450297 27.9966981,31.1354683 28.1019037,31.2646681 C28.1868065,31.3698737 28.2440227,31.4990716 28.2735541,31.6522657 C28.2920112,31.7537799 28.3012396,31.9023575 28.3012396,32.098003 L28.2957025,34 L27.4872846,34 L27.4872846,32.0786231 C27.4872846,31.964189 27.4688278,31.8700591 27.4319135,31.7962306 C27.3617764,31.6559565 27.2325785,31.5858204 27.0443159,31.5858204 C26.8265218,31.5858204 26.6760985,31.676259 26.5930415,31.8571388 C26.5505901,31.9531158 26.5293647,32.0684711 26.5293647,32.2032081 L26.5293647,34 L25.7347896,34 L25.7347896,32.2032081 C25.7347896,32.024174 25.7163327,31.8940533 25.6794185,31.8128419 C25.6129728,31.6670306 25.4828521,31.5941261 25.2890523,31.5941261 C25.0638754,31.5941261 24.9125293,31.6670306 24.8350094,31.8128419 C24.792558,31.895899 24.7713326,32.0195598 24.7713326,32.1838282 L24.7713326,34 L23.9712203,34 L23.9712203,30.9878127 L24.7381099,30.9878127 L24.7381099,31.4280128 C24.8359327,31.2711273 24.9282169,31.1594634 25.0149654,31.0930177 C25.1681595,30.9748921 25.3665706,30.9158302 25.6102046,30.9158302 C25.8409187,30.9158302 26.0273328,30.9665866 26.1694526,31.0681007 C26.2838868,31.1622321 26.370634,31.2831244 26.4296968,31.4307814 C26.5330567,31.253593 26.6613317,31.1234722 26.8145258,31.0404152 C26.9769485,30.9573581 27.1578256,30.9158302 27.3571625,30.9158302 Z" id="Item" fill="#4A4A4A"></path>
                <path d="M59.2126269,34 L58.3654492,34 L58.3654492,29.9191506 L59.2126269,29.9191506 L59.2126269,34 Z M59.6334472,31.5719777 L59.6334472,31.0099611 L60.0542675,31.0099611 L60.0542675,30.1683205 L60.8349998,30.1683205 L60.8349998,31.0099611 L61.325034,31.0099611 L61.325034,31.5719777 L60.8349998,31.5719777 L60.8349998,33.1666651 C60.8349998,33.2903278 60.8506882,33.3673851 60.8820653,33.3978394 C60.9134424,33.4282936 61.009418,33.4435205 61.1699949,33.4435205 C61.1939892,33.4435205 61.2193674,33.4430591 61.2461302,33.4421363 C61.272893,33.4412134 61.299194,33.4398291 61.325034,33.4379834 L61.325034,34.0276855 L60.9512791,34.0415283 C60.5784453,34.0544483 60.3237408,33.9898493 60.1871581,33.8477295 C60.0985639,33.7572896 60.0542675,33.6179404 60.0542675,33.4296778 L60.0542675,31.5719777 L59.6334472,31.5719777 Z M63.0221579,31.5525978 C62.8394324,31.5525978 62.6977761,31.609814 62.5971848,31.7242482 C62.4965935,31.8386823 62.4333788,31.9937198 62.4075388,32.1893653 L63.6340085,32.1893653 C63.6210885,31.9807998 63.5578738,31.8225324 63.4443625,31.7145582 C63.3308512,31.6065841 63.1901178,31.5525978 63.0221579,31.5525978 Z M63.0221579,30.9019875 C63.2731748,30.9019875 63.4992712,30.9490524 63.7004538,31.0431838 C63.9016364,31.1373151 64.067748,31.2858927 64.1987936,31.488921 C64.3169192,31.6679551 64.3935151,31.8755946 64.4285836,32.1118458 C64.4488865,32.2502742 64.4571921,32.4496082 64.4535006,32.7098536 L62.3881589,32.7098536 C62.3992332,33.0125504 62.494286,33.2248041 62.6733201,33.3466211 C62.7822171,33.4222953 62.9132607,33.4601319 63.0664548,33.4601319 C63.2288775,33.4601319 63.3608439,33.4139898 63.4623581,33.3217041 C63.5177295,33.2718699 63.5666401,33.2026567 63.6090915,33.1140625 L64.4147409,33.1140625 C64.394438,33.2930966 64.301231,33.4748966 64.1351169,33.6594678 C63.8767171,33.952936 63.514963,34.099668 63.0498435,34.099668 C62.6659353,34.099668 62.3272522,33.9760071 62.033784,33.7286817 C61.7403157,33.4813562 61.5935838,33.078997 61.5935838,32.5215919 C61.5935838,31.9992553 61.7260117,31.5987418 61.9908714,31.3200392 C62.2557311,31.0413367 62.5994898,30.9019875 63.0221579,30.9019875 Z M68.3571625,30.9158302 C68.4900538,30.9158302 68.6210974,30.9416698 68.7502973,30.9933498 C68.8794971,31.0450297 68.9966981,31.1354683 69.1019037,31.2646681 C69.1868065,31.3698737 69.2440227,31.4990716 69.2735541,31.6522657 C69.2920112,31.7537799 69.3012396,31.9023575 69.3012396,32.098003 L69.2957025,34 L68.4872846,34 L68.4872846,32.0786231 C68.4872846,31.964189 68.4688278,31.8700591 68.4319135,31.7962306 C68.3617764,31.6559565 68.2325785,31.5858204 68.0443159,31.5858204 C67.8265218,31.5858204 67.6760985,31.676259 67.5930415,31.8571388 C67.5505901,31.9531158 67.5293647,32.0684711 67.5293647,32.2032081 L67.5293647,34 L66.7347896,34 L66.7347896,32.2032081 C66.7347896,32.024174 66.7163327,31.8940533 66.6794185,31.8128419 C66.6129728,31.6670306 66.4828521,31.5941261 66.2890523,31.5941261 C66.0638754,31.5941261 65.9125293,31.6670306 65.8350094,31.8128419 C65.792558,31.895899 65.7713326,32.0195598 65.7713326,32.1838282 L65.7713326,34 L64.9712203,34 L64.9712203,30.9878127 L65.7381099,30.9878127 L65.7381099,31.4280128 C65.8359327,31.2711273 65.9282169,31.1594634 66.0149654,31.0930177 C66.1681595,30.9748921 66.3665706,30.9158302 66.6102046,30.9158302 C66.8409187,30.9158302 67.0273328,30.9665866 67.1694526,31.0681007 C67.2838868,31.1622321 67.370634,31.2831244 67.4296968,31.4307814 C67.5330567,31.253593 67.6613317,31.1234722 67.8145258,31.0404152 C67.9769485,30.9573581 68.1578256,30.9158302 68.3571625,30.9158302 Z" id="Item" fill="#4A4A4A"></path>
                <path d="M99.2126269,34 L98.3654492,34 L98.3654492,29.9191506 L99.2126269,29.9191506 L99.2126269,34 Z M99.6334472,31.5719777 L99.6334472,31.0099611 L100.054267,31.0099611 L100.054267,30.1683205 L100.835,30.1683205 L100.835,31.0099611 L101.325034,31.0099611 L101.325034,31.5719777 L100.835,31.5719777 L100.835,33.1666651 C100.835,33.2903278 100.850688,33.3673851 100.882065,33.3978394 C100.913442,33.4282936 101.009418,33.4435205 101.169995,33.4435205 C101.193989,33.4435205 101.219367,33.4430591 101.24613,33.4421363 C101.272893,33.4412134 101.299194,33.4398291 101.325034,33.4379834 L101.325034,34.0276855 L100.951279,34.0415283 C100.578445,34.0544483 100.323741,33.9898493 100.187158,33.8477295 C100.098564,33.7572896 100.054267,33.6179404 100.054267,33.4296778 L100.054267,31.5719777 L99.6334472,31.5719777 Z M103.022158,31.5525978 C102.839432,31.5525978 102.697776,31.609814 102.597185,31.7242482 C102.496593,31.8386823 102.433379,31.9937198 102.407539,32.1893653 L103.634008,32.1893653 C103.621089,31.9807998 103.557874,31.8225324 103.444363,31.7145582 C103.330851,31.6065841 103.190118,31.5525978 103.022158,31.5525978 Z M103.022158,30.9019875 C103.273175,30.9019875 103.499271,30.9490524 103.700454,31.0431838 C103.901636,31.1373151 104.067748,31.2858927 104.198794,31.488921 C104.316919,31.6679551 104.393515,31.8755946 104.428584,32.1118458 C104.448886,32.2502742 104.457192,32.4496082 104.453501,32.7098536 L102.388159,32.7098536 C102.399233,33.0125504 102.494286,33.2248041 102.67332,33.3466211 C102.782217,33.4222953 102.913261,33.4601319 103.066455,33.4601319 C103.228877,33.4601319 103.360844,33.4139898 103.462358,33.3217041 C103.517729,33.2718699 103.56664,33.2026567 103.609091,33.1140625 L104.414741,33.1140625 C104.394438,33.2930966 104.301231,33.4748966 104.135117,33.6594678 C103.876717,33.952936 103.514963,34.099668 103.049843,34.099668 C102.665935,34.099668 102.327252,33.9760071 102.033784,33.7286817 C101.740316,33.4813562 101.593584,33.078997 101.593584,32.5215919 C101.593584,31.9992553 101.726012,31.5987418 101.990871,31.3200392 C102.255731,31.0413367 102.59949,30.9019875 103.022158,30.9019875 Z M108.357163,30.9158302 C108.490054,30.9158302 108.621097,30.9416698 108.750297,30.9933498 C108.879497,31.0450297 108.996698,31.1354683 109.101904,31.2646681 C109.186806,31.3698737 109.244023,31.4990716 109.273554,31.6522657 C109.292011,31.7537799 109.30124,31.9023575 109.30124,32.098003 L109.295703,34 L108.487285,34 L108.487285,32.0786231 C108.487285,31.964189 108.468828,31.8700591 108.431914,31.7962306 C108.361776,31.6559565 108.232579,31.5858204 108.044316,31.5858204 C107.826522,31.5858204 107.676099,31.676259 107.593041,31.8571388 C107.55059,31.9531158 107.529365,32.0684711 107.529365,32.2032081 L107.529365,34 L106.73479,34 L106.73479,32.2032081 C106.73479,32.024174 106.716333,31.8940533 106.679418,31.8128419 C106.612973,31.6670306 106.482852,31.5941261 106.289052,31.5941261 C106.063875,31.5941261 105.912529,31.6670306 105.835009,31.8128419 C105.792558,31.895899 105.771333,32.0195598 105.771333,32.1838282 L105.771333,34 L104.97122,34 L104.97122,30.9878127 L105.73811,30.9878127 L105.73811,31.4280128 C105.835933,31.2711273 105.928217,31.1594634 106.014965,31.0930177 C106.16816,30.9748921 106.366571,30.9158302 106.610205,30.9158302 C106.840919,30.9158302 107.027333,30.9665866 107.169453,31.0681007 C107.283887,31.1622321 107.370634,31.2831244 107.429697,31.4307814 C107.533057,31.253593 107.661332,31.1234722 107.814526,31.0404152 C107.976949,30.9573581 108.157826,30.9158302 108.357163,30.9158302 Z" id="Item" fill="#4A4A4A"></path>
                <path d="M140.212627,34 L139.365449,34 L139.365449,29.9191506 L140.212627,29.9191506 L140.212627,34 Z M140.633447,31.5719777 L140.633447,31.0099611 L141.054267,31.0099611 L141.054267,30.1683205 L141.835,30.1683205 L141.835,31.0099611 L142.325034,31.0099611 L142.325034,31.5719777 L141.835,31.5719777 L141.835,33.1666651 C141.835,33.2903278 141.850688,33.3673851 141.882065,33.3978394 C141.913442,33.4282936 142.009418,33.4435205 142.169995,33.4435205 C142.193989,33.4435205 142.219367,33.4430591 142.24613,33.4421363 C142.272893,33.4412134 142.299194,33.4398291 142.325034,33.4379834 L142.325034,34.0276855 L141.951279,34.0415283 C141.578445,34.0544483 141.323741,33.9898493 141.187158,33.8477295 C141.098564,33.7572896 141.054267,33.6179404 141.054267,33.4296778 L141.054267,31.5719777 L140.633447,31.5719777 Z M144.022158,31.5525978 C143.839432,31.5525978 143.697776,31.609814 143.597185,31.7242482 C143.496593,31.8386823 143.433379,31.9937198 143.407539,32.1893653 L144.634008,32.1893653 C144.621089,31.9807998 144.557874,31.8225324 144.444363,31.7145582 C144.330851,31.6065841 144.190118,31.5525978 144.022158,31.5525978 Z M144.022158,30.9019875 C144.273175,30.9019875 144.499271,30.9490524 144.700454,31.0431838 C144.901636,31.1373151 145.067748,31.2858927 145.198794,31.488921 C145.316919,31.6679551 145.393515,31.8755946 145.428584,32.1118458 C145.448886,32.2502742 145.457192,32.4496082 145.453501,32.7098536 L143.388159,32.7098536 C143.399233,33.0125504 143.494286,33.2248041 143.67332,33.3466211 C143.782217,33.4222953 143.913261,33.4601319 144.066455,33.4601319 C144.228877,33.4601319 144.360844,33.4139898 144.462358,33.3217041 C144.517729,33.2718699 144.56664,33.2026567 144.609091,33.1140625 L145.414741,33.1140625 C145.394438,33.2930966 145.301231,33.4748966 145.135117,33.6594678 C144.876717,33.952936 144.514963,34.099668 144.049843,34.099668 C143.665935,34.099668 143.327252,33.9760071 143.033784,33.7286817 C142.740316,33.4813562 142.593584,33.078997 142.593584,32.5215919 C142.593584,31.9992553 142.726012,31.5987418 142.990871,31.3200392 C143.255731,31.0413367 143.59949,30.9019875 144.022158,30.9019875 Z M149.357163,30.9158302 C149.490054,30.9158302 149.621097,30.9416698 149.750297,30.9933498 C149.879497,31.0450297 149.996698,31.1354683 150.101904,31.2646681 C150.186806,31.3698737 150.244023,31.4990716 150.273554,31.6522657 C150.292011,31.7537799 150.30124,31.9023575 150.30124,32.098003 L150.295703,34 L149.487285,34 L149.487285,32.0786231 C149.487285,31.964189 149.468828,31.8700591 149.431914,31.7962306 C149.361776,31.6559565 149.232579,31.5858204 149.044316,31.5858204 C148.826522,31.5858204 148.676099,31.676259 148.593041,31.8571388 C148.55059,31.9531158 148.529365,32.0684711 148.529365,32.2032081 L148.529365,34 L147.73479,34 L147.73479,32.2032081 C147.73479,32.024174 147.716333,31.8940533 147.679418,31.8128419 C147.612973,31.6670306 147.482852,31.5941261 147.289052,31.5941261 C147.063875,31.5941261 146.912529,31.6670306 146.835009,31.8128419 C146.792558,31.895899 146.771333,32.0195598 146.771333,32.1838282 L146.771333,34 L145.97122,34 L145.97122,30.9878127 L146.73811,30.9878127 L146.73811,31.4280128 C146.835933,31.2711273 146.928217,31.1594634 147.014965,31.0930177 C147.16816,30.9748921 147.366571,30.9158302 147.610205,30.9158302 C147.840919,30.9158302 148.027333,30.9665866 148.169453,31.0681007 C148.283887,31.1622321 148.370634,31.2831244 148.429697,31.4307814 C148.533057,31.253593 148.661332,31.1234722 148.814526,31.0404152 C148.976949,30.9573581 149.157826,30.9158302 149.357163,30.9158302 Z" id="Item-Copy" fill="#4A4A4A"></path>
            </g>
        </g>
    </g>
</svg>