<?xml version="1.0" encoding="UTF-8"?>
<svg width="1441px" height="53px" viewBox="0 0 1441 53" version="1.1" xmlns="http://www.w3.org/2000/svg" xmlns:xlink="http://www.w3.org/1999/xlink">
    <!-- Generator: Sketch 49.3 (51167) - http://www.bohemiancoding.com/sketch -->
    <title>layout-menu-right</title>
    <desc>Created with Sketch.</desc>
    <defs></defs>
    <g id="Page-1" stroke="none" stroke-width="1" fill="none" fill-rule="evenodd">
        <g id="layout-menu-right" fill-rule="nonzero">
            <rect id="Rectangle-2" fill="#FFFFFF" x="0" y="0" width="1441" height="53"></rect>
            <g id="Group-3" transform="translate(140.000000, 23.000000)" fill="#CECECE">
                <rect id="Rectangle-3" x="235.250883" y="0" width="56.7491166" height="11"></rect>
                <rect id="Rectangle-3-Copy-2" x="78.4169611" y="0" width="56.7491166" height="11"></rect>
                <rect id="Rectangle-3-Copy" x="156.833922" y="0" width="56.7491166" height="11"></rect>
                <rect id="Rectangle-3-Copy-3" x="0" y="0" width="56.7491166" height="11"></rect>
            </g>
            <path d="M34.0357709,17 L37.6462946,17 C37.6950854,18.8647796 37.6501978,20.7295591 37.6716658,22.5943387 C39.9706912,21.1758958 43.1069676,21.3215226 45.3298792,22.8118332 C46.996575,23.9106537 48.2378145,25.6581753 48.5344629,27.6061701 C48.71011,28.8543999 48.6281414,30.157476 48.1636524,31.3432943 C47.119528,34.0042931 44.3501588,35.9938956 41.3797712,35.9768743 C39.7950441,36.0563071 38.247398,35.4813649 37.035433,34.5092588 C36.2469727,35.2884567 35.1482025,35.6818382 34.0260128,35.5267551 C34.0006415,29.3518005 33.9791735,23.1749546 34.0357709,17 Z M40.4722612,25.2250774 C39.090504,25.4766146 37.9136685,26.5584137 37.5701808,27.8766199 C36.9885938,29.8643312 38.4737876,32.120601 40.5991174,32.3872682 C42.8239806,32.8260399 45.0956831,30.9158702 44.962972,28.7220119 C45.0098112,26.5357186 42.6658983,24.7201117 40.4722612,25.2250774 Z M55.019744,21.6657314 C56.6493588,21.5352347 58.3199578,21.6695139 59.8851686,22.1498932 C59.9066366,23.2751912 59.9085882,24.4023805 59.8890719,25.5276785 C59.8539425,25.6127851 59.7836836,25.7867808 59.7466026,25.8737786 C58.3043447,25.1626659 56.6298424,25.0056915 55.0392604,25.1740134 C54.6099008,25.1985998 53.8975543,25.508766 54.278123,26.0137316 C55.7008644,26.7532132 57.2250909,27.3016777 58.6380742,28.0581806 C60.2325595,28.9319414 61.0854238,30.8799363 60.5819021,32.5934153 C60.2774471,33.8132761 59.3953084,34.8761627 58.2126179,35.3962584 C56.3819849,36.209499 54.2722681,36.0941323 52.3518598,35.6761644 C51.7039172,35.5721453 51.0813458,35.0728534 51.0598778,34.4033484 C51.0267,33.4236772 51.0130386,32.4421147 51.0832974,31.466226 C52.761703,32.2075988 54.6840629,32.7882148 56.5225025,32.260554 C57.0982347,32.135731 57.2504622,31.3376205 56.7684085,31.0161068 C55.1758748,30.0534569 53.2554665,29.6373803 51.7761277,28.4931697 C50.3631443,27.2733089 50.1523678,25.0189303 51.2530896,23.5399673 C52.078631,22.339019 53.5852927,21.7810981 55.019744,21.6657314 Z M64.8813527,23.1371295 C66.3880144,21.8510746 68.5016345,21.5182133 70.4454624,21.6354713 C72.0906902,21.7186866 73.7808056,22.2558036 74.942028,23.4302743 C75.7968439,24.273775 76.2301067,25.4614845 76.2105904,26.6359552 C76.2203486,29.5900989 76.2242518,32.5442426 76.2105904,35.4983863 C75.3343065,35.5589065 74.4521678,35.5456677 73.5758839,35.5229726 C72.9923453,35.5191901 72.5122432,34.959378 72.5571308,34.4071309 C72.5415177,31.8217823 72.5610341,29.2364338 72.5493242,26.6510853 C72.5922602,26.1555759 72.240966,25.7130217 71.7784287,25.5352436 C70.751869,25.0870156 69.5711301,25.0889069 68.4821182,25.2837064 C67.8380788,25.4142031 67.0281505,25.7413906 66.9696015,26.4751984 C66.9071492,29.487971 67.0008276,32.5026349 66.9247139,35.5154076 C65.7186038,35.5437764 64.5124938,35.5570152 63.3063837,35.5078425 C63.2693027,32.5499164 63.2985772,29.5919902 63.2927223,26.634064 C63.2751576,25.317749 63.8313734,23.9900865 64.8813527,23.1371295 Z M82.2996897,22.4373643 C84.6943451,21.2004821 87.9067354,21.2969363 89.9832744,23.0936306 C90.7405085,22.2860638 91.8548918,21.9267249 92.9673234,22.0704604 C93.0083077,26.5565224 93.0239208,31.0463669 92.9575652,35.5324289 C91.8529401,35.6610344 90.7444118,35.3073693 89.9871776,34.5073675 C88.7810676,35.4681261 87.2548895,36.0525246 85.6799205,35.9768743 C82.9534873,36.0071344 80.3675717,34.3541757 79.1556067,32.0146906 C78.3847111,30.5811176 78.2207738,28.8865512 78.5310837,27.3092428 C78.9331204,25.2383162 80.4241691,23.4567519 82.2996897,22.4373643 Z M85.164689,25.2118386 C83.2345226,25.4671583 81.7707968,27.3886756 82.0674452,29.2515639 C82.2548021,30.9763904 83.8883201,32.4326584 85.6857754,32.4307672 C87.7525563,32.5612639 89.6573514,30.7362007 89.5480599,28.7295769 C89.6027057,26.5773262 87.3368581,24.7655019 85.164689,25.2118386 Z M94.4974047,22.1045031 C95.3951566,22.0250703 96.2987633,22.0723517 97.1984668,22.0591129 C97.5926969,22.074243 98.0376696,22.0439828 98.3596892,22.3049763 C98.6504828,22.5508398 98.7870972,22.9120699 98.9510345,23.2392574 C99.8761092,25.3158577 100.826555,27.3811105 101.75163,29.4558196 C102.881626,27.0293367 103.951122,24.5763762 105.075263,22.148002 C106.351632,21.956985 107.69826,22.0931555 109,22.0874818 C108.886805,22.6491851 108.607721,23.1579333 108.375477,23.6799203 C106.681458,27.3981319 105.008908,31.1257997 103.309034,34.84212 C102.797706,36.1111536 100.574794,36.0392858 100.159096,34.7286446 C98.5489978,31.1882112 96.9506092,27.6439953 95.3424624,24.1035619 C95.0575238,23.4378394 94.7003747,22.8004857 94.4974047,22.1045031 Z" id="Combined-Shape" fill="#CECECE"></path>
        </g>
    </g>
</svg>