<?xml version="1.0" encoding="UTF-8"?>
<svg width="1441px" height="84px" viewBox="0 0 1441 84" version="1.1" xmlns="http://www.w3.org/2000/svg" xmlns:xlink="http://www.w3.org/1999/xlink">
    <!-- Generator: Sketch 49.3 (51167) - http://www.bohemiancoding.com/sketch -->
    <title>layout-menu-right</title>
    <desc>Created with Sketch.</desc>
    <defs></defs>
    <g id="Page-1" stroke="none" stroke-width="1" fill="none" fill-rule="evenodd">
        <g id="Artboard" transform="translate(-95.000000, -188.000000)" fill-rule="nonzero">
            <g id="layout-menu-right" transform="translate(95.000000, 188.000000)">
                <polygon id="Rectangle-2" fill="#FFFFFF" points="0 0 1441 0 1441 84 0 84"></polygon>
                <g id="Group-3" transform="translate(575.000000, 57.000000)" fill="#CECECE">
                    <rect id="Rectangle-3" x="235.250883" y="0" width="56.7491166" height="11"></rect>
                    <rect id="Rectangle-3-Copy-2" x="78.4169611" y="0" width="56.7491166" height="11"></rect>
                    <rect id="Rectangle-3-Copy" x="156.833922" y="0" width="56.7491166" height="11"></rect>
                    <rect id="Rectangle-3-Copy-3" x="0" y="0" width="56.7491166" height="11"></rect>
                </g>
                <path d="M683.035771,17 L686.646295,17 C686.695085,18.8647796 686.650198,20.7295591 686.671666,22.5943387 C688.970691,21.1758958 692.106968,21.3215226 694.329879,22.8118332 C695.996575,23.9106537 697.237815,25.6581753 697.534463,27.6061701 C697.71011,28.8543999 697.628141,30.157476 697.163652,31.3432943 C696.119528,34.0042931 693.350159,35.9938956 690.379771,35.9768743 C688.795044,36.0563071 687.247398,35.4813649 686.035433,34.5092588 C685.246973,35.2884567 684.148203,35.6818382 683.026013,35.5267551 C683.000642,29.3518005 682.979174,23.1749546 683.035771,17 Z M689.472261,25.2250774 C688.090504,25.4766146 686.913669,26.5584137 686.570181,27.8766199 C685.988594,29.8643312 687.473788,32.120601 689.599117,32.3872682 C691.823981,32.8260399 694.095683,30.9158702 693.962972,28.7220119 C694.009811,26.5357186 691.665898,24.7201117 689.472261,25.2250774 Z M704.019744,21.6657314 C705.649359,21.5352347 707.319958,21.6695139 708.885169,22.1498932 C708.906637,23.2751912 708.908588,24.4023805 708.889072,25.5276785 C708.853943,25.6127851 708.783684,25.7867808 708.746603,25.8737786 C707.304345,25.1626659 705.629842,25.0056915 704.03926,25.1740134 C703.609901,25.1985998 702.897554,25.508766 703.278123,26.0137316 C704.700864,26.7532132 706.225091,27.3016777 707.638074,28.0581806 C709.23256,28.9319414 710.085424,30.8799363 709.581902,32.5934153 C709.277447,33.8132761 708.395308,34.8761627 707.212618,35.3962584 C705.381985,36.209499 703.272268,36.0941323 701.35186,35.6761644 C700.703917,35.5721453 700.081346,35.0728534 700.059878,34.4033484 C700.0267,33.4236772 700.013039,32.4421147 700.083297,31.466226 C701.761703,32.2075988 703.684063,32.7882148 705.522503,32.260554 C706.098235,32.135731 706.250462,31.3376205 705.768409,31.0161068 C704.175875,30.0534569 702.255467,29.6373803 700.776128,28.4931697 C699.363144,27.2733089 699.152368,25.0189303 700.25309,23.5399673 C701.078631,22.339019 702.585293,21.7810981 704.019744,21.6657314 Z M713.881353,23.1371295 C715.388014,21.8510746 717.501635,21.5182133 719.445462,21.6354713 C721.09069,21.7186866 722.780806,22.2558036 723.942028,23.4302743 C724.796844,24.273775 725.230107,25.4614845 725.21059,26.6359552 C725.220349,29.5900989 725.224252,32.5442426 725.21059,35.4983863 C724.334307,35.5589065 723.452168,35.5456677 722.575884,35.5229726 C721.992345,35.5191901 721.512243,34.959378 721.557131,34.4071309 C721.541518,31.8217823 721.561034,29.2364338 721.549324,26.6510853 C721.59226,26.1555759 721.240966,25.7130217 720.778429,25.5352436 C719.751869,25.0870156 718.57113,25.0889069 717.482118,25.2837064 C716.838079,25.4142031 716.028151,25.7413906 715.969602,26.4751984 C715.907149,29.487971 716.000828,32.5026349 715.924714,35.5154076 C714.718604,35.5437764 713.512494,35.5570152 712.306384,35.5078425 C712.269303,32.5499164 712.298577,29.5919902 712.292722,26.634064 C712.275158,25.317749 712.831373,23.9900865 713.881353,23.1371295 Z M731.29969,22.4373643 C733.694345,21.2004821 736.906735,21.2969363 738.983274,23.0936306 C739.740509,22.2860638 740.854892,21.9267249 741.967323,22.0704604 C742.008308,26.5565224 742.023921,31.0463669 741.957565,35.5324289 C740.85294,35.6610344 739.744412,35.3073693 738.987178,34.5073675 C737.781068,35.4681261 736.25489,36.0525246 734.679921,35.9768743 C731.953487,36.0071344 729.367572,34.3541757 728.155607,32.0146906 C727.384711,30.5811176 727.220774,28.8865512 727.531084,27.3092428 C727.93312,25.2383162 729.424169,23.4567519 731.29969,22.4373643 Z M734.164689,25.2118386 C732.234523,25.4671583 730.770797,27.3886756 731.067445,29.2515639 C731.254802,30.9763904 732.88832,32.4326584 734.685775,32.4307672 C736.752556,32.5612639 738.657351,30.7362007 738.54806,28.7295769 C738.602706,26.5773262 736.336858,24.7655019 734.164689,25.2118386 Z M743.497405,22.1045031 C744.395157,22.0250703 745.298763,22.0723517 746.198467,22.0591129 C746.592697,22.074243 747.03767,22.0439828 747.359689,22.3049763 C747.650483,22.5508398 747.787097,22.9120699 747.951035,23.2392574 C748.876109,25.3158577 749.826555,27.3811105 750.75163,29.4558196 C751.881626,27.0293367 752.951122,24.5763762 754.075263,22.148002 C755.351632,21.956985 756.69826,22.0931555 758,22.0874818 C757.886805,22.6491851 757.607721,23.1579333 757.375477,23.6799203 C755.681458,27.3981319 754.008908,31.1257997 752.309034,34.84212 C751.797706,36.1111536 749.574794,36.0392858 749.159096,34.7286446 C747.548998,31.1882112 745.950609,27.6439953 744.342462,24.1035619 C744.057524,23.4378394 743.700375,22.8004857 743.497405,22.1045031 Z" id="Combined-Shape" fill="#CECECE"></path>
            </g>
        </g>
    </g>
</svg>