<?xml version="1.0" encoding="UTF-8"?>
<svg width="183px" height="134px" viewBox="0 0 183 134" version="1.1" xmlns="http://www.w3.org/2000/svg" xmlns:xlink="http://www.w3.org/1999/xlink">
    <!-- Generator: Sketch 49.3 (51167) - http://www.bohemiancoding.com/sketch -->
    <title>Group 4 Copy 4</title>
    <desc>Created with Sketch.</desc>
    <defs></defs>
    <g id="Page-1" stroke="none" stroke-width="1" fill="none" fill-rule="evenodd">
        <g id="Desktop-HD" transform="translate(-631.000000, -1834.000000)">
            <g id="Group-5" transform="translate(349.000000, 1631.000000)">
                <g id="Group-4-Copy-4" transform="translate(282.000000, 203.000000)">
                    <path d="M0.699999988,8.81273485 L0.699999988,131.2 C0.699999988,132.359798 1.64020202,133.3 2.79999999,133.3 L180.2,133.3 C181.359798,133.3 182.3,132.359798 182.3,131.2 L182.3,8.81273485 L0.699999988,8.81273485 Z" id="Mask" stroke="#FFFFFF" stroke-width="1.39999998"></path>
                    <path d="M2.79999999,0 L180.2,0 C181.746397,1.61976519e-14 183,1.2536027 183,2.79999999 L183,8.11273486 L0,8.11273486 L4.4408921e-16,2.79999999 C2.5471016e-16,1.2536027 1.2536027,2.84068575e-16 2.79999999,0 Z M11.4083969,5.31524008 C12.0851621,5.31524008 12.6337887,4.68899955 12.6337887,3.91649269 C12.6337887,3.14398584 12.0851621,2.5177453 11.4083969,2.5177453 C10.7316318,2.5177453 10.1830052,3.14398584 10.1830052,3.91649269 C10.1830052,4.68899955 10.7316318,5.31524008 11.4083969,5.31524008 Z M16.0036159,5.31524008 C16.6803811,5.31524008 17.2290076,4.68899955 17.2290076,3.91649269 C17.2290076,3.14398584 16.6803811,2.5177453 16.0036159,2.5177453 C15.3268507,2.5177453 14.7782242,3.14398584 14.7782242,3.91649269 C14.7782242,4.68899955 15.3268507,5.31524008 16.0036159,5.31524008 Z M6.81317798,5.31524008 C7.48994314,5.31524008 8.03856971,4.68899955 8.03856971,3.91649269 C8.03856971,3.14398584 7.48994314,2.5177453 6.81317798,2.5177453 C6.13641282,2.5177453 5.58778626,3.14398584 5.58778626,3.91649269 C5.58778626,4.68899955 6.13641282,5.31524008 6.81317798,5.31524008 Z" id="Combined-Shape" fill="#FFFFFF"></path>
                    <rect id="Rectangle-2" stroke="#FFFFFF" stroke-width="1.39999998" x="0.699999988" y="8.81273485" width="181.6" height="19.7997652"></rect>
                    <g id="Group-3" transform="translate(94.655172, 17.447917)" fill="#FFFFFF">
                        <rect id="Rectangle-3" x="65.8944667" y="0" width="15.895595" height="3.07724426"></rect>
                        <rect id="Rectangle-3-Copy-2" x="21.9648222" y="0" width="15.895595" height="3.07724426"></rect>
                        <rect id="Rectangle-3-Copy" x="43.9296445" y="0" width="15.895595" height="3.07724426"></rect>
                        <rect id="Rectangle-3-Copy-3" x="0" y="0" width="15.895595" height="3.07724426"></rect>
                    </g>
                    <path d="M7.85290217,15.6601427 L8.8642205,15.6601427 C8.87788697,16.1818138 8.86531382,16.7034849 8.87132706,17.225156 C9.51529084,16.8283473 10.3937711,16.8690864 11.0164152,17.286 C11.4832616,17.5933944 11.8309365,18.0822627 11.9140286,18.6272132 C11.9632279,18.9764048 11.9402682,19.3409397 11.8101635,19.6726717 C11.5177011,20.4170848 10.7419926,20.973675 9.90997832,20.9689133 C9.46609157,20.9911346 9.03259134,20.8302949 8.69311637,20.5583487 C8.47226632,20.7763289 8.16449755,20.8863771 7.85016888,20.8429927 C7.84306232,19.1155524 7.83704908,17.387583 7.85290217,15.6601427 Z M9.65578209,17.9611038 C9.26874783,18.0314712 8.93911272,18.3341039 8.84290082,18.7028714 C8.67999657,19.2589326 9.09600373,19.8901229 9.6913149,19.9647229 C10.3145057,20.0874691 10.9508162,19.5531001 10.9136434,18.9393694 C10.9267632,18.327755 10.2702263,17.8198399 9.65578209,17.9611038 Z M13.730575,16.9653786 C14.1870349,16.9288722 14.6549746,16.9664367 15.0933947,17.1008226 C15.099408,17.4156241 15.0999546,17.7309547 15.0944881,18.0457563 C15.0846482,18.0695648 15.0649685,18.11824 15.054582,18.1425776 C14.6506013,17.9436442 14.1815683,17.8997307 13.7360416,17.9468187 C13.6157767,17.9536967 13.4162463,18.0404655 13.5228447,18.1817294 C13.9213588,18.388599 14.3482991,18.5420316 14.7440799,18.7536629 C15.1907,18.998097 15.4295898,19.5430476 15.2885518,20.0223924 C15.2032731,20.3636479 14.9561834,20.6609898 14.6249084,20.8064863 C14.1121426,21.03399 13.5212047,21.0017162 12.9832927,20.8847899 C12.8018021,20.8556906 12.627418,20.716014 12.6214048,20.5287203 C12.6121116,20.2546578 12.608285,19.9800662 12.6279647,19.7070618 C13.098091,19.9144605 13.6365497,20.0768875 14.1515021,19.9292747 C14.3127663,19.8943555 14.3554057,19.6710845 14.220381,19.5811412 C13.7743076,19.3118404 13.2363956,19.1954432 12.8220284,18.8753509 C12.4262477,18.5340955 12.3672085,17.9034342 12.675524,17.4896951 C12.9067605,17.1537304 13.3287809,16.9976524 13.730575,16.9653786 Z M16.4928406,17.3770014 C16.9148611,17.0172282 17.5068923,16.9241105 18.0513642,16.9569133 C18.5121974,16.9801928 18.9856037,17.130451 19.3108655,17.4590085 C19.550302,17.6949774 19.6716601,18.0272385 19.6661936,18.3557961 C19.6689269,19.1822163 19.6700202,20.0086364 19.6661936,20.8350566 C19.4207439,20.8519871 19.1736542,20.8482835 18.9282045,20.8419346 C18.7647536,20.8408764 18.6302756,20.6842693 18.6428487,20.5297784 C18.6384755,19.8065285 18.6439421,19.0832786 18.6406621,18.3600287 C18.6526886,18.2214102 18.5542901,18.0976059 18.424732,18.0478726 C18.1371896,17.9224811 17.8064612,17.9230101 17.5014257,17.9775052 C17.3210284,18.0140116 17.0941651,18.1055421 17.0777653,18.3108245 C17.0602722,19.153646 17.0865118,19.9969967 17.0651922,20.8398183 C16.7273572,20.8477544 16.3895222,20.851458 16.0516872,20.837702 C16.0413007,20.0102236 16.0495006,19.1827453 16.0478606,18.355267 C16.0429407,17.9870286 16.1987383,17.6156157 16.4928406,17.3770014 Z M21.3717683,17.1812425 C22.0425183,16.8352253 22.9423183,16.8622083 23.523963,17.3648326 C23.7360665,17.1389162 24.0482085,17.0383914 24.3598039,17.0786013 C24.3712838,18.3335748 24.375657,19.5896065 24.3570706,20.84458 C24.0476619,20.8805573 23.7371598,20.7816197 23.5250563,20.5578196 C23.1872213,20.8265913 22.7597343,20.9900765 22.3185809,20.9689133 C21.5548989,20.9773786 20.8305763,20.5149642 20.4911013,19.8604945 C20.2751712,19.4594532 20.2292519,18.9853992 20.3161706,18.5441479 C20.4287822,17.9648073 20.8464294,17.4664156 21.3717683,17.1812425 Z M22.174263,17.9574002 C21.6336177,18.0288258 21.2236238,18.5663692 21.3067159,19.0875113 C21.3591951,19.5700306 21.8167483,19.9774208 22.3202209,19.9768917 C22.8991323,20.0133981 23.432671,19.5028376 23.4020581,18.9414857 C23.4173646,18.3393947 22.782694,17.8325378 22.174263,17.9574002 Z M24.7883842,17.0881247 C25.0398472,17.0659034 25.2929501,17.0791304 25.5449597,17.0754269 C25.6553847,17.0796595 25.7800229,17.0711942 25.8702215,17.144207 C25.9516736,17.2129872 25.9899397,17.3140411 26.0358591,17.4055716 C26.2949752,17.9864995 26.5611979,18.5642529 26.8203141,19.1446517 C27.1368294,18.4658444 27.4363983,17.7796299 27.7512736,17.1002935 C28.1087883,17.0468566 28.4859827,17.0849503 28.850604,17.083363 C28.8188978,17.2404993 28.7407256,17.3828213 28.6756732,17.5288469 C28.2011736,18.5690146 27.7326872,19.6118278 27.2565476,20.6514664 C27.1133231,21.0064779 26.490679,20.9863729 26.3742407,20.6197217 C25.9232474,19.6292873 25.475534,18.6377948 25.0250874,17.6473604 C24.9452752,17.4611249 24.8452367,17.2828255 24.7883842,17.0881247 Z" id="Combined-Shape" fill="#FFFFFF" fill-rule="nonzero"></path>
                </g>
            </g>
        </g>
    </g>
</svg>