<?xml version="1.0" encoding="UTF-8"?>
<svg width="178px" height="119px" viewBox="0 0 178 119" version="1.1" xmlns="http://www.w3.org/2000/svg" xmlns:xlink="http://www.w3.org/1999/xlink">
    <!-- Generator: Sketch 51.2 (57519) - http://www.bohemiancoding.com/sketch -->
    <title>Group 8</title>
    <desc>Created with Sketch.</desc>
    <defs></defs>
    <g id="Page-1" stroke="none" stroke-width="1" fill="none" fill-rule="evenodd">
        <g id="Desktop-HD" transform="translate(-514.000000, -1316.000000)">
            <g id="Group-8" transform="translate(514.000000, 1316.000000)">
                <rect id="Rectangle-2-Copy-15" stroke="#9B9B9B" stroke-width="1.61999991" fill="#F9F9F9" x="0.809999957" y="0.809999957" width="176.38" height="117.38" rx="6.47999966"></rect>
                <path d="M0.809999957,22.19 L177.19,22.19 L177.19,6.47999966 C177.19,3.34854529 174.651455,0.809999957 171.52,0.809999957 L6.47999966,0.809999957 C3.34854529,0.809999957 0.809999957,3.34854529 0.809999957,6.47999966 L0.809999957,22.19 Z" id="Rectangle-2-Copy-19" stroke="#9B9B9B" stroke-width="1.61999991" fill="#FFFFFF"></path>
                <g id="brand-copy-9" transform="translate(11.000000, 9.000000)" fill="#4A4A4A" fill-rule="nonzero">
                    <g id="#000000ff">
                        <path d="M0.0243116872,0 L1.17755844,0 C1.19314286,0.585742574 1.17880519,1.17148515 1.18566234,1.75722772 C1.92,1.31168317 2.92176623,1.35742574 3.63179221,1.82554455 C4.16415584,2.17069307 4.56062338,2.71960396 4.65537662,3.33148515 C4.71148052,3.72356436 4.6852987,4.13287129 4.53693506,4.50534653 C4.20342857,5.34118812 3.31885714,5.96613861 2.37007792,5.96079208 C1.8638961,5.98574257 1.36955844,5.80514851 0.982441557,5.49980198 C0.730597401,5.74455446 0.379636363,5.86811881 0.0211948041,5.81940594 C0.013090908,3.87980198 0.00623376512,1.93960396 0.0243116872,0 Z M2.08020779,2.58356436 C1.63885714,2.66257426 1.26296104,3.00237624 1.15324675,3.41643564 C0.967480518,4.04079208 1.44187013,4.74950495 2.12072727,4.83326733 C2.83137662,4.97108911 3.55698701,4.37108911 3.5145974,3.6819802 C3.52955844,2.99524752 2.78088312,2.4249505 2.08020779,2.58356436 Z" id="Shape"></path>
                        <path d="M6.72685714,1.46554455 C7.24737662,1.42455446 7.78098701,1.46673267 8.28093506,1.61762376 C8.28779221,1.97108911 8.28841558,2.32514851 8.28218182,2.67861386 C8.27096104,2.70534653 8.24851948,2.76 8.23667532,2.78732673 C7.776,2.5639604 7.24114286,2.51465347 6.73309091,2.56752475 C6.59594805,2.57524752 6.36841558,2.67267327 6.48997403,2.83128713 C6.94441558,3.06356436 7.43127273,3.23584158 7.8825974,3.47346535 C8.3918961,3.74792079 8.66431169,4.35980198 8.50348052,4.8980198 C8.40623377,5.28118812 8.12446753,5.6150495 7.7467013,5.77841584 C7.16197403,6.03386139 6.4881039,5.99762376 5.8747013,5.86633663 C5.66774026,5.83366337 5.46888312,5.67683168 5.46202597,5.46653465 C5.45142857,5.15881188 5.44706494,4.85049505 5.46950649,4.5439604 C6.00561039,4.77683168 6.61963636,4.95920792 7.20685714,4.79346535 C7.39075325,4.75425743 7.43937662,4.50356436 7.2854026,4.40257426 C6.77672727,4.10019802 6.16332468,3.96950495 5.69080519,3.61009901 C5.23948052,3.22693069 5.17215584,2.51881188 5.52374026,2.05425743 C5.78742857,1.6770297 6.26867532,1.50178218 6.72685714,1.46554455 Z" id="Shape"></path>
                        <path d="M9.87677922,1.92772277 C10.358026,1.52376238 11.0331429,1.41920792 11.654026,1.4560396 C12.1795325,1.48217822 12.7193766,1.65089109 13.0902857,2.01980198 C13.3633247,2.28475248 13.5017143,2.65782178 13.4954805,3.02673267 C13.4985974,3.95465347 13.4998442,4.88257426 13.4954805,5.81049505 C13.2155844,5.82950495 12.9338182,5.82534653 12.6539221,5.81821782 C12.4675325,5.8170297 12.3141818,5.64118812 12.3285195,5.46772277 C12.3235325,4.65564356 12.3297662,3.84356436 12.326026,3.03148515 C12.3397403,2.87584158 12.2275325,2.73683168 12.0797922,2.6809901 C11.7518961,2.54019802 11.3747532,2.54079208 11.0269091,2.6019802 C10.8211948,2.6429703 10.5624935,2.74574257 10.5437922,2.97623762 C10.5238442,3.92257426 10.5537662,4.86950495 10.5294545,5.81584158 C10.1442078,5.82475248 9.75896104,5.82891089 9.37371429,5.81346535 C9.36187013,4.88435644 9.37122078,3.95524752 9.36935065,3.02613861 C9.36374026,2.61267327 9.5414026,2.19564356 9.87677922,1.92772277 Z" id="Shape"></path>
                        <path d="M15.4404156,1.70792079 C16.2052987,1.31940594 17.2313766,1.34970297 17.8946494,1.91405941 C18.1365195,1.66039604 18.4924675,1.54752475 18.8477922,1.59267327 C18.8608831,3.00178218 18.8658701,4.41207921 18.8446753,5.82118812 C18.4918442,5.86158416 18.1377662,5.75049505 17.8958961,5.49920792 C17.5106494,5.8009901 17.0231688,5.98455446 16.5201039,5.96079208 C15.6492468,5.97029703 14.8232727,5.45108911 14.4361558,4.71623762 C14.1899221,4.26594059 14.1375584,3.73366337 14.2366753,3.23821782 C14.3650909,2.58772277 14.8413506,2.02811881 15.4404156,1.70792079 Z M16.3555325,2.57940594 C15.739013,2.65960396 15.2714805,3.26316832 15.3662338,3.84831683 C15.4260779,4.39009901 15.9478442,4.84752475 16.521974,4.84693069 C17.1821299,4.88792079 17.7905455,4.31465347 17.7556364,3.68435644 C17.7730909,3.00831683 17.0493506,2.43920792 16.3555325,2.57940594 Z" id="Shape"></path>
                        <path d="M19.3365195,1.60336634 C19.6232727,1.57841584 19.9118961,1.59326733 20.1992727,1.58910891 C20.3251948,1.59386139 20.4673247,1.58435644 20.5701818,1.66633663 C20.6630649,1.74356436 20.7067013,1.8570297 20.7590649,1.95980198 C21.0545455,2.61207921 21.3581299,3.26079208 21.6536104,3.91247525 C22.0145455,3.15029703 22.3561558,2.37980198 22.7152208,1.6170297 C23.1229091,1.5570297 23.553039,1.59980198 23.9688312,1.5980198 C23.9326753,1.77445545 23.8435325,1.93425743 23.7693506,2.09821782 C23.2282597,3.26613861 22.694026,4.4370297 22.1510649,5.60435644 C21.9877403,6.0029703 21.2777143,5.98039604 21.1449351,5.56871287 C20.6306494,4.45663366 20.1201039,3.34336634 19.6064416,2.23128713 C19.5154286,2.02217822 19.4013506,1.8219802 19.3365195,1.60336634 Z" id="Shape"></path>
                    </g>
                </g>
                <path d="M44.1454398,14 L44.1454398,9.91915061 L44.9898489,9.91915061 L44.9898489,11.4750783 L46.5845363,11.4750783 L46.5845363,9.91915061 L47.431714,9.91915061 L47.431714,14 L46.5845363,14 L46.5845363,12.1782911 L44.9898489,12.1782911 L44.9898489,14 L44.1454398,14 Z M49.5358154,13.4435205 C49.7665295,13.4435205 49.9437152,13.3613876 50.0673779,13.1971192 C50.1910406,13.0328508 50.2528711,12.7993717 50.2528711,12.4966749 C50.2528711,12.1939781 50.1910406,11.9609604 50.0673779,11.7976149 C49.9437152,11.6342693 49.7665295,11.5525978 49.5358154,11.5525978 C49.3051014,11.5525978 49.1274543,11.6342693 49.0028687,11.7976149 C48.8782831,11.9609604 48.8159913,12.1939781 48.8159913,12.4966749 C48.8159913,12.7993717 48.8782831,13.0328508 49.0028687,13.1971192 C49.1274543,13.3613876 49.3051014,13.4435205 49.5358154,13.4435205 Z M51.0806689,12.4966749 C51.0806689,12.9396458 50.9533166,13.3184726 50.6986084,13.6331665 C50.4439001,13.9478605 50.0572291,14.1052051 49.538584,14.1052051 C49.0199389,14.1052051 48.6332679,13.9478605 48.3785596,13.6331665 C48.1238514,13.3184726 47.9964991,12.9396458 47.9964991,12.4966749 C47.9964991,12.0610868 48.1238514,11.6836443 48.3785596,11.3643361 C48.6332679,11.0450279 49.0199389,10.8853761 49.538584,10.8853761 C50.0572291,10.8853761 50.4439001,11.0450279 50.6986084,11.3643361 C50.9533166,11.6836443 51.0806689,12.0610868 51.0806689,12.4966749 Z M55.0175534,10.9158302 C55.1504447,10.9158302 55.2814883,10.9416698 55.4106882,10.9933498 C55.539888,11.0450297 55.657089,11.1354683 55.7622946,11.2646681 C55.8471974,11.3698737 55.9044136,11.4990716 55.933945,11.6522657 C55.9524021,11.7537799 55.9616305,11.9023575 55.9616305,12.098003 L55.9560934,14 L55.1476755,14 L55.1476755,12.0786231 C55.1476755,11.964189 55.1292187,11.8700591 55.0923044,11.7962306 C55.0221673,11.6559565 54.8929694,11.5858204 54.7047068,11.5858204 C54.4869127,11.5858204 54.3364894,11.676259 54.2534324,11.8571388 C54.210981,11.9531158 54.1897556,12.0684711 54.1897556,12.2032081 L54.1897556,14 L53.3951805,14 L53.3951805,12.2032081 C53.3951805,12.024174 53.3767236,11.8940533 53.3398094,11.8128419 C53.2733637,11.6670306 53.143243,11.5941261 52.9494432,11.5941261 C52.7242663,11.5941261 52.5729202,11.6670306 52.4954002,11.8128419 C52.4529489,11.895899 52.4317235,12.0195598 52.4317235,12.1838282 L52.4317235,14 L51.6316112,14 L51.6316112,10.9878127 L52.3985008,10.9878127 L52.3985008,11.4280128 C52.4963236,11.2711273 52.5886078,11.1594634 52.6753563,11.0930177 C52.8285504,10.9748921 53.0269615,10.9158302 53.2705955,10.9158302 C53.5013096,10.9158302 53.6877237,10.9665866 53.8298435,11.0681007 C53.9442777,11.1622321 54.0310249,11.2831244 54.0900877,11.4307814 C54.1934476,11.253593 54.3217226,11.1234722 54.4749167,11.0404152 C54.6373394,10.9573581 54.8182165,10.9158302 55.0175534,10.9158302 Z M57.8774703,11.5525978 C57.6947448,11.5525978 57.5530885,11.609814 57.4524972,11.7242482 C57.3519058,11.8386823 57.2886911,11.9937198 57.2628512,12.1893653 L58.4893208,12.1893653 C58.4764008,11.9807998 58.4131861,11.8225324 58.2996748,11.7145582 C58.1861635,11.6065841 58.0454301,11.5525978 57.8774703,11.5525978 Z M57.8774703,10.9019875 C58.1284871,10.9019875 58.3545835,10.9490524 58.5557661,11.0431838 C58.7569488,11.1373151 58.9230604,11.2858927 59.054106,11.488921 C59.1722315,11.6679551 59.2488275,11.8755946 59.283896,12.1118458 C59.3041988,12.2502742 59.3125044,12.4496082 59.308813,12.7098536 L57.2434713,12.7098536 C57.2545456,13.0125504 57.3495983,13.2248041 57.5286324,13.3466211 C57.6375294,13.4222953 57.768573,13.4601319 57.9217671,13.4601319 C58.0841898,13.4601319 58.2161563,13.4139898 58.3176704,13.3217041 C58.3730418,13.2718699 58.4219525,13.2026567 58.4644038,13.1140625 L59.2700532,13.1140625 C59.2497504,13.2930966 59.1565433,13.4748966 58.9904292,13.6594678 C58.7320295,13.952936 58.3702753,14.099668 57.9051558,14.099668 C57.5212477,14.099668 57.1825646,13.9760071 56.8890963,13.7286817 C56.5956281,13.4813562 56.4488961,13.078997 56.4488961,12.5215919 C56.4488961,11.9992553 56.581324,11.5987418 56.8461837,11.3200392 C57.1110434,11.0413367 57.4548022,10.9019875 57.8774703,10.9019875 Z M68.8963173,12.4579151 L69.9317567,12.4579151 L69.4223427,10.8521535 L68.8963173,12.4579151 Z M68.9489199,9.91915061 L69.9123769,9.91915061 L71.3575623,14 L70.4328651,14 L70.1698524,13.161128 L68.6665273,13.161128 L68.3841348,14 L67.4926602,14 L68.9489199,9.91915061 Z M73.4422839,10.9158302 C73.839112,10.9158302 74.1496485,11.0588708 74.3739025,11.3449562 C74.5981565,11.6310416 74.7102819,12.0001785 74.7102819,12.452378 C74.7102819,12.9211889 74.5995408,13.3097055 74.3780553,13.6179395 C74.1565699,13.9261734 73.8474177,14.0802881 73.4505896,14.0802881 C73.2014184,14.0802881 73.0011616,14.0304546 72.8498132,13.9307861 C72.7593733,13.8717233 72.6615521,13.768365 72.5563465,13.620708 L72.5563465,14 L71.7839197,14 L71.7839197,9.92468772 L72.5701892,9.92468772 L72.5701892,11.3754103 C72.6698577,11.2351362 72.7796759,11.1280865 72.8996472,11.054258 C73.0417671,10.9619724 73.2226441,10.9158302 73.4422839,10.9158302 Z M73.2401794,13.4296778 C73.4432078,13.4296778 73.6010138,13.3475448 73.7136023,13.1832764 C73.8261907,13.019008 73.8824841,12.8030629 73.8824841,12.5354346 C73.8824841,12.321332 73.8547988,12.1441463 73.7994274,12.0038722 C73.6942218,11.7380896 73.500425,11.6052003 73.218031,11.6052003 C72.9319456,11.6052003 72.7353802,11.7353211 72.6283289,11.9955665 C72.5729575,12.1339949 72.5452722,12.3130263 72.5452722,12.5326661 C72.5452722,12.7910658 72.6024885,13.0051652 72.7169226,13.1749707 C72.8313568,13.3447763 73.005774,13.4296778 73.2401794,13.4296778 Z M76.6288902,13.4435205 C76.8596042,13.4435205 77.0367899,13.3613876 77.1604527,13.1971192 C77.2841154,13.0328508 77.3459458,12.7993717 77.3459458,12.4966749 C77.3459458,12.1939781 77.2841154,11.9609604 77.1604527,11.7976149 C77.0367899,11.6342693 76.8596042,11.5525978 76.6288902,11.5525978 C76.3981762,11.5525978 76.220529,11.6342693 76.0959434,11.7976149 C75.9713579,11.9609604 75.909066,12.1939781 75.909066,12.4966749 C75.909066,12.7993717 75.9713579,13.0328508 76.0959434,13.1971192 C76.220529,13.3613876 76.3981762,13.4435205 76.6288902,13.4435205 Z M78.1737436,12.4966749 C78.1737436,12.9396458 78.0463914,13.3184726 77.7916831,13.6331665 C77.5369748,13.9478605 77.1503039,14.1052051 76.6316587,14.1052051 C76.1130136,14.1052051 75.7263427,13.9478605 75.4716344,13.6331665 C75.2169261,13.3184726 75.0895739,12.9396458 75.0895739,12.4966749 C75.0895739,12.0610868 75.2169261,11.6836443 75.4716344,11.3643361 C75.7263427,11.0450279 76.1130136,10.8853761 76.6316587,10.8853761 C77.1503039,10.8853761 77.5369748,11.0450279 77.7916831,11.3643361 C78.0463914,11.6836443 78.1737436,12.0610868 78.1737436,12.4966749 Z M79.5247982,10.9822756 L79.5247982,12.8012159 C79.5247982,12.9728671 79.5451008,13.102065 79.5857064,13.1888135 C79.6576892,13.3420076 79.7988841,13.4186035 80.0092953,13.4186035 C80.2787693,13.4186035 80.4633377,13.3097082 80.5630062,13.0919141 C80.6146861,12.9737885 80.6405257,12.8178282 80.6405257,12.6240284 L80.6405257,10.9822756 L81.440638,10.9822756 L81.440638,14 L80.6737484,14 L80.6737484,13.5736426 C80.6663655,13.5828712 80.6479087,13.6105564 80.6183773,13.6566992 C80.5888459,13.702842 80.5537779,13.7434471 80.5131722,13.7785156 C80.3895095,13.8892584 80.2700014,13.9649314 80.1546444,14.0055371 C80.0392874,14.0461428 79.904091,14.0664453 79.7490511,14.0664453 C79.3023888,14.0664453 79.0015422,13.9058708 78.8465024,13.5847168 C78.7597539,13.4075284 78.7163803,13.1463641 78.7163803,12.8012159 L78.7163803,10.9822756 L79.5247982,10.9822756 Z M81.8919124,11.5719777 L81.8919124,11.0099611 L82.3127327,11.0099611 L82.3127327,10.1683205 L83.093465,10.1683205 L83.093465,11.0099611 L83.5834992,11.0099611 L83.5834992,11.5719777 L83.093465,11.5719777 L83.093465,13.1666651 C83.093465,13.2903278 83.1091534,13.3673851 83.1405305,13.3978394 C83.1719076,13.4282936 83.2678832,13.4435205 83.4284601,13.4435205 C83.4524544,13.4435205 83.4778326,13.4430591 83.5045954,13.4421363 C83.5313582,13.4412134 83.5576592,13.4398291 83.5834992,13.4379834 L83.5834992,14.0276855 L83.2097443,14.0415283 C82.8369105,14.0544483 82.582206,13.9898493 82.4456233,13.8477295 C82.3570291,13.7572896 82.3127327,13.6179404 82.3127327,13.4296778 L82.3127327,11.5719777 L81.8919124,11.5719777 Z M92.8581569,10.6279006 L92.8581569,11.5276808 L93.8603736,11.5276808 C94.0394077,11.5276808 94.1847554,11.4939971 94.296421,11.4266286 C94.4080866,11.3592601 94.4639185,11.239752 94.4639185,11.0681007 C94.4639185,10.8779924 94.3900912,10.7524858 94.2424342,10.6915773 C94.11508,10.6491259 93.9526598,10.6279006 93.7551686,10.6279006 L92.8581569,10.6279006 Z M92.8581569,12.2032081 L92.8581569,13.29125 L93.8603736,13.29125 C94.0394077,13.29125 94.1787569,13.2672561 94.2784254,13.2192676 C94.4593052,13.1306734 94.5497437,12.9608705 94.5497437,12.7098536 C94.5497437,12.4975967 94.4620737,12.3517876 94.286731,12.272422 C94.1889083,12.2281249 94.0514048,12.2050538 93.8742164,12.2032081 L92.8581569,12.2032081 Z M94.0264869,9.91915061 C94.5266749,9.92653346 94.8810464,10.0714197 95.0896119,10.3538137 C95.2151203,10.5273106 95.2778736,10.7349501 95.2778736,10.9767384 C95.2778736,11.2259096 95.2151203,11.4261664 95.0896119,11.5775148 C95.0194748,11.6624175 94.9161165,11.7399363 94.7795338,11.8100734 C94.9880992,11.8857476 95.1454438,12.0057171 95.2515723,12.1699854 C95.3577008,12.3342538 95.4107642,12.5335878 95.4107642,12.7679932 C95.4107642,13.0097815 95.3498566,13.2266495 95.2280396,13.4186035 C95.1505197,13.5459577 95.0536212,13.6530074 94.9373414,13.7397559 C94.8062958,13.8394243 94.6517197,13.9077147 94.4736085,13.9446289 C94.2954972,13.9815432 94.1021618,14 93.8935963,14 L92.0442019,14 L92.0442019,9.91915061 L94.0264869,9.91915061 Z M96.8670239,14 L96.0779858,14 L96.0779858,9.91915061 L96.8670239,9.91915061 L96.8670239,14 Z M98.9905052,13.4435205 C99.2212192,13.4435205 99.398405,13.3613876 99.5220677,13.1971192 C99.6457304,13.0328508 99.7075608,12.7993717 99.7075608,12.4966749 C99.7075608,12.1939781 99.6457304,11.9609604 99.5220677,11.7976149 C99.398405,11.6342693 99.2212192,11.5525978 98.9905052,11.5525978 C98.7597912,11.5525978 98.582144,11.6342693 98.4575585,11.7976149 C98.3329729,11.9609604 98.270681,12.1939781 98.270681,12.4966749 C98.270681,12.7993717 98.3329729,13.0328508 98.4575585,13.1971192 C98.582144,13.3613876 98.7597912,13.4435205 98.9905052,13.4435205 Z M100.535359,12.4966749 C100.535359,12.9396458 100.408006,13.3184726 100.153298,13.6331665 C99.8985898,13.9478605 99.5119189,14.1052051 98.9932738,14.1052051 C98.4746286,14.1052051 98.0879577,13.9478605 97.8332494,13.6331665 C97.5785411,13.3184726 97.4511889,12.9396458 97.4511889,12.4966749 C97.4511889,12.0610868 97.5785411,11.6836443 97.8332494,11.3643361 C98.0879577,11.0450279 98.4746286,10.8853761 98.9932738,10.8853761 C99.5119189,10.8853761 99.8985898,11.0450279 100.153298,11.3643361 C100.408006,11.6836443 100.535359,12.0610868 100.535359,12.4966749 Z M102.395827,13.3521582 C102.580399,13.3521582 102.736359,13.2824836 102.863713,13.1431324 C102.991067,13.0037811 103.054743,12.7818375 103.054743,12.477295 C103.054743,12.1912096 102.994297,11.9734188 102.873403,11.8239161 C102.752509,11.6744134 102.59055,11.5996632 102.387522,11.5996632 C102.110665,11.5996632 101.919636,11.729784 101.814431,11.9900294 C101.759059,12.1284578 101.731374,12.2991836 101.731374,12.502212 C101.731374,12.6775547 101.760905,12.833515 101.819968,12.9700977 C101.927019,13.224806 102.11897,13.3521582 102.395827,13.3521582 Z M102.19926,10.9102931 C102.350608,10.9102931 102.482575,10.9333642 102.595163,10.979507 C102.787117,11.0588726 102.942155,11.2046817 103.06028,11.4169386 L103.06028,10.9822756 L103.82717,10.9822756 L103.82717,13.8449609 C103.82717,14.2344062 103.761648,14.5278701 103.630603,14.7253613 C103.405426,15.0649723 102.973536,15.2347753 102.334919,15.2347753 C101.949165,15.2347753 101.634476,15.1591023 101.390842,15.0077539 C101.147208,14.8564054 101.012473,14.6303091 100.986633,14.329458 L101.844885,14.329458 C101.867033,14.4217436 101.903024,14.4881882 101.952859,14.5287939 C102.037761,14.6007767 102.180802,14.6367675 102.381985,14.6367675 C102.666224,14.6367675 102.85633,14.5417148 102.952307,14.3516064 C103.015061,14.2297894 103.046438,14.0249184 103.046438,13.7369873 L103.046438,13.5431885 C102.970763,13.6723884 102.889553,13.7692868 102.802805,13.8338867 C102.645919,13.953858 102.441971,14.0138428 102.190954,14.0138428 C101.803355,14.0138428 101.493741,13.8777235 101.262104,13.605481 C101.030467,13.3332384 100.914651,12.9645629 100.914651,12.4994434 C100.914651,12.0509354 101.026315,11.6739543 101.249646,11.3684889 C101.472977,11.0630235 101.789512,10.9102931 102.19926,10.9102931 Z M112.326632,11.992798 C112.326632,11.280353 112.517661,10.7312619 112.899723,10.345508 C113.231951,10.0095884 113.654613,9.84163108 114.167721,9.84163108 C114.854326,9.84163108 115.356352,10.0668046 115.673815,10.5171584 C115.849158,10.770021 115.943287,11.0238026 115.956207,11.2785109 L115.103493,11.2785109 C115.048121,11.0828654 114.977062,10.9352106 114.890314,10.8355422 C114.735274,10.6583538 114.505486,10.5697609 114.200944,10.5697609 C113.890864,10.5697609 113.646311,10.6948061 113.467277,10.9449001 C113.288243,11.1949941 113.198727,11.5489041 113.198727,12.0066407 C113.198727,12.4643774 113.293318,12.8072133 113.482504,13.0351587 C113.671689,13.2631042 113.91209,13.3770752 114.203712,13.3770752 C114.502718,13.3770752 114.73066,13.2792539 114.887545,13.0836084 C114.974294,12.9784028 115.046276,12.8205968 115.103493,12.6101856 L115.947902,12.6101856 C115.874073,13.0550023 115.685352,13.4167564 115.381732,13.695459 C115.078113,13.9741616 114.689135,14.1135107 114.214787,14.1135107 C113.62785,14.1135107 113.166429,13.9252509 112.830509,13.5487256 C112.49459,13.1703546 112.326632,12.6517172 112.326632,11.992798 Z M117.888659,13.4435205 C118.119373,13.4435205 118.296558,13.3613876 118.420221,13.1971192 C118.543884,13.0328508 118.605714,12.7993717 118.605714,12.4966749 C118.605714,12.1939781 118.543884,11.9609604 118.420221,11.7976149 C118.296558,11.6342693 118.119373,11.5525978 117.888659,11.5525978 C117.657944,11.5525978 117.480297,11.6342693 117.355712,11.7976149 C117.231126,11.9609604 117.168834,12.1939781 117.168834,12.4966749 C117.168834,12.7993717 117.231126,13.0328508 117.355712,13.1971192 C117.480297,13.3613876 117.657944,13.4435205 117.888659,13.4435205 Z M119.433512,12.4966749 C119.433512,12.9396458 119.30616,13.3184726 119.051451,13.6331665 C118.796743,13.9478605 118.410072,14.1052051 117.891427,14.1052051 C117.372782,14.1052051 116.986111,13.9478605 116.731403,13.6331665 C116.476694,13.3184726 116.349342,12.9396458 116.349342,12.4966749 C116.349342,12.0610868 116.476694,11.6836443 116.731403,11.3643361 C116.986111,11.0450279 117.372782,10.8853761 117.891427,10.8853761 C118.410072,10.8853761 118.796743,11.0450279 119.051451,11.3643361 C119.30616,11.6836443 119.433512,12.0610868 119.433512,12.4966749 Z M121.670504,10.9102931 C121.982429,10.9102931 122.237595,10.9919647 122.436009,11.1553102 C122.634423,11.3186557 122.733629,11.58951 122.733629,11.967881 L122.733629,14 L121.925211,14 L121.925211,12.1644483 C121.925211,12.0057171 121.903986,11.8839019 121.861534,11.7989991 C121.784014,11.6439593 121.63636,11.5664406 121.418566,11.5664406 C121.150937,11.5664406 120.967292,11.6799502 120.867623,11.9069728 C120.815943,12.0269441 120.790104,12.1801359 120.790104,12.3665528 L120.790104,14 L120.003834,14 L120.003834,10.9878127 L120.765187,10.9878127 L120.765187,11.4280128 C120.866701,11.272973 120.962676,11.1613091 121.053116,11.0930177 C121.215539,10.9712007 121.421333,10.9102931 121.670504,10.9102931 Z M123.151681,11.5719777 L123.151681,11.0099611 L123.572501,11.0099611 L123.572501,10.1683205 L124.353233,10.1683205 L124.353233,11.0099611 L124.843268,11.0099611 L124.843268,11.5719777 L124.353233,11.5719777 L124.353233,13.1666651 C124.353233,13.2903278 124.368922,13.3673851 124.400299,13.3978394 C124.431676,13.4282936 124.527651,13.4435205 124.688228,13.4435205 C124.712223,13.4435205 124.737601,13.4430591 124.764364,13.4421363 C124.791127,13.4412134 124.817428,13.4398291 124.843268,13.4379834 L124.843268,14.0276855 L124.469513,14.0415283 C124.096679,14.0544483 123.841974,13.9898493 123.705392,13.8477295 C123.616797,13.7572896 123.572501,13.6179404 123.572501,13.4296778 L123.572501,11.5719777 L123.151681,11.5719777 Z M127.013814,12.5326661 C126.96398,12.5640432 126.913685,12.5894214 126.862928,12.6088013 C126.812171,12.6281813 126.742496,12.6461767 126.653902,12.6627882 L126.476715,12.6960108 C126.310601,12.7255422 126.191554,12.7615331 126.119571,12.8039844 C125.997754,12.8759672 125.936847,12.9876311 125.936847,13.1389795 C125.936847,13.2737165 125.974222,13.3710764 126.048973,13.431062 C126.123724,13.4910477 126.214624,13.5210401 126.321676,13.5210401 C126.491481,13.5210401 126.647903,13.4712066 126.790946,13.3715381 C126.933988,13.2718697 127.008277,13.0900697 127.013814,12.8261329 L127.013814,12.5326661 Z M126.534854,12.1644483 C126.680666,12.1459912 126.784947,12.1229202 126.847701,12.0952345 C126.960289,12.047246 127.016583,11.9724957 127.016583,11.8709816 C127.016583,11.7473188 126.973671,11.6619559 126.887845,11.6148903 C126.802019,11.5678246 126.676051,11.5442921 126.509937,11.5442921 C126.32352,11.5442921 126.191554,11.5904342 126.114034,11.6827198 C126.058663,11.7510112 126.021749,11.8432954 126.003292,11.9595753 L125.241939,11.9595753 C125.258551,11.6956385 125.332378,11.4787705 125.463424,11.308965 C125.671989,11.0431824 126.030052,10.9102931 126.537623,10.9102931 C126.868005,10.9102931 127.161469,10.9758149 127.418023,11.1068605 C127.674577,11.2379061 127.802852,11.4852278 127.802852,11.8488331 L127.802852,13.2331104 C127.802852,13.3290874 127.804698,13.4453656 127.808389,13.5819483 C127.813927,13.6853082 127.829615,13.7554442 127.855455,13.7923584 C127.881295,13.8292727 127.920054,13.8597264 127.971734,13.8837207 L127.971734,14 L127.113482,14 C127.089488,13.9390915 127.072877,13.8818753 127.063648,13.8283496 C127.05442,13.774824 127.047037,13.7139164 127.0415,13.645625 C126.932603,13.7637506 126.807096,13.8643404 126.664976,13.9473975 C126.495171,14.0452202 126.30322,14.0941309 126.089117,14.0941309 C125.815952,14.0941309 125.590317,14.0161507 125.412205,13.860188 C125.234094,13.7042253 125.14504,13.4832046 125.14504,13.1971192 C125.14504,12.826131 125.288081,12.5575839 125.574166,12.3914698 C125.731051,12.3010299 125.961762,12.236431 126.266305,12.197671 L126.534854,12.1644483 Z M130.305626,12.0647804 C130.29086,11.9521919 130.253023,11.8506793 130.192115,11.7602394 C130.103521,11.6384224 129.966017,11.5775148 129.7796,11.5775148 C129.513818,11.5775148 129.332018,11.7094812 129.234195,11.9734181 C129.182515,12.1136922 129.156675,12.3001063 129.156675,12.5326661 C129.156675,12.7541516 129.182515,12.9322601 129.234195,13.0669971 C129.328326,13.318014 129.505512,13.4435205 129.765757,13.4435205 C129.950329,13.4435205 130.081372,13.3936871 130.158892,13.2940186 C130.236412,13.1943501 130.283477,13.0651522 130.300089,12.906421 L131.105738,12.906421 C131.087281,13.1463635 131.000534,13.3733828 130.845494,13.5874854 C130.598168,13.9326336 130.2318,14.1052051 129.746378,14.1052051 C129.260955,14.1052051 128.903815,13.9612417 128.674947,13.6733106 C128.446079,13.3853795 128.331646,13.0116283 128.331646,12.552046 C128.331646,12.0334008 128.458076,11.6301188 128.710938,11.3421876 C128.963801,11.0542565 129.312635,10.9102931 129.757452,10.9102931 C130.135823,10.9102931 130.445436,10.9951946 130.686302,11.1650002 C130.927167,11.3348057 131.069746,11.6347294 131.114044,12.0647804 L130.305626,12.0647804 Z M131.346602,11.5719777 L131.346602,11.0099611 L131.767422,11.0099611 L131.767422,10.1683205 L132.548155,10.1683205 L132.548155,11.0099611 L133.038189,11.0099611 L133.038189,11.5719777 L132.548155,11.5719777 L132.548155,13.1666651 C132.548155,13.2903278 132.563843,13.3673851 132.59522,13.3978394 C132.626597,13.4282936 132.722573,13.4435205 132.88315,13.4435205 C132.907144,13.4435205 132.932522,13.4430591 132.959285,13.4421363 C132.986048,13.4412134 133.012349,13.4398291 133.038189,13.4379834 L133.038189,14.0276855 L132.664434,14.0415283 C132.2916,14.0544483 132.036896,13.9898493 131.900313,13.8477295 C131.811719,13.7572896 131.767422,13.6179404 131.767422,13.4296778 L131.767422,11.5719777 L131.346602,11.5719777 Z M135.183819,9.91915061 L136.050376,9.91915061 L136.050376,12.427461 C136.050376,12.7080093 136.083599,12.9128803 136.150044,13.0420801 C136.253404,13.2709484 136.478578,13.3853809 136.825572,13.3853809 C137.17072,13.3853809 137.39497,13.2709484 137.49833,13.0420801 C137.564776,12.9128803 137.597998,12.7080093 137.597998,12.427461 L137.597998,9.91915061 L138.464556,9.91915061 L138.464556,12.427461 C138.464556,12.8612034 138.397188,13.1989637 138.262451,13.440752 C138.011435,13.8837229 137.532479,14.1052051 136.825572,14.1052051 C136.118664,14.1052051 135.638786,13.8837229 135.385923,13.440752 C135.251186,13.1989637 135.183819,12.8612034 135.183819,12.427461 L135.183819,9.91915061 Z M139.829453,13.036543 C139.846065,13.1768172 139.882055,13.2764841 139.937427,13.3355469 C140.03525,13.4407525 140.216127,13.4933545 140.480064,13.4933545 C140.635103,13.4933545 140.758303,13.4702835 140.849666,13.4241407 C140.941028,13.3779978 140.986709,13.3087847 140.986709,13.2164991 C140.986709,13.1279049 140.949795,13.0605374 140.875967,13.0143946 C140.802138,12.9682518 140.528054,12.8888873 140.053706,12.7762989 C139.712249,12.6913961 139.471388,12.5852693 139.331113,12.4579151 C139.190839,12.3324067 139.120703,12.1515296 139.120703,11.9152784 C139.120703,11.6365759 139.23006,11.3970983 139.448777,11.1968385 C139.667494,10.9965787 139.975262,10.8964504 140.37209,10.8964504 C140.748615,10.8964504 141.05546,10.971662 141.292634,11.1220876 C141.529808,11.2725131 141.665928,11.5322932 141.700996,11.9014357 L140.911958,11.9014357 C140.900884,11.7999215 140.872276,11.7196342 140.826133,11.6605714 C140.739384,11.5535201 140.59173,11.4999952 140.383164,11.4999952 C140.211513,11.4999952 140.089236,11.5267577 140.016331,11.5802833 C139.943425,11.633809 139.906973,11.6965623 139.906973,11.768545 C139.906973,11.8589849 139.945732,11.9245067 140.023252,11.9651124 C140.100772,12.0075638 140.374856,12.0804683 140.845513,12.1838282 C141.159284,12.2576567 141.394609,12.3693206 141.551494,12.5188233 C141.706534,12.6701717 141.784053,12.8593544 141.784053,13.086377 C141.784053,13.3853824 141.67285,13.6294742 141.450442,13.8186597 C141.228034,14.0078452 140.884275,14.1024365 140.419155,14.1024365 C139.944807,14.1024365 139.594589,14.0023081 139.368489,13.8020484 C139.142389,13.6017886 139.029341,13.3466227 139.029341,13.036543 L139.829453,13.036543 Z" id="Home-About-Blog-Cont-Copy-8" fill="#4A4A4A"></path>
            </g>
        </g>
    </g>
</svg>