<?xml version="1.0" encoding="UTF-8"?>
<svg width="320px" height="41px" viewBox="0 0 320 41" version="1.1" xmlns="http://www.w3.org/2000/svg" xmlns:xlink="http://www.w3.org/1999/xlink">
    <!-- Generator: Sketch 51.2 (57519) - http://www.bohemiancoding.com/sketch -->
    <title>Group 29</title>
    <desc>Created with Sketch.</desc>
    <defs></defs>
    <g id="Page-1" stroke="none" stroke-width="1" fill="none" fill-rule="evenodd">
        <g id="Desktop-HD" transform="translate(-560.000000, -4597.000000)">
            <g id="Group-29" transform="translate(560.000000, 4597.000000)">
                <path d="M1.45799998,39.542 L318.542,39.542 L318.542,11.6639998 C318.542,6.02738176 313.972618,1.45799998 308.336,1.45799998 L11.6639998,1.45799998 C6.02738176,1.45799998 1.45799998,6.02738176 1.45799998,11.6639998 L1.45799998,39.542 Z" id="Rectangle-2-Copy-56" stroke="#9B9B9B" stroke-width="2.91599996" fill="#FFFFFF"></path>
                <g id="brand-copy-25" transform="translate(20.000000, 16.000000)" fill="#4A4A4A" fill-rule="nonzero">
                    <g id="#000000ff">
                        <path d="M0.0435584396,0 L2.10979221,0 C2.13771428,1.07386139 2.11202597,2.14772277 2.12431169,3.22158416 C3.44,2.40475248 5.23483117,2.48861386 6.50696104,3.34683168 C7.46077922,3.97960396 8.17111688,4.98594059 8.34088311,6.10772277 C8.4414026,6.82653465 8.3944935,7.57693069 8.12867532,8.25980198 C7.53114286,9.79217822 5.94628571,10.9379208 4.24638961,10.9281188 C3.33948052,10.9738614 2.45379221,10.6427723 1.76020779,10.0829703 C1.30898701,10.5316832 0.680181816,10.7582178 0.037974024,10.6689109 C0.0234545435,7.1129703 0.0111688292,3.55594059 0.0435584396,0 Z M3.72703896,4.73653465 C2.93628571,4.88138614 2.26280519,5.50435644 2.06623376,6.26346535 C1.7334026,7.40811881 2.58335065,8.70742574 3.79963636,8.8609901 C5.07288311,9.11366337 6.37293506,8.01366337 6.29698701,6.75029703 C6.32379221,5.49128713 4.98241558,4.44574257 3.72703896,4.73653465 Z" id="Shape"></path>
                        <path d="M12.0522857,2.68683168 C12.9848831,2.61168317 13.9409351,2.6890099 14.8366753,2.96564356 C14.848961,3.61366337 14.8500779,4.26277228 14.8389091,4.91079208 C14.8188052,4.95980198 14.7785974,5.06 14.7573766,5.11009901 C13.932,4.70059406 12.9737143,4.61019802 12.0634545,4.70712871 C11.8177403,4.72128713 11.4100779,4.89990099 11.6278701,5.19069307 C12.4420779,5.61653465 13.3143636,5.93237624 14.122987,6.3680198 C15.0354805,6.87118812 15.5235584,7.9929703 15.2354026,8.97970297 C15.0611688,9.68217822 14.5563377,10.2942574 13.8795065,10.5937624 C12.8318701,11.0620792 11.6245195,10.9956436 10.5255065,10.7549505 C10.1547013,10.6950495 9.79841558,10.4075248 9.78612987,10.0219802 C9.76714286,9.45782178 9.75932468,8.89257426 9.79953247,8.33059406 C10.7600519,8.75752475 11.8601818,9.09188119 12.9122857,8.7880198 C13.2417662,8.71613861 13.3288831,8.25653465 13.053013,8.07138614 C12.1416364,7.5170297 11.0426234,7.27742574 10.196026,6.61851485 C9.3874026,5.9160396 9.26677922,4.61782178 9.8967013,3.76613861 C10.3691429,3.07455446 11.2313766,2.75326733 12.0522857,2.68683168 Z" id="Shape"></path>
                        <path d="M17.6958961,3.53415842 C18.5581299,2.79356436 19.7677143,2.60188119 20.8801299,2.66940594 C21.8216623,2.71732673 22.7888831,3.02663366 23.4534286,3.7029703 C23.9426234,4.18871287 24.1905714,4.87267327 24.1794026,5.5490099 C24.184987,7.25019802 24.1872208,8.95138614 24.1794026,10.6525743 C23.6779221,10.6874257 23.1730909,10.679802 22.6716104,10.6667327 C22.3376623,10.6645545 22.0629091,10.3421782 22.0885974,10.0241584 C22.0796623,8.53534653 22.0908312,7.04653465 22.0841299,5.55772277 C22.1087013,5.27237624 21.9076623,5.01752475 21.642961,4.91514851 C21.0554805,4.6570297 20.3797662,4.65811881 19.7565455,4.77029703 C19.387974,4.84544554 18.9244675,5.03386139 18.890961,5.45643564 C18.8552208,7.19138614 18.9088312,8.92742574 18.8652727,10.6623762 C18.175039,10.6787129 17.4848052,10.6863366 16.7945714,10.6580198 C16.7733506,8.95465347 16.7901039,7.25128713 16.7867532,5.54792079 C16.7767013,4.78990099 17.095013,4.02534653 17.6958961,3.53415842 Z" id="Shape"></path>
                        <path d="M27.6640779,3.13118812 C29.0344935,2.41891089 30.8728831,2.47445545 32.0612468,3.50910891 C32.4945974,3.04405941 33.1323377,2.83712871 33.768961,2.91990099 C33.7924156,5.50326733 33.8013506,8.08881188 33.7633766,10.6721782 C33.1312208,10.7462376 32.4968312,10.5425743 32.0634805,10.0818812 C31.3732468,10.6351485 30.4998442,10.9716832 29.5985195,10.9281188 C28.0382338,10.9455446 26.5583636,9.99366337 25.8647792,8.64643564 C25.4236104,7.82089109 25.3297922,6.8450495 25.5073766,5.93673267 C25.7374545,4.74415842 26.5907532,3.71821782 27.6640779,3.13118812 Z M29.3036623,4.72891089 C28.1990649,4.87594059 27.3614026,5.98247525 27.5311688,7.05524752 C27.6383896,8.04851485 28.5732208,8.88712871 29.6018701,8.8860396 C30.7846494,8.96118812 31.8747273,7.91019802 31.8121818,6.75465347 C31.8434545,5.51524752 30.5467532,4.47188119 29.3036623,4.72891089 Z" id="Shape"></path>
                        <path d="M34.6445974,2.93950495 C35.1583636,2.89376238 35.6754805,2.9209901 36.1903636,2.91336634 C36.415974,2.92207921 36.6706234,2.90465347 36.8549091,3.0549505 C37.0213247,3.19653465 37.0995065,3.40455446 37.1933247,3.5929703 C37.7227273,4.78881188 38.2666494,5.97811881 38.7960519,7.17287129 C39.4427273,5.77554455 40.0547792,4.3629703 40.6981039,2.96455446 C41.4285455,2.85455446 42.1991948,2.9329703 42.9441558,2.92970297 C42.8793766,3.25316832 42.7196623,3.54613861 42.5867532,3.84673267 C41.6172987,5.98792079 40.6601299,8.13455446 39.6873247,10.2746535 C39.3947013,11.0054455 38.1225714,10.9640594 37.8846753,10.2093069 C36.9632468,8.17049505 36.0485195,6.12950495 35.1282078,4.09069307 C34.9651429,3.70732673 34.7607532,3.34029703 34.6445974,2.93950495 Z" id="Shape"></path>
                    </g>
                </g>
                <rect id="Rectangle-5" fill="#4A4A4A" x="160" y="12" width="48" height="21"></rect>
                <path d="M126.861785,26 L126.861785,18.6544708 L128.381721,18.6544708 L128.381721,21.4551407 L131.252159,21.4551407 L131.252159,18.6544708 L132.777078,18.6544708 L132.777078,26 L131.252159,26 L131.252159,22.7209239 L128.381721,22.7209239 L128.381721,26 L126.861785,26 Z M136.564461,24.9983369 C136.979746,24.9983369 137.298681,24.8504976 137.521274,24.5548145 C137.743867,24.2591314 137.855161,23.838869 137.855161,23.2940147 C137.855161,22.7491604 137.743867,22.3297286 137.521274,22.0357066 C137.298681,21.7416846 136.979746,21.5946758 136.564461,21.5946758 C136.149176,21.5946758 135.829411,21.7416846 135.605157,22.0357066 C135.380903,22.3297286 135.268778,22.7491604 135.268778,23.2940147 C135.268778,23.838869 135.380903,24.2591314 135.605157,24.5548145 C135.829411,24.8504976 136.149176,24.9983369 136.564461,24.9983369 Z M139.345197,23.2940147 C139.345197,24.0913624 139.115963,24.7732506 138.657489,25.3396997 C138.199014,25.9061488 137.503006,26.1893691 136.569445,26.1893691 C135.635883,26.1893691 134.939876,25.9061488 134.481401,25.3396997 C134.022926,24.7732506 133.793692,24.0913624 133.793692,23.2940147 C133.793692,22.5099561 134.022926,21.8305596 134.481401,21.2558048 C134.939876,20.6810499 135.635883,20.3936768 136.569445,20.3936768 C137.503006,20.3936768 138.199014,20.6810499 138.657489,21.2558048 C139.115963,21.8305596 139.345197,22.5099561 139.345197,23.2940147 Z M146.43159,20.4484942 C146.670794,20.4484942 146.906673,20.4950055 147.139233,20.5880294 C147.371792,20.6810533 147.582754,20.8438427 147.772124,21.0764024 C147.924949,21.2657725 148.027938,21.4983288 148.081095,21.7740782 C148.114318,21.9568037 148.130929,22.2242434 148.130929,22.5764053 L148.120962,26 L146.66581,26 L146.66581,22.5415215 C146.66581,22.33554 146.632587,22.1661062 146.566142,22.0332149 C146.439895,21.7807214 146.207339,21.6544766 145.868466,21.6544766 C145.476437,21.6544766 145.205675,21.817266 145.056172,22.1428497 C144.97976,22.3156083 144.941554,22.5232479 144.941554,22.7657745 L144.941554,26 L143.511319,26 L143.511319,22.7657745 C143.511319,22.4435131 143.478096,22.2092957 143.411651,22.0631153 C143.292048,21.800655 143.057831,21.6694268 142.708991,21.6694268 C142.303673,21.6694268 142.03125,21.800655 141.891714,22.0631153 C141.815302,22.212618 141.777096,22.4352076 141.777096,22.7308907 L141.777096,26 L140.336894,26 L140.336894,20.5780626 L141.717295,20.5780626 L141.717295,21.3704229 C141.893376,21.0880289 142.059488,20.8870339 142.215635,20.7674317 C142.491384,20.5548056 142.848524,20.4484942 143.287066,20.4484942 C143.702351,20.4484942 144.037896,20.5398556 144.293712,20.7225811 C144.499694,20.8920175 144.655838,21.1096237 144.762152,21.3754063 C144.948199,21.0564672 145.179094,20.8222498 145.454844,20.6727471 C145.747205,20.5232444 146.072783,20.4484942 146.43159,20.4484942 Z M151.57944,21.5946758 C151.250535,21.5946758 150.995553,21.697665 150.814489,21.9036465 C150.633424,22.109628 150.519638,22.3886956 150.473126,22.7408575 L152.680772,22.7408575 C152.657516,22.3654396 152.543729,22.0805582 152.339409,21.8862046 C152.135088,21.6918511 151.881768,21.5946758 151.57944,21.5946758 Z M151.57944,20.4235772 C152.031271,20.4235772 152.438244,20.5082941 152.800373,20.6777305 C153.162502,20.8471669 153.461503,21.1146066 153.697385,21.4800577 C153.910011,21.802319 154.047883,22.1760702 154.111007,22.6013223 C154.147552,22.8504935 154.162502,23.2092946 154.155857,23.6777364 L150.438242,23.6777364 C150.458176,24.2225906 150.629271,24.6046474 150.951532,24.823918 C151.147547,24.9601316 151.383425,25.0282373 151.659175,25.0282373 C151.951536,25.0282373 152.189075,24.9451815 152.371801,24.7790674 C152.471469,24.6893658 152.559508,24.5647821 152.635921,24.4053125 L154.08609,24.4053125 C154.049545,24.7275739 153.881772,25.0548138 153.582767,25.387042 C153.117647,25.9152849 152.46649,26.1794023 151.629274,26.1794023 C150.93824,26.1794023 150.32861,25.9568128 149.800367,25.511627 C149.272124,25.0664411 149.008007,24.3421945 149.008007,23.3388653 C149.008007,22.3986594 149.246377,21.677735 149.723125,21.1760704 C150.199872,20.6744058 150.818638,20.4235772 151.57944,20.4235772 Z M171.413366,23.2242471 L173.277157,23.2242471 L172.360212,20.3338761 L171.413366,23.2242471 Z M171.508051,18.6544708 L173.242273,18.6544708 L175.843607,26 L174.179152,26 L173.705729,24.4900303 L170.999744,24.4900303 L170.491437,26 L168.886783,26 L171.508051,18.6544708 Z M179.596106,20.4484942 C180.310397,20.4484942 180.869362,20.7059672 181.27302,21.220921 C181.676677,21.7358747 181.878503,22.4003212 181.878503,23.2142803 C181.878503,24.05814 181.679169,24.7574699 181.280495,25.312291 C180.881821,25.8671122 180.325347,26.1445186 179.611056,26.1445186 C179.162548,26.1445186 178.802086,26.0548183 178.529659,25.875415 C178.366867,25.769102 178.190789,25.583057 178.001419,25.3172744 L178.001419,26 L176.611051,26 L176.611051,18.6644376 L178.026336,18.6644376 L178.026336,21.2757383 C178.205739,21.0232449 178.403412,20.8305554 178.61936,20.6976641 C178.875176,20.53155 179.200755,20.4484942 179.596106,20.4484942 Z M179.232318,24.9734199 C179.597769,24.9734199 179.88182,24.8255806 180.084479,24.5298975 C180.287138,24.2342144 180.388466,23.8455132 180.388466,23.3637823 C180.388466,22.9783975 180.338633,22.6594632 180.238965,22.4069698 C180.049594,21.9285611 179.70076,21.6893604 179.192451,21.6893604 C178.677497,21.6893604 178.323679,21.9235778 178.130987,22.3920196 C178.031319,22.6411907 177.981485,22.9634473 177.981485,23.3587989 C177.981485,23.8239184 178.084474,24.2092973 178.290456,24.5149473 C178.496437,24.8205972 178.810388,24.9734199 179.232318,24.9734199 Z M185.331998,24.9983369 C185.747283,24.9983369 186.066217,24.8504976 186.28881,24.5548145 C186.511403,24.2591314 186.622698,23.838869 186.622698,23.2940147 C186.622698,22.7491604 186.511403,22.3297286 186.28881,22.0357066 C186.066217,21.7416846 185.747283,21.5946758 185.331998,21.5946758 C184.916712,21.5946758 184.596948,21.7416846 184.372693,22.0357066 C184.148439,22.3297286 184.036314,22.7491604 184.036314,23.2940147 C184.036314,23.838869 184.148439,24.2591314 184.372693,24.5548145 C184.596948,24.8504976 184.916712,24.9983369 185.331998,24.9983369 Z M188.112734,23.2940147 C188.112734,24.0913624 187.8835,24.7732506 187.425025,25.3396997 C186.96655,25.9061488 186.270542,26.1893691 185.336981,26.1893691 C184.40342,26.1893691 183.707412,25.9061488 183.248937,25.3396997 C182.790462,24.7732506 182.561228,24.0913624 182.561228,23.2940147 C182.561228,22.5099561 182.790462,21.8305596 183.248937,21.2558048 C183.707412,20.6810499 184.40342,20.3936768 185.336981,20.3936768 C186.270542,20.3936768 186.96655,20.6810499 187.425025,21.2558048 C187.8835,21.8305596 188.112734,22.5099561 188.112734,23.2940147 Z M190.544632,20.5680958 L190.544632,23.8421885 C190.544632,24.1511607 190.581177,24.383717 190.654267,24.5398643 C190.783836,24.8156137 191.037987,24.9534863 191.416727,24.9534863 C191.90178,24.9534863 192.234003,24.7574746 192.413407,24.3654453 C192.506431,24.1528193 192.552942,23.8720906 192.552942,23.523251 L192.552942,20.5680958 L193.993144,20.5680958 L193.993144,26 L192.612743,26 L192.612743,25.2325567 C192.599454,25.2491681 192.566231,25.2990015 192.513075,25.3820586 C192.459918,25.4651157 192.396796,25.5382048 192.323706,25.6013281 C192.101113,25.8006651 191.885998,25.9368766 191.678355,26.0099668 C191.470713,26.083057 191.227359,26.1196016 190.948288,26.1196016 C190.144295,26.1196016 189.602771,25.8305673 189.3237,25.2524902 C189.167552,24.9335512 189.08948,24.4634553 189.08948,23.8421885 L189.08948,20.5680958 L190.544632,20.5680958 Z M194.805438,21.6295596 L194.805438,20.6179298 L195.562915,20.6179298 L195.562915,19.1029767 L196.968233,19.1029767 L196.968233,20.6179298 L197.850294,20.6179298 L197.850294,21.6295596 L196.968233,21.6295596 L196.968233,24.4999971 C196.968233,24.72259 196.996472,24.8612932 197.052951,24.9161109 C197.109429,24.9709285 197.282186,24.9983369 197.571224,24.9983369 C197.614414,24.9983369 197.660094,24.9975064 197.708268,24.9958452 C197.756441,24.9941841 197.803782,24.9916924 197.850294,24.9883701 L197.850294,26.049834 L197.177536,26.074751 C196.506435,26.098007 196.047967,25.9817288 195.802118,25.7259131 C195.642648,25.5631213 195.562915,25.3122927 195.562915,24.9734199 L195.562915,21.6295596 L194.805438,21.6295596 Z M214.544679,19.9302208 L214.544679,21.5498253 L216.348669,21.5498253 C216.67093,21.5498253 216.932556,21.4891945 217.133554,21.3679312 C217.334552,21.2466679 217.43505,21.0315534 217.43505,20.7225811 C217.43505,20.3803861 217.302161,20.1544743 217.036378,20.0448389 C216.807141,19.9684265 216.514784,19.9302208 216.1593,19.9302208 L214.544679,19.9302208 Z M214.544679,22.7657745 L214.544679,24.72425 L216.348669,24.72425 C216.67093,24.72425 216.921759,24.681061 217.101162,24.5946817 C217.426746,24.4352121 217.589535,24.1295667 217.589535,23.6777364 C217.589535,23.2956739 217.431729,23.0332176 217.116112,22.8903594 C216.940032,22.8106246 216.692525,22.7690967 216.373586,22.7657745 L214.544679,22.7657745 Z M216.647673,18.6544708 C217.548011,18.6677599 218.18588,18.9285552 218.561298,19.4368643 C218.787213,19.7491589 218.900169,20.12291 218.900169,20.558129 C218.900169,21.0066371 218.787213,21.3670993 218.561298,21.6395264 C218.435051,21.7923514 218.249006,21.9318852 218.003157,22.0581319 C218.378575,22.1943455 218.661796,22.4102906 218.852827,22.7059737 C219.043858,23.0016568 219.139372,23.3604579 219.139372,23.7823877 C219.139372,24.2176067 219.029739,24.607969 218.810468,24.9534863 C218.670932,25.1827238 218.496515,25.3754133 218.287211,25.5315606 C218.051329,25.7109638 217.773092,25.8338864 217.452492,25.900332 C217.131892,25.9667777 216.783888,26 216.40847,26 L213.07956,26 L213.07956,18.6544708 L216.647673,18.6544708 Z M221.76064,26 L220.340371,26 L220.340371,18.6544708 L221.76064,18.6544708 L221.76064,26 Z M225.582906,24.9983369 C225.998192,24.9983369 226.317126,24.8504976 226.539719,24.5548145 C226.762312,24.2591314 226.873606,23.838869 226.873606,23.2940147 C226.873606,22.7491604 226.762312,22.3297286 226.539719,22.0357066 C226.317126,21.7416846 225.998192,21.5946758 225.582906,21.5946758 C225.167621,21.5946758 224.847856,21.7416846 224.623602,22.0357066 C224.399348,22.3297286 224.287223,22.7491604 224.287223,23.2940147 C224.287223,23.838869 224.399348,24.2591314 224.623602,24.5548145 C224.847856,24.8504976 225.167621,24.9983369 225.582906,24.9983369 Z M228.363643,23.2940147 C228.363643,24.0913624 228.134409,24.7732506 227.675934,25.3396997 C227.217459,25.9061488 226.521451,26.1893691 225.58789,26.1893691 C224.654328,26.1893691 223.958321,25.9061488 223.499846,25.3396997 C223.041371,24.7732506 222.812137,24.0913624 222.812137,23.2940147 C222.812137,22.5099561 223.041371,21.8305596 223.499846,21.2558048 C223.958321,20.6810499 224.654328,20.3936768 225.58789,20.3936768 C226.521451,20.3936768 227.217459,20.6810499 227.675934,21.2558048 C228.134409,21.8305596 228.363643,22.5099561 228.363643,23.2940147 Z M231.712486,24.8338848 C232.044715,24.8338848 232.325443,24.7084705 232.554681,24.4576382 C232.783918,24.2068059 232.898535,23.8073075 232.898535,23.2591309 C232.898535,22.7441772 232.789732,22.3521537 232.572123,22.0830489 C232.354513,21.813944 232.062987,21.6793936 231.697536,21.6793936 C231.199194,21.6793936 230.855343,21.913611 230.665973,22.3820528 C230.566304,22.6312239 230.516471,22.9385304 230.516471,23.3039815 C230.516471,23.6195983 230.569626,23.9003269 230.675939,24.1461758 C230.868632,24.6046507 231.214144,24.8338848 231.712486,24.8338848 Z M231.358665,20.4385274 C231.631092,20.4385274 231.868632,20.4800553 232.071291,20.5631124 C232.416808,20.7059705 232.695876,20.9684269 232.908502,21.3504893 L232.908502,20.5680958 L234.288903,20.5680958 L234.288903,25.7209297 C234.288903,26.4219312 234.170964,26.9501662 233.935082,27.3056504 C233.529764,27.9169503 232.752361,28.2225957 231.602852,28.2225957 C230.908495,28.2225957 230.342054,28.0863841 229.903513,27.813957 C229.464971,27.5415299 229.222448,27.1345564 229.175937,26.5930244 L230.72079,26.5930244 C230.760657,26.7591385 230.825441,26.8787389 230.915143,26.9518291 C231.067968,27.0813981 231.325441,27.1461816 231.687569,27.1461816 C232.199201,27.1461816 232.541391,26.9750867 232.714149,26.6328916 C232.827107,26.413621 232.883585,26.0448532 232.883585,25.5265772 L232.883585,25.1777393 C232.747371,25.410299 232.601193,25.5847162 232.445046,25.7009961 C232.162652,25.9169444 231.795545,26.024917 231.343715,26.024917 C230.646036,26.024917 230.088731,25.7799024 229.671785,25.2898657 C229.254838,24.7998291 229.046368,24.1362132 229.046368,23.2989981 C229.046368,22.4916835 229.247363,21.8131176 229.649359,21.2632798 C230.051356,20.7134421 230.621118,20.4385274 231.358665,20.4385274 Z M249.587936,22.3870362 C249.587936,21.1046353 249.931787,20.1162711 250.6195,19.4219141 C251.217511,18.8172588 251.978302,18.5149356 252.901896,18.5149356 C254.137785,18.5149356 255.041432,18.920248 255.612865,19.7308848 C255.928482,20.1860375 256.097916,20.6428445 256.121172,21.1013194 L254.586285,21.1013194 C254.486616,20.7491575 254.35871,20.4833789 254.202563,20.3039757 C253.923491,19.9850366 253.509874,19.8255694 252.961697,19.8255694 C252.403554,19.8255694 251.963358,20.0506507 251.641096,20.5008199 C251.318835,20.9509891 251.157707,21.5880272 251.157707,22.4119532 C251.157707,23.2358792 251.327971,23.8529838 251.668505,24.2632857 C252.009039,24.6735875 252.44176,24.8787354 252.96668,24.8787354 C253.50489,24.8787354 253.915186,24.7026571 254.19758,24.3504951 C254.353727,24.1611251 254.483294,23.8770742 254.586285,23.498334 L256.106221,23.498334 C255.97333,24.299004 255.633632,24.9501616 255.087116,25.4518262 C254.540601,25.9534908 253.84044,26.2043193 252.986614,26.2043193 C251.930128,26.2043193 251.09957,25.8654516 250.494915,25.1877061 C249.890259,24.5066382 249.587936,23.5730909 249.587936,22.3870362 Z M259.599584,24.9983369 C260.014869,24.9983369 260.333803,24.8504976 260.556396,24.5548145 C260.778989,24.2591314 260.890284,23.838869 260.890284,23.2940147 C260.890284,22.7491604 260.778989,22.3297286 260.556396,22.0357066 C260.333803,21.7416846 260.014869,21.5946758 259.599584,21.5946758 C259.184298,21.5946758 258.864533,21.7416846 258.640279,22.0357066 C258.416025,22.3297286 258.3039,22.7491604 258.3039,23.2940147 C258.3039,23.838869 258.416025,24.2591314 258.640279,24.5548145 C258.864533,24.8504976 259.184298,24.9983369 259.599584,24.9983369 Z M262.38032,23.2940147 C262.38032,24.0913624 262.151086,24.7732506 261.692611,25.3396997 C261.234136,25.9061488 260.538128,26.1893691 259.604567,26.1893691 C258.671006,26.1893691 257.974998,25.9061488 257.516523,25.3396997 C257.058048,24.7732506 256.828814,24.0913624 256.828814,23.2940147 C256.828814,22.5099561 257.058048,21.8305596 257.516523,21.2558048 C257.974998,20.6810499 258.671006,20.3936768 259.604567,20.3936768 C260.538128,20.3936768 261.234136,20.6810499 261.692611,21.2558048 C262.151086,21.8305596 262.38032,22.5099561 262.38032,23.2940147 Z M266.406906,20.4385274 C266.968371,20.4385274 267.42767,20.5855362 267.784815,20.8795582 C268.141961,21.1735801 268.320531,21.6611177 268.320531,22.3421856 L268.320531,26 L266.865378,26 L266.865378,22.6960069 C266.865378,22.4102906 266.827173,22.1910233 266.75076,22.0381983 C266.611224,21.7591266 266.345446,21.6195928 265.953417,21.6195928 C265.471686,21.6195928 265.141123,21.8239101 264.96172,22.2325508 C264.868696,22.4484992 264.822185,22.7242445 264.822185,23.059795 L264.822185,26 L263.4069,26 L263.4069,20.5780626 L264.777334,20.5780626 L264.777334,21.3704229 C264.96006,21.0913512 265.132816,20.8903562 265.295608,20.7674317 C265.587969,20.5481611 265.958398,20.4385274 266.406906,20.4385274 Z M269.073024,21.6295596 L269.073024,20.6179298 L269.8305,20.6179298 L269.8305,19.1029767 L271.235819,19.1029767 L271.235819,20.6179298 L272.11788,20.6179298 L272.11788,21.6295596 L271.235819,21.6295596 L271.235819,24.4999971 C271.235819,24.72259 271.264058,24.8612932 271.320537,24.9161109 C271.377015,24.9709285 271.549771,24.9983369 271.83881,24.9983369 C271.882,24.9983369 271.92768,24.9975064 271.975853,24.9958452 C272.024027,24.9941841 272.071368,24.9916924 272.11788,24.9883701 L272.11788,26.049834 L271.445122,26.074751 C270.774021,26.098007 270.315552,25.9817288 270.069704,25.7259131 C269.910234,25.5631213 269.8305,25.3122927 269.8305,24.9734199 L269.8305,21.6295596 L269.073024,21.6295596 Z M276.024865,23.3587989 C275.935163,23.4152777 275.844632,23.4609584 275.753269,23.4958423 C275.661907,23.5307263 275.536492,23.563118 275.377023,23.5930186 L275.058085,23.6528194 C274.75908,23.7059759 274.544796,23.7707594 274.415227,23.8471719 C274.195956,23.9767409 274.086323,24.177736 274.086323,24.4501631 C274.086323,24.6926897 274.153598,24.8679375 274.28815,24.9759116 C274.422703,25.0838858 274.586323,25.1378721 274.779015,25.1378721 C275.084665,25.1378721 275.366224,25.0481718 275.623701,24.8687686 C275.881178,24.6893653 276.014898,24.3621254 276.024865,23.8870391 L276.024865,23.3587989 Z M275.162737,22.6960069 C275.425197,22.6627841 275.612903,22.6212562 275.725861,22.5714219 C275.92852,22.4850426 276.029848,22.3504922 276.029848,22.1677667 C276.029848,21.9451737 275.952606,21.7915205 275.79812,21.7068023 C275.643634,21.6220841 275.416892,21.5797256 275.117886,21.5797256 C274.782336,21.5797256 274.544796,21.6627815 274.40526,21.8288956 C274.305592,21.95182 274.239147,22.1179316 274.205924,22.3272354 L272.83549,22.3272354 C272.86539,21.852149 272.998279,21.4617867 273.234162,21.1561368 C273.609579,20.6777281 274.254092,20.4385274 275.16772,20.4385274 C275.762409,20.4385274 276.290644,20.5564667 276.752441,20.7923487 C277.214238,21.0282307 277.445133,21.4734099 277.445133,22.1278995 L277.445133,24.6195987 C277.445133,24.7923573 277.448455,25.001658 277.4551,25.2475068 C277.465067,25.4335546 277.493306,25.5597995 277.539818,25.6262451 C277.58633,25.6926908 277.656097,25.7475076 277.74912,25.7906973 L277.74912,26 L276.204267,26 C276.161077,25.8903647 276.131177,25.7873755 276.114566,25.6910293 C276.097954,25.5946831 276.084665,25.4850494 276.074699,25.362125 C275.878684,25.5747511 275.652772,25.7558127 275.396956,25.9053154 C275.091306,26.0813964 274.745794,26.1694355 274.36041,26.1694355 C273.868712,26.1694355 273.462569,26.0290712 273.141969,25.7483384 C272.821368,25.4676055 272.661071,25.0697682 272.661071,24.5548145 C272.661071,23.8870358 272.918544,23.4036509 273.433497,23.1046455 C273.715891,22.9418537 274.13117,22.8255756 274.679347,22.7558077 L275.162737,22.6960069 Z M281.950125,22.5166045 C281.923547,22.3139453 281.855441,22.1312225 281.745806,21.9684307 C281.586336,21.7491601 281.33883,21.6395264 281.00328,21.6395264 C280.524871,21.6395264 280.197631,21.877066 280.02155,22.3521524 C279.928526,22.6046458 279.882015,22.9401913 279.882015,23.3587989 C279.882015,23.7574727 279.928526,24.0780681 280.02155,24.3205947 C280.190987,24.7724251 280.509921,24.9983369 280.978363,24.9983369 C281.310591,24.9983369 281.546469,24.9086367 281.686005,24.7292334 C281.825541,24.5498302 281.910258,24.3172739 281.940158,24.0315576 L283.390327,24.0315576 C283.357105,24.4634543 283.20096,24.8720889 282.921888,25.2574736 C282.476702,25.8787404 281.817239,26.1893691 280.943479,26.1893691 C280.069719,26.1893691 279.426867,25.930235 279.014904,25.411959 C278.602941,24.893683 278.396962,24.2209309 278.396962,23.3936827 C278.396962,22.4601214 278.624535,21.7342136 279.079688,21.2159376 C279.53484,20.6976615 280.162742,20.4385274 280.963412,20.4385274 C281.64448,20.4385274 282.201785,20.5913501 282.635343,20.8970001 C283.0689,21.20265 283.325543,21.7425128 283.405278,22.5166045 L281.950125,22.5166045 Z M283.823883,21.6295596 L283.823883,20.6179298 L284.58136,20.6179298 L284.58136,19.1029767 L285.986678,19.1029767 L285.986678,20.6179298 L286.868739,20.6179298 L286.868739,21.6295596 L285.986678,21.6295596 L285.986678,24.4999971 C285.986678,24.72259 286.014917,24.8612932 286.071396,24.9161109 C286.127875,24.9709285 286.300631,24.9983369 286.589669,24.9983369 C286.632859,24.9983369 286.67854,24.9975064 286.726713,24.9958452 C286.774886,24.9941841 286.822228,24.9916924 286.868739,24.9883701 L286.868739,26.049834 L286.195981,26.074751 C285.52488,26.098007 285.066412,25.9817288 284.820563,25.7259131 C284.661093,25.5631213 284.58136,25.3122927 284.58136,24.9734199 L284.58136,21.6295596 L283.823883,21.6295596 Z M290.730873,18.6544708 L292.290677,18.6544708 L292.290677,23.1694297 C292.290677,23.6744166 292.350477,24.0431844 292.470079,24.2757442 C292.656127,24.6877072 293.061439,24.8936856 293.686028,24.8936856 C294.307295,24.8936856 294.710946,24.6877072 294.896994,24.2757442 C295.016596,24.0431844 295.076397,23.6744166 295.076397,23.1694297 L295.076397,18.6544708 L296.6362,18.6544708 L296.6362,23.1694297 C296.6362,23.950166 296.514939,24.5581346 296.272412,24.9933535 C295.820582,25.7907013 294.958463,26.1893691 293.686028,26.1893691 C292.413594,26.1893691 291.549814,25.7907013 291.094661,24.9933535 C290.852135,24.5581346 290.730873,23.950166 290.730873,23.1694297 L290.730873,18.6544708 Z M299.093016,24.2657774 C299.122916,24.5182708 299.1877,24.6976714 299.287368,24.8039844 C299.463449,24.9933545 299.789028,25.0880381 300.264114,25.0880381 C300.543186,25.0880381 300.764945,25.0465102 300.929398,24.9634531 C301.093851,24.8803961 301.176076,24.7558124 301.176076,24.5896983 C301.176076,24.4302287 301.109632,24.3089672 300.97674,24.2259102 C300.843849,24.1428531 300.350497,23.9999971 299.496671,23.7973379 C298.882049,23.6445129 298.448497,23.4534846 298.196004,23.2242471 C297.943511,22.9983319 297.817266,22.6727531 297.817266,22.247501 C297.817266,21.7458364 298.014108,21.3147768 298.407798,20.9543091 C298.801489,20.5938415 299.355471,20.4136104 300.069762,20.4136104 C300.747507,20.4136104 301.299828,20.5489914 301.726742,20.8197574 C302.153655,21.0905234 302.39867,21.5581276 302.461793,22.222584 L301.041524,22.222584 C301.021591,22.0398585 300.970096,21.8953414 300.887039,21.7890284 C300.730892,21.596336 300.465113,21.4999913 300.089695,21.4999913 C299.780723,21.4999913 299.560625,21.5481636 299.429395,21.6445098 C299.298165,21.740856 299.232551,21.8538119 299.232551,21.9833809 C299.232551,22.1461727 299.302318,22.264112 299.441854,22.3372022 C299.581389,22.4136147 300.074741,22.5448429 300.921923,22.7308907 C301.486711,22.863782 301.910295,23.064777 302.192689,23.3338819 C302.471761,23.606309 302.611295,23.9468378 302.611295,24.3554785 C302.611295,24.8936883 302.41113,25.3330535 302.010795,25.6735874 C301.61046,26.0141213 300.991695,26.1843857 300.15448,26.1843857 C299.300653,26.1843857 298.670259,26.0041546 298.26328,25.643687 C297.8563,25.2832194 297.652814,24.8239208 297.652814,24.2657774 L299.093016,24.2657774 Z" id="Home-About-Blog-Cont" fill="#4A4A4A"></path>
            </g>
        </g>
    </g>
</svg>