<?xml version="1.0" encoding="UTF-8"?>
<svg width="320px" height="41px" viewBox="0 0 320 41" version="1.1" xmlns="http://www.w3.org/2000/svg" xmlns:xlink="http://www.w3.org/1999/xlink">
    <!-- Generator: Sketch 52.5 (67469) - http://www.bohemiancoding.com/sketch -->
    <title>navbar-items</title>
    <desc>Created with Sketch.</desc>
    <g id="Page-1" stroke="none" stroke-width="1" fill="none" fill-rule="evenodd">
        <g id="navbar-items" transform="translate(1.000000, 1.000000)">
            <path d="M0.45799998,38.542 L317.542,38.542 L317.542,10.6639998 C317.542,5.02738176 312.972618,0.45799998 307.336,0.45799998 L10.6639998,0.45799998 C5.02738176,0.45799998 0.45799998,5.02738176 0.45799998,10.6639998 L0.45799998,38.542 Z" id="Rectangle-2-Copy-56" stroke="#9B9B9B" stroke-width="2.91599996" fill="#FFFFFF"></path>
            <g id="brand-copy-25" transform="translate(19.000000, 15.000000)" fill="#4A4A4A">
                <g id="#000000ff">
                    <path d="M0.0435584396,0 L2.10979221,0 C2.13771428,1.07386139 2.11202597,2.14772277 2.12431169,3.22158416 C3.44,2.40475248 5.23483117,2.48861386 6.50696104,3.34683168 C7.46077922,3.97960396 8.17111688,4.98594059 8.34088311,6.10772277 C8.4414026,6.82653465 8.3944935,7.57693069 8.12867532,8.25980198 C7.53114286,9.79217822 5.94628571,10.9379208 4.24638961,10.9281188 C3.33948052,10.9738614 2.45379221,10.6427723 1.76020779,10.0829703 C1.30898701,10.5316832 0.680181816,10.7582178 0.037974024,10.6689109 C0.0234545435,7.1129703 0.0111688292,3.55594059 0.0435584396,0 Z M3.72703896,4.73653465 C2.93628571,4.88138614 2.26280519,5.50435644 2.06623376,6.26346535 C1.7334026,7.40811881 2.58335065,8.70742574 3.79963636,8.8609901 C5.07288311,9.11366337 6.37293506,8.01366337 6.29698701,6.75029703 C6.32379221,5.49128713 4.98241558,4.44574257 3.72703896,4.73653465 Z" id="Shape" fill-rule="nonzero"></path>
                    <path d="M12.0522857,2.68683168 C12.9848831,2.61168317 13.9409351,2.6890099 14.8366753,2.96564356 C14.848961,3.61366337 14.8500779,4.26277228 14.8389091,4.91079208 C14.8188052,4.95980198 14.7785974,5.06 14.7573766,5.11009901 C13.932,4.70059406 12.9737143,4.61019802 12.0634545,4.70712871 C11.8177403,4.72128713 11.4100779,4.89990099 11.6278701,5.19069307 C12.4420779,5.61653465 13.3143636,5.93237624 14.122987,6.3680198 C15.0354805,6.87118812 15.5235584,7.9929703 15.2354026,8.97970297 C15.0611688,9.68217822 14.5563377,10.2942574 13.8795065,10.5937624 C12.8318701,11.0620792 11.6245195,10.9956436 10.5255065,10.7549505 C10.1547013,10.6950495 9.79841558,10.4075248 9.78612987,10.0219802 C9.76714286,9.45782178 9.75932468,8.89257426 9.79953247,8.33059406 C10.7600519,8.75752475 11.8601818,9.09188119 12.9122857,8.7880198 C13.2417662,8.71613861 13.3288831,8.25653465 13.053013,8.07138614 C12.1416364,7.5170297 11.0426234,7.27742574 10.196026,6.61851485 C9.3874026,5.9160396 9.26677922,4.61782178 9.8967013,3.76613861 C10.3691429,3.07455446 11.2313766,2.75326733 12.0522857,2.68683168 Z" id="Shape"></path>
                    <path d="M17.6958961,3.53415842 C18.5581299,2.79356436 19.7677143,2.60188119 20.8801299,2.66940594 C21.8216623,2.71732673 22.7888831,3.02663366 23.4534286,3.7029703 C23.9426234,4.18871287 24.1905714,4.87267327 24.1794026,5.5490099 C24.184987,7.25019802 24.1872208,8.95138614 24.1794026,10.6525743 C23.6779221,10.6874257 23.1730909,10.679802 22.6716104,10.6667327 C22.3376623,10.6645545 22.0629091,10.3421782 22.0885974,10.0241584 C22.0796623,8.53534653 22.0908312,7.04653465 22.0841299,5.55772277 C22.1087013,5.27237624 21.9076623,5.01752475 21.642961,4.91514851 C21.0554805,4.6570297 20.3797662,4.65811881 19.7565455,4.77029703 C19.387974,4.84544554 18.9244675,5.03386139 18.890961,5.45643564 C18.8552208,7.19138614 18.9088312,8.92742574 18.8652727,10.6623762 C18.175039,10.6787129 17.4848052,10.6863366 16.7945714,10.6580198 C16.7733506,8.95465347 16.7901039,7.25128713 16.7867532,5.54792079 C16.7767013,4.78990099 17.095013,4.02534653 17.6958961,3.53415842 Z" id="Shape"></path>
                    <path d="M27.6640779,3.13118812 C29.0344935,2.41891089 30.8728831,2.47445545 32.0612468,3.50910891 C32.4945974,3.04405941 33.1323377,2.83712871 33.768961,2.91990099 C33.7924156,5.50326733 33.8013506,8.08881188 33.7633766,10.6721782 C33.1312208,10.7462376 32.4968312,10.5425743 32.0634805,10.0818812 C31.3732468,10.6351485 30.4998442,10.9716832 29.5985195,10.9281188 C28.0382338,10.9455446 26.5583636,9.99366337 25.8647792,8.64643564 C25.4236104,7.82089109 25.3297922,6.8450495 25.5073766,5.93673267 C25.7374545,4.74415842 26.5907532,3.71821782 27.6640779,3.13118812 Z M29.3036623,4.72891089 C28.1990649,4.87594059 27.3614026,5.98247525 27.5311688,7.05524752 C27.6383896,8.04851485 28.5732208,8.88712871 29.6018701,8.8860396 C30.7846494,8.96118812 31.8747273,7.91019802 31.8121818,6.75465347 C31.8434545,5.51524752 30.5467532,4.47188119 29.3036623,4.72891089 Z" id="Shape" fill-rule="nonzero"></path>
                    <path d="M34.6445974,2.93950495 C35.1583636,2.89376238 35.6754805,2.9209901 36.1903636,2.91336634 C36.415974,2.92207921 36.6706234,2.90465347 36.8549091,3.0549505 C37.0213247,3.19653465 37.0995065,3.40455446 37.1933247,3.5929703 C37.7227273,4.78881188 38.2666494,5.97811881 38.7960519,7.17287129 C39.4427273,5.77554455 40.0547792,4.3629703 40.6981039,2.96455446 C41.4285455,2.85455446 42.1991948,2.9329703 42.9441558,2.92970297 C42.8793766,3.25316832 42.7196623,3.54613861 42.5867532,3.84673267 C41.6172987,5.98792079 40.6601299,8.13455446 39.6873247,10.2746535 C39.3947013,11.0054455 38.1225714,10.9640594 37.8846753,10.2093069 C36.9632468,8.17049505 36.0485195,6.12950495 35.1282078,4.09069307 C34.9651429,3.70732673 34.7607532,3.34029703 34.6445974,2.93950495 Z" id="Shape"></path>
                </g>
            </g>
            <rect id="Rectangle-5" fill="#4A4A4A" x="159" y="11" width="48" height="21"></rect>
            <path d="M125.861785,25 L125.861785,17.6544708 L127.381721,17.6544708 L127.381721,20.4551407 L130.252159,20.4551407 L130.252159,17.6544708 L131.777078,17.6544708 L131.777078,25 L130.252159,25 L130.252159,21.7209239 L127.381721,21.7209239 L127.381721,25 L125.861785,25 Z M135.564461,23.9983369 C135.979746,23.9983369 136.298681,23.8504976 136.521274,23.5548145 C136.743867,23.2591314 136.855161,22.838869 136.855161,22.2940147 C136.855161,21.7491604 136.743867,21.3297286 136.521274,21.0357066 C136.298681,20.7416846 135.979746,20.5946758 135.564461,20.5946758 C135.149176,20.5946758 134.829411,20.7416846 134.605157,21.0357066 C134.380903,21.3297286 134.268778,21.7491604 134.268778,22.2940147 C134.268778,22.838869 134.380903,23.2591314 134.605157,23.5548145 C134.829411,23.8504976 135.149176,23.9983369 135.564461,23.9983369 Z M138.345197,22.2940147 C138.345197,23.0913624 138.115963,23.7732506 137.657489,24.3396997 C137.199014,24.9061488 136.503006,25.1893691 135.569445,25.1893691 C134.635883,25.1893691 133.939876,24.9061488 133.481401,24.3396997 C133.022926,23.7732506 132.793692,23.0913624 132.793692,22.2940147 C132.793692,21.5099561 133.022926,20.8305596 133.481401,20.2558048 C133.939876,19.6810499 134.635883,19.3936768 135.569445,19.3936768 C136.503006,19.3936768 137.199014,19.6810499 137.657489,20.2558048 C138.115963,20.8305596 138.345197,21.5099561 138.345197,22.2940147 Z M145.43159,19.4484942 C145.670794,19.4484942 145.906673,19.4950055 146.139233,19.5880294 C146.371792,19.6810533 146.582754,19.8438427 146.772124,20.0764024 C146.924949,20.2657725 147.027938,20.4983288 147.081095,20.7740782 C147.114318,20.9568037 147.130929,21.2242434 147.130929,21.5764053 L147.120962,25 L145.66581,25 L145.66581,21.5415215 C145.66581,21.33554 145.632587,21.1661062 145.566142,21.0332149 C145.439895,20.7807214 145.207339,20.6544766 144.868466,20.6544766 C144.476437,20.6544766 144.205675,20.817266 144.056172,21.1428497 C143.97976,21.3156083 143.941554,21.5232479 143.941554,21.7657745 L143.941554,25 L142.511319,25 L142.511319,21.7657745 C142.511319,21.4435131 142.478096,21.2092957 142.411651,21.0631153 C142.292048,20.800655 142.057831,20.6694268 141.708991,20.6694268 C141.303673,20.6694268 141.03125,20.800655 140.891714,21.0631153 C140.815302,21.212618 140.777096,21.4352076 140.777096,21.7308907 L140.777096,25 L139.336894,25 L139.336894,19.5780626 L140.717295,19.5780626 L140.717295,20.3704229 C140.893376,20.0880289 141.059488,19.8870339 141.215635,19.7674317 C141.491384,19.5548056 141.848524,19.4484942 142.287066,19.4484942 C142.702351,19.4484942 143.037896,19.5398556 143.293712,19.7225811 C143.499694,19.8920175 143.655838,20.1096237 143.762152,20.3754063 C143.948199,20.0564672 144.179094,19.8222498 144.454844,19.6727471 C144.747205,19.5232444 145.072783,19.4484942 145.43159,19.4484942 Z M150.57944,20.5946758 C150.250535,20.5946758 149.995553,20.697665 149.814489,20.9036465 C149.633424,21.109628 149.519638,21.3886956 149.473126,21.7408575 L151.680772,21.7408575 C151.657516,21.3654396 151.543729,21.0805582 151.339409,20.8862046 C151.135088,20.6918511 150.881768,20.5946758 150.57944,20.5946758 Z M150.57944,19.4235772 C151.031271,19.4235772 151.438244,19.5082941 151.800373,19.6777305 C152.162502,19.8471669 152.461503,20.1146066 152.697385,20.4800577 C152.910011,20.802319 153.047883,21.1760702 153.111007,21.6013223 C153.147552,21.8504935 153.162502,22.2092946 153.155857,22.6777364 L149.438242,22.6777364 C149.458176,23.2225906 149.629271,23.6046474 149.951532,23.823918 C150.147547,23.9601316 150.383425,24.0282373 150.659175,24.0282373 C150.951536,24.0282373 151.189075,23.9451815 151.371801,23.7790674 C151.471469,23.6893658 151.559508,23.5647821 151.635921,23.4053125 L153.08609,23.4053125 C153.049545,23.7275739 152.881772,24.0548138 152.582767,24.387042 C152.117647,24.9152849 151.46649,25.1794023 150.629274,25.1794023 C149.93824,25.1794023 149.32861,24.9568128 148.800367,24.511627 C148.272124,24.0664411 148.008007,23.3421945 148.008007,22.3388653 C148.008007,21.3986594 148.246377,20.677735 148.723125,20.1760704 C149.199872,19.6744058 149.818638,19.4235772 150.57944,19.4235772 Z M213.544679,18.9302208 L213.544679,20.5498253 L215.348669,20.5498253 C215.67093,20.5498253 215.932556,20.4891945 216.133554,20.3679312 C216.334552,20.2466679 216.43505,20.0315534 216.43505,19.7225811 C216.43505,19.3803861 216.302161,19.1544743 216.036378,19.0448389 C215.807141,18.9684265 215.514784,18.9302208 215.1593,18.9302208 L213.544679,18.9302208 Z M213.544679,21.7657745 L213.544679,23.72425 L215.348669,23.72425 C215.67093,23.72425 215.921759,23.681061 216.101162,23.5946817 C216.426746,23.4352121 216.589535,23.1295667 216.589535,22.6777364 C216.589535,22.2956739 216.431729,22.0332176 216.116112,21.8903594 C215.940032,21.8106246 215.692525,21.7690967 215.373586,21.7657745 L213.544679,21.7657745 Z M215.647673,17.6544708 C216.548011,17.6677599 217.18588,17.9285552 217.561298,18.4368643 C217.787213,18.7491589 217.900169,19.12291 217.900169,19.558129 C217.900169,20.0066371 217.787213,20.3670993 217.561298,20.6395264 C217.435051,20.7923514 217.249006,20.9318852 217.003157,21.0581319 C217.378575,21.1943455 217.661796,21.4102906 217.852827,21.7059737 C218.043858,22.0016568 218.139372,22.3604579 218.139372,22.7823877 C218.139372,23.2176067 218.029739,23.607969 217.810468,23.9534863 C217.670932,24.1827238 217.496515,24.3754133 217.287211,24.5315606 C217.051329,24.7109638 216.773092,24.8338864 216.452492,24.900332 C216.131892,24.9667777 215.783888,25 215.40847,25 L212.07956,25 L212.07956,17.6544708 L215.647673,17.6544708 Z M220.76064,25 L219.340371,25 L219.340371,17.6544708 L220.76064,17.6544708 L220.76064,25 Z M224.582906,23.9983369 C224.998192,23.9983369 225.317126,23.8504976 225.539719,23.5548145 C225.762312,23.2591314 225.873606,22.838869 225.873606,22.2940147 C225.873606,21.7491604 225.762312,21.3297286 225.539719,21.0357066 C225.317126,20.7416846 224.998192,20.5946758 224.582906,20.5946758 C224.167621,20.5946758 223.847856,20.7416846 223.623602,21.0357066 C223.399348,21.3297286 223.287223,21.7491604 223.287223,22.2940147 C223.287223,22.838869 223.399348,23.2591314 223.623602,23.5548145 C223.847856,23.8504976 224.167621,23.9983369 224.582906,23.9983369 Z M227.363643,22.2940147 C227.363643,23.0913624 227.134409,23.7732506 226.675934,24.3396997 C226.217459,24.9061488 225.521451,25.1893691 224.58789,25.1893691 C223.654328,25.1893691 222.958321,24.9061488 222.499846,24.3396997 C222.041371,23.7732506 221.812137,23.0913624 221.812137,22.2940147 C221.812137,21.5099561 222.041371,20.8305596 222.499846,20.2558048 C222.958321,19.6810499 223.654328,19.3936768 224.58789,19.3936768 C225.521451,19.3936768 226.217459,19.6810499 226.675934,20.2558048 C227.134409,20.8305596 227.363643,21.5099561 227.363643,22.2940147 Z M230.712486,23.8338848 C231.044715,23.8338848 231.325443,23.7084705 231.554681,23.4576382 C231.783918,23.2068059 231.898535,22.8073075 231.898535,22.2591309 C231.898535,21.7441772 231.789732,21.3521537 231.572123,21.0830489 C231.354513,20.813944 231.062987,20.6793936 230.697536,20.6793936 C230.199194,20.6793936 229.855343,20.913611 229.665973,21.3820528 C229.566304,21.6312239 229.516471,21.9385304 229.516471,22.3039815 C229.516471,22.6195983 229.569626,22.9003269 229.675939,23.1461758 C229.868632,23.6046507 230.214144,23.8338848 230.712486,23.8338848 Z M230.358665,19.4385274 C230.631092,19.4385274 230.868632,19.4800553 231.071291,19.5631124 C231.416808,19.7059705 231.695876,19.9684269 231.908502,20.3504893 L231.908502,19.5680958 L233.288903,19.5680958 L233.288903,24.7209297 C233.288903,25.4219312 233.170964,25.9501662 232.935082,26.3056504 C232.529764,26.9169503 231.752361,27.2225957 230.602852,27.2225957 C229.908495,27.2225957 229.342054,27.0863841 228.903513,26.813957 C228.464971,26.5415299 228.222448,26.1345564 228.175937,25.5930244 L229.72079,25.5930244 C229.760657,25.7591385 229.825441,25.8787389 229.915143,25.9518291 C230.067968,26.0813981 230.325441,26.1461816 230.687569,26.1461816 C231.199201,26.1461816 231.541391,25.9750867 231.714149,25.6328916 C231.827107,25.413621 231.883585,25.0448532 231.883585,24.5265772 L231.883585,24.1777393 C231.747371,24.410299 231.601193,24.5847162 231.445046,24.7009961 C231.162652,24.9169444 230.795545,25.024917 230.343715,25.024917 C229.646036,25.024917 229.088731,24.7799024 228.671785,24.2898657 C228.254838,23.7998291 228.046368,23.1362132 228.046368,22.2989981 C228.046368,21.4916835 228.247363,20.8131176 228.649359,20.2632798 C229.051356,19.7134421 229.621118,19.4385274 230.358665,19.4385274 Z M248.587936,21.3870362 C248.587936,20.1046353 248.931787,19.1162711 249.6195,18.4219141 C250.217511,17.8172588 250.978302,17.5149356 251.901896,17.5149356 C253.137785,17.5149356 254.041432,17.920248 254.612865,18.7308848 C254.928482,19.1860375 255.097916,19.6428445 255.121172,20.1013194 L253.586285,20.1013194 C253.486616,19.7491575 253.35871,19.4833789 253.202563,19.3039757 C252.923491,18.9850366 252.509874,18.8255694 251.961697,18.8255694 C251.403554,18.8255694 250.963358,19.0506507 250.641096,19.5008199 C250.318835,19.9509891 250.157707,20.5880272 250.157707,21.4119532 C250.157707,22.2358792 250.327971,22.8529838 250.668505,23.2632857 C251.009039,23.6735875 251.44176,23.8787354 251.96668,23.8787354 C252.50489,23.8787354 252.915186,23.7026571 253.19758,23.3504951 C253.353727,23.1611251 253.483294,22.8770742 253.586285,22.498334 L255.106221,22.498334 C254.97333,23.299004 254.633632,23.9501616 254.087116,24.4518262 C253.540601,24.9534908 252.84044,25.2043193 251.986614,25.2043193 C250.930128,25.2043193 250.09957,24.8654516 249.494915,24.1877061 C248.890259,23.5066382 248.587936,22.5730909 248.587936,21.3870362 Z M258.599584,23.9983369 C259.014869,23.9983369 259.333803,23.8504976 259.556396,23.5548145 C259.778989,23.2591314 259.890284,22.838869 259.890284,22.2940147 C259.890284,21.7491604 259.778989,21.3297286 259.556396,21.0357066 C259.333803,20.7416846 259.014869,20.5946758 258.599584,20.5946758 C258.184298,20.5946758 257.864533,20.7416846 257.640279,21.0357066 C257.416025,21.3297286 257.3039,21.7491604 257.3039,22.2940147 C257.3039,22.838869 257.416025,23.2591314 257.640279,23.5548145 C257.864533,23.8504976 258.184298,23.9983369 258.599584,23.9983369 Z M261.38032,22.2940147 C261.38032,23.0913624 261.151086,23.7732506 260.692611,24.3396997 C260.234136,24.9061488 259.538128,25.1893691 258.604567,25.1893691 C257.671006,25.1893691 256.974998,24.9061488 256.516523,24.3396997 C256.058048,23.7732506 255.828814,23.0913624 255.828814,22.2940147 C255.828814,21.5099561 256.058048,20.8305596 256.516523,20.2558048 C256.974998,19.6810499 257.671006,19.3936768 258.604567,19.3936768 C259.538128,19.3936768 260.234136,19.6810499 260.692611,20.2558048 C261.151086,20.8305596 261.38032,21.5099561 261.38032,22.2940147 Z M265.406906,19.4385274 C265.968371,19.4385274 266.42767,19.5855362 266.784815,19.8795582 C267.141961,20.1735801 267.320531,20.6611177 267.320531,21.3421856 L267.320531,25 L265.865378,25 L265.865378,21.6960069 C265.865378,21.4102906 265.827173,21.1910233 265.75076,21.0381983 C265.611224,20.7591266 265.345446,20.6195928 264.953417,20.6195928 C264.471686,20.6195928 264.141123,20.8239101 263.96172,21.2325508 C263.868696,21.4484992 263.822185,21.7242445 263.822185,22.059795 L263.822185,25 L262.4069,25 L262.4069,19.5780626 L263.777334,19.5780626 L263.777334,20.3704229 C263.96006,20.0913512 264.132816,19.8903562 264.295608,19.7674317 C264.587969,19.5481611 264.958398,19.4385274 265.406906,19.4385274 Z M268.073024,20.6295596 L268.073024,19.6179298 L268.8305,19.6179298 L268.8305,18.1029767 L270.235819,18.1029767 L270.235819,19.6179298 L271.11788,19.6179298 L271.11788,20.6295596 L270.235819,20.6295596 L270.235819,23.4999971 C270.235819,23.72259 270.264058,23.8612932 270.320537,23.9161109 C270.377015,23.9709285 270.549771,23.9983369 270.83881,23.9983369 C270.882,23.9983369 270.92768,23.9975064 270.975853,23.9958452 C271.024027,23.9941841 271.071368,23.9916924 271.11788,23.9883701 L271.11788,25.049834 L270.445122,25.074751 C269.774021,25.098007 269.315552,24.9817288 269.069704,24.7259131 C268.910234,24.5631213 268.8305,24.3122927 268.8305,23.9734199 L268.8305,20.6295596 L268.073024,20.6295596 Z M275.024865,22.3587989 C274.935163,22.4152777 274.844632,22.4609584 274.753269,22.4958423 C274.661907,22.5307263 274.536492,22.563118 274.377023,22.5930186 L274.058085,22.6528194 C273.75908,22.7059759 273.544796,22.7707594 273.415227,22.8471719 C273.195956,22.9767409 273.086323,23.177736 273.086323,23.4501631 C273.086323,23.6926897 273.153598,23.8679375 273.28815,23.9759116 C273.422703,24.0838858 273.586323,24.1378721 273.779015,24.1378721 C274.084665,24.1378721 274.366224,24.0481718 274.623701,23.8687686 C274.881178,23.6893653 275.014898,23.3621254 275.024865,22.8870391 L275.024865,22.3587989 Z M274.162737,21.6960069 C274.425197,21.6627841 274.612903,21.6212562 274.725861,21.5714219 C274.92852,21.4850426 275.029848,21.3504922 275.029848,21.1677667 C275.029848,20.9451737 274.952606,20.7915205 274.79812,20.7068023 C274.643634,20.6220841 274.416892,20.5797256 274.117886,20.5797256 C273.782336,20.5797256 273.544796,20.6627815 273.40526,20.8288956 C273.305592,20.95182 273.239147,21.1179316 273.205924,21.3272354 L271.83549,21.3272354 C271.86539,20.852149 271.998279,20.4617867 272.234162,20.1561368 C272.609579,19.6777281 273.254092,19.4385274 274.16772,19.4385274 C274.762409,19.4385274 275.290644,19.5564667 275.752441,19.7923487 C276.214238,20.0282307 276.445133,20.4734099 276.445133,21.1278995 L276.445133,23.6195987 C276.445133,23.7923573 276.448455,24.001658 276.4551,24.2475068 C276.465067,24.4335546 276.493306,24.5597995 276.539818,24.6262451 C276.58633,24.6926908 276.656097,24.7475076 276.74912,24.7906973 L276.74912,25 L275.204267,25 C275.161077,24.8903647 275.131177,24.7873755 275.114566,24.6910293 C275.097954,24.5946831 275.084665,24.4850494 275.074699,24.362125 C274.878684,24.5747511 274.652772,24.7558127 274.396956,24.9053154 C274.091306,25.0813964 273.745794,25.1694355 273.36041,25.1694355 C272.868712,25.1694355 272.462569,25.0290712 272.141969,24.7483384 C271.821368,24.4676055 271.661071,24.0697682 271.661071,23.5548145 C271.661071,22.8870358 271.918544,22.4036509 272.433497,22.1046455 C272.715891,21.9418537 273.13117,21.8255756 273.679347,21.7558077 L274.162737,21.6960069 Z M280.950125,21.5166045 C280.923547,21.3139453 280.855441,21.1312225 280.745806,20.9684307 C280.586336,20.7491601 280.33883,20.6395264 280.00328,20.6395264 C279.524871,20.6395264 279.197631,20.877066 279.02155,21.3521524 C278.928526,21.6046458 278.882015,21.9401913 278.882015,22.3587989 C278.882015,22.7574727 278.928526,23.0780681 279.02155,23.3205947 C279.190987,23.7724251 279.509921,23.9983369 279.978363,23.9983369 C280.310591,23.9983369 280.546469,23.9086367 280.686005,23.7292334 C280.825541,23.5498302 280.910258,23.3172739 280.940158,23.0315576 L282.390327,23.0315576 C282.357105,23.4634543 282.20096,23.8720889 281.921888,24.2574736 C281.476702,24.8787404 280.817239,25.1893691 279.943479,25.1893691 C279.069719,25.1893691 278.426867,24.930235 278.014904,24.411959 C277.602941,23.893683 277.396962,23.2209309 277.396962,22.3936827 C277.396962,21.4601214 277.624535,20.7342136 278.079688,20.2159376 C278.53484,19.6976615 279.162742,19.4385274 279.963412,19.4385274 C280.64448,19.4385274 281.201785,19.5913501 281.635343,19.8970001 C282.0689,20.20265 282.325543,20.7425128 282.405278,21.5166045 L280.950125,21.5166045 Z M282.823883,20.6295596 L282.823883,19.6179298 L283.58136,19.6179298 L283.58136,18.1029767 L284.986678,18.1029767 L284.986678,19.6179298 L285.868739,19.6179298 L285.868739,20.6295596 L284.986678,20.6295596 L284.986678,23.4999971 C284.986678,23.72259 285.014917,23.8612932 285.071396,23.9161109 C285.127875,23.9709285 285.300631,23.9983369 285.589669,23.9983369 C285.632859,23.9983369 285.67854,23.9975064 285.726713,23.9958452 C285.774886,23.9941841 285.822228,23.9916924 285.868739,23.9883701 L285.868739,25.049834 L285.195981,25.074751 C284.52488,25.098007 284.066412,24.9817288 283.820563,24.7259131 C283.661093,24.5631213 283.58136,24.3122927 283.58136,23.9734199 L283.58136,20.6295596 L282.823883,20.6295596 Z M289.730873,17.6544708 L291.290677,17.6544708 L291.290677,22.1694297 C291.290677,22.6744166 291.350477,23.0431844 291.470079,23.2757442 C291.656127,23.6877072 292.061439,23.8936856 292.686028,23.8936856 C293.307295,23.8936856 293.710946,23.6877072 293.896994,23.2757442 C294.016596,23.0431844 294.076397,22.6744166 294.076397,22.1694297 L294.076397,17.6544708 L295.6362,17.6544708 L295.6362,22.1694297 C295.6362,22.950166 295.514939,23.5581346 295.272412,23.9933535 C294.820582,24.7907013 293.958463,25.1893691 292.686028,25.1893691 C291.413594,25.1893691 290.549814,24.7907013 290.094661,23.9933535 C289.852135,23.5581346 289.730873,22.950166 289.730873,22.1694297 L289.730873,17.6544708 Z M298.093016,23.2657774 C298.122916,23.5182708 298.1877,23.6976714 298.287368,23.8039844 C298.463449,23.9933545 298.789028,24.0880381 299.264114,24.0880381 C299.543186,24.0880381 299.764945,24.0465102 299.929398,23.9634531 C300.093851,23.8803961 300.176076,23.7558124 300.176076,23.5896983 C300.176076,23.4302287 300.109632,23.3089672 299.97674,23.2259102 C299.843849,23.1428531 299.350497,22.9999971 298.496671,22.7973379 C297.882049,22.6445129 297.448497,22.4534846 297.196004,22.2242471 C296.943511,21.9983319 296.817266,21.6727531 296.817266,21.247501 C296.817266,20.7458364 297.014108,20.3147768 297.407798,19.9543091 C297.801489,19.5938415 298.355471,19.4136104 299.069762,19.4136104 C299.747507,19.4136104 300.299828,19.5489914 300.726742,19.8197574 C301.153655,20.0905234 301.39867,20.5581276 301.461793,21.222584 L300.041524,21.222584 C300.021591,21.0398585 299.970096,20.8953414 299.887039,20.7890284 C299.730892,20.596336 299.465113,20.4999913 299.089695,20.4999913 C298.780723,20.4999913 298.560625,20.5481636 298.429395,20.6445098 C298.298165,20.740856 298.232551,20.8538119 298.232551,20.9833809 C298.232551,21.1461727 298.302318,21.264112 298.441854,21.3372022 C298.581389,21.4136147 299.074741,21.5448429 299.921923,21.7308907 C300.486711,21.863782 300.910295,22.064777 301.192689,22.3338819 C301.471761,22.606309 301.611295,22.9468378 301.611295,23.3554785 C301.611295,23.8936883 301.41113,24.3330535 301.010795,24.6735874 C300.61046,25.0141213 299.991695,25.1843857 299.15448,25.1843857 C298.300653,25.1843857 297.670259,25.0041546 297.26328,24.643687 C296.8563,24.2832194 296.652814,23.8239208 296.652814,23.2657774 L298.093016,23.2657774 Z" id="Home-About-Blog-Cont" fill="#4A4A4A" fill-rule="nonzero"></path>
            <path d="M170.508051,17.6544708 L172.242273,17.6544708 L174.843607,25 L173.179152,25 L172.705729,23.4900303 L169.999744,23.4900303 L169.491437,25 L167.886783,25 L170.508051,17.6544708 Z M170.413366,22.2242471 L172.277157,22.2242471 L171.360212,19.3338761 L170.413366,22.2242471 Z M178.596106,19.4484942 C179.310397,19.4484942 179.869362,19.7059672 180.27302,20.220921 C180.676677,20.7358747 180.878503,21.4003212 180.878503,22.2142803 C180.878503,23.05814 180.679169,23.7574699 180.280495,24.312291 C179.881821,24.8671122 179.325347,25.1445186 178.611056,25.1445186 C178.162548,25.1445186 177.802086,25.0548183 177.529659,24.875415 C177.366867,24.769102 177.190789,24.583057 177.001419,24.3172744 L177.001419,25 L175.611051,25 L175.611051,17.6644376 L177.026336,17.6644376 L177.026336,20.2757383 C177.205739,20.0232449 177.403412,19.8305554 177.61936,19.6976641 C177.875176,19.53155 178.200755,19.4484942 178.596106,19.4484942 Z M178.232318,23.9734199 C178.597769,23.9734199 178.88182,23.8255806 179.084479,23.5298975 C179.287138,23.2342144 179.388466,22.8455132 179.388466,22.3637823 C179.388466,21.9783975 179.338633,21.6594632 179.238965,21.4069698 C179.049594,20.9285611 178.70076,20.6893604 178.192451,20.6893604 C177.677497,20.6893604 177.323679,20.9235778 177.130987,21.3920196 C177.031319,21.6411907 176.981485,21.9634473 176.981485,22.3587989 C176.981485,22.8239184 177.084474,23.2092973 177.290456,23.5149473 C177.496437,23.8205972 177.810388,23.9734199 178.232318,23.9734199 Z M187.112734,22.2940147 C187.112734,23.0913624 186.8835,23.7732506 186.425025,24.3396997 C185.96655,24.9061488 185.270542,25.1893691 184.336981,25.1893691 C183.40342,25.1893691 182.707412,24.9061488 182.248937,24.3396997 C181.790462,23.7732506 181.561228,23.0913624 181.561228,22.2940147 C181.561228,21.5099561 181.790462,20.8305596 182.248937,20.2558048 C182.707412,19.6810499 183.40342,19.3936768 184.336981,19.3936768 C185.270542,19.3936768 185.96655,19.6810499 186.425025,20.2558048 C186.8835,20.8305596 187.112734,21.5099561 187.112734,22.2940147 Z M184.331998,23.9983369 C184.747283,23.9983369 185.066217,23.8504976 185.28881,23.5548145 C185.511403,23.2591314 185.622698,22.838869 185.622698,22.2940147 C185.622698,21.7491604 185.511403,21.3297286 185.28881,21.0357066 C185.066217,20.7416846 184.747283,20.5946758 184.331998,20.5946758 C183.916712,20.5946758 183.596948,20.7416846 183.372693,21.0357066 C183.148439,21.3297286 183.036314,21.7491604 183.036314,22.2940147 C183.036314,22.838869 183.148439,23.2591314 183.372693,23.5548145 C183.596948,23.8504976 183.916712,23.9983369 184.331998,23.9983369 Z M189.544632,19.5680958 L189.544632,22.8421885 C189.544632,23.1511607 189.581177,23.383717 189.654267,23.5398643 C189.783836,23.8156137 190.037987,23.9534863 190.416727,23.9534863 C190.90178,23.9534863 191.234003,23.7574746 191.413407,23.3654453 C191.506431,23.1528193 191.552942,22.8720906 191.552942,22.523251 L191.552942,19.5680958 L192.993144,19.5680958 L192.993144,25 L191.612743,25 L191.612743,24.2325567 C191.599454,24.2491681 191.566231,24.2990015 191.513075,24.3820586 C191.459918,24.4651157 191.396796,24.5382048 191.323706,24.6013281 C191.101113,24.8006651 190.885998,24.9368766 190.678355,25.0099668 C190.470713,25.083057 190.227359,25.1196016 189.948288,25.1196016 C189.144295,25.1196016 188.602771,24.8305673 188.3237,24.2524902 C188.167552,23.9335512 188.08948,23.4634553 188.08948,22.8421885 L188.08948,19.5680958 L189.544632,19.5680958 Z M193.805438,20.6295596 L193.805438,19.6179298 L194.562915,19.6179298 L194.562915,18.1029767 L195.968233,18.1029767 L195.968233,19.6179298 L196.850294,19.6179298 L196.850294,20.6295596 L195.968233,20.6295596 L195.968233,23.4999971 C195.968233,23.72259 195.996472,23.8612932 196.052951,23.9161109 C196.109429,23.9709285 196.282186,23.9983369 196.571224,23.9983369 C196.614414,23.9983369 196.660094,23.9975064 196.708268,23.9958452 C196.756441,23.9941841 196.803782,23.9916924 196.850294,23.9883701 L196.850294,25.049834 L196.177536,25.074751 C195.506435,25.098007 195.047967,24.9817288 194.802118,24.7259131 C194.642648,24.5631213 194.562915,24.3122927 194.562915,23.9734199 L194.562915,20.6295596 L193.805438,20.6295596 Z" id="Combined-Shape" fill="#FFFFFF"></path>
        </g>
    </g>
</svg>