<?xml version="1.0" encoding="UTF-8"?>
<svg width="178px" height="120px" viewBox="0 0 178 120" version="1.1" xmlns="http://www.w3.org/2000/svg" xmlns:xlink="http://www.w3.org/1999/xlink">
    <!-- Generator: Sketch 51.2 (57519) - http://www.bohemiancoding.com/sketch -->
    <title>Group 6</title>
    <desc>Created with Sketch.</desc>
    <defs></defs>
    <g id="Page-1" stroke="none" stroke-width="1" fill="none" fill-rule="evenodd">
        <g id="Desktop-HD" transform="translate(-514.000000, -782.000000)">
            <g id="Group-6" transform="translate(514.000000, 783.000000)">
                <rect id="Rectangle-2-Copy-9" stroke="#9B9B9B" stroke-width="1.61999991" fill="#F9F9F9" x="0.809999957" y="0.809999957" width="176.38" height="117.38" rx="6.47999966"></rect>
                <path d="M1,23 L1,6.34482759 C1,2.84067607 3.8653776,0 7.4,0 L170.6,0 C174.134622,0 177,2.84067607 177,6.34482759 L177,23" id="Rectangle-2-Copy-10" stroke="#9B9B9B" stroke-width="1.61999991" fill="#FFFFFF"></path>
                <g id="brand-copy-6" transform="translate(11.000000, 9.000000)" fill="#4A4A4A" fill-rule="nonzero">
                    <g id="#000000ff">
                        <path d="M0.0243116872,0 L1.17755844,0 C1.19314286,0.585742574 1.17880519,1.17148515 1.18566234,1.75722772 C1.92,1.31168317 2.92176623,1.35742574 3.63179221,1.82554455 C4.16415584,2.17069307 4.56062338,2.71960396 4.65537662,3.33148515 C4.71148052,3.72356436 4.6852987,4.13287129 4.53693506,4.50534653 C4.20342857,5.34118812 3.31885714,5.96613861 2.37007792,5.96079208 C1.8638961,5.98574257 1.36955844,5.80514851 0.982441557,5.49980198 C0.730597401,5.74455446 0.379636363,5.86811881 0.0211948041,5.81940594 C0.013090908,3.87980198 0.00623376512,1.93960396 0.0243116872,0 Z M2.08020779,2.58356436 C1.63885714,2.66257426 1.26296104,3.00237624 1.15324675,3.41643564 C0.967480518,4.04079208 1.44187013,4.74950495 2.12072727,4.83326733 C2.83137662,4.97108911 3.55698701,4.37108911 3.5145974,3.6819802 C3.52955844,2.99524752 2.78088312,2.4249505 2.08020779,2.58356436 Z" id="Shape"></path>
                        <path d="M6.72685714,1.46554455 C7.24737662,1.42455446 7.78098701,1.46673267 8.28093506,1.61762376 C8.28779221,1.97108911 8.28841558,2.32514851 8.28218182,2.67861386 C8.27096104,2.70534653 8.24851948,2.76 8.23667532,2.78732673 C7.776,2.5639604 7.24114286,2.51465347 6.73309091,2.56752475 C6.59594805,2.57524752 6.36841558,2.67267327 6.48997403,2.83128713 C6.94441558,3.06356436 7.43127273,3.23584158 7.8825974,3.47346535 C8.3918961,3.74792079 8.66431169,4.35980198 8.50348052,4.8980198 C8.40623377,5.28118812 8.12446753,5.6150495 7.7467013,5.77841584 C7.16197403,6.03386139 6.4881039,5.99762376 5.8747013,5.86633663 C5.66774026,5.83366337 5.46888312,5.67683168 5.46202597,5.46653465 C5.45142857,5.15881188 5.44706494,4.85049505 5.46950649,4.5439604 C6.00561039,4.77683168 6.61963636,4.95920792 7.20685714,4.79346535 C7.39075325,4.75425743 7.43937662,4.50356436 7.2854026,4.40257426 C6.77672727,4.10019802 6.16332468,3.96950495 5.69080519,3.61009901 C5.23948052,3.22693069 5.17215584,2.51881188 5.52374026,2.05425743 C5.78742857,1.6770297 6.26867532,1.50178218 6.72685714,1.46554455 Z" id="Shape"></path>
                        <path d="M9.87677922,1.92772277 C10.358026,1.52376238 11.0331429,1.41920792 11.654026,1.4560396 C12.1795325,1.48217822 12.7193766,1.65089109 13.0902857,2.01980198 C13.3633247,2.28475248 13.5017143,2.65782178 13.4954805,3.02673267 C13.4985974,3.95465347 13.4998442,4.88257426 13.4954805,5.81049505 C13.2155844,5.82950495 12.9338182,5.82534653 12.6539221,5.81821782 C12.4675325,5.8170297 12.3141818,5.64118812 12.3285195,5.46772277 C12.3235325,4.65564356 12.3297662,3.84356436 12.326026,3.03148515 C12.3397403,2.87584158 12.2275325,2.73683168 12.0797922,2.6809901 C11.7518961,2.54019802 11.3747532,2.54079208 11.0269091,2.6019802 C10.8211948,2.6429703 10.5624935,2.74574257 10.5437922,2.97623762 C10.5238442,3.92257426 10.5537662,4.86950495 10.5294545,5.81584158 C10.1442078,5.82475248 9.75896104,5.82891089 9.37371429,5.81346535 C9.36187013,4.88435644 9.37122078,3.95524752 9.36935065,3.02613861 C9.36374026,2.61267327 9.5414026,2.19564356 9.87677922,1.92772277 Z" id="Shape"></path>
                        <path d="M15.4404156,1.70792079 C16.2052987,1.31940594 17.2313766,1.34970297 17.8946494,1.91405941 C18.1365195,1.66039604 18.4924675,1.54752475 18.8477922,1.59267327 C18.8608831,3.00178218 18.8658701,4.41207921 18.8446753,5.82118812 C18.4918442,5.86158416 18.1377662,5.75049505 17.8958961,5.49920792 C17.5106494,5.8009901 17.0231688,5.98455446 16.5201039,5.96079208 C15.6492468,5.97029703 14.8232727,5.45108911 14.4361558,4.71623762 C14.1899221,4.26594059 14.1375584,3.73366337 14.2366753,3.23821782 C14.3650909,2.58772277 14.8413506,2.02811881 15.4404156,1.70792079 Z M16.3555325,2.57940594 C15.739013,2.65960396 15.2714805,3.26316832 15.3662338,3.84831683 C15.4260779,4.39009901 15.9478442,4.84752475 16.521974,4.84693069 C17.1821299,4.88792079 17.7905455,4.31465347 17.7556364,3.68435644 C17.7730909,3.00831683 17.0493506,2.43920792 16.3555325,2.57940594 Z" id="Shape"></path>
                        <path d="M19.3365195,1.60336634 C19.6232727,1.57841584 19.9118961,1.59326733 20.1992727,1.58910891 C20.3251948,1.59386139 20.4673247,1.58435644 20.5701818,1.66633663 C20.6630649,1.74356436 20.7067013,1.8570297 20.7590649,1.95980198 C21.0545455,2.61207921 21.3581299,3.26079208 21.6536104,3.91247525 C22.0145455,3.15029703 22.3561558,2.37980198 22.7152208,1.6170297 C23.1229091,1.5570297 23.553039,1.59980198 23.9688312,1.5980198 C23.9326753,1.77445545 23.8435325,1.93425743 23.7693506,2.09821782 C23.2282597,3.26613861 22.694026,4.4370297 22.1510649,5.60435644 C21.9877403,6.0029703 21.2777143,5.98039604 21.1449351,5.56871287 C20.6306494,4.45663366 20.1201039,3.34336634 19.6064416,2.23128713 C19.5154286,2.02217822 19.4013506,1.8219802 19.3365195,1.60336634 Z" id="Shape"></path>
                    </g>
                </g>
                <path d="M70.1454398,15 L70.1454398,10.9191506 L70.9898489,10.9191506 L70.9898489,12.4750783 L72.5845363,12.4750783 L72.5845363,10.9191506 L73.431714,10.9191506 L73.431714,15 L72.5845363,15 L72.5845363,13.1782911 L70.9898489,13.1782911 L70.9898489,15 L70.1454398,15 Z M75.5358154,14.4435205 C75.7665295,14.4435205 75.9437152,14.3613876 76.0673779,14.1971192 C76.1910406,14.0328508 76.2528711,13.7993717 76.2528711,13.4966749 C76.2528711,13.1939781 76.1910406,12.9609604 76.0673779,12.7976149 C75.9437152,12.6342693 75.7665295,12.5525978 75.5358154,12.5525978 C75.3051014,12.5525978 75.1274543,12.6342693 75.0028687,12.7976149 C74.8782831,12.9609604 74.8159913,13.1939781 74.8159913,13.4966749 C74.8159913,13.7993717 74.8782831,14.0328508 75.0028687,14.1971192 C75.1274543,14.3613876 75.3051014,14.4435205 75.5358154,14.4435205 Z M77.0806689,13.4966749 C77.0806689,13.9396458 76.9533166,14.3184726 76.6986084,14.6331665 C76.4439001,14.9478605 76.0572291,15.1052051 75.538584,15.1052051 C75.0199389,15.1052051 74.6332679,14.9478605 74.3785596,14.6331665 C74.1238514,14.3184726 73.9964991,13.9396458 73.9964991,13.4966749 C73.9964991,13.0610868 74.1238514,12.6836443 74.3785596,12.3643361 C74.6332679,12.0450279 75.0199389,11.8853761 75.538584,11.8853761 C76.0572291,11.8853761 76.4439001,12.0450279 76.6986084,12.3643361 C76.9533166,12.6836443 77.0806689,13.0610868 77.0806689,13.4966749 Z M81.0175534,11.9158302 C81.1504447,11.9158302 81.2814883,11.9416698 81.4106882,11.9933498 C81.539888,12.0450297 81.657089,12.1354683 81.7622946,12.2646681 C81.8471974,12.3698737 81.9044136,12.4990716 81.933945,12.6522657 C81.9524021,12.7537799 81.9616305,12.9023575 81.9616305,13.098003 L81.9560934,15 L81.1476755,15 L81.1476755,13.0786231 C81.1476755,12.964189 81.1292187,12.8700591 81.0923044,12.7962306 C81.0221673,12.6559565 80.8929694,12.5858204 80.7047068,12.5858204 C80.4869127,12.5858204 80.3364894,12.676259 80.2534324,12.8571388 C80.210981,12.9531158 80.1897556,13.0684711 80.1897556,13.2032081 L80.1897556,15 L79.3951805,15 L79.3951805,13.2032081 C79.3951805,13.024174 79.3767236,12.8940533 79.3398094,12.8128419 C79.2733637,12.6670306 79.143243,12.5941261 78.9494432,12.5941261 C78.7242663,12.5941261 78.5729202,12.6670306 78.4954002,12.8128419 C78.4529489,12.895899 78.4317235,13.0195598 78.4317235,13.1838282 L78.4317235,15 L77.6316112,15 L77.6316112,11.9878127 L78.3985008,11.9878127 L78.3985008,12.4280128 C78.4963236,12.2711273 78.5886078,12.1594634 78.6753563,12.0930177 C78.8285504,11.9748921 79.0269615,11.9158302 79.2705955,11.9158302 C79.5013096,11.9158302 79.6877237,11.9665866 79.8298435,12.0681007 C79.9442777,12.1622321 80.0310249,12.2831244 80.0900877,12.4307814 C80.1934476,12.253593 80.3217226,12.1234722 80.4749167,12.0404152 C80.6373394,11.9573581 80.8182165,11.9158302 81.0175534,11.9158302 Z M83.8774703,12.5525978 C83.6947448,12.5525978 83.5530885,12.609814 83.4524972,12.7242482 C83.3519058,12.8386823 83.2886911,12.9937198 83.2628512,13.1893653 L84.4893208,13.1893653 C84.4764008,12.9807998 84.4131861,12.8225324 84.2996748,12.7145582 C84.1861635,12.6065841 84.0454301,12.5525978 83.8774703,12.5525978 Z M83.8774703,11.9019875 C84.1284871,11.9019875 84.3545835,11.9490524 84.5557661,12.0431838 C84.7569488,12.1373151 84.9230604,12.2858927 85.054106,12.488921 C85.1722315,12.6679551 85.2488275,12.8755946 85.283896,13.1118458 C85.3041988,13.2502742 85.3125044,13.4496082 85.308813,13.7098536 L83.2434713,13.7098536 C83.2545456,14.0125504 83.3495983,14.2248041 83.5286324,14.3466211 C83.6375294,14.4222953 83.768573,14.4601319 83.9217671,14.4601319 C84.0841898,14.4601319 84.2161563,14.4139898 84.3176704,14.3217041 C84.3730418,14.2718699 84.4219525,14.2026567 84.4644038,14.1140625 L85.2700532,14.1140625 C85.2497504,14.2930966 85.1565433,14.4748966 84.9904292,14.6594678 C84.7320295,14.952936 84.3702753,15.099668 83.9051558,15.099668 C83.5212477,15.099668 83.1825646,14.9760071 82.8890963,14.7286817 C82.5956281,14.4813562 82.4488961,14.078997 82.4488961,13.5215919 C82.4488961,12.9992553 82.581324,12.5987418 82.8461837,12.3200392 C83.1110434,12.0413367 83.4548022,11.9019875 83.8774703,11.9019875 Z M94.8963173,13.4579151 L95.9317567,13.4579151 L95.4223427,11.8521535 L94.8963173,13.4579151 Z M94.9489199,10.9191506 L95.9123769,10.9191506 L97.3575623,15 L96.4328651,15 L96.1698524,14.161128 L94.6665273,14.161128 L94.3841348,15 L93.4926602,15 L94.9489199,10.9191506 Z M99.4422839,11.9158302 C99.839112,11.9158302 100.149648,12.0588708 100.373903,12.3449562 C100.598157,12.6310416 100.710282,13.0001785 100.710282,13.452378 C100.710282,13.9211889 100.599541,14.3097055 100.378055,14.6179395 C100.15657,14.9261734 99.8474177,15.0802881 99.4505896,15.0802881 C99.2014184,15.0802881 99.0011616,15.0304546 98.8498132,14.9307861 C98.7593733,14.8717233 98.6615521,14.768365 98.5563465,14.620708 L98.5563465,15 L97.7839197,15 L97.7839197,10.9246877 L98.5701892,10.9246877 L98.5701892,12.3754103 C98.6698577,12.2351362 98.7796759,12.1280865 98.8996472,12.054258 C99.0417671,11.9619724 99.2226441,11.9158302 99.4422839,11.9158302 Z M99.2401794,14.4296778 C99.4432078,14.4296778 99.6010138,14.3475448 99.7136023,14.1832764 C99.8261907,14.019008 99.8824841,13.8030629 99.8824841,13.5354346 C99.8824841,13.321332 99.8547988,13.1441463 99.7994274,13.0038722 C99.6942218,12.7380896 99.500425,12.6052003 99.218031,12.6052003 C98.9319456,12.6052003 98.7353802,12.7353211 98.6283289,12.9955665 C98.5729575,13.1339949 98.5452722,13.3130263 98.5452722,13.5326661 C98.5452722,13.7910658 98.6024885,14.0051652 98.7169226,14.1749707 C98.8313568,14.3447763 99.005774,14.4296778 99.2401794,14.4296778 Z M102.62889,14.4435205 C102.859604,14.4435205 103.03679,14.3613876 103.160453,14.1971192 C103.284115,14.0328508 103.345946,13.7993717 103.345946,13.4966749 C103.345946,13.1939781 103.284115,12.9609604 103.160453,12.7976149 C103.03679,12.6342693 102.859604,12.5525978 102.62889,12.5525978 C102.398176,12.5525978 102.220529,12.6342693 102.095943,12.7976149 C101.971358,12.9609604 101.909066,13.1939781 101.909066,13.4966749 C101.909066,13.7993717 101.971358,14.0328508 102.095943,14.1971192 C102.220529,14.3613876 102.398176,14.4435205 102.62889,14.4435205 Z M104.173744,13.4966749 C104.173744,13.9396458 104.046391,14.3184726 103.791683,14.6331665 C103.536975,14.9478605 103.150304,15.1052051 102.631659,15.1052051 C102.113014,15.1052051 101.726343,14.9478605 101.471634,14.6331665 C101.216926,14.3184726 101.089574,13.9396458 101.089574,13.4966749 C101.089574,13.0610868 101.216926,12.6836443 101.471634,12.3643361 C101.726343,12.0450279 102.113014,11.8853761 102.631659,11.8853761 C103.150304,11.8853761 103.536975,12.0450279 103.791683,12.3643361 C104.046391,12.6836443 104.173744,13.0610868 104.173744,13.4966749 Z M105.524798,11.9822756 L105.524798,13.8012159 C105.524798,13.9728671 105.545101,14.102065 105.585706,14.1888135 C105.657689,14.3420076 105.798884,14.4186035 106.009295,14.4186035 C106.278769,14.4186035 106.463338,14.3097082 106.563006,14.0919141 C106.614686,13.9737885 106.640526,13.8178282 106.640526,13.6240284 L106.640526,11.9822756 L107.440638,11.9822756 L107.440638,15 L106.673748,15 L106.673748,14.5736426 C106.666366,14.5828712 106.647909,14.6105564 106.618377,14.6566992 C106.588846,14.702842 106.553778,14.7434471 106.513172,14.7785156 C106.389509,14.8892584 106.270001,14.9649314 106.154644,15.0055371 C106.039287,15.0461428 105.904091,15.0664453 105.749051,15.0664453 C105.302389,15.0664453 105.001542,14.9058708 104.846502,14.5847168 C104.759754,14.4075284 104.71638,14.1463641 104.71638,13.8012159 L104.71638,11.9822756 L105.524798,11.9822756 Z M107.891912,12.5719777 L107.891912,12.0099611 L108.312733,12.0099611 L108.312733,11.1683205 L109.093465,11.1683205 L109.093465,12.0099611 L109.583499,12.0099611 L109.583499,12.5719777 L109.093465,12.5719777 L109.093465,14.1666651 C109.093465,14.2903278 109.109153,14.3673851 109.14053,14.3978394 C109.171908,14.4282936 109.267883,14.4435205 109.42846,14.4435205 C109.452454,14.4435205 109.477833,14.4430591 109.504595,14.4421363 C109.531358,14.4412134 109.557659,14.4398291 109.583499,14.4379834 L109.583499,15.0276855 L109.209744,15.0415283 C108.83691,15.0544483 108.582206,14.9898493 108.445623,14.8477295 C108.357029,14.7572896 108.312733,14.6179404 108.312733,14.4296778 L108.312733,12.5719777 L107.891912,12.5719777 Z M118.858157,11.6279006 L118.858157,12.5276808 L119.860374,12.5276808 C120.039408,12.5276808 120.184755,12.4939971 120.296421,12.4266286 C120.408087,12.3592601 120.463919,12.239752 120.463919,12.0681007 C120.463919,11.8779924 120.390091,11.7524858 120.242434,11.6915773 C120.11508,11.6491259 119.95266,11.6279006 119.755169,11.6279006 L118.858157,11.6279006 Z M118.858157,13.2032081 L118.858157,14.29125 L119.860374,14.29125 C120.039408,14.29125 120.178757,14.2672561 120.278425,14.2192676 C120.459305,14.1306734 120.549744,13.9608705 120.549744,13.7098536 C120.549744,13.4975967 120.462074,13.3517876 120.286731,13.272422 C120.188908,13.2281249 120.051405,13.2050538 119.874216,13.2032081 L118.858157,13.2032081 Z M120.026487,10.9191506 C120.526675,10.9265335 120.881046,11.0714197 121.089612,11.3538137 C121.21512,11.5273106 121.277874,11.7349501 121.277874,11.9767384 C121.277874,12.2259096 121.21512,12.4261664 121.089612,12.5775148 C121.019475,12.6624175 120.916116,12.7399363 120.779534,12.8100734 C120.988099,12.8857476 121.145444,13.0057171 121.251572,13.1699854 C121.357701,13.3342538 121.410764,13.5335878 121.410764,13.7679932 C121.410764,14.0097815 121.349857,14.2266495 121.22804,14.4186035 C121.15052,14.5459577 121.053621,14.6530074 120.937341,14.7397559 C120.806296,14.8394243 120.65172,14.9077147 120.473608,14.9446289 C120.295497,14.9815432 120.102162,15 119.893596,15 L118.044202,15 L118.044202,10.9191506 L120.026487,10.9191506 Z M122.867024,15 L122.077986,15 L122.077986,10.9191506 L122.867024,10.9191506 L122.867024,15 Z M124.990505,14.4435205 C125.221219,14.4435205 125.398405,14.3613876 125.522068,14.1971192 C125.64573,14.0328508 125.707561,13.7993717 125.707561,13.4966749 C125.707561,13.1939781 125.64573,12.9609604 125.522068,12.7976149 C125.398405,12.6342693 125.221219,12.5525978 124.990505,12.5525978 C124.759791,12.5525978 124.582144,12.6342693 124.457558,12.7976149 C124.332973,12.9609604 124.270681,13.1939781 124.270681,13.4966749 C124.270681,13.7993717 124.332973,14.0328508 124.457558,14.1971192 C124.582144,14.3613876 124.759791,14.4435205 124.990505,14.4435205 Z M126.535359,13.4966749 C126.535359,13.9396458 126.408006,14.3184726 126.153298,14.6331665 C125.89859,14.9478605 125.511919,15.1052051 124.993274,15.1052051 C124.474629,15.1052051 124.087958,14.9478605 123.833249,14.6331665 C123.578541,14.3184726 123.451189,13.9396458 123.451189,13.4966749 C123.451189,13.0610868 123.578541,12.6836443 123.833249,12.3643361 C124.087958,12.0450279 124.474629,11.8853761 124.993274,11.8853761 C125.511919,11.8853761 125.89859,12.0450279 126.153298,12.3643361 C126.408006,12.6836443 126.535359,13.0610868 126.535359,13.4966749 Z M128.395827,14.3521582 C128.580399,14.3521582 128.736359,14.2824836 128.863713,14.1431324 C128.991067,14.0037811 129.054743,13.7818375 129.054743,13.477295 C129.054743,13.1912096 128.994297,12.9734188 128.873403,12.8239161 C128.752509,12.6744134 128.59055,12.5996632 128.387522,12.5996632 C128.110665,12.5996632 127.919636,12.729784 127.814431,12.9900294 C127.759059,13.1284578 127.731374,13.2991836 127.731374,13.502212 C127.731374,13.6775547 127.760905,13.833515 127.819968,13.9700977 C127.927019,14.224806 128.11897,14.3521582 128.395827,14.3521582 Z M128.19926,11.9102931 C128.350608,11.9102931 128.482575,11.9333642 128.595163,11.979507 C128.787117,12.0588726 128.942155,12.2046817 129.06028,12.4169386 L129.06028,11.9822756 L129.82717,11.9822756 L129.82717,14.8449609 C129.82717,15.2344062 129.761648,15.5278701 129.630603,15.7253613 C129.405426,16.0649723 128.973536,16.2347753 128.334919,16.2347753 C127.949165,16.2347753 127.634476,16.1591023 127.390842,16.0077539 C127.147208,15.8564054 127.012473,15.6303091 126.986633,15.329458 L127.844885,15.329458 C127.867033,15.4217436 127.903024,15.4881882 127.952859,15.5287939 C128.037761,15.6007767 128.180802,15.6367675 128.381985,15.6367675 C128.666224,15.6367675 128.85633,15.5417148 128.952307,15.3516064 C129.015061,15.2297894 129.046438,15.0249184 129.046438,14.7369873 L129.046438,14.5431885 C128.970763,14.6723884 128.889553,14.7692868 128.802805,14.8338867 C128.645919,14.953858 128.441971,15.0138428 128.190954,15.0138428 C127.803355,15.0138428 127.493741,14.8777235 127.262104,14.605481 C127.030467,14.3332384 126.914651,13.9645629 126.914651,13.4994434 C126.914651,13.0509354 127.026315,12.6739543 127.249646,12.3684889 C127.472977,12.0630235 127.789512,11.9102931 128.19926,11.9102931 Z M138.326632,12.992798 C138.326632,12.280353 138.517661,11.7312619 138.899723,11.345508 C139.231951,11.0095884 139.654613,10.8416311 140.167721,10.8416311 C140.854326,10.8416311 141.356352,11.0668046 141.673815,11.5171584 C141.849158,11.770021 141.943287,12.0238026 141.956207,12.2785109 L141.103493,12.2785109 C141.048121,12.0828654 140.977062,11.9352106 140.890314,11.8355422 C140.735274,11.6583538 140.505486,11.5697609 140.200944,11.5697609 C139.890864,11.5697609 139.646311,11.6948061 139.467277,11.9449001 C139.288243,12.1949941 139.198727,12.5489041 139.198727,13.0066407 C139.198727,13.4643774 139.293318,13.8072133 139.482504,14.0351587 C139.671689,14.2631042 139.91209,14.3770752 140.203712,14.3770752 C140.502718,14.3770752 140.73066,14.2792539 140.887545,14.0836084 C140.974294,13.9784028 141.046276,13.8205968 141.103493,13.6101856 L141.947902,13.6101856 C141.874073,14.0550023 141.685352,14.4167564 141.381732,14.695459 C141.078113,14.9741616 140.689135,15.1135107 140.214787,15.1135107 C139.62785,15.1135107 139.166429,14.9252509 138.830509,14.5487256 C138.49459,14.1703546 138.326632,13.6517172 138.326632,12.992798 Z M143.888659,14.4435205 C144.119373,14.4435205 144.296558,14.3613876 144.420221,14.1971192 C144.543884,14.0328508 144.605714,13.7993717 144.605714,13.4966749 C144.605714,13.1939781 144.543884,12.9609604 144.420221,12.7976149 C144.296558,12.6342693 144.119373,12.5525978 143.888659,12.5525978 C143.657944,12.5525978 143.480297,12.6342693 143.355712,12.7976149 C143.231126,12.9609604 143.168834,13.1939781 143.168834,13.4966749 C143.168834,13.7993717 143.231126,14.0328508 143.355712,14.1971192 C143.480297,14.3613876 143.657944,14.4435205 143.888659,14.4435205 Z M145.433512,13.4966749 C145.433512,13.9396458 145.30616,14.3184726 145.051451,14.6331665 C144.796743,14.9478605 144.410072,15.1052051 143.891427,15.1052051 C143.372782,15.1052051 142.986111,14.9478605 142.731403,14.6331665 C142.476694,14.3184726 142.349342,13.9396458 142.349342,13.4966749 C142.349342,13.0610868 142.476694,12.6836443 142.731403,12.3643361 C142.986111,12.0450279 143.372782,11.8853761 143.891427,11.8853761 C144.410072,11.8853761 144.796743,12.0450279 145.051451,12.3643361 C145.30616,12.6836443 145.433512,13.0610868 145.433512,13.4966749 Z M147.670504,11.9102931 C147.982429,11.9102931 148.237595,11.9919647 148.436009,12.1553102 C148.634423,12.3186557 148.733629,12.58951 148.733629,12.967881 L148.733629,15 L147.925211,15 L147.925211,13.1644483 C147.925211,13.0057171 147.903986,12.8839019 147.861534,12.7989991 C147.784014,12.6439593 147.63636,12.5664406 147.418566,12.5664406 C147.150937,12.5664406 146.967292,12.6799502 146.867623,12.9069728 C146.815943,13.0269441 146.790104,13.1801359 146.790104,13.3665528 L146.790104,15 L146.003834,15 L146.003834,11.9878127 L146.765187,11.9878127 L146.765187,12.4280128 C146.866701,12.272973 146.962676,12.1613091 147.053116,12.0930177 C147.215539,11.9712007 147.421333,11.9102931 147.670504,11.9102931 Z M149.151681,12.5719777 L149.151681,12.0099611 L149.572501,12.0099611 L149.572501,11.1683205 L150.353233,11.1683205 L150.353233,12.0099611 L150.843268,12.0099611 L150.843268,12.5719777 L150.353233,12.5719777 L150.353233,14.1666651 C150.353233,14.2903278 150.368922,14.3673851 150.400299,14.3978394 C150.431676,14.4282936 150.527651,14.4435205 150.688228,14.4435205 C150.712223,14.4435205 150.737601,14.4430591 150.764364,14.4421363 C150.791127,14.4412134 150.817428,14.4398291 150.843268,14.4379834 L150.843268,15.0276855 L150.469513,15.0415283 C150.096679,15.0544483 149.841974,14.9898493 149.705392,14.8477295 C149.616797,14.7572896 149.572501,14.6179404 149.572501,14.4296778 L149.572501,12.5719777 L149.151681,12.5719777 Z M153.013814,13.5326661 C152.96398,13.5640432 152.913685,13.5894214 152.862928,13.6088013 C152.812171,13.6281813 152.742496,13.6461767 152.653902,13.6627882 L152.476715,13.6960108 C152.310601,13.7255422 152.191554,13.7615331 152.119571,13.8039844 C151.997754,13.8759672 151.936847,13.9876311 151.936847,14.1389795 C151.936847,14.2737165 151.974222,14.3710764 152.048973,14.431062 C152.123724,14.4910477 152.214624,14.5210401 152.321676,14.5210401 C152.491481,14.5210401 152.647903,14.4712066 152.790946,14.3715381 C152.933988,14.2718697 153.008277,14.0900697 153.013814,13.8261329 L153.013814,13.5326661 Z M152.534854,13.1644483 C152.680666,13.1459912 152.784947,13.1229202 152.847701,13.0952345 C152.960289,13.047246 153.016583,12.9724957 153.016583,12.8709816 C153.016583,12.7473188 152.973671,12.6619559 152.887845,12.6148903 C152.802019,12.5678246 152.676051,12.5442921 152.509937,12.5442921 C152.32352,12.5442921 152.191554,12.5904342 152.114034,12.6827198 C152.058663,12.7510112 152.021749,12.8432954 152.003292,12.9595753 L151.241939,12.9595753 C151.258551,12.6956385 151.332378,12.4787705 151.463424,12.308965 C151.671989,12.0431824 152.030052,11.9102931 152.537623,11.9102931 C152.868005,11.9102931 153.161469,11.9758149 153.418023,12.1068605 C153.674577,12.2379061 153.802852,12.4852278 153.802852,12.8488331 L153.802852,14.2331104 C153.802852,14.3290874 153.804698,14.4453656 153.808389,14.5819483 C153.813927,14.6853082 153.829615,14.7554442 153.855455,14.7923584 C153.881295,14.8292727 153.920054,14.8597264 153.971734,14.8837207 L153.971734,15 L153.113482,15 C153.089488,14.9390915 153.072877,14.8818753 153.063648,14.8283496 C153.05442,14.774824 153.047037,14.7139164 153.0415,14.645625 C152.932603,14.7637506 152.807096,14.8643404 152.664976,14.9473975 C152.495171,15.0452202 152.30322,15.0941309 152.089117,15.0941309 C151.815952,15.0941309 151.590317,15.0161507 151.412205,14.860188 C151.234094,14.7042253 151.14504,14.4832046 151.14504,14.1971192 C151.14504,13.826131 151.288081,13.5575839 151.574166,13.3914698 C151.731051,13.3010299 151.961762,13.236431 152.266305,13.197671 L152.534854,13.1644483 Z M156.305626,13.0647804 C156.29086,12.9521919 156.253023,12.8506793 156.192115,12.7602394 C156.103521,12.6384224 155.966017,12.5775148 155.7796,12.5775148 C155.513818,12.5775148 155.332018,12.7094812 155.234195,12.9734181 C155.182515,13.1136922 155.156675,13.3001063 155.156675,13.5326661 C155.156675,13.7541516 155.182515,13.9322601 155.234195,14.0669971 C155.328326,14.318014 155.505512,14.4435205 155.765757,14.4435205 C155.950329,14.4435205 156.081372,14.3936871 156.158892,14.2940186 C156.236412,14.1943501 156.283477,14.0651522 156.300089,13.906421 L157.105738,13.906421 C157.087281,14.1463635 157.000534,14.3733828 156.845494,14.5874854 C156.598168,14.9326336 156.2318,15.1052051 155.746378,15.1052051 C155.260955,15.1052051 154.903815,14.9612417 154.674947,14.6733106 C154.446079,14.3853795 154.331646,14.0116283 154.331646,13.552046 C154.331646,13.0334008 154.458076,12.6301188 154.710938,12.3421876 C154.963801,12.0542565 155.312635,11.9102931 155.757452,11.9102931 C156.135823,11.9102931 156.445436,11.9951946 156.686302,12.1650002 C156.927167,12.3348057 157.069746,12.6347294 157.114044,13.0647804 L156.305626,13.0647804 Z M157.346602,12.5719777 L157.346602,12.0099611 L157.767422,12.0099611 L157.767422,11.1683205 L158.548155,11.1683205 L158.548155,12.0099611 L159.038189,12.0099611 L159.038189,12.5719777 L158.548155,12.5719777 L158.548155,14.1666651 C158.548155,14.2903278 158.563843,14.3673851 158.59522,14.3978394 C158.626597,14.4282936 158.722573,14.4435205 158.88315,14.4435205 C158.907144,14.4435205 158.932522,14.4430591 158.959285,14.4421363 C158.986048,14.4412134 159.012349,14.4398291 159.038189,14.4379834 L159.038189,15.0276855 L158.664434,15.0415283 C158.2916,15.0544483 158.036896,14.9898493 157.900313,14.8477295 C157.811719,14.7572896 157.767422,14.6179404 157.767422,14.4296778 L157.767422,12.5719777 L157.346602,12.5719777 Z M161.183819,10.9191506 L162.050376,10.9191506 L162.050376,13.427461 C162.050376,13.7080093 162.083599,13.9128803 162.150044,14.0420801 C162.253404,14.2709484 162.478578,14.3853809 162.825572,14.3853809 C163.17072,14.3853809 163.39497,14.2709484 163.49833,14.0420801 C163.564776,13.9128803 163.597998,13.7080093 163.597998,13.427461 L163.597998,10.9191506 L164.464556,10.9191506 L164.464556,13.427461 C164.464556,13.8612034 164.397188,14.1989637 164.262451,14.440752 C164.011435,14.8837229 163.532479,15.1052051 162.825572,15.1052051 C162.118664,15.1052051 161.638786,14.8837229 161.385923,14.440752 C161.251186,14.1989637 161.183819,13.8612034 161.183819,13.427461 L161.183819,10.9191506 Z M165.829453,14.036543 C165.846065,14.1768172 165.882055,14.2764841 165.937427,14.3355469 C166.03525,14.4407525 166.216127,14.4933545 166.480064,14.4933545 C166.635103,14.4933545 166.758303,14.4702835 166.849666,14.4241407 C166.941028,14.3779978 166.986709,14.3087847 166.986709,14.2164991 C166.986709,14.1279049 166.949795,14.0605374 166.875967,14.0143946 C166.802138,13.9682518 166.528054,13.8888873 166.053706,13.7762989 C165.712249,13.6913961 165.471388,13.5852693 165.331113,13.4579151 C165.190839,13.3324067 165.120703,13.1515296 165.120703,12.9152784 C165.120703,12.6365759 165.23006,12.3970983 165.448777,12.1968385 C165.667494,11.9965787 165.975262,11.8964504 166.37209,11.8964504 C166.748615,11.8964504 167.05546,11.971662 167.292634,12.1220876 C167.529808,12.2725131 167.665928,12.5322932 167.700996,12.9014357 L166.911958,12.9014357 C166.900884,12.7999215 166.872276,12.7196342 166.826133,12.6605714 C166.739384,12.5535201 166.59173,12.4999952 166.383164,12.4999952 C166.211513,12.4999952 166.089236,12.5267577 166.016331,12.5802833 C165.943425,12.633809 165.906973,12.6965623 165.906973,12.768545 C165.906973,12.8589849 165.945732,12.9245067 166.023252,12.9651124 C166.100772,13.0075638 166.374856,13.0804683 166.845513,13.1838282 C167.159284,13.2576567 167.394609,13.3693206 167.551494,13.5188233 C167.706534,13.6701717 167.784053,13.8593544 167.784053,14.086377 C167.784053,14.3853824 167.67285,14.6294742 167.450442,14.8186597 C167.228034,15.0078452 166.884275,15.1024365 166.419155,15.1024365 C165.944807,15.1024365 165.594589,15.0023081 165.368489,14.8020484 C165.142389,14.6017886 165.029341,14.3466227 165.029341,14.036543 L165.829453,14.036543 Z" id="Home-About-Blog-Cont-Copy-5" fill="#4A4A4A"></path>
            </g>
        </g>
    </g>
</svg>