<?xml version="1.0" encoding="UTF-8"?>
<svg width="178px" height="120px" viewBox="0 0 178 120" version="1.1" xmlns="http://www.w3.org/2000/svg" xmlns:xlink="http://www.w3.org/1999/xlink">
    <!-- Generator: Sketch 51.2 (57519) - http://www.bohemiancoding.com/sketch -->
    <title>Group 5</title>
    <desc>Created with Sketch.</desc>
    <defs></defs>
    <g id="Page-1" stroke="none" stroke-width="1" fill="none" fill-rule="evenodd">
        <g id="Desktop-HD" transform="translate(-273.000000, -782.000000)">
            <g id="Group-5" transform="translate(273.000000, 783.000000)">
                <rect id="Rectangle-2-Copy-7" stroke="#9B9B9B" stroke-width="1.61999991" fill="#F9F9F9" x="0.809999957" y="0.809999957" width="176.38" height="117.38" rx="6.47999966"></rect>
                <path d="M1,23 L1,6.34482759 C1,2.84067607 3.8653776,0 7.4,0 L170.6,0 C174.134622,0 177,2.84067607 177,6.34482759 L177,23" id="Rectangle-2-Copy-8" stroke="#9B9B9B" stroke-width="1.61999991" fill="#CACACA"></path>
                <g id="brand-copy-5" transform="translate(11.000000, 9.000000)" fill="#FFFFFF" fill-rule="nonzero">
                    <g id="#000000ff">
                        <path d="M0.0243116872,0 L1.17755844,0 C1.19314286,0.585742574 1.17880519,1.17148515 1.18566234,1.75722772 C1.92,1.31168317 2.92176623,1.35742574 3.63179221,1.82554455 C4.16415584,2.17069307 4.56062338,2.71960396 4.65537662,3.33148515 C4.71148052,3.72356436 4.6852987,4.13287129 4.53693506,4.50534653 C4.20342857,5.34118812 3.31885714,5.96613861 2.37007792,5.96079208 C1.8638961,5.98574257 1.36955844,5.80514851 0.982441557,5.49980198 C0.730597401,5.74455446 0.379636363,5.86811881 0.0211948041,5.81940594 C0.013090908,3.87980198 0.00623376512,1.93960396 0.0243116872,0 Z M2.08020779,2.58356436 C1.63885714,2.66257426 1.26296104,3.00237624 1.15324675,3.41643564 C0.967480518,4.04079208 1.44187013,4.74950495 2.12072727,4.83326733 C2.83137662,4.97108911 3.55698701,4.37108911 3.5145974,3.6819802 C3.52955844,2.99524752 2.78088312,2.4249505 2.08020779,2.58356436 Z" id="Shape"></path>
                        <path d="M6.72685714,1.46554455 C7.24737662,1.42455446 7.78098701,1.46673267 8.28093506,1.61762376 C8.28779221,1.97108911 8.28841558,2.32514851 8.28218182,2.67861386 C8.27096104,2.70534653 8.24851948,2.76 8.23667532,2.78732673 C7.776,2.5639604 7.24114286,2.51465347 6.73309091,2.56752475 C6.59594805,2.57524752 6.36841558,2.67267327 6.48997403,2.83128713 C6.94441558,3.06356436 7.43127273,3.23584158 7.8825974,3.47346535 C8.3918961,3.74792079 8.66431169,4.35980198 8.50348052,4.8980198 C8.40623377,5.28118812 8.12446753,5.6150495 7.7467013,5.77841584 C7.16197403,6.03386139 6.4881039,5.99762376 5.8747013,5.86633663 C5.66774026,5.83366337 5.46888312,5.67683168 5.46202597,5.46653465 C5.45142857,5.15881188 5.44706494,4.85049505 5.46950649,4.5439604 C6.00561039,4.77683168 6.61963636,4.95920792 7.20685714,4.79346535 C7.39075325,4.75425743 7.43937662,4.50356436 7.2854026,4.40257426 C6.77672727,4.10019802 6.16332468,3.96950495 5.69080519,3.61009901 C5.23948052,3.22693069 5.17215584,2.51881188 5.52374026,2.05425743 C5.78742857,1.6770297 6.26867532,1.50178218 6.72685714,1.46554455 Z" id="Shape"></path>
                        <path d="M9.87677922,1.92772277 C10.358026,1.52376238 11.0331429,1.41920792 11.654026,1.4560396 C12.1795325,1.48217822 12.7193766,1.65089109 13.0902857,2.01980198 C13.3633247,2.28475248 13.5017143,2.65782178 13.4954805,3.02673267 C13.4985974,3.95465347 13.4998442,4.88257426 13.4954805,5.81049505 C13.2155844,5.82950495 12.9338182,5.82534653 12.6539221,5.81821782 C12.4675325,5.8170297 12.3141818,5.64118812 12.3285195,5.46772277 C12.3235325,4.65564356 12.3297662,3.84356436 12.326026,3.03148515 C12.3397403,2.87584158 12.2275325,2.73683168 12.0797922,2.6809901 C11.7518961,2.54019802 11.3747532,2.54079208 11.0269091,2.6019802 C10.8211948,2.6429703 10.5624935,2.74574257 10.5437922,2.97623762 C10.5238442,3.92257426 10.5537662,4.86950495 10.5294545,5.81584158 C10.1442078,5.82475248 9.75896104,5.82891089 9.37371429,5.81346535 C9.36187013,4.88435644 9.37122078,3.95524752 9.36935065,3.02613861 C9.36374026,2.61267327 9.5414026,2.19564356 9.87677922,1.92772277 Z" id="Shape"></path>
                        <path d="M15.4404156,1.70792079 C16.2052987,1.31940594 17.2313766,1.34970297 17.8946494,1.91405941 C18.1365195,1.66039604 18.4924675,1.54752475 18.8477922,1.59267327 C18.8608831,3.00178218 18.8658701,4.41207921 18.8446753,5.82118812 C18.4918442,5.86158416 18.1377662,5.75049505 17.8958961,5.49920792 C17.5106494,5.8009901 17.0231688,5.98455446 16.5201039,5.96079208 C15.6492468,5.97029703 14.8232727,5.45108911 14.4361558,4.71623762 C14.1899221,4.26594059 14.1375584,3.73366337 14.2366753,3.23821782 C14.3650909,2.58772277 14.8413506,2.02811881 15.4404156,1.70792079 Z M16.3555325,2.57940594 C15.739013,2.65960396 15.2714805,3.26316832 15.3662338,3.84831683 C15.4260779,4.39009901 15.9478442,4.84752475 16.521974,4.84693069 C17.1821299,4.88792079 17.7905455,4.31465347 17.7556364,3.68435644 C17.7730909,3.00831683 17.0493506,2.43920792 16.3555325,2.57940594 Z" id="Shape"></path>
                        <path d="M19.3365195,1.60336634 C19.6232727,1.57841584 19.9118961,1.59326733 20.1992727,1.58910891 C20.3251948,1.59386139 20.4673247,1.58435644 20.5701818,1.66633663 C20.6630649,1.74356436 20.7067013,1.8570297 20.7590649,1.95980198 C21.0545455,2.61207921 21.3581299,3.26079208 21.6536104,3.91247525 C22.0145455,3.15029703 22.3561558,2.37980198 22.7152208,1.6170297 C23.1229091,1.5570297 23.553039,1.59980198 23.9688312,1.5980198 C23.9326753,1.77445545 23.8435325,1.93425743 23.7693506,2.09821782 C23.2282597,3.26613861 22.694026,4.4370297 22.1510649,5.60435644 C21.9877403,6.0029703 21.2777143,5.98039604 21.1449351,5.56871287 C20.6306494,4.45663366 20.1201039,3.34336634 19.6064416,2.23128713 C19.5154286,2.02217822 19.4013506,1.8219802 19.3365195,1.60336634 Z" id="Shape"></path>
                    </g>
                </g>
                <path d="M71.1454398,15 L71.1454398,10.9191506 L71.9898489,10.9191506 L71.9898489,12.4750783 L73.5845363,12.4750783 L73.5845363,10.9191506 L74.431714,10.9191506 L74.431714,15 L73.5845363,15 L73.5845363,13.1782911 L71.9898489,13.1782911 L71.9898489,15 L71.1454398,15 Z M76.5358154,14.4435205 C76.7665295,14.4435205 76.9437152,14.3613876 77.0673779,14.1971192 C77.1910406,14.0328508 77.2528711,13.7993717 77.2528711,13.4966749 C77.2528711,13.1939781 77.1910406,12.9609604 77.0673779,12.7976149 C76.9437152,12.6342693 76.7665295,12.5525978 76.5358154,12.5525978 C76.3051014,12.5525978 76.1274543,12.6342693 76.0028687,12.7976149 C75.8782831,12.9609604 75.8159913,13.1939781 75.8159913,13.4966749 C75.8159913,13.7993717 75.8782831,14.0328508 76.0028687,14.1971192 C76.1274543,14.3613876 76.3051014,14.4435205 76.5358154,14.4435205 Z M78.0806689,13.4966749 C78.0806689,13.9396458 77.9533166,14.3184726 77.6986084,14.6331665 C77.4439001,14.9478605 77.0572291,15.1052051 76.538584,15.1052051 C76.0199389,15.1052051 75.6332679,14.9478605 75.3785596,14.6331665 C75.1238514,14.3184726 74.9964991,13.9396458 74.9964991,13.4966749 C74.9964991,13.0610868 75.1238514,12.6836443 75.3785596,12.3643361 C75.6332679,12.0450279 76.0199389,11.8853761 76.538584,11.8853761 C77.0572291,11.8853761 77.4439001,12.0450279 77.6986084,12.3643361 C77.9533166,12.6836443 78.0806689,13.0610868 78.0806689,13.4966749 Z M82.0175534,11.9158302 C82.1504447,11.9158302 82.2814883,11.9416698 82.4106882,11.9933498 C82.539888,12.0450297 82.657089,12.1354683 82.7622946,12.2646681 C82.8471974,12.3698737 82.9044136,12.4990716 82.933945,12.6522657 C82.9524021,12.7537799 82.9616305,12.9023575 82.9616305,13.098003 L82.9560934,15 L82.1476755,15 L82.1476755,13.0786231 C82.1476755,12.964189 82.1292187,12.8700591 82.0923044,12.7962306 C82.0221673,12.6559565 81.8929694,12.5858204 81.7047068,12.5858204 C81.4869127,12.5858204 81.3364894,12.676259 81.2534324,12.8571388 C81.210981,12.9531158 81.1897556,13.0684711 81.1897556,13.2032081 L81.1897556,15 L80.3951805,15 L80.3951805,13.2032081 C80.3951805,13.024174 80.3767236,12.8940533 80.3398094,12.8128419 C80.2733637,12.6670306 80.143243,12.5941261 79.9494432,12.5941261 C79.7242663,12.5941261 79.5729202,12.6670306 79.4954002,12.8128419 C79.4529489,12.895899 79.4317235,13.0195598 79.4317235,13.1838282 L79.4317235,15 L78.6316112,15 L78.6316112,11.9878127 L79.3985008,11.9878127 L79.3985008,12.4280128 C79.4963236,12.2711273 79.5886078,12.1594634 79.6753563,12.0930177 C79.8285504,11.9748921 80.0269615,11.9158302 80.2705955,11.9158302 C80.5013096,11.9158302 80.6877237,11.9665866 80.8298435,12.0681007 C80.9442777,12.1622321 81.0310249,12.2831244 81.0900877,12.4307814 C81.1934476,12.253593 81.3217226,12.1234722 81.4749167,12.0404152 C81.6373394,11.9573581 81.8182165,11.9158302 82.0175534,11.9158302 Z M84.8774703,12.5525978 C84.6947448,12.5525978 84.5530885,12.609814 84.4524972,12.7242482 C84.3519058,12.8386823 84.2886911,12.9937198 84.2628512,13.1893653 L85.4893208,13.1893653 C85.4764008,12.9807998 85.4131861,12.8225324 85.2996748,12.7145582 C85.1861635,12.6065841 85.0454301,12.5525978 84.8774703,12.5525978 Z M84.8774703,11.9019875 C85.1284871,11.9019875 85.3545835,11.9490524 85.5557661,12.0431838 C85.7569488,12.1373151 85.9230604,12.2858927 86.054106,12.488921 C86.1722315,12.6679551 86.2488275,12.8755946 86.283896,13.1118458 C86.3041988,13.2502742 86.3125044,13.4496082 86.308813,13.7098536 L84.2434713,13.7098536 C84.2545456,14.0125504 84.3495983,14.2248041 84.5286324,14.3466211 C84.6375294,14.4222953 84.768573,14.4601319 84.9217671,14.4601319 C85.0841898,14.4601319 85.2161563,14.4139898 85.3176704,14.3217041 C85.3730418,14.2718699 85.4219525,14.2026567 85.4644038,14.1140625 L86.2700532,14.1140625 C86.2497504,14.2930966 86.1565433,14.4748966 85.9904292,14.6594678 C85.7320295,14.952936 85.3702753,15.099668 84.9051558,15.099668 C84.5212477,15.099668 84.1825646,14.9760071 83.8890963,14.7286817 C83.5956281,14.4813562 83.4488961,14.078997 83.4488961,13.5215919 C83.4488961,12.9992553 83.581324,12.5987418 83.8461837,12.3200392 C84.1110434,12.0413367 84.4548022,11.9019875 84.8774703,11.9019875 Z M95.8963173,13.4579151 L96.9317567,13.4579151 L96.4223427,11.8521535 L95.8963173,13.4579151 Z M95.9489199,10.9191506 L96.9123769,10.9191506 L98.3575623,15 L97.4328651,15 L97.1698524,14.161128 L95.6665273,14.161128 L95.3841348,15 L94.4926602,15 L95.9489199,10.9191506 Z M100.442284,11.9158302 C100.839112,11.9158302 101.149648,12.0588708 101.373903,12.3449562 C101.598157,12.6310416 101.710282,13.0001785 101.710282,13.452378 C101.710282,13.9211889 101.599541,14.3097055 101.378055,14.6179395 C101.15657,14.9261734 100.847418,15.0802881 100.45059,15.0802881 C100.201418,15.0802881 100.001162,15.0304546 99.8498132,14.9307861 C99.7593733,14.8717233 99.6615521,14.768365 99.5563465,14.620708 L99.5563465,15 L98.7839197,15 L98.7839197,10.9246877 L99.5701892,10.9246877 L99.5701892,12.3754103 C99.6698577,12.2351362 99.7796759,12.1280865 99.8996472,12.054258 C100.041767,11.9619724 100.222644,11.9158302 100.442284,11.9158302 Z M100.240179,14.4296778 C100.443208,14.4296778 100.601014,14.3475448 100.713602,14.1832764 C100.826191,14.019008 100.882484,13.8030629 100.882484,13.5354346 C100.882484,13.321332 100.854799,13.1441463 100.799427,13.0038722 C100.694222,12.7380896 100.500425,12.6052003 100.218031,12.6052003 C99.9319456,12.6052003 99.7353802,12.7353211 99.6283289,12.9955665 C99.5729575,13.1339949 99.5452722,13.3130263 99.5452722,13.5326661 C99.5452722,13.7910658 99.6024885,14.0051652 99.7169226,14.1749707 C99.8313568,14.3447763 100.005774,14.4296778 100.240179,14.4296778 Z M103.62889,14.4435205 C103.859604,14.4435205 104.03679,14.3613876 104.160453,14.1971192 C104.284115,14.0328508 104.345946,13.7993717 104.345946,13.4966749 C104.345946,13.1939781 104.284115,12.9609604 104.160453,12.7976149 C104.03679,12.6342693 103.859604,12.5525978 103.62889,12.5525978 C103.398176,12.5525978 103.220529,12.6342693 103.095943,12.7976149 C102.971358,12.9609604 102.909066,13.1939781 102.909066,13.4966749 C102.909066,13.7993717 102.971358,14.0328508 103.095943,14.1971192 C103.220529,14.3613876 103.398176,14.4435205 103.62889,14.4435205 Z M105.173744,13.4966749 C105.173744,13.9396458 105.046391,14.3184726 104.791683,14.6331665 C104.536975,14.9478605 104.150304,15.1052051 103.631659,15.1052051 C103.113014,15.1052051 102.726343,14.9478605 102.471634,14.6331665 C102.216926,14.3184726 102.089574,13.9396458 102.089574,13.4966749 C102.089574,13.0610868 102.216926,12.6836443 102.471634,12.3643361 C102.726343,12.0450279 103.113014,11.8853761 103.631659,11.8853761 C104.150304,11.8853761 104.536975,12.0450279 104.791683,12.3643361 C105.046391,12.6836443 105.173744,13.0610868 105.173744,13.4966749 Z M106.524798,11.9822756 L106.524798,13.8012159 C106.524798,13.9728671 106.545101,14.102065 106.585706,14.1888135 C106.657689,14.3420076 106.798884,14.4186035 107.009295,14.4186035 C107.278769,14.4186035 107.463338,14.3097082 107.563006,14.0919141 C107.614686,13.9737885 107.640526,13.8178282 107.640526,13.6240284 L107.640526,11.9822756 L108.440638,11.9822756 L108.440638,15 L107.673748,15 L107.673748,14.5736426 C107.666366,14.5828712 107.647909,14.6105564 107.618377,14.6566992 C107.588846,14.702842 107.553778,14.7434471 107.513172,14.7785156 C107.389509,14.8892584 107.270001,14.9649314 107.154644,15.0055371 C107.039287,15.0461428 106.904091,15.0664453 106.749051,15.0664453 C106.302389,15.0664453 106.001542,14.9058708 105.846502,14.5847168 C105.759754,14.4075284 105.71638,14.1463641 105.71638,13.8012159 L105.71638,11.9822756 L106.524798,11.9822756 Z M108.891912,12.5719777 L108.891912,12.0099611 L109.312733,12.0099611 L109.312733,11.1683205 L110.093465,11.1683205 L110.093465,12.0099611 L110.583499,12.0099611 L110.583499,12.5719777 L110.093465,12.5719777 L110.093465,14.1666651 C110.093465,14.2903278 110.109153,14.3673851 110.14053,14.3978394 C110.171908,14.4282936 110.267883,14.4435205 110.42846,14.4435205 C110.452454,14.4435205 110.477833,14.4430591 110.504595,14.4421363 C110.531358,14.4412134 110.557659,14.4398291 110.583499,14.4379834 L110.583499,15.0276855 L110.209744,15.0415283 C109.83691,15.0544483 109.582206,14.9898493 109.445623,14.8477295 C109.357029,14.7572896 109.312733,14.6179404 109.312733,14.4296778 L109.312733,12.5719777 L108.891912,12.5719777 Z M119.858157,11.6279006 L119.858157,12.5276808 L120.860374,12.5276808 C121.039408,12.5276808 121.184755,12.4939971 121.296421,12.4266286 C121.408087,12.3592601 121.463919,12.239752 121.463919,12.0681007 C121.463919,11.8779924 121.390091,11.7524858 121.242434,11.6915773 C121.11508,11.6491259 120.95266,11.6279006 120.755169,11.6279006 L119.858157,11.6279006 Z M119.858157,13.2032081 L119.858157,14.29125 L120.860374,14.29125 C121.039408,14.29125 121.178757,14.2672561 121.278425,14.2192676 C121.459305,14.1306734 121.549744,13.9608705 121.549744,13.7098536 C121.549744,13.4975967 121.462074,13.3517876 121.286731,13.272422 C121.188908,13.2281249 121.051405,13.2050538 120.874216,13.2032081 L119.858157,13.2032081 Z M121.026487,10.9191506 C121.526675,10.9265335 121.881046,11.0714197 122.089612,11.3538137 C122.21512,11.5273106 122.277874,11.7349501 122.277874,11.9767384 C122.277874,12.2259096 122.21512,12.4261664 122.089612,12.5775148 C122.019475,12.6624175 121.916116,12.7399363 121.779534,12.8100734 C121.988099,12.8857476 122.145444,13.0057171 122.251572,13.1699854 C122.357701,13.3342538 122.410764,13.5335878 122.410764,13.7679932 C122.410764,14.0097815 122.349857,14.2266495 122.22804,14.4186035 C122.15052,14.5459577 122.053621,14.6530074 121.937341,14.7397559 C121.806296,14.8394243 121.65172,14.9077147 121.473608,14.9446289 C121.295497,14.9815432 121.102162,15 120.893596,15 L119.044202,15 L119.044202,10.9191506 L121.026487,10.9191506 Z M123.867024,15 L123.077986,15 L123.077986,10.9191506 L123.867024,10.9191506 L123.867024,15 Z M125.990505,14.4435205 C126.221219,14.4435205 126.398405,14.3613876 126.522068,14.1971192 C126.64573,14.0328508 126.707561,13.7993717 126.707561,13.4966749 C126.707561,13.1939781 126.64573,12.9609604 126.522068,12.7976149 C126.398405,12.6342693 126.221219,12.5525978 125.990505,12.5525978 C125.759791,12.5525978 125.582144,12.6342693 125.457558,12.7976149 C125.332973,12.9609604 125.270681,13.1939781 125.270681,13.4966749 C125.270681,13.7993717 125.332973,14.0328508 125.457558,14.1971192 C125.582144,14.3613876 125.759791,14.4435205 125.990505,14.4435205 Z M127.535359,13.4966749 C127.535359,13.9396458 127.408006,14.3184726 127.153298,14.6331665 C126.89859,14.9478605 126.511919,15.1052051 125.993274,15.1052051 C125.474629,15.1052051 125.087958,14.9478605 124.833249,14.6331665 C124.578541,14.3184726 124.451189,13.9396458 124.451189,13.4966749 C124.451189,13.0610868 124.578541,12.6836443 124.833249,12.3643361 C125.087958,12.0450279 125.474629,11.8853761 125.993274,11.8853761 C126.511919,11.8853761 126.89859,12.0450279 127.153298,12.3643361 C127.408006,12.6836443 127.535359,13.0610868 127.535359,13.4966749 Z M129.395827,14.3521582 C129.580399,14.3521582 129.736359,14.2824836 129.863713,14.1431324 C129.991067,14.0037811 130.054743,13.7818375 130.054743,13.477295 C130.054743,13.1912096 129.994297,12.9734188 129.873403,12.8239161 C129.752509,12.6744134 129.59055,12.5996632 129.387522,12.5996632 C129.110665,12.5996632 128.919636,12.729784 128.814431,12.9900294 C128.759059,13.1284578 128.731374,13.2991836 128.731374,13.502212 C128.731374,13.6775547 128.760905,13.833515 128.819968,13.9700977 C128.927019,14.224806 129.11897,14.3521582 129.395827,14.3521582 Z M129.19926,11.9102931 C129.350608,11.9102931 129.482575,11.9333642 129.595163,11.979507 C129.787117,12.0588726 129.942155,12.2046817 130.06028,12.4169386 L130.06028,11.9822756 L130.82717,11.9822756 L130.82717,14.8449609 C130.82717,15.2344062 130.761648,15.5278701 130.630603,15.7253613 C130.405426,16.0649723 129.973536,16.2347753 129.334919,16.2347753 C128.949165,16.2347753 128.634476,16.1591023 128.390842,16.0077539 C128.147208,15.8564054 128.012473,15.6303091 127.986633,15.329458 L128.844885,15.329458 C128.867033,15.4217436 128.903024,15.4881882 128.952859,15.5287939 C129.037761,15.6007767 129.180802,15.6367675 129.381985,15.6367675 C129.666224,15.6367675 129.85633,15.5417148 129.952307,15.3516064 C130.015061,15.2297894 130.046438,15.0249184 130.046438,14.7369873 L130.046438,14.5431885 C129.970763,14.6723884 129.889553,14.7692868 129.802805,14.8338867 C129.645919,14.953858 129.441971,15.0138428 129.190954,15.0138428 C128.803355,15.0138428 128.493741,14.8777235 128.262104,14.605481 C128.030467,14.3332384 127.914651,13.9645629 127.914651,13.4994434 C127.914651,13.0509354 128.026315,12.6739543 128.249646,12.3684889 C128.472977,12.0630235 128.789512,11.9102931 129.19926,11.9102931 Z M139.326632,12.992798 C139.326632,12.280353 139.517661,11.7312619 139.899723,11.345508 C140.231951,11.0095884 140.654613,10.8416311 141.167721,10.8416311 C141.854326,10.8416311 142.356352,11.0668046 142.673815,11.5171584 C142.849158,11.770021 142.943287,12.0238026 142.956207,12.2785109 L142.103493,12.2785109 C142.048121,12.0828654 141.977062,11.9352106 141.890314,11.8355422 C141.735274,11.6583538 141.505486,11.5697609 141.200944,11.5697609 C140.890864,11.5697609 140.646311,11.6948061 140.467277,11.9449001 C140.288243,12.1949941 140.198727,12.5489041 140.198727,13.0066407 C140.198727,13.4643774 140.293318,13.8072133 140.482504,14.0351587 C140.671689,14.2631042 140.91209,14.3770752 141.203712,14.3770752 C141.502718,14.3770752 141.73066,14.2792539 141.887545,14.0836084 C141.974294,13.9784028 142.046276,13.8205968 142.103493,13.6101856 L142.947902,13.6101856 C142.874073,14.0550023 142.685352,14.4167564 142.381732,14.695459 C142.078113,14.9741616 141.689135,15.1135107 141.214787,15.1135107 C140.62785,15.1135107 140.166429,14.9252509 139.830509,14.5487256 C139.49459,14.1703546 139.326632,13.6517172 139.326632,12.992798 Z M144.888659,14.4435205 C145.119373,14.4435205 145.296558,14.3613876 145.420221,14.1971192 C145.543884,14.0328508 145.605714,13.7993717 145.605714,13.4966749 C145.605714,13.1939781 145.543884,12.9609604 145.420221,12.7976149 C145.296558,12.6342693 145.119373,12.5525978 144.888659,12.5525978 C144.657944,12.5525978 144.480297,12.6342693 144.355712,12.7976149 C144.231126,12.9609604 144.168834,13.1939781 144.168834,13.4966749 C144.168834,13.7993717 144.231126,14.0328508 144.355712,14.1971192 C144.480297,14.3613876 144.657944,14.4435205 144.888659,14.4435205 Z M146.433512,13.4966749 C146.433512,13.9396458 146.30616,14.3184726 146.051451,14.6331665 C145.796743,14.9478605 145.410072,15.1052051 144.891427,15.1052051 C144.372782,15.1052051 143.986111,14.9478605 143.731403,14.6331665 C143.476694,14.3184726 143.349342,13.9396458 143.349342,13.4966749 C143.349342,13.0610868 143.476694,12.6836443 143.731403,12.3643361 C143.986111,12.0450279 144.372782,11.8853761 144.891427,11.8853761 C145.410072,11.8853761 145.796743,12.0450279 146.051451,12.3643361 C146.30616,12.6836443 146.433512,13.0610868 146.433512,13.4966749 Z M148.670504,11.9102931 C148.982429,11.9102931 149.237595,11.9919647 149.436009,12.1553102 C149.634423,12.3186557 149.733629,12.58951 149.733629,12.967881 L149.733629,15 L148.925211,15 L148.925211,13.1644483 C148.925211,13.0057171 148.903986,12.8839019 148.861534,12.7989991 C148.784014,12.6439593 148.63636,12.5664406 148.418566,12.5664406 C148.150937,12.5664406 147.967292,12.6799502 147.867623,12.9069728 C147.815943,13.0269441 147.790104,13.1801359 147.790104,13.3665528 L147.790104,15 L147.003834,15 L147.003834,11.9878127 L147.765187,11.9878127 L147.765187,12.4280128 C147.866701,12.272973 147.962676,12.1613091 148.053116,12.0930177 C148.215539,11.9712007 148.421333,11.9102931 148.670504,11.9102931 Z M150.151681,12.5719777 L150.151681,12.0099611 L150.572501,12.0099611 L150.572501,11.1683205 L151.353233,11.1683205 L151.353233,12.0099611 L151.843268,12.0099611 L151.843268,12.5719777 L151.353233,12.5719777 L151.353233,14.1666651 C151.353233,14.2903278 151.368922,14.3673851 151.400299,14.3978394 C151.431676,14.4282936 151.527651,14.4435205 151.688228,14.4435205 C151.712223,14.4435205 151.737601,14.4430591 151.764364,14.4421363 C151.791127,14.4412134 151.817428,14.4398291 151.843268,14.4379834 L151.843268,15.0276855 L151.469513,15.0415283 C151.096679,15.0544483 150.841974,14.9898493 150.705392,14.8477295 C150.616797,14.7572896 150.572501,14.6179404 150.572501,14.4296778 L150.572501,12.5719777 L150.151681,12.5719777 Z M154.013814,13.5326661 C153.96398,13.5640432 153.913685,13.5894214 153.862928,13.6088013 C153.812171,13.6281813 153.742496,13.6461767 153.653902,13.6627882 L153.476715,13.6960108 C153.310601,13.7255422 153.191554,13.7615331 153.119571,13.8039844 C152.997754,13.8759672 152.936847,13.9876311 152.936847,14.1389795 C152.936847,14.2737165 152.974222,14.3710764 153.048973,14.431062 C153.123724,14.4910477 153.214624,14.5210401 153.321676,14.5210401 C153.491481,14.5210401 153.647903,14.4712066 153.790946,14.3715381 C153.933988,14.2718697 154.008277,14.0900697 154.013814,13.8261329 L154.013814,13.5326661 Z M153.534854,13.1644483 C153.680666,13.1459912 153.784947,13.1229202 153.847701,13.0952345 C153.960289,13.047246 154.016583,12.9724957 154.016583,12.8709816 C154.016583,12.7473188 153.973671,12.6619559 153.887845,12.6148903 C153.802019,12.5678246 153.676051,12.5442921 153.509937,12.5442921 C153.32352,12.5442921 153.191554,12.5904342 153.114034,12.6827198 C153.058663,12.7510112 153.021749,12.8432954 153.003292,12.9595753 L152.241939,12.9595753 C152.258551,12.6956385 152.332378,12.4787705 152.463424,12.308965 C152.671989,12.0431824 153.030052,11.9102931 153.537623,11.9102931 C153.868005,11.9102931 154.161469,11.9758149 154.418023,12.1068605 C154.674577,12.2379061 154.802852,12.4852278 154.802852,12.8488331 L154.802852,14.2331104 C154.802852,14.3290874 154.804698,14.4453656 154.808389,14.5819483 C154.813927,14.6853082 154.829615,14.7554442 154.855455,14.7923584 C154.881295,14.8292727 154.920054,14.8597264 154.971734,14.8837207 L154.971734,15 L154.113482,15 C154.089488,14.9390915 154.072877,14.8818753 154.063648,14.8283496 C154.05442,14.774824 154.047037,14.7139164 154.0415,14.645625 C153.932603,14.7637506 153.807096,14.8643404 153.664976,14.9473975 C153.495171,15.0452202 153.30322,15.0941309 153.089117,15.0941309 C152.815952,15.0941309 152.590317,15.0161507 152.412205,14.860188 C152.234094,14.7042253 152.14504,14.4832046 152.14504,14.1971192 C152.14504,13.826131 152.288081,13.5575839 152.574166,13.3914698 C152.731051,13.3010299 152.961762,13.236431 153.266305,13.197671 L153.534854,13.1644483 Z M157.305626,13.0647804 C157.29086,12.9521919 157.253023,12.8506793 157.192115,12.7602394 C157.103521,12.6384224 156.966017,12.5775148 156.7796,12.5775148 C156.513818,12.5775148 156.332018,12.7094812 156.234195,12.9734181 C156.182515,13.1136922 156.156675,13.3001063 156.156675,13.5326661 C156.156675,13.7541516 156.182515,13.9322601 156.234195,14.0669971 C156.328326,14.318014 156.505512,14.4435205 156.765757,14.4435205 C156.950329,14.4435205 157.081372,14.3936871 157.158892,14.2940186 C157.236412,14.1943501 157.283477,14.0651522 157.300089,13.906421 L158.105738,13.906421 C158.087281,14.1463635 158.000534,14.3733828 157.845494,14.5874854 C157.598168,14.9326336 157.2318,15.1052051 156.746378,15.1052051 C156.260955,15.1052051 155.903815,14.9612417 155.674947,14.6733106 C155.446079,14.3853795 155.331646,14.0116283 155.331646,13.552046 C155.331646,13.0334008 155.458076,12.6301188 155.710938,12.3421876 C155.963801,12.0542565 156.312635,11.9102931 156.757452,11.9102931 C157.135823,11.9102931 157.445436,11.9951946 157.686302,12.1650002 C157.927167,12.3348057 158.069746,12.6347294 158.114044,13.0647804 L157.305626,13.0647804 Z M158.346602,12.5719777 L158.346602,12.0099611 L158.767422,12.0099611 L158.767422,11.1683205 L159.548155,11.1683205 L159.548155,12.0099611 L160.038189,12.0099611 L160.038189,12.5719777 L159.548155,12.5719777 L159.548155,14.1666651 C159.548155,14.2903278 159.563843,14.3673851 159.59522,14.3978394 C159.626597,14.4282936 159.722573,14.4435205 159.88315,14.4435205 C159.907144,14.4435205 159.932522,14.4430591 159.959285,14.4421363 C159.986048,14.4412134 160.012349,14.4398291 160.038189,14.4379834 L160.038189,15.0276855 L159.664434,15.0415283 C159.2916,15.0544483 159.036896,14.9898493 158.900313,14.8477295 C158.811719,14.7572896 158.767422,14.6179404 158.767422,14.4296778 L158.767422,12.5719777 L158.346602,12.5719777 Z M162.183819,10.9191506 L163.050376,10.9191506 L163.050376,13.427461 C163.050376,13.7080093 163.083599,13.9128803 163.150044,14.0420801 C163.253404,14.2709484 163.478578,14.3853809 163.825572,14.3853809 C164.17072,14.3853809 164.39497,14.2709484 164.49833,14.0420801 C164.564776,13.9128803 164.597998,13.7080093 164.597998,13.427461 L164.597998,10.9191506 L165.464556,10.9191506 L165.464556,13.427461 C165.464556,13.8612034 165.397188,14.1989637 165.262451,14.440752 C165.011435,14.8837229 164.532479,15.1052051 163.825572,15.1052051 C163.118664,15.1052051 162.638786,14.8837229 162.385923,14.440752 C162.251186,14.1989637 162.183819,13.8612034 162.183819,13.427461 L162.183819,10.9191506 Z M166.829453,14.036543 C166.846065,14.1768172 166.882055,14.2764841 166.937427,14.3355469 C167.03525,14.4407525 167.216127,14.4933545 167.480064,14.4933545 C167.635103,14.4933545 167.758303,14.4702835 167.849666,14.4241407 C167.941028,14.3779978 167.986709,14.3087847 167.986709,14.2164991 C167.986709,14.1279049 167.949795,14.0605374 167.875967,14.0143946 C167.802138,13.9682518 167.528054,13.8888873 167.053706,13.7762989 C166.712249,13.6913961 166.471388,13.5852693 166.331113,13.4579151 C166.190839,13.3324067 166.120703,13.1515296 166.120703,12.9152784 C166.120703,12.6365759 166.23006,12.3970983 166.448777,12.1968385 C166.667494,11.9965787 166.975262,11.8964504 167.37209,11.8964504 C167.748615,11.8964504 168.05546,11.971662 168.292634,12.1220876 C168.529808,12.2725131 168.665928,12.5322932 168.700996,12.9014357 L167.911958,12.9014357 C167.900884,12.7999215 167.872276,12.7196342 167.826133,12.6605714 C167.739384,12.5535201 167.59173,12.4999952 167.383164,12.4999952 C167.211513,12.4999952 167.089236,12.5267577 167.016331,12.5802833 C166.943425,12.633809 166.906973,12.6965623 166.906973,12.768545 C166.906973,12.8589849 166.945732,12.9245067 167.023252,12.9651124 C167.100772,13.0075638 167.374856,13.0804683 167.845513,13.1838282 C168.159284,13.2576567 168.394609,13.3693206 168.551494,13.5188233 C168.706534,13.6701717 168.784053,13.8593544 168.784053,14.086377 C168.784053,14.3853824 168.67285,14.6294742 168.450442,14.8186597 C168.228034,15.0078452 167.884275,15.1024365 167.419155,15.1024365 C166.944807,15.1024365 166.594589,15.0023081 166.368489,14.8020484 C166.142389,14.6017886 166.029341,14.3466227 166.029341,14.036543 L166.829453,14.036543 Z" id="Home-About-Blog-Cont-Copy-4" fill="#FFFFFF"></path>
            </g>
        </g>
    </g>
</svg>