<?xml version="1.0" encoding="UTF-8"?>
<svg width="178px" height="119px" viewBox="0 0 178 119" version="1.1" xmlns="http://www.w3.org/2000/svg" xmlns:xlink="http://www.w3.org/1999/xlink">
    <!-- Generator: Sketch 51.2 (57519) - http://www.bohemiancoding.com/sketch -->
    <title>Group 16</title>
    <desc>Created with Sketch.</desc>
    <defs></defs>
    <g id="Page-1" stroke="none" stroke-width="1" fill="none" fill-rule="evenodd">
        <g id="Desktop-HD" transform="translate(-751.000000, -2193.000000)">
            <g id="Group-16" transform="translate(751.000000, 2193.000000)">
                <rect id="Rectangle-2-Copy-38" stroke="#9B9B9B" stroke-width="1.61999991" fill="#F9F9F9" x="0.809999957" y="0.809999957" width="176.38" height="117.38" rx="6.47999966"></rect>
                <path d="M0.809999957,22.19 L177.19,22.19 L177.19,6.47999966 C177.19,3.34854529 174.651455,0.809999957 171.52,0.809999957 L6.47999966,0.809999957 C3.34854529,0.809999957 0.809999957,3.34854529 0.809999957,6.47999966 L0.809999957,22.19 Z" id="Rectangle-2-Copy-39" stroke="#9B9B9B" stroke-width="1.61999991" fill="#FFFFFF"></path>
                <path d="M90.81,22.81 L90.81,58 C90.81,60.3140731 92.6859269,62.19 95,62.19 L128,62.19 C130.314073,62.19 132.19,60.3140731 132.19,58 L132.19,22.81 L90.81,22.81 Z" id="Rectangle-2-Copy-40" stroke="#9B9B9B" stroke-width="1.61999991" fill="#FFFFFF"></path>
                <g id="brand-copy-17" transform="translate(11.000000, 9.000000)" fill="#4A4A4A" fill-rule="nonzero">
                    <g id="#000000ff">
                        <path d="M0.0243116872,0 L1.17755844,0 C1.19314286,0.585742574 1.17880519,1.17148515 1.18566234,1.75722772 C1.92,1.31168317 2.92176623,1.35742574 3.63179221,1.82554455 C4.16415584,2.17069307 4.56062338,2.71960396 4.65537662,3.33148515 C4.71148052,3.72356436 4.6852987,4.13287129 4.53693506,4.50534653 C4.20342857,5.34118812 3.31885714,5.96613861 2.37007792,5.96079208 C1.8638961,5.98574257 1.36955844,5.80514851 0.982441557,5.49980198 C0.730597401,5.74455446 0.379636363,5.86811881 0.0211948041,5.81940594 C0.013090908,3.87980198 0.00623376512,1.93960396 0.0243116872,0 Z M2.08020779,2.58356436 C1.63885714,2.66257426 1.26296104,3.00237624 1.15324675,3.41643564 C0.967480518,4.04079208 1.44187013,4.74950495 2.12072727,4.83326733 C2.83137662,4.97108911 3.55698701,4.37108911 3.5145974,3.6819802 C3.52955844,2.99524752 2.78088312,2.4249505 2.08020779,2.58356436 Z" id="Shape"></path>
                        <path d="M6.72685714,1.46554455 C7.24737662,1.42455446 7.78098701,1.46673267 8.28093506,1.61762376 C8.28779221,1.97108911 8.28841558,2.32514851 8.28218182,2.67861386 C8.27096104,2.70534653 8.24851948,2.76 8.23667532,2.78732673 C7.776,2.5639604 7.24114286,2.51465347 6.73309091,2.56752475 C6.59594805,2.57524752 6.36841558,2.67267327 6.48997403,2.83128713 C6.94441558,3.06356436 7.43127273,3.23584158 7.8825974,3.47346535 C8.3918961,3.74792079 8.66431169,4.35980198 8.50348052,4.8980198 C8.40623377,5.28118812 8.12446753,5.6150495 7.7467013,5.77841584 C7.16197403,6.03386139 6.4881039,5.99762376 5.8747013,5.86633663 C5.66774026,5.83366337 5.46888312,5.67683168 5.46202597,5.46653465 C5.45142857,5.15881188 5.44706494,4.85049505 5.46950649,4.5439604 C6.00561039,4.77683168 6.61963636,4.95920792 7.20685714,4.79346535 C7.39075325,4.75425743 7.43937662,4.50356436 7.2854026,4.40257426 C6.77672727,4.10019802 6.16332468,3.96950495 5.69080519,3.61009901 C5.23948052,3.22693069 5.17215584,2.51881188 5.52374026,2.05425743 C5.78742857,1.6770297 6.26867532,1.50178218 6.72685714,1.46554455 Z" id="Shape"></path>
                        <path d="M9.87677922,1.92772277 C10.358026,1.52376238 11.0331429,1.41920792 11.654026,1.4560396 C12.1795325,1.48217822 12.7193766,1.65089109 13.0902857,2.01980198 C13.3633247,2.28475248 13.5017143,2.65782178 13.4954805,3.02673267 C13.4985974,3.95465347 13.4998442,4.88257426 13.4954805,5.81049505 C13.2155844,5.82950495 12.9338182,5.82534653 12.6539221,5.81821782 C12.4675325,5.8170297 12.3141818,5.64118812 12.3285195,5.46772277 C12.3235325,4.65564356 12.3297662,3.84356436 12.326026,3.03148515 C12.3397403,2.87584158 12.2275325,2.73683168 12.0797922,2.6809901 C11.7518961,2.54019802 11.3747532,2.54079208 11.0269091,2.6019802 C10.8211948,2.6429703 10.5624935,2.74574257 10.5437922,2.97623762 C10.5238442,3.92257426 10.5537662,4.86950495 10.5294545,5.81584158 C10.1442078,5.82475248 9.75896104,5.82891089 9.37371429,5.81346535 C9.36187013,4.88435644 9.37122078,3.95524752 9.36935065,3.02613861 C9.36374026,2.61267327 9.5414026,2.19564356 9.87677922,1.92772277 Z" id="Shape"></path>
                        <path d="M15.4404156,1.70792079 C16.2052987,1.31940594 17.2313766,1.34970297 17.8946494,1.91405941 C18.1365195,1.66039604 18.4924675,1.54752475 18.8477922,1.59267327 C18.8608831,3.00178218 18.8658701,4.41207921 18.8446753,5.82118812 C18.4918442,5.86158416 18.1377662,5.75049505 17.8958961,5.49920792 C17.5106494,5.8009901 17.0231688,5.98455446 16.5201039,5.96079208 C15.6492468,5.97029703 14.8232727,5.45108911 14.4361558,4.71623762 C14.1899221,4.26594059 14.1375584,3.73366337 14.2366753,3.23821782 C14.3650909,2.58772277 14.8413506,2.02811881 15.4404156,1.70792079 Z M16.3555325,2.57940594 C15.739013,2.65960396 15.2714805,3.26316832 15.3662338,3.84831683 C15.4260779,4.39009901 15.9478442,4.84752475 16.521974,4.84693069 C17.1821299,4.88792079 17.7905455,4.31465347 17.7556364,3.68435644 C17.7730909,3.00831683 17.0493506,2.43920792 16.3555325,2.57940594 Z" id="Shape"></path>
                        <path d="M19.3365195,1.60336634 C19.6232727,1.57841584 19.9118961,1.59326733 20.1992727,1.58910891 C20.3251948,1.59386139 20.4673247,1.58435644 20.5701818,1.66633663 C20.6630649,1.74356436 20.7067013,1.8570297 20.7590649,1.95980198 C21.0545455,2.61207921 21.3581299,3.26079208 21.6536104,3.91247525 C22.0145455,3.15029703 22.3561558,2.37980198 22.7152208,1.6170297 C23.1229091,1.5570297 23.553039,1.59980198 23.9688312,1.5980198 C23.9326753,1.77445545 23.8435325,1.93425743 23.7693506,2.09821782 C23.2282597,3.26613861 22.694026,4.4370297 22.1510649,5.60435644 C21.9877403,6.0029703 21.2777143,5.98039604 21.1449351,5.56871287 C20.6306494,4.45663366 20.1201039,3.34336634 19.6064416,2.23128713 C19.5154286,2.02217822 19.4013506,1.8219802 19.3365195,1.60336634 Z" id="Shape"></path>
                    </g>
                </g>
                <path d="M71,14.1583689 L71,10.0775195 L71.8444091,10.0775195 L71.8444091,11.6334472 L73.4390966,11.6334472 L73.4390966,10.0775195 L74.2862742,10.0775195 L74.2862742,14.1583689 L73.4390966,14.1583689 L73.4390966,12.33666 L71.8444091,12.33666 L71.8444091,14.1583689 L71,14.1583689 Z M76.3903757,13.6018895 C76.6210897,13.6018895 76.7982754,13.5197565 76.9219382,13.3554881 C77.0456009,13.1912197 77.1074313,12.9577406 77.1074313,12.6550438 C77.1074313,12.352347 77.0456009,12.1193293 76.9219382,11.9559838 C76.7982754,11.7926382 76.6210897,11.7109667 76.3903757,11.7109667 C76.1596617,11.7109667 75.9820145,11.7926382 75.8574289,11.9559838 C75.7328434,12.1193293 75.6705515,12.352347 75.6705515,12.6550438 C75.6705515,12.9577406 75.7328434,13.1912197 75.8574289,13.3554881 C75.9820145,13.5197565 76.1596617,13.6018895 76.3903757,13.6018895 Z M77.9352291,12.6550438 C77.9352291,13.0980147 77.8078769,13.4768415 77.5531686,13.7915354 C77.2984603,14.1062294 76.9117894,14.263574 76.3931442,14.263574 C75.8744991,14.263574 75.4878282,14.1062294 75.2331199,13.7915354 C74.9784116,13.4768415 74.8510594,13.0980147 74.8510594,12.6550438 C74.8510594,12.2194557 74.9784116,11.8420132 75.2331199,11.522705 C75.4878282,11.2033968 75.8744991,11.0437451 76.3931442,11.0437451 C76.9117894,11.0437451 77.2984603,11.2033968 77.5531686,11.522705 C77.8078769,11.8420132 77.9352291,12.2194557 77.9352291,12.6550438 Z M81.8721137,11.0741992 C82.005005,11.0741992 82.1360486,11.1000387 82.2652484,11.1517187 C82.3944483,11.2033986 82.5116493,11.2938372 82.6168549,11.423037 C82.7017576,11.5282426 82.7589738,11.6574406 82.7885052,11.8106347 C82.8069624,11.9121488 82.8161908,12.0607265 82.8161908,12.256372 L82.8106537,14.1583689 L82.0022357,14.1583689 L82.0022357,12.2369921 C82.0022357,12.1225579 81.9837789,12.028428 81.9468647,11.9545995 C81.8767276,11.8143254 81.7475297,11.7441894 81.559267,11.7441894 C81.341473,11.7441894 81.1910497,11.8346279 81.1079926,12.0155077 C81.0655412,12.1114847 81.0443159,12.22684 81.0443159,12.361577 L81.0443159,14.1583689 L80.2497407,14.1583689 L80.2497407,12.361577 C80.2497407,12.1825429 80.2312839,12.0524222 80.1943696,11.9712108 C80.127924,11.8253996 79.9978032,11.752495 79.8040034,11.752495 C79.5788265,11.752495 79.4274804,11.8253996 79.3499605,11.9712108 C79.3075091,12.0542679 79.2862837,12.1779288 79.2862837,12.3421971 L79.2862837,14.1583689 L78.4861715,14.1583689 L78.4861715,11.1461816 L79.2530611,11.1461816 L79.2530611,11.5863818 C79.3508838,11.4294962 79.4431681,11.3178323 79.5299165,11.2513867 C79.6831107,11.1332611 79.8815217,11.0741992 80.1251558,11.0741992 C80.3558698,11.0741992 80.5422839,11.1249555 80.6844038,11.2264697 C80.7988379,11.320601 80.8855851,11.4414933 80.9446479,11.5891503 C81.0480078,11.4119619 81.1762829,11.2818412 81.329477,11.1987841 C81.4918997,11.1157271 81.6727768,11.0741992 81.8721137,11.0741992 Z M84.7320305,11.7109667 C84.549305,11.7109667 84.4076487,11.7681829 84.3070574,11.8826171 C84.2064661,11.9970512 84.1432514,12.1520888 84.1174114,12.3477343 L85.3438811,12.3477343 C85.3309611,12.1391688 85.2677464,11.9809013 85.1542351,11.8729271 C85.0407238,11.764953 84.8999903,11.7109667 84.7320305,11.7109667 Z M84.7320305,11.0603564 C84.9830474,11.0603564 85.2091437,11.1074213 85.4103264,11.2015527 C85.611509,11.295684 85.7776206,11.4442616 85.9086662,11.64729 C86.0267918,11.826324 86.1033877,12.0339636 86.1384562,12.2702147 C86.1587591,12.4086431 86.1670646,12.6079771 86.1633732,12.8682225 L84.0980315,12.8682225 C84.1091058,13.1709193 84.2041586,13.383173 84.3831927,13.50499 C84.4920897,13.5806643 84.6231333,13.6185008 84.7763274,13.6185008 C84.9387501,13.6185008 85.0707165,13.5723587 85.1722307,13.4800731 C85.2276021,13.4302388 85.2765127,13.3610257 85.3189641,13.2724315 L86.1246135,13.2724315 C86.1043106,13.4514656 86.0111036,13.6332655 85.8449894,13.8178367 C85.5865897,14.111305 85.2248356,14.2580369 84.7597161,14.2580369 C84.3758079,14.2580369 84.0371248,14.134376 83.7436566,13.8870506 C83.4501883,13.6397251 83.3034564,13.2373659 83.3034564,12.6799608 C83.3034564,12.1576242 83.4358842,11.7571107 83.700744,11.4784081 C83.9656037,11.1997056 84.3093624,11.0603564 84.7320305,11.0603564 Z M95.7508776,12.616284 L96.786317,12.616284 L96.276903,11.0105224 L95.7508776,12.616284 Z M95.8034801,10.0775195 L96.7669371,10.0775195 L98.2121226,14.1583689 L97.2874254,14.1583689 L97.0244127,13.3194969 L95.5210876,13.3194969 L95.238695,14.1583689 L94.3472204,14.1583689 L95.8034801,10.0775195 Z M100.296844,11.0741992 C100.693672,11.0741992 101.004209,11.2172397 101.228463,11.5033251 C101.452717,11.7894105 101.564842,12.1585474 101.564842,12.6107469 C101.564842,13.0795578 101.454101,13.4680744 101.232616,13.7763084 C101.01113,14.0845423 100.701978,14.238657 100.30515,14.238657 C100.055979,14.238657 99.8557219,14.1888235 99.7043735,14.0891551 C99.6139336,14.0300923 99.5161123,13.9267339 99.4109067,13.7790769 L99.4109067,14.1583689 L98.63848,14.1583689 L98.63848,10.0830566 L99.4247495,10.0830566 L99.4247495,11.5337792 C99.5244179,11.3935051 99.6342362,11.2864554 99.7542075,11.2126269 C99.8963273,11.1203413 100.077204,11.0741992 100.296844,11.0741992 Z M100.09474,13.5880467 C100.297768,13.5880467 100.455574,13.5059137 100.568162,13.3416453 C100.680751,13.1773769 100.737044,12.9614318 100.737044,12.6938036 C100.737044,12.4797009 100.709359,12.3025152 100.653988,12.1622411 C100.548782,11.8964585 100.354985,11.7635692 100.072591,11.7635692 C99.7865058,11.7635692 99.5899404,11.89369 99.4828891,12.1539354 C99.4275177,12.2923639 99.3998325,12.4713953 99.3998325,12.691035 C99.3998325,12.9494347 99.4570487,13.1635341 99.5714829,13.3333397 C99.685917,13.5031452 99.8603342,13.5880467 100.09474,13.5880467 Z M103.48345,13.6018895 C103.714164,13.6018895 103.89135,13.5197565 104.015013,13.3554881 C104.138676,13.1912197 104.200506,12.9577406 104.200506,12.6550438 C104.200506,12.352347 104.138676,12.1193293 104.015013,11.9559838 C103.89135,11.7926382 103.714164,11.7109667 103.48345,11.7109667 C103.252736,11.7109667 103.075089,11.7926382 102.950504,11.9559838 C102.825918,12.1193293 102.763626,12.352347 102.763626,12.6550438 C102.763626,12.9577406 102.825918,13.1912197 102.950504,13.3554881 C103.075089,13.5197565 103.252736,13.6018895 103.48345,13.6018895 Z M105.028304,12.6550438 C105.028304,13.0980147 104.900952,13.4768415 104.646243,13.7915354 C104.391535,14.1062294 104.004864,14.263574 103.486219,14.263574 C102.967574,14.263574 102.580903,14.1062294 102.326195,13.7915354 C102.071486,13.4768415 101.944134,13.0980147 101.944134,12.6550438 C101.944134,12.2194557 102.071486,11.8420132 102.326195,11.522705 C102.580903,11.2033968 102.967574,11.0437451 103.486219,11.0437451 C104.004864,11.0437451 104.391535,11.2033968 104.646243,11.522705 C104.900952,11.8420132 105.028304,12.2194557 105.028304,12.6550438 Z M106.379358,11.1406445 L106.379358,12.9595848 C106.379358,13.131236 106.399661,13.260434 106.440267,13.3471824 C106.512249,13.5003766 106.653444,13.5769725 106.863856,13.5769725 C107.13333,13.5769725 107.317898,13.4680771 107.417566,13.250283 C107.469246,13.1321574 107.495086,12.9761971 107.495086,12.7823973 L107.495086,11.1406445 L108.295198,11.1406445 L108.295198,14.1583689 L107.528309,14.1583689 L107.528309,13.7320115 C107.520926,13.7412401 107.502469,13.7689254 107.472938,13.8150682 C107.443406,13.861211 107.408338,13.901816 107.367732,13.9368846 C107.24407,14.0476273 107.124562,14.1233004 107.009205,14.163906 C106.893848,14.2045117 106.758651,14.2248142 106.603611,14.2248142 C106.156949,14.2248142 105.856102,14.0642397 105.701063,13.7430857 C105.614314,13.5658974 105.570941,13.304733 105.570941,12.9595848 L105.570941,11.1406445 L106.379358,11.1406445 Z M108.746473,11.7303466 L108.746473,11.16833 L109.167293,11.16833 L109.167293,10.3266894 L109.948025,10.3266894 L109.948025,11.16833 L110.438059,11.16833 L110.438059,11.7303466 L109.948025,11.7303466 L109.948025,13.325034 C109.948025,13.4486967 109.963714,13.5257541 109.995091,13.5562083 C110.026468,13.5866626 110.122443,13.6018895 110.28302,13.6018895 C110.307015,13.6018895 110.332393,13.601428 110.359156,13.6005052 C110.385918,13.5995823 110.412219,13.5981981 110.438059,13.5963523 L110.438059,14.1860545 L110.064305,14.1998972 C109.691471,14.2128172 109.436766,14.1482183 109.300184,14.0060984 C109.211589,13.9156585 109.167293,13.7763093 109.167293,13.5880467 L109.167293,11.7303466 L108.746473,11.7303466 Z M119.712717,10.7862695 L119.712717,11.6860497 L120.714934,11.6860497 C120.893968,11.6860497 121.039316,11.652366 121.150981,11.5849975 C121.262647,11.517629 121.318479,11.3981209 121.318479,11.2264697 C121.318479,11.0363613 121.244651,10.9108547 121.096994,10.8499462 C120.96964,10.8074949 120.80722,10.7862695 120.609729,10.7862695 L119.712717,10.7862695 Z M119.712717,12.361577 L119.712717,13.449619 L120.714934,13.449619 C120.893968,13.449619 121.033317,13.4256251 121.132986,13.3776365 C121.313865,13.2890424 121.404304,13.1192394 121.404304,12.8682225 C121.404304,12.6559656 121.316634,12.5101565 121.141291,12.4307909 C121.043469,12.3864938 120.905965,12.3634227 120.728777,12.361577 L119.712717,12.361577 Z M120.881047,10.0775195 C121.381235,10.0849024 121.735607,10.2297886 121.944172,10.5121826 C122.069681,10.6856795 122.132434,10.8933191 122.132434,11.1351074 C122.132434,11.3842785 122.069681,11.5845353 121.944172,11.7358837 C121.874035,11.8207865 121.770677,11.8983052 121.634094,11.9684423 C121.842659,12.0441165 122.000004,12.164086 122.106133,12.3283544 C122.212261,12.4926228 122.265324,12.6919567 122.265324,12.9263621 C122.265324,13.1681505 122.204417,13.3850184 122.0826,13.5769725 C122.00508,13.7043266 121.908181,13.8113763 121.791902,13.8981248 C121.660856,13.9977933 121.50628,14.0660836 121.328169,14.1029978 C121.150057,14.1399121 120.956722,14.1583689 120.748157,14.1583689 L118.898762,14.1583689 L118.898762,10.0775195 L120.881047,10.0775195 Z M123.721584,14.1583689 L122.932546,14.1583689 L122.932546,10.0775195 L123.721584,10.0775195 L123.721584,14.1583689 Z M125.845065,13.6018895 C126.075779,13.6018895 126.252965,13.5197565 126.376628,13.3554881 C126.500291,13.1912197 126.562121,12.9577406 126.562121,12.6550438 C126.562121,12.352347 126.500291,12.1193293 126.376628,11.9559838 C126.252965,11.7926382 126.075779,11.7109667 125.845065,11.7109667 C125.614351,11.7109667 125.436704,11.7926382 125.312119,11.9559838 C125.187533,12.1193293 125.125241,12.352347 125.125241,12.6550438 C125.125241,12.9577406 125.187533,13.1912197 125.312119,13.3554881 C125.436704,13.5197565 125.614351,13.6018895 125.845065,13.6018895 Z M127.389919,12.6550438 C127.389919,13.0980147 127.262567,13.4768415 127.007858,13.7915354 C126.75315,14.1062294 126.366479,14.263574 125.847834,14.263574 C125.329189,14.263574 124.942518,14.1062294 124.68781,13.7915354 C124.433101,13.4768415 124.305749,13.0980147 124.305749,12.6550438 C124.305749,12.2194557 124.433101,11.8420132 124.68781,11.522705 C124.942518,11.2033968 125.329189,11.0437451 125.847834,11.0437451 C126.366479,11.0437451 126.75315,11.2033968 127.007858,11.522705 C127.262567,11.8420132 127.389919,12.2194557 127.389919,12.6550438 Z M129.250388,13.5105272 C129.434959,13.5105272 129.590919,13.4408526 129.718273,13.3015013 C129.845627,13.16215 129.909304,12.9402064 129.909304,12.6356639 C129.909304,12.3495785 129.848857,12.1317877 129.727963,11.9822851 C129.607069,11.8327824 129.44511,11.7580321 129.242082,11.7580321 C128.965225,11.7580321 128.774197,11.8881529 128.668991,12.1483983 C128.61362,12.2868267 128.585934,12.4575526 128.585934,12.6605809 C128.585934,12.8359236 128.615465,12.9918839 128.674528,13.1284666 C128.78158,13.3831749 128.973531,13.5105272 129.250388,13.5105272 Z M129.05382,11.0686621 C129.205169,11.0686621 129.337135,11.0917331 129.449723,11.1378759 C129.641678,11.2172415 129.796715,11.3630506 129.914841,11.5753075 L129.914841,11.1406445 L130.68173,11.1406445 L130.68173,14.0033299 C130.68173,14.3927752 130.616208,14.686239 130.485163,14.8837302 C130.259986,15.2233413 129.828096,15.3931442 129.189479,15.3931442 C128.803725,15.3931442 128.489036,15.3174712 128.245402,15.1661228 C128.001768,15.0147744 127.867033,14.788678 127.841193,14.4878269 L128.699445,14.4878269 C128.721594,14.5801125 128.757585,14.6465572 128.807419,14.6871628 C128.892322,14.7591456 129.035362,14.7951365 129.236545,14.7951365 C129.520784,14.7951365 129.71089,14.7000837 129.806867,14.5099753 C129.869621,14.3881583 129.900998,14.1832874 129.900998,13.8953562 L129.900998,13.7015574 C129.825324,13.8307573 129.744114,13.9276557 129.657365,13.9922556 C129.50048,14.1122269 129.296531,14.1722117 129.045515,14.1722117 C128.657915,14.1722117 128.348301,14.0360925 128.116664,13.7638499 C127.885028,13.4916073 127.769211,13.1229318 127.769211,12.6578124 C127.769211,12.2093043 127.880875,11.8323232 128.104206,11.5268578 C128.327537,11.2213925 128.644072,11.0686621 129.05382,11.0686621 Z M139.181193,12.1511669 C139.181193,11.4387219 139.372221,10.8896308 139.754283,10.5038769 C140.086512,10.1679573 140.509173,10 141.022281,10 C141.708886,10 142.210913,10.2251735 142.528375,10.6755273 C142.703718,10.9283899 142.797848,11.1821715 142.810768,11.4368798 L141.958053,11.4368798 C141.902682,11.2412343 141.831623,11.0935795 141.744874,10.9939111 C141.589834,10.8167227 141.360047,10.7281298 141.055504,10.7281298 C140.745424,10.7281298 140.500871,10.853175 140.321837,11.103269 C140.142803,11.353363 140.053287,11.707273 140.053287,12.1650097 C140.053287,12.6227463 140.147879,12.9655822 140.337064,13.1935277 C140.52625,13.4214731 140.76665,13.5354441 141.058273,13.5354441 C141.357278,13.5354441 141.58522,13.4376229 141.742106,13.2419774 C141.828854,13.1367718 141.900836,12.9789657 141.958053,12.7685545 L142.802462,12.7685545 C142.728634,13.2133712 142.539912,13.5751254 142.236293,13.8538279 C141.932673,14.1325305 141.543695,14.2718797 141.069347,14.2718797 C140.48241,14.2718797 140.020989,14.0836198 139.68507,13.7070945 C139.34915,13.3287235 139.181193,12.8100862 139.181193,12.1511669 Z M144.743219,13.6018895 C144.973933,13.6018895 145.151118,13.5197565 145.274781,13.3554881 C145.398444,13.1912197 145.460274,12.9577406 145.460274,12.6550438 C145.460274,12.352347 145.398444,12.1193293 145.274781,11.9559838 C145.151118,11.7926382 144.973933,11.7109667 144.743219,11.7109667 C144.512505,11.7109667 144.334858,11.7926382 144.210272,11.9559838 C144.085686,12.1193293 144.023395,12.352347 144.023395,12.6550438 C144.023395,12.9577406 144.085686,13.1912197 144.210272,13.3554881 C144.334858,13.5197565 144.512505,13.6018895 144.743219,13.6018895 Z M146.288072,12.6550438 C146.288072,13.0980147 146.16072,13.4768415 145.906012,13.7915354 C145.651303,14.1062294 145.264632,14.263574 144.745987,14.263574 C144.227342,14.263574 143.840671,14.1062294 143.585963,13.7915354 C143.331255,13.4768415 143.203902,13.0980147 143.203902,12.6550438 C143.203902,12.2194557 143.331255,11.8420132 143.585963,11.522705 C143.840671,11.2033968 144.227342,11.0437451 144.745987,11.0437451 C145.264632,11.0437451 145.651303,11.2033968 145.906012,11.522705 C146.16072,11.8420132 146.288072,12.2194557 146.288072,12.6550438 Z M148.525064,11.0686621 C148.83699,11.0686621 149.092156,11.1503336 149.29057,11.3136791 C149.488984,11.4770247 149.588189,11.7478789 149.588189,12.1262499 L149.588189,14.1583689 L148.779771,14.1583689 L148.779771,12.3228173 C148.779771,12.164086 148.758546,12.0422708 148.716095,11.9573681 C148.638575,11.8023282 148.49092,11.7248095 148.273126,11.7248095 C148.005498,11.7248095 147.821852,11.8383191 147.722183,12.0653417 C147.670503,12.185313 147.644664,12.3385048 147.644664,12.5249217 L147.644664,14.1583689 L146.858394,14.1583689 L146.858394,11.1461816 L147.619747,11.1461816 L147.619747,11.5863818 C147.721261,11.4313419 147.817237,11.319678 147.907677,11.2513867 C148.070099,11.1295696 148.275893,11.0686621 148.525064,11.0686621 Z M150.006241,11.7303466 L150.006241,11.16833 L150.427061,11.16833 L150.427061,10.3266894 L151.207794,10.3266894 L151.207794,11.16833 L151.697828,11.16833 L151.697828,11.7303466 L151.207794,11.7303466 L151.207794,13.325034 C151.207794,13.4486967 151.223482,13.5257541 151.254859,13.5562083 C151.286236,13.5866626 151.382212,13.6018895 151.542789,13.6018895 C151.566783,13.6018895 151.592161,13.601428 151.618924,13.6005052 C151.645687,13.5995823 151.671988,13.5981981 151.697828,13.5963523 L151.697828,14.1860545 L151.324073,14.1998972 C150.951239,14.2128172 150.696535,14.1482183 150.559952,14.0060984 C150.471358,13.9156585 150.427061,13.7763093 150.427061,13.5880467 L150.427061,11.7303466 L150.006241,11.7303466 Z M153.868375,12.691035 C153.81854,12.7224121 153.768245,12.7477903 153.717488,12.7671703 C153.666731,12.7865502 153.597057,12.8045457 153.508462,12.8211571 L153.331275,12.8543797 C153.165161,12.8839111 153.046114,12.919902 152.974131,12.9623534 C152.852314,13.0343361 152.791407,13.1460001 152.791407,13.2973485 C152.791407,13.4320855 152.828782,13.5294453 152.903533,13.589431 C152.978285,13.6494166 153.069185,13.679409 153.176236,13.679409 C153.346041,13.679409 153.502463,13.6295755 153.645506,13.529907 C153.788549,13.4302386 153.862837,13.2484386 153.868375,12.9845018 L153.868375,12.691035 Z M153.389415,12.3228173 C153.535226,12.3043601 153.639507,12.2812891 153.702261,12.2536034 C153.81485,12.2056149 153.871143,12.1308647 153.871143,12.0293505 C153.871143,11.9056878 153.828231,11.8203248 153.742405,11.7732592 C153.65658,11.7261935 153.530612,11.702661 153.364498,11.702661 C153.178081,11.702661 153.046114,11.7488032 152.968594,11.8410888 C152.913223,11.9093801 152.876309,12.0016644 152.857852,12.1179442 L152.0965,12.1179442 C152.113111,11.8540074 152.186938,11.6371394 152.317984,11.4673339 C152.526549,11.2015513 152.884612,11.0686621 153.392183,11.0686621 C153.722566,11.0686621 154.016029,11.1341839 154.272583,11.2652294 C154.529137,11.396275 154.657413,11.6435967 154.657413,12.007202 L154.657413,13.3914793 C154.657413,13.4874563 154.659258,13.6037345 154.66295,13.7403172 C154.668487,13.8436771 154.684175,13.9138131 154.710015,13.9507273 C154.735855,13.9876416 154.774614,14.0180954 154.826294,14.0420896 L154.826294,14.1583689 L153.968042,14.1583689 C153.944048,14.0974604 153.927437,14.0402442 153.918208,13.9867185 C153.90898,13.9331929 153.901597,13.8722853 153.89606,13.8039939 C153.787163,13.9221195 153.661656,14.0227093 153.519537,14.1057664 C153.349731,14.2035891 153.15778,14.2524998 152.943677,14.2524998 C152.670512,14.2524998 152.444877,14.1745196 152.266766,14.0185569 C152.088654,13.8625942 151.9996,13.6415735 151.9996,13.3554881 C151.9996,12.9844999 152.142641,12.7159528 152.428726,12.5498387 C152.585612,12.4593988 152.816322,12.3947999 153.120865,12.3560399 L153.389415,12.3228173 Z M157.160186,12.2231493 C157.14542,12.1105608 157.107584,12.0090482 157.046675,11.9186083 C156.958081,11.7967913 156.820577,11.7358837 156.634161,11.7358837 C156.368378,11.7358837 156.186578,11.8678501 156.088755,12.131787 C156.037075,12.2720611 156.011236,12.4584753 156.011236,12.691035 C156.011236,12.9125205 156.037075,13.090629 156.088755,13.225366 C156.182887,13.4763829 156.360072,13.6018895 156.620318,13.6018895 C156.804889,13.6018895 156.935933,13.552056 157.013452,13.4523875 C157.090972,13.3527191 157.138037,13.2235211 157.154649,13.0647899 L157.960298,13.0647899 C157.941841,13.3047325 157.855094,13.5317517 157.700054,13.7458543 C157.452729,14.0910025 157.08636,14.263574 156.600938,14.263574 C156.115516,14.263574 155.758376,14.1196106 155.529507,13.8316795 C155.300639,13.5437484 155.186206,13.1699972 155.186206,12.7104149 C155.186206,12.1917698 155.312636,11.7884877 155.565498,11.5005566 C155.818361,11.2126254 156.167195,11.0686621 156.612012,11.0686621 C156.990383,11.0686621 157.299997,11.1535635 157.540862,11.3233691 C157.781728,11.4931746 157.924307,11.7930983 157.968604,12.2231493 L157.160186,12.2231493 Z M158.201162,11.7303466 L158.201162,11.16833 L158.621983,11.16833 L158.621983,10.3266894 L159.402715,10.3266894 L159.402715,11.16833 L159.892749,11.16833 L159.892749,11.7303466 L159.402715,11.7303466 L159.402715,13.325034 C159.402715,13.4486967 159.418403,13.5257541 159.44978,13.5562083 C159.481158,13.5866626 159.577133,13.6018895 159.73771,13.6018895 C159.761704,13.6018895 159.787083,13.601428 159.813845,13.6005052 C159.840608,13.5995823 159.866909,13.5981981 159.892749,13.5963523 L159.892749,14.1860545 L159.518994,14.1998972 C159.14616,14.2128172 158.891456,14.1482183 158.754873,14.0060984 C158.666279,13.9156585 158.621983,13.7763093 158.621983,13.5880467 L158.621983,11.7303466 L158.201162,11.7303466 Z M162.038379,10.0775195 L162.904937,10.0775195 L162.904937,12.5858299 C162.904937,12.8663782 162.938159,13.0712492 163.004605,13.200449 C163.107964,13.4293174 163.333138,13.5437498 163.680132,13.5437498 C164.02528,13.5437498 164.249531,13.4293174 164.352891,13.200449 C164.419336,13.0712492 164.452559,12.8663782 164.452559,12.5858299 L164.452559,10.0775195 L165.319116,10.0775195 L165.319116,12.5858299 C165.319116,13.0195723 165.251749,13.3573326 165.117012,13.5991209 C164.865995,14.0420918 164.38704,14.263574 163.680132,14.263574 C162.973224,14.263574 162.493346,14.0420918 162.240483,13.5991209 C162.105746,13.3573326 162.038379,13.0195723 162.038379,12.5858299 L162.038379,10.0775195 Z M166.684013,13.1949119 C166.700625,13.3351861 166.736616,13.434853 166.791987,13.4939158 C166.88981,13.5991214 167.070687,13.6517234 167.334624,13.6517234 C167.489664,13.6517234 167.612863,13.6286524 167.704226,13.5825096 C167.795589,13.5363668 167.841269,13.4671536 167.841269,13.374868 C167.841269,13.2862738 167.804356,13.2189063 167.730527,13.1727635 C167.656699,13.1266207 167.382614,13.0472563 166.908266,12.9346678 C166.56681,12.849765 166.325948,12.7436382 166.185674,12.616284 C166.0454,12.4907756 165.975264,12.3098985 165.975264,12.0736474 C165.975264,11.7949448 166.08462,11.5554672 166.303337,11.3552074 C166.522054,11.1549477 166.829822,11.0548193 167.22665,11.0548193 C167.603175,11.0548193 167.910021,11.1300309 168.147195,11.2804565 C168.384369,11.430882 168.520488,11.6906621 168.555556,12.0598046 L167.766518,12.0598046 C167.755444,11.9582904 167.726836,11.8780031 167.680693,11.8189403 C167.593945,11.711889 167.44629,11.6583642 167.237724,11.6583642 C167.066073,11.6583642 166.943797,11.6851266 166.870891,11.7386523 C166.797985,11.7921779 166.761533,11.8549312 166.761533,11.926914 C166.761533,12.0173539 166.800292,12.0828757 166.877812,12.1234813 C166.955332,12.1659327 167.229416,12.2388373 167.700073,12.3421971 C168.013844,12.4160256 168.249169,12.5276895 168.406054,12.6771922 C168.561094,12.8285406 168.638613,13.0177233 168.638613,13.2447459 C168.638613,13.5437513 168.52741,13.7878431 168.305002,13.9770286 C168.082594,14.1662141 167.738835,14.2608054 167.273716,14.2608054 C166.799368,14.2608054 166.449149,14.1606771 166.223049,13.9604173 C165.996949,13.7601575 165.883901,13.5049916 165.883901,13.1949119 L166.684013,13.1949119 Z" id="Home-About-Blog-Cont-Copy-12" fill="#4A4A4A"></path>
                <path d="M99.2126269,34 L98.3654492,34 L98.3654492,29.9191506 L99.2126269,29.9191506 L99.2126269,34 Z M99.6334472,31.5719777 L99.6334472,31.0099611 L100.054267,31.0099611 L100.054267,30.1683205 L100.835,30.1683205 L100.835,31.0099611 L101.325034,31.0099611 L101.325034,31.5719777 L100.835,31.5719777 L100.835,33.1666651 C100.835,33.2903278 100.850688,33.3673851 100.882065,33.3978394 C100.913442,33.4282936 101.009418,33.4435205 101.169995,33.4435205 C101.193989,33.4435205 101.219367,33.4430591 101.24613,33.4421363 C101.272893,33.4412134 101.299194,33.4398291 101.325034,33.4379834 L101.325034,34.0276855 L100.951279,34.0415283 C100.578445,34.0544483 100.323741,33.9898493 100.187158,33.8477295 C100.098564,33.7572896 100.054267,33.6179404 100.054267,33.4296778 L100.054267,31.5719777 L99.6334472,31.5719777 Z M103.022158,31.5525978 C102.839432,31.5525978 102.697776,31.609814 102.597185,31.7242482 C102.496593,31.8386823 102.433379,31.9937198 102.407539,32.1893653 L103.634008,32.1893653 C103.621089,31.9807998 103.557874,31.8225324 103.444363,31.7145582 C103.330851,31.6065841 103.190118,31.5525978 103.022158,31.5525978 Z M103.022158,30.9019875 C103.273175,30.9019875 103.499271,30.9490524 103.700454,31.0431838 C103.901636,31.1373151 104.067748,31.2858927 104.198794,31.488921 C104.316919,31.6679551 104.393515,31.8755946 104.428584,32.1118458 C104.448886,32.2502742 104.457192,32.4496082 104.453501,32.7098536 L102.388159,32.7098536 C102.399233,33.0125504 102.494286,33.2248041 102.67332,33.3466211 C102.782217,33.4222953 102.913261,33.4601319 103.066455,33.4601319 C103.228877,33.4601319 103.360844,33.4139898 103.462358,33.3217041 C103.517729,33.2718699 103.56664,33.2026567 103.609091,33.1140625 L104.414741,33.1140625 C104.394438,33.2930966 104.301231,33.4748966 104.135117,33.6594678 C103.876717,33.952936 103.514963,34.099668 103.049843,34.099668 C102.665935,34.099668 102.327252,33.9760071 102.033784,33.7286817 C101.740316,33.4813562 101.593584,33.078997 101.593584,32.5215919 C101.593584,31.9992553 101.726012,31.5987418 101.990871,31.3200392 C102.255731,31.0413367 102.59949,30.9019875 103.022158,30.9019875 Z M108.357163,30.9158302 C108.490054,30.9158302 108.621097,30.9416698 108.750297,30.9933498 C108.879497,31.0450297 108.996698,31.1354683 109.101904,31.2646681 C109.186806,31.3698737 109.244023,31.4990716 109.273554,31.6522657 C109.292011,31.7537799 109.30124,31.9023575 109.30124,32.098003 L109.295703,34 L108.487285,34 L108.487285,32.0786231 C108.487285,31.964189 108.468828,31.8700591 108.431914,31.7962306 C108.361776,31.6559565 108.232579,31.5858204 108.044316,31.5858204 C107.826522,31.5858204 107.676099,31.676259 107.593041,31.8571388 C107.55059,31.9531158 107.529365,32.0684711 107.529365,32.2032081 L107.529365,34 L106.73479,34 L106.73479,32.2032081 C106.73479,32.024174 106.716333,31.8940533 106.679418,31.8128419 C106.612973,31.6670306 106.482852,31.5941261 106.289052,31.5941261 C106.063875,31.5941261 105.912529,31.6670306 105.835009,31.8128419 C105.792558,31.895899 105.771333,32.0195598 105.771333,32.1838282 L105.771333,34 L104.97122,34 L104.97122,30.9878127 L105.73811,30.9878127 L105.73811,31.4280128 C105.835933,31.2711273 105.928217,31.1594634 106.014965,31.0930177 C106.16816,30.9748921 106.366571,30.9158302 106.610205,30.9158302 C106.840919,30.9158302 107.027333,30.9665866 107.169453,31.0681007 C107.283887,31.1622321 107.370634,31.2831244 107.429697,31.4307814 C107.533057,31.253593 107.661332,31.1234722 107.814526,31.0404152 C107.976949,30.9573581 108.157826,30.9158302 108.357163,30.9158302 Z M99.2126269,44 L98.3654492,44 L98.3654492,39.9191506 L99.2126269,39.9191506 L99.2126269,44 Z M99.6334472,41.5719777 L99.6334472,41.0099611 L100.054267,41.0099611 L100.054267,40.1683205 L100.835,40.1683205 L100.835,41.0099611 L101.325034,41.0099611 L101.325034,41.5719777 L100.835,41.5719777 L100.835,43.1666651 C100.835,43.2903278 100.850688,43.3673851 100.882065,43.3978394 C100.913442,43.4282936 101.009418,43.4435205 101.169995,43.4435205 C101.193989,43.4435205 101.219367,43.4430591 101.24613,43.4421363 C101.272893,43.4412134 101.299194,43.4398291 101.325034,43.4379834 L101.325034,44.0276855 L100.951279,44.0415283 C100.578445,44.0544483 100.323741,43.9898493 100.187158,43.8477295 C100.098564,43.7572896 100.054267,43.6179404 100.054267,43.4296778 L100.054267,41.5719777 L99.6334472,41.5719777 Z M103.022158,41.5525978 C102.839432,41.5525978 102.697776,41.609814 102.597185,41.7242482 C102.496593,41.8386823 102.433379,41.9937198 102.407539,42.1893653 L103.634008,42.1893653 C103.621089,41.9807998 103.557874,41.8225324 103.444363,41.7145582 C103.330851,41.6065841 103.190118,41.5525978 103.022158,41.5525978 Z M103.022158,40.9019875 C103.273175,40.9019875 103.499271,40.9490524 103.700454,41.0431838 C103.901636,41.1373151 104.067748,41.2858927 104.198794,41.488921 C104.316919,41.6679551 104.393515,41.8755946 104.428584,42.1118458 C104.448886,42.2502742 104.457192,42.4496082 104.453501,42.7098536 L102.388159,42.7098536 C102.399233,43.0125504 102.494286,43.2248041 102.67332,43.3466211 C102.782217,43.4222953 102.913261,43.4601319 103.066455,43.4601319 C103.228877,43.4601319 103.360844,43.4139898 103.462358,43.3217041 C103.517729,43.2718699 103.56664,43.2026567 103.609091,43.1140625 L104.414741,43.1140625 C104.394438,43.2930966 104.301231,43.4748966 104.135117,43.6594678 C103.876717,43.952936 103.514963,44.099668 103.049843,44.099668 C102.665935,44.099668 102.327252,43.9760071 102.033784,43.7286817 C101.740316,43.4813562 101.593584,43.078997 101.593584,42.5215919 C101.593584,41.9992553 101.726012,41.5987418 101.990871,41.3200392 C102.255731,41.0413367 102.59949,40.9019875 103.022158,40.9019875 Z M108.357163,40.9158302 C108.490054,40.9158302 108.621097,40.9416698 108.750297,40.9933498 C108.879497,41.0450297 108.996698,41.1354683 109.101904,41.2646681 C109.186806,41.3698737 109.244023,41.4990716 109.273554,41.6522657 C109.292011,41.7537799 109.30124,41.9023575 109.30124,42.098003 L109.295703,44 L108.487285,44 L108.487285,42.0786231 C108.487285,41.964189 108.468828,41.8700591 108.431914,41.7962306 C108.361776,41.6559565 108.232579,41.5858204 108.044316,41.5858204 C107.826522,41.5858204 107.676099,41.676259 107.593041,41.8571388 C107.55059,41.9531158 107.529365,42.0684711 107.529365,42.2032081 L107.529365,44 L106.73479,44 L106.73479,42.2032081 C106.73479,42.024174 106.716333,41.8940533 106.679418,41.8128419 C106.612973,41.6670306 106.482852,41.5941261 106.289052,41.5941261 C106.063875,41.5941261 105.912529,41.6670306 105.835009,41.8128419 C105.792558,41.895899 105.771333,42.0195598 105.771333,42.1838282 L105.771333,44 L104.97122,44 L104.97122,40.9878127 L105.73811,40.9878127 L105.73811,41.4280128 C105.835933,41.2711273 105.928217,41.1594634 106.014965,41.0930177 C106.16816,40.9748921 106.366571,40.9158302 106.610205,40.9158302 C106.840919,40.9158302 107.027333,40.9665866 107.169453,41.0681007 C107.283887,41.1622321 107.370634,41.2831244 107.429697,41.4307814 C107.533057,41.253593 107.661332,41.1234722 107.814526,41.0404152 C107.976949,40.9573581 108.157826,40.9158302 108.357163,40.9158302 Z M99.2126269,54 L98.3654492,54 L98.3654492,49.9191506 L99.2126269,49.9191506 L99.2126269,54 Z M99.6334472,51.5719777 L99.6334472,51.0099611 L100.054267,51.0099611 L100.054267,50.1683205 L100.835,50.1683205 L100.835,51.0099611 L101.325034,51.0099611 L101.325034,51.5719777 L100.835,51.5719777 L100.835,53.1666651 C100.835,53.2903278 100.850688,53.3673851 100.882065,53.3978394 C100.913442,53.4282936 101.009418,53.4435205 101.169995,53.4435205 C101.193989,53.4435205 101.219367,53.4430591 101.24613,53.4421363 C101.272893,53.4412134 101.299194,53.4398291 101.325034,53.4379834 L101.325034,54.0276855 L100.951279,54.0415283 C100.578445,54.0544483 100.323741,53.9898493 100.187158,53.8477295 C100.098564,53.7572896 100.054267,53.6179404 100.054267,53.4296778 L100.054267,51.5719777 L99.6334472,51.5719777 Z M103.022158,51.5525978 C102.839432,51.5525978 102.697776,51.609814 102.597185,51.7242482 C102.496593,51.8386823 102.433379,51.9937198 102.407539,52.1893653 L103.634008,52.1893653 C103.621089,51.9807998 103.557874,51.8225324 103.444363,51.7145582 C103.330851,51.6065841 103.190118,51.5525978 103.022158,51.5525978 Z M103.022158,50.9019875 C103.273175,50.9019875 103.499271,50.9490524 103.700454,51.0431838 C103.901636,51.1373151 104.067748,51.2858927 104.198794,51.488921 C104.316919,51.6679551 104.393515,51.8755946 104.428584,52.1118458 C104.448886,52.2502742 104.457192,52.4496082 104.453501,52.7098536 L102.388159,52.7098536 C102.399233,53.0125504 102.494286,53.2248041 102.67332,53.3466211 C102.782217,53.4222953 102.913261,53.4601319 103.066455,53.4601319 C103.228877,53.4601319 103.360844,53.4139898 103.462358,53.3217041 C103.517729,53.2718699 103.56664,53.2026567 103.609091,53.1140625 L104.414741,53.1140625 C104.394438,53.2930966 104.301231,53.4748966 104.135117,53.6594678 C103.876717,53.952936 103.514963,54.099668 103.049843,54.099668 C102.665935,54.099668 102.327252,53.9760071 102.033784,53.7286817 C101.740316,53.4813562 101.593584,53.078997 101.593584,52.5215919 C101.593584,51.9992553 101.726012,51.5987418 101.990871,51.3200392 C102.255731,51.0413367 102.59949,50.9019875 103.022158,50.9019875 Z M108.357163,50.9158302 C108.490054,50.9158302 108.621097,50.9416698 108.750297,50.9933498 C108.879497,51.0450297 108.996698,51.1354683 109.101904,51.2646681 C109.186806,51.3698737 109.244023,51.4990716 109.273554,51.6522657 C109.292011,51.7537799 109.30124,51.9023575 109.30124,52.098003 L109.295703,54 L108.487285,54 L108.487285,52.0786231 C108.487285,51.964189 108.468828,51.8700591 108.431914,51.7962306 C108.361776,51.6559565 108.232579,51.5858204 108.044316,51.5858204 C107.826522,51.5858204 107.676099,51.676259 107.593041,51.8571388 C107.55059,51.9531158 107.529365,52.0684711 107.529365,52.2032081 L107.529365,54 L106.73479,54 L106.73479,52.2032081 C106.73479,52.024174 106.716333,51.8940533 106.679418,51.8128419 C106.612973,51.6670306 106.482852,51.5941261 106.289052,51.5941261 C106.063875,51.5941261 105.912529,51.6670306 105.835009,51.8128419 C105.792558,51.895899 105.771333,52.0195598 105.771333,52.1838282 L105.771333,54 L104.97122,54 L104.97122,50.9878127 L105.73811,50.9878127 L105.73811,51.4280128 C105.835933,51.2711273 105.928217,51.1594634 106.014965,51.0930177 C106.16816,50.9748921 106.366571,50.9158302 106.610205,50.9158302 C106.840919,50.9158302 107.027333,50.9665866 107.169453,51.0681007 C107.283887,51.1622321 107.370634,51.2831244 107.429697,51.4307814 C107.533057,51.253593 107.661332,51.1234722 107.814526,51.0404152 C107.976949,50.9573581 108.157826,50.9158302 108.357163,50.9158302 Z" id="Item-Item-Item-Copy-5" fill="#4A4A4A"></path>
                <path d="M149.5,35.25 L141.5,35.25" id="Line-2" stroke="#979797" stroke-width="3" stroke-linecap="square"></path>
                <path d="M80.5,34.2083333 L72.5,34.2083333" id="Line-2-Copy" stroke="#979797" stroke-width="3" stroke-linecap="square"></path>
                <path d="M80,48 L73,51" id="Line-2-Copy-2" stroke="#979797" stroke-width="3" stroke-linecap="square"></path>
                <path d="M85,66 L79,72" id="Line-2-Copy-4" stroke="#979797" stroke-width="3" stroke-linecap="square"></path>
                <path d="M140,48 L149,53 L140,48 Z" id="Line-2-Copy-3" stroke="#979797" stroke-width="3" stroke-linecap="square"></path>
                <path d="M137,68 L146,73 L137,68 Z" id="Line-2-Copy-5" stroke="#979797" stroke-width="3" stroke-linecap="square" transform="translate(141.500000, 70.500000) rotate(19.000000) translate(-141.500000, -70.500000) "></path>
            </g>
        </g>
    </g>
</svg>