<?xml version="1.0" encoding="UTF-8"?>
<svg width="178px" height="120px" viewBox="0 0 178 120" version="1.1" xmlns="http://www.w3.org/2000/svg" xmlns:xlink="http://www.w3.org/1999/xlink">
    <!-- Generator: Sketch 51.2 (57519) - http://www.bohemiancoding.com/sketch -->
    <title>Group 28</title>
    <desc>Created with Sketch.</desc>
    <defs></defs>
    <g id="Page-1" stroke="none" stroke-width="1" fill="none" fill-rule="evenodd">
        <g id="Desktop-HD" transform="translate(-631.000000, -4081.000000)">
            <g id="Group-28" transform="translate(631.000000, 4081.000000)">
                <rect id="Rectangle-2-Copy-61" stroke="#9B9B9B" stroke-width="1.61999991" fill="#F9F9F9" x="0.809999957" y="0.809999957" width="176.38" height="117.38" rx="6.47999966"></rect>
                <path d="M177,83 L177,112.52 C177,116.098805 174.131403,119 170.592809,119 L7.40719067,119 C3.86859697,119 1,116.098805 1,112.52 L1,83" id="Rectangle-2-Copy-61" stroke="#9B9B9B" stroke-width="1.61999991" fill="#DEDDDD"></path>
                <path d="M0.809999957,22.19 L177.19,22.19 L177.19,6.47999966 C177.19,3.34854529 174.651455,0.809999957 171.52,0.809999957 L6.47999966,0.809999957 C3.34854529,0.809999957 0.809999957,3.34854529 0.809999957,6.47999966 L0.809999957,22.19 Z" id="Rectangle-2-Copy-62" stroke="#9B9B9B" stroke-width="1.61999991" fill="#FFFFFF"></path>
                <g id="brand-copy-28" transform="translate(11.000000, 9.000000)" fill="#4A4A4A" fill-rule="nonzero">
                    <g id="#000000ff">
                        <path d="M0.0243116872,0 L1.17755844,0 C1.19314286,0.585742574 1.17880519,1.17148515 1.18566234,1.75722772 C1.92,1.31168317 2.92176623,1.35742574 3.63179221,1.82554455 C4.16415584,2.17069307 4.56062338,2.71960396 4.65537662,3.33148515 C4.71148052,3.72356436 4.6852987,4.13287129 4.53693506,4.50534653 C4.20342857,5.34118812 3.31885714,5.96613861 2.37007792,5.96079208 C1.8638961,5.98574257 1.36955844,5.80514851 0.982441557,5.49980198 C0.730597401,5.74455446 0.379636363,5.86811881 0.0211948041,5.81940594 C0.013090908,3.87980198 0.00623376512,1.93960396 0.0243116872,0 Z M2.08020779,2.58356436 C1.63885714,2.66257426 1.26296104,3.00237624 1.15324675,3.41643564 C0.967480518,4.04079208 1.44187013,4.74950495 2.12072727,4.83326733 C2.83137662,4.97108911 3.55698701,4.37108911 3.5145974,3.6819802 C3.52955844,2.99524752 2.78088312,2.4249505 2.08020779,2.58356436 Z" id="Shape"></path>
                        <path d="M6.72685714,1.46554455 C7.24737662,1.42455446 7.78098701,1.46673267 8.28093506,1.61762376 C8.28779221,1.97108911 8.28841558,2.32514851 8.28218182,2.67861386 C8.27096104,2.70534653 8.24851948,2.76 8.23667532,2.78732673 C7.776,2.5639604 7.24114286,2.51465347 6.73309091,2.56752475 C6.59594805,2.57524752 6.36841558,2.67267327 6.48997403,2.83128713 C6.94441558,3.06356436 7.43127273,3.23584158 7.8825974,3.47346535 C8.3918961,3.74792079 8.66431169,4.35980198 8.50348052,4.8980198 C8.40623377,5.28118812 8.12446753,5.6150495 7.7467013,5.77841584 C7.16197403,6.03386139 6.4881039,5.99762376 5.8747013,5.86633663 C5.66774026,5.83366337 5.46888312,5.67683168 5.46202597,5.46653465 C5.45142857,5.15881188 5.44706494,4.85049505 5.46950649,4.5439604 C6.00561039,4.77683168 6.61963636,4.95920792 7.20685714,4.79346535 C7.39075325,4.75425743 7.43937662,4.50356436 7.2854026,4.40257426 C6.77672727,4.10019802 6.16332468,3.96950495 5.69080519,3.61009901 C5.23948052,3.22693069 5.17215584,2.51881188 5.52374026,2.05425743 C5.78742857,1.6770297 6.26867532,1.50178218 6.72685714,1.46554455 Z" id="Shape"></path>
                        <path d="M9.87677922,1.92772277 C10.358026,1.52376238 11.0331429,1.41920792 11.654026,1.4560396 C12.1795325,1.48217822 12.7193766,1.65089109 13.0902857,2.01980198 C13.3633247,2.28475248 13.5017143,2.65782178 13.4954805,3.02673267 C13.4985974,3.95465347 13.4998442,4.88257426 13.4954805,5.81049505 C13.2155844,5.82950495 12.9338182,5.82534653 12.6539221,5.81821782 C12.4675325,5.8170297 12.3141818,5.64118812 12.3285195,5.46772277 C12.3235325,4.65564356 12.3297662,3.84356436 12.326026,3.03148515 C12.3397403,2.87584158 12.2275325,2.73683168 12.0797922,2.6809901 C11.7518961,2.54019802 11.3747532,2.54079208 11.0269091,2.6019802 C10.8211948,2.6429703 10.5624935,2.74574257 10.5437922,2.97623762 C10.5238442,3.92257426 10.5537662,4.86950495 10.5294545,5.81584158 C10.1442078,5.82475248 9.75896104,5.82891089 9.37371429,5.81346535 C9.36187013,4.88435644 9.37122078,3.95524752 9.36935065,3.02613861 C9.36374026,2.61267327 9.5414026,2.19564356 9.87677922,1.92772277 Z" id="Shape"></path>
                        <path d="M15.4404156,1.70792079 C16.2052987,1.31940594 17.2313766,1.34970297 17.8946494,1.91405941 C18.1365195,1.66039604 18.4924675,1.54752475 18.8477922,1.59267327 C18.8608831,3.00178218 18.8658701,4.41207921 18.8446753,5.82118812 C18.4918442,5.86158416 18.1377662,5.75049505 17.8958961,5.49920792 C17.5106494,5.8009901 17.0231688,5.98455446 16.5201039,5.96079208 C15.6492468,5.97029703 14.8232727,5.45108911 14.4361558,4.71623762 C14.1899221,4.26594059 14.1375584,3.73366337 14.2366753,3.23821782 C14.3650909,2.58772277 14.8413506,2.02811881 15.4404156,1.70792079 Z M16.3555325,2.57940594 C15.739013,2.65960396 15.2714805,3.26316832 15.3662338,3.84831683 C15.4260779,4.39009901 15.9478442,4.84752475 16.521974,4.84693069 C17.1821299,4.88792079 17.7905455,4.31465347 17.7556364,3.68435644 C17.7730909,3.00831683 17.0493506,2.43920792 16.3555325,2.57940594 Z" id="Shape"></path>
                        <path d="M19.3365195,1.60336634 C19.6232727,1.57841584 19.9118961,1.59326733 20.1992727,1.58910891 C20.3251948,1.59386139 20.4673247,1.58435644 20.5701818,1.66633663 C20.6630649,1.74356436 20.7067013,1.8570297 20.7590649,1.95980198 C21.0545455,2.61207921 21.3581299,3.26079208 21.6536104,3.91247525 C22.0145455,3.15029703 22.3561558,2.37980198 22.7152208,1.6170297 C23.1229091,1.5570297 23.553039,1.59980198 23.9688312,1.5980198 C23.9326753,1.77445545 23.8435325,1.93425743 23.7693506,2.09821782 C23.2282597,3.26613861 22.694026,4.4370297 22.1510649,5.60435644 C21.9877403,6.0029703 21.2777143,5.98039604 21.1449351,5.56871287 C20.6306494,4.45663366 20.1201039,3.34336634 19.6064416,2.23128713 C19.5154286,2.02217822 19.4013506,1.8219802 19.3365195,1.60336634 Z" id="Shape"></path>
                    </g>
                </g>
                <path d="M78.6731396,12.7403077 C78.6989795,12.9267246 78.7497358,13.0660738 78.8254101,13.1583594 C78.9638385,13.3263192 79.2010089,13.4102979 79.5369286,13.4102979 C79.7381112,13.4102979 79.9014543,13.3881497 80.0269627,13.3438526 C80.2650596,13.2589498 80.3841063,13.1011438 80.3841063,12.8704297 C80.3841063,12.7356928 80.3250444,12.6314116 80.2069188,12.5575831 C80.0887932,12.4856003 79.9033019,12.4219242 79.6504393,12.3665528 L79.2185448,12.2696534 C78.794031,12.1736764 78.5005671,12.0693952 78.3381445,11.9568067 C78.0631333,11.7685441 77.9256298,11.4741574 77.9256298,11.0736379 C77.9256298,10.7081868 78.0585191,10.4045717 78.3243017,10.1627834 C78.5900842,9.9209951 78.9804465,9.80010276 79.4954002,9.80010276 C79.9254512,9.80010276 80.292281,9.91407378 80.5959007,10.1420192 C80.8995203,10.3699647 81.0587106,10.7008037 81.0734763,11.1345461 L80.2539842,11.1345461 C80.2392185,10.8890663 80.1321688,10.7146491 79.9328319,10.6112892 C79.7999406,10.5429979 79.6347518,10.5088527 79.4372606,10.5088527 C79.2176208,10.5088527 79.0422808,10.5531492 78.9112352,10.6417433 C78.7801897,10.7303375 78.7146679,10.8539984 78.7146679,11.0127297 C78.7146679,11.1585409 78.7792668,11.2674363 78.9084667,11.3394191 C78.9915237,11.3874076 79.1687095,11.443701 79.4400292,11.5083009 L80.143242,11.6771827 C80.451476,11.7510112 80.6840322,11.8497554 80.8409178,11.9734181 C81.0845518,12.1653722 81.206367,12.4431477 81.206367,12.806753 C81.206367,13.1795869 81.0637878,13.4892005 80.7786253,13.735603 C80.4934627,13.9820056 80.0906421,14.1052051 79.5701512,14.1052051 C79.0385861,14.1052051 78.6205385,13.9838513 78.315996,13.7411402 C78.0114535,13.498429 77.8591845,13.1648215 77.8591845,12.7403077 L78.6731396,12.7403077 Z M82.9643991,11.5525978 C82.7816736,11.5525978 82.6400173,11.609814 82.539426,11.7242482 C82.4388346,11.8386823 82.37562,11.9937198 82.34978,12.1893653 L83.5762496,12.1893653 C83.5633297,11.9807998 83.500115,11.8225324 83.3866037,11.7145582 C83.2730924,11.6065841 83.1323589,11.5525978 82.9643991,11.5525978 Z M82.9643991,10.9019875 C83.215416,10.9019875 83.4415123,10.9490524 83.642695,11.0431838 C83.8438776,11.1373151 84.0099892,11.2858927 84.1410348,11.488921 C84.2591604,11.6679551 84.3357563,11.8755946 84.3708248,12.1118458 C84.3911276,12.2502742 84.3994332,12.4496082 84.3957418,12.7098536 L82.3304001,12.7098536 C82.3414744,13.0125504 82.4365271,13.2248041 82.6155612,13.3466211 C82.7244582,13.4222953 82.8555018,13.4601319 83.008696,13.4601319 C83.1711186,13.4601319 83.3030851,13.4139898 83.4045993,13.3217041 C83.4599706,13.2718699 83.5088813,13.2026567 83.5513327,13.1140625 L84.356982,13.1140625 C84.3366792,13.2930966 84.2434721,13.4748966 84.077358,13.6594678 C83.8189583,13.952936 83.4572041,14.099668 82.9920846,14.099668 C82.6081765,14.099668 82.2694934,13.9760071 81.9760251,13.7286817 C81.6825569,13.4813562 81.5358249,13.078997 81.5358249,12.5215919 C81.5358249,11.9992553 81.6682528,11.5987418 81.9331125,11.3200392 C82.1979722,11.0413367 82.541731,10.9019875 82.9643991,10.9019875 Z M86.7296333,12.0647804 C86.7148676,11.9521919 86.677031,11.8506793 86.6161225,11.7602394 C86.5275283,11.6384224 86.3900248,11.5775148 86.2036079,11.5775148 C85.9378253,11.5775148 85.7560254,11.7094812 85.6582027,11.9734181 C85.6065227,12.1136922 85.5806831,12.3001063 85.5806831,12.5326661 C85.5806831,12.7541516 85.6065227,12.9322601 85.6582027,13.0669971 C85.752334,13.318014 85.9295197,13.4435205 86.1897651,13.4435205 C86.3743364,13.4435205 86.50538,13.3936871 86.5828999,13.2940186 C86.6604198,13.1943501 86.7074847,13.0651522 86.7240962,12.906421 L87.5297455,12.906421 C87.5112884,13.1463635 87.4245412,13.3733828 87.2695014,13.5874854 C87.022176,13.9326336 86.6558076,14.1052051 86.1703852,14.1052051 C85.6849629,14.1052051 85.327823,13.9612417 85.0989546,13.6733106 C84.8700863,13.3853795 84.7556539,13.0116283 84.7556539,12.552046 C84.7556539,12.0334008 84.8820833,11.6301188 85.1349458,11.3421876 C85.3878084,11.0542565 85.7366428,10.9102931 86.1814595,10.9102931 C86.5598305,10.9102931 86.8694441,10.9951946 87.1103095,11.1650002 C87.351175,11.3348057 87.4937541,11.6347294 87.5380512,12.0647804 L86.7296333,12.0647804 Z M87.7706098,11.5719777 L87.7706098,11.0099611 L88.1914301,11.0099611 L88.1914301,10.1683205 L88.9721624,10.1683205 L88.9721624,11.0099611 L89.4621966,11.0099611 L89.4621966,11.5719777 L88.9721624,11.5719777 L88.9721624,13.1666651 C88.9721624,13.2903278 88.9878508,13.3673851 89.0192279,13.3978394 C89.050605,13.4282936 89.1465806,13.4435205 89.3071575,13.4435205 C89.3311518,13.4435205 89.35653,13.4430591 89.3832928,13.4421363 C89.4100556,13.4412134 89.4363566,13.4398291 89.4621966,13.4379834 L89.4621966,14.0276855 L89.0884417,14.0415283 C88.7156079,14.0544483 88.4609034,13.9898493 88.3243207,13.8477295 C88.2357265,13.7572896 88.1914301,13.6179404 88.1914301,13.4296778 L88.1914301,11.5719777 L87.7706098,11.5719777 Z M90.7800286,10.6223635 L89.9799163,10.6223635 L89.9799163,9.89423362 L90.7800286,9.89423362 L90.7800286,10.6223635 Z M89.9799163,10.9822756 L90.7800286,10.9822756 L90.7800286,14 L89.9799163,14 L89.9799163,10.9822756 Z M92.8979728,13.4435205 C93.1286868,13.4435205 93.3058725,13.3613876 93.4295353,13.1971192 C93.553198,13.0328508 93.6150284,12.7993717 93.6150284,12.4966749 C93.6150284,12.1939781 93.553198,11.9609604 93.4295353,11.7976149 C93.3058725,11.6342693 93.1286868,11.5525978 92.8979728,11.5525978 C92.6672588,11.5525978 92.4896116,11.6342693 92.365026,11.7976149 C92.2404405,11.9609604 92.1781486,12.1939781 92.1781486,12.4966749 C92.1781486,12.7993717 92.2404405,13.0328508 92.365026,13.1971192 C92.4896116,13.3613876 92.6672588,13.4435205 92.8979728,13.4435205 Z M94.4428262,12.4966749 C94.4428262,12.9396458 94.315474,13.3184726 94.0607657,13.6331665 C93.8060574,13.9478605 93.4193865,14.1052051 92.9007413,14.1052051 C92.3820962,14.1052051 91.9954253,13.9478605 91.740717,13.6331665 C91.4860087,13.3184726 91.3586565,12.9396458 91.3586565,12.4966749 C91.3586565,12.0610868 91.4860087,11.6836443 91.740717,11.3643361 C91.9954253,11.0450279 92.3820962,10.8853761 92.9007413,10.8853761 C93.4193865,10.8853761 93.8060574,11.0450279 94.0607657,11.3643361 C94.315474,11.6836443 94.4428262,12.0610868 94.4428262,12.4966749 Z M96.6798183,10.9102931 C96.9917437,10.9102931 97.2469095,10.9919647 97.4453236,11.1553102 C97.6437377,11.3186557 97.7429432,11.58951 97.7429432,11.967881 L97.7429432,14 L96.9345253,14 L96.9345253,12.1644483 C96.9345253,12.0057171 96.9132999,11.8839019 96.8708485,11.7989991 C96.7933286,11.6439593 96.6456739,11.5664406 96.4278798,11.5664406 C96.1602515,11.5664406 95.9766059,11.6799502 95.8769375,11.9069728 C95.8252575,12.0269441 95.7994179,12.1801359 95.7994179,12.3665528 L95.7994179,14 L95.0131485,14 L95.0131485,10.9878127 L95.7745009,10.9878127 L95.7745009,11.4280128 C95.8760151,11.272973 95.9719907,11.1613091 96.0624306,11.0930177 C96.2248533,10.9712007 96.4306471,10.9102931 96.6798183,10.9102931 Z M100.071298,11.2314455 L100.071298,10.6943459 C100.320469,10.6832716 100.494886,10.6666604 100.594554,10.6445119 C100.753286,10.6094434 100.882484,10.5393074 100.982152,10.4341018 C101.050443,10.362119 101.102123,10.2661434 101.137191,10.1461721 C101.157494,10.0741893 101.167645,10.0206644 101.167645,9.98559592 L101.823793,9.98559592 L101.823793,14 L101.015375,14 L101.015375,11.2314455 L100.071298,11.2314455 Z M111.757366,12.7403077 C111.783206,12.9267246 111.833963,13.0660738 111.909637,13.1583594 C112.048065,13.3263192 112.285236,13.4102979 112.621155,13.4102979 C112.822338,13.4102979 112.985681,13.3881497 113.111189,13.3438526 C113.349286,13.2589498 113.468333,13.1011438 113.468333,12.8704297 C113.468333,12.7356928 113.409271,12.6314116 113.291146,12.5575831 C113.17302,12.4856003 112.987529,12.4219242 112.734666,12.3665528 L112.302772,12.2696534 C111.878258,12.1736764 111.584794,12.0693952 111.422371,11.9568067 C111.14736,11.7685441 111.009857,11.4741574 111.009857,11.0736379 C111.009857,10.7081868 111.142746,10.4045717 111.408528,10.1627834 C111.674311,9.9209951 112.064673,9.80010276 112.579627,9.80010276 C113.009678,9.80010276 113.376508,9.91407378 113.680127,10.1420192 C113.983747,10.3699647 114.142937,10.7008037 114.157703,11.1345461 L113.338211,11.1345461 C113.323445,10.8890663 113.216396,10.7146491 113.017059,10.6112892 C112.884167,10.5429979 112.718979,10.5088527 112.521487,10.5088527 C112.301848,10.5088527 112.126508,10.5531492 111.995462,10.6417433 C111.864416,10.7303375 111.798895,10.8539984 111.798895,11.0127297 C111.798895,11.1585409 111.863494,11.2674363 111.992693,11.3394191 C112.075751,11.3874076 112.252936,11.443701 112.524256,11.5083009 L113.227469,11.6771827 C113.535703,11.7510112 113.768259,11.8497554 113.925145,11.9734181 C114.168779,12.1653722 114.290594,12.4431477 114.290594,12.806753 C114.290594,13.1795869 114.148015,13.4892005 113.862852,13.735603 C113.577689,13.9820056 113.174869,14.1052051 112.654378,14.1052051 C112.122813,14.1052051 111.704765,13.9838513 111.400223,13.7411402 C111.09568,13.498429 110.943411,13.1648215 110.943411,12.7403077 L111.757366,12.7403077 Z M116.048626,11.5525978 C115.8659,11.5525978 115.724244,11.609814 115.623653,11.7242482 C115.523061,11.8386823 115.459847,11.9937198 115.434007,12.1893653 L116.660476,12.1893653 C116.647556,11.9807998 116.584342,11.8225324 116.47083,11.7145582 C116.357319,11.6065841 116.216586,11.5525978 116.048626,11.5525978 Z M116.048626,10.9019875 C116.299643,10.9019875 116.525739,10.9490524 116.726922,11.0431838 C116.928104,11.1373151 117.094216,11.2858927 117.225262,11.488921 C117.343387,11.6679551 117.419983,11.8755946 117.455052,12.1118458 C117.475354,12.2502742 117.48366,12.4496082 117.479969,12.7098536 L115.414627,12.7098536 C115.425701,13.0125504 115.520754,13.2248041 115.699788,13.3466211 C115.808685,13.4222953 115.939729,13.4601319 116.092923,13.4601319 C116.255345,13.4601319 116.387312,13.4139898 116.488826,13.3217041 C116.544197,13.2718699 116.593108,13.2026567 116.635559,13.1140625 L117.441209,13.1140625 C117.420906,13.2930966 117.327699,13.4748966 117.161585,13.6594678 C116.903185,13.952936 116.541431,14.099668 116.076311,14.099668 C115.692403,14.099668 115.35372,13.9760071 115.060252,13.7286817 C114.766784,13.4813562 114.620052,13.078997 114.620052,12.5215919 C114.620052,11.9992553 114.75248,11.5987418 115.017339,11.3200392 C115.282199,11.0413367 115.625958,10.9019875 116.048626,10.9019875 Z M119.81386,12.0647804 C119.799094,11.9521919 119.761258,11.8506793 119.700349,11.7602394 C119.611755,11.6384224 119.474252,11.5775148 119.287835,11.5775148 C119.022052,11.5775148 118.840252,11.7094812 118.742429,11.9734181 C118.690749,12.1136922 118.66491,12.3001063 118.66491,12.5326661 C118.66491,12.7541516 118.690749,12.9322601 118.742429,13.0669971 C118.836561,13.318014 119.013746,13.4435205 119.273992,13.4435205 C119.458563,13.4435205 119.589607,13.3936871 119.667127,13.2940186 C119.744647,13.1943501 119.791712,13.0651522 119.808323,12.906421 L120.613972,12.906421 C120.595515,13.1463635 120.508768,13.3733828 120.353728,13.5874854 C120.106403,13.9326336 119.740034,14.1052051 119.254612,14.1052051 C118.76919,14.1052051 118.41205,13.9612417 118.183181,13.6733106 C117.954313,13.3853795 117.839881,13.0116283 117.839881,12.552046 C117.839881,12.0334008 117.96631,11.6301188 118.219173,11.3421876 C118.472035,11.0542565 118.82087,10.9102931 119.265686,10.9102931 C119.644057,10.9102931 119.953671,10.9951946 120.194536,11.1650002 C120.435402,11.3348057 120.577981,11.6347294 120.622278,12.0647804 L119.81386,12.0647804 Z M120.854837,11.5719777 L120.854837,11.0099611 L121.275657,11.0099611 L121.275657,10.1683205 L122.056389,10.1683205 L122.056389,11.0099611 L122.546423,11.0099611 L122.546423,11.5719777 L122.056389,11.5719777 L122.056389,13.1666651 C122.056389,13.2903278 122.072078,13.3673851 122.103455,13.3978394 C122.134832,13.4282936 122.230807,13.4435205 122.391384,13.4435205 C122.415379,13.4435205 122.440757,13.4430591 122.46752,13.4421363 C122.494282,13.4412134 122.520583,13.4398291 122.546423,13.4379834 L122.546423,14.0276855 L122.172668,14.0415283 C121.799835,14.0544483 121.54513,13.9898493 121.408547,13.8477295 C121.319953,13.7572896 121.275657,13.6179404 121.275657,13.4296778 L121.275657,11.5719777 L120.854837,11.5719777 Z M123.864255,10.6223635 L123.064143,10.6223635 L123.064143,9.89423362 L123.864255,9.89423362 L123.864255,10.6223635 Z M123.064143,10.9822756 L123.864255,10.9822756 L123.864255,14 L123.064143,14 L123.064143,10.9822756 Z M125.9822,13.4435205 C126.212914,13.4435205 126.390099,13.3613876 126.513762,13.1971192 C126.637425,13.0328508 126.699255,12.7993717 126.699255,12.4966749 C126.699255,12.1939781 126.637425,11.9609604 126.513762,11.7976149 C126.390099,11.6342693 126.212914,11.5525978 125.9822,11.5525978 C125.751486,11.5525978 125.573838,11.6342693 125.449253,11.7976149 C125.324667,11.9609604 125.262375,12.1939781 125.262375,12.4966749 C125.262375,12.7993717 125.324667,13.0328508 125.449253,13.1971192 C125.573838,13.3613876 125.751486,13.4435205 125.9822,13.4435205 Z M127.527053,12.4966749 C127.527053,12.9396458 127.399701,13.3184726 127.144992,13.6331665 C126.890284,13.9478605 126.503613,14.1052051 125.984968,14.1052051 C125.466323,14.1052051 125.079652,13.9478605 124.824944,13.6331665 C124.570235,13.3184726 124.442883,12.9396458 124.442883,12.4966749 C124.442883,12.0610868 124.570235,11.6836443 124.824944,11.3643361 C125.079652,11.0450279 125.466323,10.8853761 125.984968,10.8853761 C126.503613,10.8853761 126.890284,11.0450279 127.144992,11.3643361 C127.399701,11.6836443 127.527053,12.0610868 127.527053,12.4966749 Z M129.764045,10.9102931 C130.07597,10.9102931 130.331136,10.9919647 130.52955,11.1553102 C130.727964,11.3186557 130.82717,11.58951 130.82717,11.967881 L130.82717,14 L130.018752,14 L130.018752,12.1644483 C130.018752,12.0057171 129.997527,11.8839019 129.955075,11.7989991 C129.877555,11.6439593 129.729901,11.5664406 129.512107,11.5664406 C129.244478,11.5664406 129.060833,11.6799502 128.961164,11.9069728 C128.909484,12.0269441 128.883645,12.1801359 128.883645,12.3665528 L128.883645,14 L128.097375,14 L128.097375,10.9878127 L128.858728,10.9878127 L128.858728,11.4280128 C128.960242,11.272973 129.056217,11.1613091 129.146657,11.0930177 C129.30908,10.9712007 129.514874,10.9102931 129.764045,10.9102931 Z M132.939577,14 C132.94696,13.7120689 133.00879,13.4490588 133.12507,13.210962 C133.237659,12.9433337 133.503437,12.6600211 133.922414,12.3610157 C134.286019,12.1007703 134.521344,11.9143561 134.628395,11.8017677 C134.792664,11.626425 134.874797,11.4344738 134.874797,11.2259084 C134.874797,11.0561028 134.827732,10.914908 134.7336,10.8023195 C134.639469,10.6897311 134.504734,10.6334377 134.329391,10.6334377 C134.089449,10.6334377 133.926106,10.7229534 133.839357,10.9019875 C133.789523,11.0053474 133.759992,11.1696133 133.750764,11.3947902 L132.983874,11.3947902 C132.996794,11.0533334 133.058624,10.7774036 133.169367,10.5669924 C133.379778,10.1664728 133.753529,9.96621603 134.290632,9.96621603 C134.715146,9.96621603 135.052906,10.0838784 135.303923,10.3192067 C135.55494,10.5545351 135.680446,10.8659943 135.680446,11.2535939 C135.680446,11.5507536 135.591853,11.8146865 135.414665,12.0454005 C135.298385,12.1985946 135.107357,12.3693204 134.841574,12.5575831 L134.525959,12.781836 C134.328468,12.9221101 134.193271,13.0236228 134.120366,13.086377 C134.04746,13.1491312 133.986091,13.2220358 133.936257,13.3050928 L135.688752,13.3050928 L135.688752,14 L132.939577,14 Z M144.841593,12.7403077 C144.867433,12.9267246 144.918189,13.0660738 144.993864,13.1583594 C145.132292,13.3263192 145.369462,13.4102979 145.705382,13.4102979 C145.906565,13.4102979 146.069908,13.3881497 146.195416,13.3438526 C146.433513,13.2589498 146.55256,13.1011438 146.55256,12.8704297 C146.55256,12.7356928 146.493498,12.6314116 146.375372,12.5575831 C146.257247,12.4856003 146.071755,12.4219242 145.818893,12.3665528 L145.386998,12.2696534 C144.962485,12.1736764 144.669021,12.0693952 144.506598,11.9568067 C144.231587,11.7685441 144.094083,11.4741574 144.094083,11.0736379 C144.094083,10.7081868 144.226973,10.4045717 144.492755,10.1627834 C144.758538,9.9209951 145.1489,9.80010276 145.663854,9.80010276 C146.093905,9.80010276 146.460735,9.91407378 146.764354,10.1420192 C147.067974,10.3699647 147.227164,10.7008037 147.24193,11.1345461 L146.422438,11.1345461 C146.407672,10.8890663 146.300622,10.7146491 146.101285,10.6112892 C145.968394,10.5429979 145.803205,10.5088527 145.605714,10.5088527 C145.386074,10.5088527 145.210734,10.5531492 145.079689,10.6417433 C144.948643,10.7303375 144.883121,10.8539984 144.883121,11.0127297 C144.883121,11.1585409 144.94772,11.2674363 145.07692,11.3394191 C145.159977,11.3874076 145.337163,11.443701 145.608483,11.5083009 L146.311696,11.6771827 C146.619929,11.7510112 146.852486,11.8497554 147.009371,11.9734181 C147.253005,12.1653722 147.37482,12.4431477 147.37482,12.806753 C147.37482,13.1795869 147.232241,13.4892005 146.947079,13.735603 C146.661916,13.9820056 146.259096,14.1052051 145.738605,14.1052051 C145.20704,14.1052051 144.788992,13.9838513 144.48445,13.7411402 C144.179907,13.498429 144.027638,13.1648215 144.027638,12.7403077 L144.841593,12.7403077 Z M149.132853,11.5525978 C148.950127,11.5525978 148.808471,11.609814 148.707879,11.7242482 C148.607288,11.8386823 148.544073,11.9937198 148.518234,12.1893653 L149.744703,12.1893653 C149.731783,11.9807998 149.668568,11.8225324 149.555057,11.7145582 C149.441546,11.6065841 149.300812,11.5525978 149.132853,11.5525978 Z M149.132853,10.9019875 C149.383869,10.9019875 149.609966,10.9490524 149.811148,11.0431838 C150.012331,11.1373151 150.178443,11.2858927 150.309488,11.488921 C150.427614,11.6679551 150.50421,11.8755946 150.539278,12.1118458 C150.559581,12.2502742 150.567887,12.4496082 150.564195,12.7098536 L148.498854,12.7098536 C148.509928,13.0125504 148.604981,13.2248041 148.784015,13.3466211 C148.892912,13.4222953 149.023955,13.4601319 149.177149,13.4601319 C149.339572,13.4601319 149.471539,13.4139898 149.573053,13.3217041 C149.628424,13.2718699 149.677335,13.2026567 149.719786,13.1140625 L150.525436,13.1140625 C150.505133,13.2930966 150.411926,13.4748966 150.245812,13.6594678 C149.987412,13.952936 149.625658,14.099668 149.160538,14.099668 C148.77663,14.099668 148.437947,13.9760071 148.144479,13.7286817 C147.85101,13.4813562 147.704278,13.078997 147.704278,12.5215919 C147.704278,11.9992553 147.836706,11.5987418 148.101566,11.3200392 C148.366426,11.0413367 148.710185,10.9019875 149.132853,10.9019875 Z M152.898087,12.0647804 C152.883321,11.9521919 152.845485,11.8506793 152.784576,11.7602394 C152.695982,11.6384224 152.558478,11.5775148 152.372061,11.5775148 C152.106279,11.5775148 151.924479,11.7094812 151.826656,11.9734181 C151.774976,12.1136922 151.749137,12.3001063 151.749137,12.5326661 C151.749137,12.7541516 151.774976,12.9322601 151.826656,13.0669971 C151.920788,13.318014 152.097973,13.4435205 152.358219,13.4435205 C152.54279,13.4435205 152.673833,13.3936871 152.751353,13.2940186 C152.828873,13.1943501 152.875938,13.0651522 152.89255,12.906421 L153.698199,12.906421 C153.679742,13.1463635 153.592995,13.3733828 153.437955,13.5874854 C153.190629,13.9326336 152.824261,14.1052051 152.338839,14.1052051 C151.853416,14.1052051 151.496276,13.9612417 151.267408,13.6733106 C151.03854,13.3853795 150.924107,13.0116283 150.924107,12.552046 C150.924107,12.0334008 151.050537,11.6301188 151.303399,11.3421876 C151.556262,11.0542565 151.905096,10.9102931 152.349913,10.9102931 C152.728284,10.9102931 153.037898,10.9951946 153.278763,11.1650002 C153.519628,11.3348057 153.662208,11.6347294 153.706505,12.0647804 L152.898087,12.0647804 Z M153.939063,11.5719777 L153.939063,11.0099611 L154.359884,11.0099611 L154.359884,10.1683205 L155.140616,10.1683205 L155.140616,11.0099611 L155.63065,11.0099611 L155.63065,11.5719777 L155.140616,11.5719777 L155.140616,13.1666651 C155.140616,13.2903278 155.156304,13.3673851 155.187681,13.3978394 C155.219059,13.4282936 155.315034,13.4435205 155.475611,13.4435205 C155.499605,13.4435205 155.524983,13.4430591 155.551746,13.4421363 C155.578509,13.4412134 155.60481,13.4398291 155.63065,13.4379834 L155.63065,14.0276855 L155.256895,14.0415283 C154.884061,14.0544483 154.629357,13.9898493 154.492774,13.8477295 C154.40418,13.7572896 154.359884,13.6179404 154.359884,13.4296778 L154.359884,11.5719777 L153.939063,11.5719777 Z M156.948482,10.6223635 L156.14837,10.6223635 L156.14837,9.89423362 L156.948482,9.89423362 L156.948482,10.6223635 Z M156.14837,10.9822756 L156.948482,10.9822756 L156.948482,14 L156.14837,14 L156.14837,10.9822756 Z M159.066426,13.4435205 C159.29714,13.4435205 159.474326,13.3613876 159.597989,13.1971192 C159.721652,13.0328508 159.783482,12.7993717 159.783482,12.4966749 C159.783482,12.1939781 159.721652,11.9609604 159.597989,11.7976149 C159.474326,11.6342693 159.29714,11.5525978 159.066426,11.5525978 C158.835712,11.5525978 158.658065,11.6342693 158.53348,11.7976149 C158.408894,11.9609604 158.346602,12.1939781 158.346602,12.4966749 C158.346602,12.7993717 158.408894,13.0328508 158.53348,13.1971192 C158.658065,13.3613876 158.835712,13.4435205 159.066426,13.4435205 Z M160.61128,12.4966749 C160.61128,12.9396458 160.483928,13.3184726 160.229219,13.6331665 C159.974511,13.9478605 159.58784,14.1052051 159.069195,14.1052051 C158.55055,14.1052051 158.163879,13.9478605 157.909171,13.6331665 C157.654462,13.3184726 157.52711,12.9396458 157.52711,12.4966749 C157.52711,12.0610868 157.654462,11.6836443 157.909171,11.3643361 C158.163879,11.0450279 158.55055,10.8853761 159.069195,10.8853761 C159.58784,10.8853761 159.974511,11.0450279 160.229219,11.3643361 C160.483928,11.6836443 160.61128,12.0610868 160.61128,12.4966749 Z M162.848272,10.9102931 C163.160197,10.9102931 163.415363,10.9919647 163.613777,11.1553102 C163.812191,11.3186557 163.911397,11.58951 163.911397,11.967881 L163.911397,14 L163.102979,14 L163.102979,12.1644483 C163.102979,12.0057171 163.081753,11.8839019 163.039302,11.7989991 C162.961782,11.6439593 162.814127,11.5664406 162.596333,11.5664406 C162.328705,11.5664406 162.145059,11.6799502 162.045391,11.9069728 C161.993711,12.0269441 161.967871,12.1801359 161.967871,12.3665528 L161.967871,14 L161.181602,14 L161.181602,10.9878127 L161.942954,10.9878127 L161.942954,11.4280128 C162.044469,11.272973 162.140444,11.1613091 162.230884,11.0930177 C162.393307,10.9712007 162.599101,10.9102931 162.848272,10.9102931 Z M168.161373,11.8681187 C168.161291,11.8681502 168.16121,11.8681816 168.161128,11.868213 C168.163267,11.868213 168.165433,11.8682676 168.167627,11.8683768 L168.161373,11.8681187 Z M168.167627,11.8683768 C168.23928,11.8719418 168.340472,11.9337177 168.471206,12.0537062 C168.672389,12.2401231 168.772979,12.4948276 168.772979,12.8178272 C168.772979,13.1574383 168.655316,13.4559777 168.419988,13.7134546 C168.18466,13.9709315 167.836287,14.099668 167.374858,14.099668 C166.806379,14.099668 166.411403,13.9141767 166.189917,13.5431885 C166.073637,13.3456973 166.009038,13.0873014 165.996118,12.7679932 L166.771314,12.7679932 C166.771314,12.9285702 166.797153,13.0614595 166.848833,13.1666651 C166.94481,13.3604649 167.119227,13.4573633 167.37209,13.4573633 C167.52713,13.4573633 167.662326,13.4042999 167.777683,13.2981714 C167.89304,13.192043 167.950718,13.0393126 167.950718,12.8399756 C167.950718,12.5760388 167.843668,12.3997759 167.629566,12.3111817 C167.507748,12.2613475 167.315797,12.2364308 167.053706,12.2364308 L167.053706,11.6716456 C167.31026,11.6679542 167.489292,11.6430375 167.590806,11.5968947 C167.766148,11.5193747 167.853818,11.3624916 167.853818,11.1262404 C167.853818,10.9730463 167.809061,10.8484626 167.719544,10.7524855 C167.630026,10.6565085 167.504059,10.6085207 167.341636,10.6085207 C167.155219,10.6085207 167.018177,10.6675826 166.930505,10.7857082 C166.842834,10.9038338 166.800845,11.0616398 166.804536,11.259131 L166.068101,11.259131 C166.075484,11.0597941 166.109629,10.8706114 166.170537,10.6915773 C166.235137,10.5346918 166.33665,10.3898055 166.475078,10.2569143 C166.578438,10.1627829 166.701176,10.0908012 166.843296,10.040967 C166.985416,9.99113278 167.159833,9.96621603 167.366553,9.96621603 C167.750461,9.96621603 168.060075,10.0654216 168.295403,10.2638356 C168.530731,10.4622497 168.648394,10.7284897 168.648394,11.0625636 C168.648394,11.2988148 168.578258,11.4981487 168.437983,11.6605714 C168.349465,11.7619992 168.257262,11.831181 168.161373,11.8681187 L168.167627,11.8683768 Z" id="Section-1-Section-2" fill="#4A4A4A"></path>
                <path d="M12.0492822,33.7403077 C12.0751221,33.9267246 12.1258785,34.0660738 12.2015527,34.1583594 C12.3399811,34.3263192 12.5771516,34.4102979 12.9130712,34.4102979 C13.1142538,34.4102979 13.2775969,34.3881497 13.4031053,34.3438526 C13.6412022,34.2589498 13.7602489,34.1011438 13.7602489,33.8704297 C13.7602489,33.7356928 13.701187,33.6314116 13.5830614,33.5575831 C13.4649358,33.4856003 13.2794445,33.4219242 13.0265819,33.3665528 L12.5946874,33.2696534 C12.1701736,33.1736764 11.8767098,33.0693952 11.7142871,32.9568067 C11.4392759,32.7685441 11.3017724,32.4741574 11.3017724,32.0736379 C11.3017724,31.7081868 11.4346617,31.4045717 11.7004443,31.1627834 C11.9662269,30.9209951 12.3565892,30.8001028 12.8715429,30.8001028 C13.3015938,30.8001028 13.6684236,30.9140738 13.9720433,31.1420192 C14.275663,31.3699647 14.4348533,31.7008037 14.449619,32.1345461 L13.6301268,32.1345461 C13.6153611,31.8890663 13.5083114,31.7146491 13.3089745,31.6112892 C13.1760832,31.5429979 13.0108944,31.5088527 12.8134032,31.5088527 C12.5937635,31.5088527 12.4184234,31.5531492 12.2873779,31.6417433 C12.1563323,31.7303375 12.0908105,31.8539984 12.0908105,32.0127297 C12.0908105,32.1585409 12.1554094,32.2674363 12.2846093,32.3394191 C12.3676664,32.3874076 12.5448521,32.443701 12.8161718,32.5083009 L13.5193846,32.6771827 C13.8276186,32.7510112 14.0601748,32.8497554 14.2170604,32.9734181 C14.4606944,33.1653722 14.5825096,33.4431477 14.5825096,33.806753 C14.5825096,34.1795869 14.4399304,34.4892005 14.1547679,34.735603 C13.8696054,34.9820056 13.4667847,35.1052051 12.9462938,35.1052051 C12.4147287,35.1052051 11.9966812,34.9838513 11.6921386,34.7411402 C11.3875961,34.498429 11.2353271,34.1648215 11.2353271,33.7403077 L12.0492822,33.7403077 Z M16.3405417,32.5525978 C16.1578162,32.5525978 16.0161599,32.609814 15.9155686,32.7242482 C15.8149773,32.8386823 15.7517626,32.9937198 15.7259226,33.1893653 L16.9523923,33.1893653 C16.9394723,32.9807998 16.8762576,32.8225324 16.7627463,32.7145582 C16.649235,32.6065841 16.5085015,32.5525978 16.3405417,32.5525978 Z M16.3405417,31.9019875 C16.5915586,31.9019875 16.8176549,31.9490524 17.0188376,32.0431838 C17.2200202,32.1373151 17.3861318,32.2858927 17.5171774,32.488921 C17.635303,32.6679551 17.7118989,32.8755946 17.7469674,33.1118458 C17.7672703,33.2502742 17.7755758,33.4496082 17.7718844,33.7098536 L15.7065427,33.7098536 C15.717617,34.0125504 15.8126697,34.2248041 15.9917038,34.3466211 C16.1006009,34.4222953 16.2316445,34.4601319 16.3848386,34.4601319 C16.5472613,34.4601319 16.6792277,34.4139898 16.7807419,34.3217041 C16.8361132,34.2718699 16.8850239,34.2026567 16.9274753,34.1140625 L17.7331246,34.1140625 C17.7128218,34.2930966 17.6196147,34.4748966 17.4535006,34.6594678 C17.1951009,34.952936 16.8333467,35.099668 16.3682273,35.099668 C15.9843191,35.099668 15.645636,34.9760071 15.3521677,34.7286817 C15.0586995,34.4813562 14.9119676,34.078997 14.9119676,33.5215919 C14.9119676,32.9992553 15.0443954,32.5987418 15.3092551,32.3200392 C15.5741149,32.0413367 15.9178736,31.9019875 16.3405417,31.9019875 Z M20.1057759,33.0647804 C20.0910102,32.9521919 20.0531737,32.8506793 19.9922651,32.7602394 C19.903671,32.6384224 19.7661675,32.5775148 19.5797505,32.5775148 C19.313968,32.5775148 19.132168,32.7094812 19.0343453,32.9734181 C18.9826653,33.1136922 18.9568258,33.3001063 18.9568258,33.5326661 C18.9568258,33.7541516 18.9826653,33.9322601 19.0343453,34.0669971 C19.1284766,34.318014 19.3056623,34.4435205 19.5659077,34.4435205 C19.750479,34.4435205 19.8815226,34.3936871 19.9590425,34.2940186 C20.0365624,34.1943501 20.0836274,34.0651522 20.1002388,33.906421 L20.9058881,33.906421 C20.887431,34.1463635 20.8006838,34.3733828 20.645644,34.5874854 C20.3983186,34.9326336 20.0319502,35.1052051 19.5465279,35.1052051 C19.0611055,35.1052051 18.7039656,34.9612417 18.4750973,34.6733106 C18.2462289,34.3853795 18.1317965,34.0116283 18.1317965,33.552046 C18.1317965,33.0334008 18.2582259,32.6301188 18.5110885,32.3421876 C18.763951,32.0542565 19.1127854,31.9102931 19.5576021,31.9102931 C19.9359731,31.9102931 20.2455867,31.9951946 20.4864521,32.1650002 C20.7273176,32.3348057 20.8698967,32.6347294 20.9141938,33.0647804 L20.1057759,33.0647804 Z M21.1467524,32.5719777 L21.1467524,32.0099611 L21.5675727,32.0099611 L21.5675727,31.1683205 L22.3483051,31.1683205 L22.3483051,32.0099611 L22.8383392,32.0099611 L22.8383392,32.5719777 L22.3483051,32.5719777 L22.3483051,34.1666651 C22.3483051,34.2903278 22.3639934,34.3673851 22.3953705,34.3978394 C22.4267476,34.4282936 22.5227232,34.4435205 22.6833002,34.4435205 C22.7072944,34.4435205 22.7326726,34.4430591 22.7594354,34.4421363 C22.7861982,34.4412134 22.8124992,34.4398291 22.8383392,34.4379834 L22.8383392,35.0276855 L22.4645844,35.0415283 C22.0917505,35.0544483 21.837046,34.9898493 21.7004633,34.8477295 C21.6118691,34.7572896 21.5675727,34.6179404 21.5675727,34.4296778 L21.5675727,32.5719777 L21.1467524,32.5719777 Z M24.1561712,31.6223635 L23.3560589,31.6223635 L23.3560589,30.8942336 L24.1561712,30.8942336 L24.1561712,31.6223635 Z M23.3560589,31.9822756 L24.1561712,31.9822756 L24.1561712,35 L23.3560589,35 L23.3560589,31.9822756 Z M26.2741154,34.4435205 C26.5048294,34.4435205 26.6820152,34.3613876 26.8056779,34.1971192 C26.9293406,34.0328508 26.991171,33.7993717 26.991171,33.4966749 C26.991171,33.1939781 26.9293406,32.9609604 26.8056779,32.7976149 C26.6820152,32.6342693 26.5048294,32.5525978 26.2741154,32.5525978 C26.0434014,32.5525978 25.8657542,32.6342693 25.7411687,32.7976149 C25.6165831,32.9609604 25.5542912,33.1939781 25.5542912,33.4966749 C25.5542912,33.7993717 25.6165831,34.0328508 25.7411687,34.1971192 C25.8657542,34.3613876 26.0434014,34.4435205 26.2741154,34.4435205 Z M27.8189688,33.4966749 C27.8189688,33.9396458 27.6916166,34.3184726 27.4369083,34.6331665 C27.1822,34.9478605 26.7955291,35.1052051 26.276884,35.1052051 C25.7582388,35.1052051 25.3715679,34.9478605 25.1168596,34.6331665 C24.8621513,34.3184726 24.7347991,33.9396458 24.7347991,33.4966749 C24.7347991,33.0610868 24.8621513,32.6836443 25.1168596,32.3643361 C25.3715679,32.0450279 25.7582388,31.8853761 26.276884,31.8853761 C26.7955291,31.8853761 27.1822,32.0450279 27.4369083,32.3643361 C27.6916166,32.6836443 27.8189688,33.0610868 27.8189688,33.4966749 Z M30.0559609,31.9102931 C30.3678863,31.9102931 30.6230522,31.9919647 30.8214662,32.1553102 C31.0198803,32.3186557 31.1190858,32.58951 31.1190858,32.967881 L31.1190858,35 L30.3106679,35 L30.3106679,33.1644483 C30.3106679,33.0057171 30.2894425,32.8839019 30.2469912,32.7989991 C30.1694713,32.6439593 30.0218165,32.5664406 29.8040224,32.5664406 C29.5363942,32.5664406 29.3527485,32.6799502 29.2530801,32.9069728 C29.2014001,33.0269441 29.1755606,33.1801359 29.1755606,33.3665528 L29.1755606,35 L28.3892911,35 L28.3892911,31.9878127 L29.1506436,31.9878127 L29.1506436,32.4280128 C29.2521577,32.272973 29.3481333,32.1613091 29.4385732,32.0930177 C29.6009959,31.9712007 29.8067897,31.9102931 30.0559609,31.9102931 Z M33.4474402,32.2314455 L33.4474402,31.6943459 C33.6966114,31.6832716 33.8710286,31.6666604 33.970697,31.6445119 C34.1294283,31.6094434 34.2586262,31.5393074 34.3582947,31.4341018 C34.426586,31.362119 34.4782652,31.2661434 34.5133337,31.1461721 C34.5336365,31.0741893 34.5437878,31.0206644 34.5437878,30.9855959 L35.1999352,30.9855959 L35.1999352,35 L34.3915173,35 L34.3915173,32.2314455 L33.4474402,32.2314455 Z" id="Section-1" fill="#9B9B9B"></path>
                <path d="M12.0492822,93.7403077 C12.0751221,93.9267246 12.1258785,94.0660738 12.2015527,94.1583594 C12.3399811,94.3263192 12.5771516,94.4102979 12.9130712,94.4102979 C13.1142538,94.4102979 13.2775969,94.3881497 13.4031053,94.3438526 C13.6412022,94.2589498 13.7602489,94.1011438 13.7602489,93.8704297 C13.7602489,93.7356928 13.701187,93.6314116 13.5830614,93.5575831 C13.4649358,93.4856003 13.2794445,93.4219242 13.0265819,93.3665528 L12.5946874,93.2696534 C12.1701736,93.1736764 11.8767098,93.0693952 11.7142871,92.9568067 C11.4392759,92.7685441 11.3017724,92.4741574 11.3017724,92.0736379 C11.3017724,91.7081868 11.4346617,91.4045717 11.7004443,91.1627834 C11.9662269,90.9209951 12.3565892,90.8001028 12.8715429,90.8001028 C13.3015938,90.8001028 13.6684236,90.9140738 13.9720433,91.1420192 C14.275663,91.3699647 14.4348533,91.7008037 14.449619,92.1345461 L13.6301268,92.1345461 C13.6153611,91.8890663 13.5083114,91.7146491 13.3089745,91.6112892 C13.1760832,91.5429979 13.0108944,91.5088527 12.8134032,91.5088527 C12.5937635,91.5088527 12.4184234,91.5531492 12.2873779,91.6417433 C12.1563323,91.7303375 12.0908105,91.8539984 12.0908105,92.0127297 C12.0908105,92.1585409 12.1554094,92.2674363 12.2846093,92.3394191 C12.3676664,92.3874076 12.5448521,92.443701 12.8161718,92.5083009 L13.5193846,92.6771827 C13.8276186,92.7510112 14.0601748,92.8497554 14.2170604,92.9734181 C14.4606944,93.1653722 14.5825096,93.4431477 14.5825096,93.806753 C14.5825096,94.1795869 14.4399304,94.4892005 14.1547679,94.735603 C13.8696054,94.9820056 13.4667847,95.1052051 12.9462938,95.1052051 C12.4147287,95.1052051 11.9966812,94.9838513 11.6921386,94.7411402 C11.3875961,94.498429 11.2353271,94.1648215 11.2353271,93.7403077 L12.0492822,93.7403077 Z M16.3405417,92.5525978 C16.1578162,92.5525978 16.0161599,92.609814 15.9155686,92.7242482 C15.8149773,92.8386823 15.7517626,92.9937198 15.7259226,93.1893653 L16.9523923,93.1893653 C16.9394723,92.9807998 16.8762576,92.8225324 16.7627463,92.7145582 C16.649235,92.6065841 16.5085015,92.5525978 16.3405417,92.5525978 Z M16.3405417,91.9019875 C16.5915586,91.9019875 16.8176549,91.9490524 17.0188376,92.0431838 C17.2200202,92.1373151 17.3861318,92.2858927 17.5171774,92.488921 C17.635303,92.6679551 17.7118989,92.8755946 17.7469674,93.1118458 C17.7672703,93.2502742 17.7755758,93.4496082 17.7718844,93.7098536 L15.7065427,93.7098536 C15.717617,94.0125504 15.8126697,94.2248041 15.9917038,94.3466211 C16.1006009,94.4222953 16.2316445,94.4601319 16.3848386,94.4601319 C16.5472613,94.4601319 16.6792277,94.4139898 16.7807419,94.3217041 C16.8361132,94.2718699 16.8850239,94.2026567 16.9274753,94.1140625 L17.7331246,94.1140625 C17.7128218,94.2930966 17.6196147,94.4748966 17.4535006,94.6594678 C17.1951009,94.952936 16.8333467,95.099668 16.3682273,95.099668 C15.9843191,95.099668 15.645636,94.9760071 15.3521677,94.7286817 C15.0586995,94.4813562 14.9119676,94.078997 14.9119676,93.5215919 C14.9119676,92.9992553 15.0443954,92.5987418 15.3092551,92.3200392 C15.5741149,92.0413367 15.9178736,91.9019875 16.3405417,91.9019875 Z M20.1057759,93.0647804 C20.0910102,92.9521919 20.0531737,92.8506793 19.9922651,92.7602394 C19.903671,92.6384224 19.7661675,92.5775148 19.5797505,92.5775148 C19.313968,92.5775148 19.132168,92.7094812 19.0343453,92.9734181 C18.9826653,93.1136922 18.9568258,93.3001063 18.9568258,93.5326661 C18.9568258,93.7541516 18.9826653,93.9322601 19.0343453,94.0669971 C19.1284766,94.318014 19.3056623,94.4435205 19.5659077,94.4435205 C19.750479,94.4435205 19.8815226,94.3936871 19.9590425,94.2940186 C20.0365624,94.1943501 20.0836274,94.0651522 20.1002388,93.906421 L20.9058881,93.906421 C20.887431,94.1463635 20.8006838,94.3733828 20.645644,94.5874854 C20.3983186,94.9326336 20.0319502,95.1052051 19.5465279,95.1052051 C19.0611055,95.1052051 18.7039656,94.9612417 18.4750973,94.6733106 C18.2462289,94.3853795 18.1317965,94.0116283 18.1317965,93.552046 C18.1317965,93.0334008 18.2582259,92.6301188 18.5110885,92.3421876 C18.763951,92.0542565 19.1127854,91.9102931 19.5576021,91.9102931 C19.9359731,91.9102931 20.2455867,91.9951946 20.4864521,92.1650002 C20.7273176,92.3348057 20.8698967,92.6347294 20.9141938,93.0647804 L20.1057759,93.0647804 Z M21.1467524,92.5719777 L21.1467524,92.0099611 L21.5675727,92.0099611 L21.5675727,91.1683205 L22.3483051,91.1683205 L22.3483051,92.0099611 L22.8383392,92.0099611 L22.8383392,92.5719777 L22.3483051,92.5719777 L22.3483051,94.1666651 C22.3483051,94.2903278 22.3639934,94.3673851 22.3953705,94.3978394 C22.4267476,94.4282936 22.5227232,94.4435205 22.6833002,94.4435205 C22.7072944,94.4435205 22.7326726,94.4430591 22.7594354,94.4421363 C22.7861982,94.4412134 22.8124992,94.4398291 22.8383392,94.4379834 L22.8383392,95.0276855 L22.4645844,95.0415283 C22.0917505,95.0544483 21.837046,94.9898493 21.7004633,94.8477295 C21.6118691,94.7572896 21.5675727,94.6179404 21.5675727,94.4296778 L21.5675727,92.5719777 L21.1467524,92.5719777 Z M24.1561712,91.6223635 L23.3560589,91.6223635 L23.3560589,90.8942336 L24.1561712,90.8942336 L24.1561712,91.6223635 Z M23.3560589,91.9822756 L24.1561712,91.9822756 L24.1561712,95 L23.3560589,95 L23.3560589,91.9822756 Z M26.2741154,94.4435205 C26.5048294,94.4435205 26.6820152,94.3613876 26.8056779,94.1971192 C26.9293406,94.0328508 26.991171,93.7993717 26.991171,93.4966749 C26.991171,93.1939781 26.9293406,92.9609604 26.8056779,92.7976149 C26.6820152,92.6342693 26.5048294,92.5525978 26.2741154,92.5525978 C26.0434014,92.5525978 25.8657542,92.6342693 25.7411687,92.7976149 C25.6165831,92.9609604 25.5542912,93.1939781 25.5542912,93.4966749 C25.5542912,93.7993717 25.6165831,94.0328508 25.7411687,94.1971192 C25.8657542,94.3613876 26.0434014,94.4435205 26.2741154,94.4435205 Z M27.8189688,93.4966749 C27.8189688,93.9396458 27.6916166,94.3184726 27.4369083,94.6331665 C27.1822,94.9478605 26.7955291,95.1052051 26.276884,95.1052051 C25.7582388,95.1052051 25.3715679,94.9478605 25.1168596,94.6331665 C24.8621513,94.3184726 24.7347991,93.9396458 24.7347991,93.4966749 C24.7347991,93.0610868 24.8621513,92.6836443 25.1168596,92.3643361 C25.3715679,92.0450279 25.7582388,91.8853761 26.276884,91.8853761 C26.7955291,91.8853761 27.1822,92.0450279 27.4369083,92.3643361 C27.6916166,92.6836443 27.8189688,93.0610868 27.8189688,93.4966749 Z M30.0559609,91.9102931 C30.3678863,91.9102931 30.6230522,91.9919647 30.8214662,92.1553102 C31.0198803,92.3186557 31.1190858,92.58951 31.1190858,92.967881 L31.1190858,95 L30.3106679,95 L30.3106679,93.1644483 C30.3106679,93.0057171 30.2894425,92.8839019 30.2469912,92.7989991 C30.1694713,92.6439593 30.0218165,92.5664406 29.8040224,92.5664406 C29.5363942,92.5664406 29.3527485,92.6799502 29.2530801,92.9069728 C29.2014001,93.0269441 29.1755606,93.1801359 29.1755606,93.3665528 L29.1755606,95 L28.3892911,95 L28.3892911,91.9878127 L29.1506436,91.9878127 L29.1506436,92.4280128 C29.2521577,92.272973 29.3481333,92.1613091 29.4385732,92.0930177 C29.6009959,91.9712007 29.8067897,91.9102931 30.0559609,91.9102931 Z M33.231493,95 C33.2388758,94.7120689 33.3007062,94.4490588 33.4169861,94.210962 C33.5295746,93.9433337 33.7953531,93.6600211 34.2143298,93.3610157 C34.5779351,93.1007703 34.8132599,92.9143561 34.9203112,92.8017677 C35.0845796,92.626425 35.1667126,92.4344738 35.1667126,92.2259084 C35.1667126,92.0561028 35.1196476,91.914908 35.0255163,91.8023195 C34.931385,91.6897311 34.79665,91.6334377 34.6213073,91.6334377 C34.3813647,91.6334377 34.2180217,91.7229534 34.1312732,91.9019875 C34.081439,92.0053474 34.051908,92.1696133 34.0426794,92.3947902 L33.2757898,92.3947902 C33.2887098,92.0533334 33.3505403,91.7774036 33.461283,91.5669924 C33.6716942,91.1664728 34.0454453,90.966216 34.5825476,90.966216 C35.0070614,90.966216 35.3448217,91.0838784 35.5958385,91.3192067 C35.8468554,91.5545351 35.972362,91.8659943 35.972362,92.2535939 C35.972362,92.5507536 35.8837691,92.8146865 35.7065807,93.0454005 C35.5903009,93.1985946 35.3992725,93.3693204 35.1334899,93.5575831 L34.8178747,93.781836 C34.6203835,93.9221101 34.4851871,94.0236228 34.4122815,94.086377 C34.3393758,94.1491312 34.2780068,94.2220358 34.2281726,94.3050928 L35.9806676,94.3050928 L35.9806676,95 L33.231493,95 Z" id="Section-2" fill="#FFFFFF"></path>
            </g>
        </g>
    </g>
</svg>