<?xml version="1.0" encoding="UTF-8"?>
<svg width="178px" height="119px" viewBox="0 0 178 119" version="1.1" xmlns="http://www.w3.org/2000/svg" xmlns:xlink="http://www.w3.org/1999/xlink">
    <!-- Generator: Sketch 51.2 (57519) - http://www.bohemiancoding.com/sketch -->
    <title>Group 19</title>
    <desc>Created with Sketch.</desc>
    <defs></defs>
    <g id="Page-1" stroke="none" stroke-width="1" fill="none" fill-rule="evenodd">
        <g id="Desktop-HD" transform="translate(-273.000000, -2754.000000)">
            <g id="Group-19" transform="translate(273.000000, 2754.000000)">
                <rect id="Rectangle-2-Copy-44" stroke="#9B9B9B" stroke-width="1.61999991" fill="#F9F9F9" x="0.809999957" y="0.809999957" width="176.38" height="117.38" rx="6.47999966"></rect>
                <path d="M45.19,118.19 L45.19,0.809999957 L7,0.809999957 C3.58135737,0.809999957 0.809999957,3.58135737 0.809999957,7 L0.809999957,112 C0.809999957,115.418643 3.58135737,118.19 7,118.19 L45.19,118.19 Z" id="Rectangle-2-Copy-45" stroke="#9B9B9B" stroke-width="1.61999991" fill="#FFFFFF"></path>
                <g id="brand-copy-19" transform="translate(11.000000, 9.000000)" fill="#4A4A4A" fill-rule="nonzero">
                    <g id="#000000ff">
                        <path d="M0.0243116872,0 L1.17755844,0 C1.19314286,0.585742574 1.17880519,1.17148515 1.18566234,1.75722772 C1.92,1.31168317 2.92176623,1.35742574 3.63179221,1.82554455 C4.16415584,2.17069307 4.56062338,2.71960396 4.65537662,3.33148515 C4.71148052,3.72356436 4.6852987,4.13287129 4.53693506,4.50534653 C4.20342857,5.34118812 3.31885714,5.96613861 2.37007792,5.96079208 C1.8638961,5.98574257 1.36955844,5.80514851 0.982441557,5.49980198 C0.730597401,5.74455446 0.379636363,5.86811881 0.0211948041,5.81940594 C0.013090908,3.87980198 0.00623376512,1.93960396 0.0243116872,0 Z M2.08020779,2.58356436 C1.63885714,2.66257426 1.26296104,3.00237624 1.15324675,3.41643564 C0.967480518,4.04079208 1.44187013,4.74950495 2.12072727,4.83326733 C2.83137662,4.97108911 3.55698701,4.37108911 3.5145974,3.6819802 C3.52955844,2.99524752 2.78088312,2.4249505 2.08020779,2.58356436 Z" id="Shape"></path>
                        <path d="M6.72685714,1.46554455 C7.24737662,1.42455446 7.78098701,1.46673267 8.28093506,1.61762376 C8.28779221,1.97108911 8.28841558,2.32514851 8.28218182,2.67861386 C8.27096104,2.70534653 8.24851948,2.76 8.23667532,2.78732673 C7.776,2.5639604 7.24114286,2.51465347 6.73309091,2.56752475 C6.59594805,2.57524752 6.36841558,2.67267327 6.48997403,2.83128713 C6.94441558,3.06356436 7.43127273,3.23584158 7.8825974,3.47346535 C8.3918961,3.74792079 8.66431169,4.35980198 8.50348052,4.8980198 C8.40623377,5.28118812 8.12446753,5.6150495 7.7467013,5.77841584 C7.16197403,6.03386139 6.4881039,5.99762376 5.8747013,5.86633663 C5.66774026,5.83366337 5.46888312,5.67683168 5.46202597,5.46653465 C5.45142857,5.15881188 5.44706494,4.85049505 5.46950649,4.5439604 C6.00561039,4.77683168 6.61963636,4.95920792 7.20685714,4.79346535 C7.39075325,4.75425743 7.43937662,4.50356436 7.2854026,4.40257426 C6.77672727,4.10019802 6.16332468,3.96950495 5.69080519,3.61009901 C5.23948052,3.22693069 5.17215584,2.51881188 5.52374026,2.05425743 C5.78742857,1.6770297 6.26867532,1.50178218 6.72685714,1.46554455 Z" id="Shape"></path>
                        <path d="M9.87677922,1.92772277 C10.358026,1.52376238 11.0331429,1.41920792 11.654026,1.4560396 C12.1795325,1.48217822 12.7193766,1.65089109 13.0902857,2.01980198 C13.3633247,2.28475248 13.5017143,2.65782178 13.4954805,3.02673267 C13.4985974,3.95465347 13.4998442,4.88257426 13.4954805,5.81049505 C13.2155844,5.82950495 12.9338182,5.82534653 12.6539221,5.81821782 C12.4675325,5.8170297 12.3141818,5.64118812 12.3285195,5.46772277 C12.3235325,4.65564356 12.3297662,3.84356436 12.326026,3.03148515 C12.3397403,2.87584158 12.2275325,2.73683168 12.0797922,2.6809901 C11.7518961,2.54019802 11.3747532,2.54079208 11.0269091,2.6019802 C10.8211948,2.6429703 10.5624935,2.74574257 10.5437922,2.97623762 C10.5238442,3.92257426 10.5537662,4.86950495 10.5294545,5.81584158 C10.1442078,5.82475248 9.75896104,5.82891089 9.37371429,5.81346535 C9.36187013,4.88435644 9.37122078,3.95524752 9.36935065,3.02613861 C9.36374026,2.61267327 9.5414026,2.19564356 9.87677922,1.92772277 Z" id="Shape"></path>
                        <path d="M15.4404156,1.70792079 C16.2052987,1.31940594 17.2313766,1.34970297 17.8946494,1.91405941 C18.1365195,1.66039604 18.4924675,1.54752475 18.8477922,1.59267327 C18.8608831,3.00178218 18.8658701,4.41207921 18.8446753,5.82118812 C18.4918442,5.86158416 18.1377662,5.75049505 17.8958961,5.49920792 C17.5106494,5.8009901 17.0231688,5.98455446 16.5201039,5.96079208 C15.6492468,5.97029703 14.8232727,5.45108911 14.4361558,4.71623762 C14.1899221,4.26594059 14.1375584,3.73366337 14.2366753,3.23821782 C14.3650909,2.58772277 14.8413506,2.02811881 15.4404156,1.70792079 Z M16.3555325,2.57940594 C15.739013,2.65960396 15.2714805,3.26316832 15.3662338,3.84831683 C15.4260779,4.39009901 15.9478442,4.84752475 16.521974,4.84693069 C17.1821299,4.88792079 17.7905455,4.31465347 17.7556364,3.68435644 C17.7730909,3.00831683 17.0493506,2.43920792 16.3555325,2.57940594 Z" id="Shape"></path>
                        <path d="M19.3365195,1.60336634 C19.6232727,1.57841584 19.9118961,1.59326733 20.1992727,1.58910891 C20.3251948,1.59386139 20.4673247,1.58435644 20.5701818,1.66633663 C20.6630649,1.74356436 20.7067013,1.8570297 20.7590649,1.95980198 C21.0545455,2.61207921 21.3581299,3.26079208 21.6536104,3.91247525 C22.0145455,3.15029703 22.3561558,2.37980198 22.7152208,1.6170297 C23.1229091,1.5570297 23.553039,1.59980198 23.9688312,1.5980198 C23.9326753,1.77445545 23.8435325,1.93425743 23.7693506,2.09821782 C23.2282597,3.26613861 22.694026,4.4370297 22.1510649,5.60435644 C21.9877403,6.0029703 21.2777143,5.98039604 21.1449351,5.56871287 C20.6306494,4.45663366 20.1201039,3.34336634 19.6064416,2.23128713 C19.5154286,2.02217822 19.4013506,1.8219802 19.3365195,1.60336634 Z" id="Shape"></path>
                    </g>
                </g>
                <path d="M15.5498197,43 L15.5498197,38.9191506 L16.3942289,38.9191506 L16.3942289,40.4750783 L17.9889163,40.4750783 L17.9889163,38.9191506 L18.836094,38.9191506 L18.836094,43 L17.9889163,43 L17.9889163,41.1782911 L16.3942289,41.1782911 L16.3942289,43 L15.5498197,43 Z M20.9401954,42.4435205 C21.1709095,42.4435205 21.3480952,42.3613876 21.4717579,42.1971192 C21.5954206,42.0328508 21.657251,41.7993717 21.657251,41.4966749 C21.657251,41.1939781 21.5954206,40.9609604 21.4717579,40.7976149 C21.3480952,40.6342693 21.1709095,40.5525978 20.9401954,40.5525978 C20.7094814,40.5525978 20.5318342,40.6342693 20.4072487,40.7976149 C20.2826631,40.9609604 20.2203712,41.1939781 20.2203712,41.4966749 C20.2203712,41.7993717 20.2826631,42.0328508 20.4072487,42.1971192 C20.5318342,42.3613876 20.7094814,42.4435205 20.9401954,42.4435205 Z M22.4850489,41.4966749 C22.4850489,41.9396458 22.3576966,42.3184726 22.1029883,42.6331665 C21.84828,42.9478605 21.4616091,43.1052051 20.942964,43.1052051 C20.4243188,43.1052051 20.0376479,42.9478605 19.7829396,42.6331665 C19.5282313,42.3184726 19.4008791,41.9396458 19.4008791,41.4966749 C19.4008791,41.0610868 19.5282313,40.6836443 19.7829396,40.3643361 C20.0376479,40.0450279 20.4243188,39.8853761 20.942964,39.8853761 C21.4616091,39.8853761 21.84828,40.0450279 22.1029883,40.3643361 C22.3576966,40.6836443 22.4850489,41.0610868 22.4850489,41.4966749 Z M26.4219334,39.9158302 C26.5548247,39.9158302 26.6858683,39.9416698 26.8150682,39.9933498 C26.944268,40.0450297 27.061469,40.1354683 27.1666746,40.2646681 C27.2515773,40.3698737 27.3087936,40.4990716 27.338325,40.6522657 C27.3567821,40.7537799 27.3660105,40.9023575 27.3660105,41.098003 L27.3604734,43 L26.5520555,43 L26.5520555,41.0786231 C26.5520555,40.964189 26.5335986,40.8700591 26.4966844,40.7962306 C26.4265473,40.6559565 26.2973494,40.5858204 26.1090867,40.5858204 C25.8912927,40.5858204 25.7408694,40.676259 25.6578124,40.8571388 C25.615361,40.9531158 25.5941356,41.0684711 25.5941356,41.2032081 L25.5941356,43 L24.7995605,43 L24.7995605,41.2032081 C24.7995605,41.024174 24.7811036,40.8940533 24.7441894,40.8128419 C24.6777437,40.6670306 24.547623,40.5941261 24.3538232,40.5941261 C24.1286463,40.5941261 23.9773001,40.6670306 23.8997802,40.8128419 C23.8573288,40.895899 23.8361035,41.0195598 23.8361035,41.1838282 L23.8361035,43 L23.0359912,43 L23.0359912,39.9878127 L23.8028808,39.9878127 L23.8028808,40.4280128 C23.9007036,40.2711273 23.9929878,40.1594634 24.0797363,40.0930177 C24.2329304,39.9748921 24.4313415,39.9158302 24.6749755,39.9158302 C24.9056895,39.9158302 25.0921037,39.9665866 25.2342235,40.0681007 C25.3486577,40.1622321 25.4354048,40.2831244 25.4944676,40.4307814 C25.5978275,40.253593 25.7261026,40.1234722 25.8792967,40.0404152 C26.0417194,39.9573581 26.2225965,39.9158302 26.4219334,39.9158302 Z M29.2818503,40.5525978 C29.0991247,40.5525978 28.9574684,40.609814 28.8568771,40.7242482 C28.7562858,40.8386823 28.6930711,40.9937198 28.6672311,41.1893653 L29.8937008,41.1893653 C29.8807808,40.9807998 29.8175661,40.8225324 29.7040548,40.7145582 C29.5905435,40.6065841 29.4498101,40.5525978 29.2818503,40.5525978 Z M29.2818503,39.9019875 C29.5328671,39.9019875 29.7589635,39.9490524 29.9601461,40.0431838 C30.1613288,40.1373151 30.3274404,40.2858927 30.4584859,40.488921 C30.5766115,40.6679551 30.6532074,40.8755946 30.688276,41.1118458 C30.7085788,41.2502742 30.7168844,41.4496082 30.713193,41.7098536 L28.6478513,41.7098536 C28.6589255,42.0125504 28.7539783,42.2248041 28.9330124,42.3466211 C29.0419094,42.4222953 29.172953,42.4601319 29.3261471,42.4601319 C29.4885698,42.4601319 29.6205363,42.4139898 29.7220504,42.3217041 C29.7774218,42.2718699 29.8263324,42.2026567 29.8687838,42.1140625 L30.6744332,42.1140625 C30.6541304,42.2930966 30.5609233,42.4748966 30.3948092,42.6594678 C30.1364095,42.952936 29.7746553,43.099668 29.3095358,43.099668 C28.9256276,43.099668 28.5869445,42.9760071 28.2934763,42.7286817 C28.000008,42.4813562 27.8532761,42.078997 27.8532761,41.5215919 C27.8532761,40.9992553 27.985704,40.5987418 28.2505637,40.3200392 C28.5154234,40.0413367 28.8591821,39.9019875 29.2818503,39.9019875 Z M16.3610062,50.4579151 L17.3964456,50.4579151 L16.8870316,48.8521535 L16.3610062,50.4579151 Z M16.4136087,47.9191506 L17.3770657,47.9191506 L18.8222512,52 L17.897554,52 L17.6345413,51.161128 L16.1312162,51.161128 L15.8488236,52 L14.9573491,52 L16.4136087,47.9191506 Z M20.9069728,48.9158302 C21.3038009,48.9158302 21.6143373,49.0588708 21.8385914,49.3449562 C22.0628454,49.6310416 22.1749707,50.0001785 22.1749707,50.452378 C22.1749707,50.9211889 22.0642297,51.3097055 21.8427442,51.6179395 C21.6212587,51.9261734 21.3121066,52.0802881 20.9152784,52.0802881 C20.6661073,52.0802881 20.4658505,52.0304546 20.3145021,51.9307861 C20.2240622,51.8717233 20.1262409,51.768365 20.0210353,51.620708 L20.0210353,52 L19.2486086,52 L19.2486086,47.9246877 L20.0348781,47.9246877 L20.0348781,49.3754103 C20.1345465,49.2351362 20.2443648,49.1280865 20.3643361,49.054258 C20.5064559,48.9619724 20.687333,48.9158302 20.9069728,48.9158302 Z M20.7048683,51.4296778 C20.9078966,51.4296778 21.0657027,51.3475448 21.1782911,51.1832764 C21.2908796,51.019008 21.3471729,50.8030629 21.3471729,50.5354346 C21.3471729,50.321332 21.3194877,50.1441463 21.2641163,50.0038722 C21.1589107,49.7380896 20.9651138,49.6052003 20.6827198,49.6052003 C20.3966344,49.6052003 20.200069,49.7353211 20.0930177,49.9955665 C20.0376464,50.1339949 20.0099611,50.3130263 20.0099611,50.5326661 C20.0099611,50.7910658 20.0671773,51.0051652 20.1816115,51.1749707 C20.2960456,51.3447763 20.4704628,51.4296778 20.7048683,51.4296778 Z M24.093579,51.4435205 C24.3242931,51.4435205 24.5014788,51.3613876 24.6251415,51.1971192 C24.7488042,51.0328508 24.8106347,50.7993717 24.8106347,50.4966749 C24.8106347,50.1939781 24.7488042,49.9609604 24.6251415,49.7976149 C24.5014788,49.6342693 24.3242931,49.5525978 24.093579,49.5525978 C23.862865,49.5525978 23.6852179,49.6342693 23.5606323,49.7976149 C23.4360467,49.9609604 23.3737549,50.1939781 23.3737549,50.4966749 C23.3737549,50.7993717 23.4360467,51.0328508 23.5606323,51.1971192 C23.6852179,51.3613876 23.862865,51.4435205 24.093579,51.4435205 Z M25.6384325,50.4966749 C25.6384325,50.9396458 25.5110802,51.3184726 25.256372,51.6331665 C25.0016637,51.9478605 24.6149927,52.1052051 24.0963476,52.1052051 C23.5777025,52.1052051 23.1910315,51.9478605 22.9363232,51.6331665 C22.681615,51.3184726 22.5542627,50.9396458 22.5542627,50.4966749 C22.5542627,50.0610868 22.681615,49.6836443 22.9363232,49.3643361 C23.1910315,49.0450279 23.5777025,48.8853761 24.0963476,48.8853761 C24.6149927,48.8853761 25.0016637,49.0450279 25.256372,49.3643361 C25.5110802,49.6836443 25.6384325,50.0610868 25.6384325,50.4966749 Z M26.9894871,48.9822756 L26.9894871,50.8012159 C26.9894871,50.9728671 27.0097896,51.102065 27.0503953,51.1888135 C27.1223781,51.3420076 27.2635729,51.4186035 27.4739841,51.4186035 C27.7434581,51.4186035 27.9280266,51.3097082 28.027695,51.0919141 C28.079375,50.9737885 28.1052146,50.8178282 28.1052146,50.6240284 L28.1052146,48.9822756 L28.9053268,48.9822756 L28.9053268,52 L28.1384372,52 L28.1384372,51.5736426 C28.1310544,51.5828712 28.1125975,51.6105564 28.0830661,51.6566992 C28.0535347,51.702842 28.0184667,51.7434471 27.9778611,51.7785156 C27.8541983,51.8892584 27.7346903,51.9649314 27.6193333,52.0055371 C27.5039762,52.0461428 27.3687798,52.0664453 27.21374,52.0664453 C26.7670776,52.0664453 26.4662311,51.9058708 26.3111912,51.5847168 C26.2244428,51.4075284 26.1810692,51.1463641 26.1810692,50.8012159 L26.1810692,48.9822756 L26.9894871,48.9822756 Z M29.3566012,49.5719777 L29.3566012,49.0099611 L29.7774215,49.0099611 L29.7774215,48.1683205 L30.5581539,48.1683205 L30.5581539,49.0099611 L31.0481881,49.0099611 L31.0481881,49.5719777 L30.5581539,49.5719777 L30.5581539,51.1666651 C30.5581539,51.2903278 30.5738422,51.3673851 30.6052193,51.3978394 C30.6365964,51.4282936 30.732572,51.4435205 30.893149,51.4435205 C30.9171433,51.4435205 30.9425214,51.4430591 30.9692842,51.4421363 C30.9960471,51.4412134 31.0223481,51.4398291 31.0481881,51.4379834 L31.0481881,52.0276855 L30.6744332,52.0415283 C30.3015993,52.0544483 30.0468948,51.9898493 29.9103121,51.8477295 C29.8217179,51.7572896 29.7774215,51.6179404 29.7774215,51.4296778 L29.7774215,49.5719777 L29.3566012,49.5719777 Z M17.9612307,57.6279006 L17.9612307,58.5276808 L18.9634475,58.5276808 C19.1424816,58.5276808 19.2878292,58.4939971 19.3994948,58.4266286 C19.5111604,58.3592601 19.5669924,58.239752 19.5669924,58.0681007 C19.5669924,57.8779924 19.493165,57.7524858 19.345508,57.6915773 C19.2181539,57.6491259 19.0557336,57.6279006 18.8582424,57.6279006 L17.9612307,57.6279006 Z M17.9612307,59.2032081 L17.9612307,60.29125 L18.9634475,60.29125 C19.1424816,60.29125 19.2818308,60.2672561 19.3814992,60.2192676 C19.562379,60.1306734 19.6528176,59.9608705 19.6528176,59.7098536 C19.6528176,59.4975967 19.5651475,59.3517876 19.3898049,59.272422 C19.2919821,59.2281249 19.1544786,59.2050538 18.9772903,59.2032081 L17.9612307,59.2032081 Z M19.1295608,56.9191506 C19.6297488,56.9265335 19.9841202,57.0714197 20.1926857,57.3538137 C20.3181941,57.5273106 20.3809474,57.7349501 20.3809474,57.9767384 C20.3809474,58.2259096 20.3181941,58.4261664 20.1926857,58.5775148 C20.1225486,58.6624175 20.0191903,58.7399363 19.8826076,58.8100734 C20.0911731,58.8857476 20.2485177,59.0057171 20.3546461,59.1699854 C20.4607746,59.3342538 20.513838,59.5335878 20.513838,59.7679932 C20.513838,60.0097815 20.4529304,60.2266495 20.3311134,60.4186035 C20.2535935,60.5459577 20.1566951,60.6530074 20.0404152,60.7397559 C19.9093696,60.8394243 19.7547935,60.9077147 19.5766823,60.9446289 C19.3985711,60.9815432 19.2052356,61 18.9966701,61 L17.1472757,61 L17.1472757,56.9191506 L19.1295608,56.9191506 Z M21.9700977,61 L21.1810597,61 L21.1810597,56.9191506 L21.9700977,56.9191506 L21.9700977,61 Z M24.093579,60.4435205 C24.3242931,60.4435205 24.5014788,60.3613876 24.6251415,60.1971192 C24.7488042,60.0328508 24.8106347,59.7993717 24.8106347,59.4966749 C24.8106347,59.1939781 24.7488042,58.9609604 24.6251415,58.7976149 C24.5014788,58.6342693 24.3242931,58.5525978 24.093579,58.5525978 C23.862865,58.5525978 23.6852179,58.6342693 23.5606323,58.7976149 C23.4360467,58.9609604 23.3737549,59.1939781 23.3737549,59.4966749 C23.3737549,59.7993717 23.4360467,60.0328508 23.5606323,60.1971192 C23.6852179,60.3613876 23.862865,60.4435205 24.093579,60.4435205 Z M25.6384325,59.4966749 C25.6384325,59.9396458 25.5110802,60.3184726 25.256372,60.6331665 C25.0016637,60.9478605 24.6149927,61.1052051 24.0963476,61.1052051 C23.5777025,61.1052051 23.1910315,60.9478605 22.9363232,60.6331665 C22.681615,60.3184726 22.5542627,59.9396458 22.5542627,59.4966749 C22.5542627,59.0610868 22.681615,58.6836443 22.9363232,58.3643361 C23.1910315,58.0450279 23.5777025,57.8853761 24.0963476,57.8853761 C24.6149927,57.8853761 25.0016637,58.0450279 25.256372,58.3643361 C25.5110802,58.6836443 25.6384325,59.0610868 25.6384325,59.4966749 Z M27.4989011,60.3521582 C27.6834724,60.3521582 27.8394327,60.2824836 27.9667868,60.1431324 C28.094141,60.0037811 28.1578171,59.7818375 28.1578171,59.477295 C28.1578171,59.1912096 28.0973709,58.9734188 27.9764768,58.8239161 C27.8555826,58.6744134 27.6936238,58.5996632 27.4905955,58.5996632 C27.2137386,58.5996632 27.0227103,58.729784 26.9175047,58.9900294 C26.8621333,59.1284578 26.834448,59.2991836 26.834448,59.502212 C26.834448,59.6775547 26.863979,59.833515 26.9230418,59.9700977 C27.0300931,60.224806 27.2220443,60.3521582 27.4989011,60.3521582 Z M27.3023338,57.9102931 C27.4536822,57.9102931 27.5856486,57.9333642 27.6982371,57.979507 C27.8901911,58.0588726 28.0452286,58.2046817 28.1633542,58.4169386 L28.1633542,57.9822756 L28.9302438,57.9822756 L28.9302438,60.8449609 C28.9302438,61.2344062 28.864722,61.5278701 28.7336765,61.7253613 C28.5084996,62.0649723 28.0766094,62.2347753 27.4379929,62.2347753 C27.0522391,62.2347753 26.7375498,62.1591023 26.4939158,62.0077539 C26.2502818,61.8564054 26.1155468,61.6303091 26.0897069,61.329458 L26.9479588,61.329458 C26.9701073,61.4217436 27.0060982,61.4881882 27.0559324,61.5287939 C27.1408352,61.6007767 27.2838757,61.6367675 27.4850584,61.6367675 C27.769298,61.6367675 27.9594036,61.5417148 28.0553806,61.3516064 C28.1181348,61.2297894 28.1495114,61.0249184 28.1495114,60.7369873 L28.1495114,60.5431885 C28.0738372,60.6723884 27.9926271,60.7692868 27.9058786,60.8338867 C27.7489931,60.953858 27.545045,61.0138428 27.2940281,61.0138428 C26.9064285,61.0138428 26.5968149,60.8777235 26.365178,60.605481 C26.1335412,60.3332384 26.0177244,59.9645629 26.0177244,59.4994434 C26.0177244,59.0509354 26.1293884,58.6739543 26.3527195,58.3684889 C26.5760507,58.0630235 26.8925856,57.9102931 27.3023338,57.9102931 Z M8.29066972,67.992798 C8.29066972,67.280353 8.48169808,66.7312619 8.86376051,66.345508 C9.19598872,66.0095884 9.61865049,65.8416311 10.1317585,65.8416311 C10.8183635,65.8416311 11.3203897,66.0668046 11.6378522,66.5171584 C11.8131948,66.770021 11.9073247,67.0238026 11.9202447,67.2785109 L11.0675299,67.2785109 C11.0121586,67.0828654 10.9410997,66.9352106 10.8543512,66.8355422 C10.6993114,66.6583538 10.4695237,66.5697609 10.1649811,66.5697609 C9.85490149,66.5697609 9.61034828,66.6948061 9.4313142,66.9449001 C9.25228011,67.1949941 9.1627644,67.5489041 9.1627644,68.0066407 C9.1627644,68.4643774 9.25735574,68.8072133 9.44654125,69.0351587 C9.63572675,69.2631042 9.87612717,69.3770752 10.1677497,69.3770752 C10.4667551,69.3770752 10.6946971,69.2792539 10.8515827,69.0836084 C10.9383312,68.9784028 11.0103128,68.8205968 11.0675299,68.6101856 L11.9119391,68.6101856 C11.8381106,69.0550023 11.6493893,69.4167564 11.3457697,69.695459 C11.04215,69.9741616 10.653172,70.1135107 10.1788239,70.1135107 C9.59188742,70.1135107 9.13046628,69.9252509 8.79454665,69.5487256 C8.45862702,69.1703546 8.29066972,68.6517172 8.29066972,67.992798 Z M13.8526958,69.4435205 C14.0834098,69.4435205 14.2605955,69.3613876 14.3842583,69.1971192 C14.507921,69.0328508 14.5697514,68.7993717 14.5697514,68.4966749 C14.5697514,68.1939781 14.507921,67.9609604 14.3842583,67.7976149 C14.2605955,67.6342693 14.0834098,67.5525978 13.8526958,67.5525978 C13.6219818,67.5525978 13.4443346,67.6342693 13.319749,67.7976149 C13.1951635,67.9609604 13.1328716,68.1939781 13.1328716,68.4966749 C13.1328716,68.7993717 13.1951635,69.0328508 13.319749,69.1971192 C13.4443346,69.3613876 13.6219818,69.4435205 13.8526958,69.4435205 Z M15.3975492,68.4966749 C15.3975492,68.9396458 15.270197,69.3184726 15.0154887,69.6331665 C14.7607804,69.9478605 14.3741095,70.1052051 13.8554644,70.1052051 C13.3368192,70.1052051 12.9501483,69.9478605 12.69544,69.6331665 C12.4407317,69.3184726 12.3133795,68.9396458 12.3133795,68.4966749 C12.3133795,68.0610868 12.4407317,67.6836443 12.69544,67.3643361 C12.9501483,67.0450279 13.3368192,66.8853761 13.8554644,66.8853761 C14.3741095,66.8853761 14.7607804,67.0450279 15.0154887,67.3643361 C15.270197,67.6836443 15.3975492,68.0610868 15.3975492,68.4966749 Z M17.6345413,66.9102931 C17.9464667,66.9102931 18.2016326,66.9919647 18.4000466,67.1553102 C18.5984607,67.3186557 18.6976662,67.58951 18.6976662,67.967881 L18.6976662,70 L17.8892483,70 L17.8892483,68.1644483 C17.8892483,68.0057171 17.8680229,67.8839019 17.8255716,67.7989991 C17.7480516,67.6439593 17.6003969,67.5664406 17.3826028,67.5664406 C17.1149746,67.5664406 16.9313289,67.6799502 16.8316605,67.9069728 C16.7799805,68.0269441 16.754141,68.1801359 16.754141,68.3665528 L16.754141,70 L15.9678715,70 L15.9678715,66.9878127 L16.729224,66.9878127 L16.729224,67.4280128 C16.8307381,67.272973 16.9267137,67.1613091 17.0171536,67.0930177 C17.1795763,66.9712007 17.3853701,66.9102931 17.6345413,66.9102931 Z M19.115718,67.5719777 L19.115718,67.0099611 L19.5365383,67.0099611 L19.5365383,66.1683205 L20.3172706,66.1683205 L20.3172706,67.0099611 L20.8073048,67.0099611 L20.8073048,67.5719777 L20.3172706,67.5719777 L20.3172706,69.1666651 C20.3172706,69.2903278 20.332959,69.3673851 20.3643361,69.3978394 C20.3957132,69.4282936 20.4916888,69.4435205 20.6522657,69.4435205 C20.67626,69.4435205 20.7016382,69.4430591 20.728401,69.4421363 C20.7551638,69.4412134 20.7814648,69.4398291 20.8073048,69.4379834 L20.8073048,70.0276855 L20.4335499,70.0415283 C20.0607161,70.0544483 19.8060116,69.9898493 19.6694289,69.8477295 C19.5808347,69.7572896 19.5365383,69.6179404 19.5365383,69.4296778 L19.5365383,67.5719777 L19.115718,67.5719777 Z M22.9778516,68.5326661 C22.9280173,68.5640432 22.8777224,68.5894214 22.8269653,68.6088013 C22.7762083,68.6281813 22.7065337,68.6461767 22.6179395,68.6627882 L22.440752,68.6960108 C22.2746379,68.7255422 22.1555912,68.7615331 22.0836084,68.8039844 C21.9617914,68.8759672 21.9008838,68.9876311 21.9008838,69.1389795 C21.9008838,69.2737165 21.938259,69.3710764 22.0130103,69.431062 C22.0877617,69.4910477 22.1786616,69.5210401 22.2857129,69.5210401 C22.4555185,69.5210401 22.6119402,69.4712066 22.7549829,69.3715381 C22.8980256,69.2718697 22.9723144,69.0900697 22.9778516,68.8261329 L22.9778516,68.5326661 Z M22.4988916,68.1644483 C22.6447029,68.1459912 22.7489841,68.1229202 22.8117383,68.0952345 C22.9243267,68.047246 22.9806201,67.9724957 22.9806201,67.8709816 C22.9806201,67.7473188 22.937708,67.6619559 22.8518823,67.6148903 C22.7660567,67.5678246 22.6400887,67.5442921 22.4739746,67.5442921 C22.2875577,67.5442921 22.1555913,67.5904342 22.0780713,67.6827198 C22.0227,67.7510112 21.9857863,67.8432954 21.9673292,67.9595753 L21.2059767,67.9595753 C21.2225881,67.6956385 21.2964155,67.4787705 21.427461,67.308965 C21.6360265,67.0431824 21.9940893,66.9102931 22.5016602,66.9102931 C22.8320427,66.9102931 23.1255065,66.9758149 23.3820605,67.1068605 C23.6386145,67.2379061 23.7668896,67.4852278 23.7668896,67.8488331 L23.7668896,69.2331104 C23.7668896,69.3290874 23.7687353,69.4453656 23.7724267,69.5819483 C23.7779639,69.6853082 23.7936522,69.7554442 23.8194921,69.7923584 C23.8453321,69.8292727 23.8840915,69.8597264 23.9357714,69.8837207 L23.9357714,70 L23.0775195,70 C23.0535253,69.9390915 23.0369141,69.8818753 23.0276855,69.8283496 C23.018457,69.774824 23.0110742,69.7139164 23.0055371,69.645625 C22.8966401,69.7637506 22.7711335,69.8643404 22.6290137,69.9473975 C22.4592082,70.0452202 22.267257,70.0941309 22.0531543,70.0941309 C21.7799889,70.0941309 21.554354,70.0161507 21.3762428,69.860188 C21.1981315,69.7042253 21.1090772,69.4832046 21.1090772,69.1971192 C21.1090772,68.826131 21.2521178,68.5575839 21.5382032,68.3914698 C21.6950887,68.3010299 21.9257993,68.236431 22.2303418,68.197671 L22.4988916,68.1644483 Z M26.2696629,68.0647804 C26.2548972,67.9521919 26.2170607,67.8506793 26.1561522,67.7602394 C26.067558,67.6384224 25.9300545,67.5775148 25.7436375,67.5775148 C25.477855,67.5775148 25.2960551,67.7094812 25.1982323,67.9734181 C25.1465524,68.1136922 25.1207128,68.3001063 25.1207128,68.5326661 C25.1207128,68.7541516 25.1465524,68.9322601 25.1982323,69.0669971 C25.2923636,69.318014 25.4695493,69.4435205 25.7297948,69.4435205 C25.914366,69.4435205 26.0454096,69.3936871 26.1229295,69.2940186 C26.2004494,69.1943501 26.2475144,69.0651522 26.2641258,68.906421 L27.0697752,68.906421 C27.0513181,69.1463635 26.9645709,69.3733828 26.809531,69.5874854 C26.5622056,69.9326336 26.1958372,70.1052051 25.7104149,70.1052051 C25.2249926,70.1052051 24.8678526,69.9612417 24.6389843,69.6733106 C24.410116,69.3853795 24.2956835,69.0116283 24.2956835,68.552046 C24.2956835,68.0334008 24.4221129,67.6301188 24.6749755,67.3421876 C24.9278381,67.0542565 25.2766725,66.9102931 25.7214891,66.9102931 C26.0998601,66.9102931 26.4094737,66.9951946 26.6503392,67.1650002 C26.8912046,67.3348057 27.0337837,67.6347294 27.0780808,68.0647804 L26.2696629,68.0647804 Z M27.3106394,67.5719777 L27.3106394,67.0099611 L27.7314597,67.0099611 L27.7314597,66.1683205 L28.5121921,66.1683205 L28.5121921,67.0099611 L29.0022262,67.0099611 L29.0022262,67.5719777 L28.5121921,67.5719777 L28.5121921,69.1666651 C28.5121921,69.2903278 28.5278804,69.3673851 28.5592575,69.3978394 C28.5906346,69.4282936 28.6866102,69.4435205 28.8471872,69.4435205 C28.8711814,69.4435205 28.8965596,69.4430591 28.9233224,69.4421363 C28.9500853,69.4412134 28.9763863,69.4398291 29.0022262,69.4379834 L29.0022262,70.0276855 L28.6284714,70.0415283 C28.2556375,70.0544483 28.000933,69.9898493 27.8643503,69.8477295 C27.7757561,69.7572896 27.7314597,69.6179404 27.7314597,69.4296778 L27.7314597,67.5719777 L27.3106394,67.5719777 Z M31.147856,65.9191506 L32.0144136,65.9191506 L32.0144136,68.427461 C32.0144136,68.7080093 32.0476359,68.9128803 32.1140815,69.0420801 C32.2174414,69.2709484 32.442615,69.3853809 32.7896089,69.3853809 C33.134757,69.3853809 33.3590077,69.2709484 33.4623676,69.0420801 C33.5288133,68.9128803 33.5620356,68.7080093 33.5620356,68.427461 L33.5620356,65.9191506 L34.4285931,65.9191506 L34.4285931,68.427461 C34.4285931,68.8612034 34.3612257,69.1989637 34.2264887,69.440752 C33.9754718,69.8837229 33.4965167,70.1052051 32.7896089,70.1052051 C32.0827011,70.1052051 31.6028231,69.8837229 31.3499605,69.440752 C31.2152235,69.1989637 31.147856,68.8612034 31.147856,68.427461 L31.147856,65.9191506 Z M35.7934905,69.036543 C35.8101019,69.1768172 35.8460928,69.2764841 35.9014642,69.3355469 C35.9992869,69.4407525 36.180164,69.4933545 36.4441009,69.4933545 C36.5991407,69.4933545 36.7223401,69.4702835 36.8137029,69.4241407 C36.9050656,69.3779978 36.9507463,69.3087847 36.9507463,69.2164991 C36.9507463,69.1279049 36.9138326,69.0605374 36.8400041,69.0143946 C36.7661757,68.9682518 36.4920915,68.8888873 36.0177435,68.7762989 C35.6762867,68.6913961 35.4354248,68.5852693 35.2951507,68.4579151 C35.1548766,68.3324067 35.0847406,68.1515296 35.0847406,67.9152784 C35.0847406,67.6365759 35.1940974,67.3970983 35.4128143,67.1968385 C35.6315312,66.9965787 35.9392991,66.8964504 36.3361272,66.8964504 C36.7126525,66.8964504 37.0194976,66.971662 37.2566716,67.1220876 C37.4938456,67.2725131 37.6299649,67.5322932 37.6650334,67.9014357 L36.8759954,67.9014357 C36.8649211,67.7999215 36.836313,67.7196342 36.7901702,67.6605714 C36.7034217,67.5535201 36.5557669,67.4999952 36.3472014,67.4999952 C36.1755502,67.4999952 36.0532736,67.5267577 35.980368,67.5802833 C35.9074623,67.633809 35.8710101,67.6965623 35.8710101,67.768545 C35.8710101,67.8589849 35.9097694,67.9245067 35.9872894,67.9651124 C36.0648093,68.0075638 36.3388934,68.0804683 36.80955,68.1838282 C37.1233211,68.2576567 37.3586459,68.3693206 37.5155315,68.5188233 C37.6705713,68.6701717 37.74809,68.8593544 37.74809,69.086377 C37.74809,69.3853824 37.6368875,69.6294742 37.4144792,69.8186597 C37.1920709,70.0078452 36.8483121,70.1024365 36.3831927,70.1024365 C35.9088446,70.1024365 35.558626,70.0023081 35.3325262,69.8020484 C35.1064265,69.6017886 34.9933783,69.3466227 34.9933783,69.036543 L35.7934905,69.036543 Z" id="Home-About-Blog-Cont" fill="#4A4A4A"></path>
            </g>
        </g>
    </g>
</svg>