<?xml version="1.0" encoding="UTF-8"?>
<svg width="178px" height="119px" viewBox="0 0 178 119" version="1.1" xmlns="http://www.w3.org/2000/svg" xmlns:xlink="http://www.w3.org/1999/xlink">
    <!-- Generator: Sketch 51.2 (57519) - http://www.bohemiancoding.com/sketch -->
    <title>Group 21</title>
    <desc>Created with Sketch.</desc>
    <defs></defs>
    <g id="Page-1" stroke="none" stroke-width="1" fill="none" fill-rule="evenodd">
        <g id="Desktop-HD" transform="translate(-751.000000, -2754.000000)">
            <g id="Group-21" transform="translate(751.000000, 2754.000000)">
                <rect id="Rectangle-2-Copy-48" stroke="#9B9B9B" stroke-width="1.61999991" fill="#F9F9F9" x="0.809999957" y="0.809999957" width="176.38" height="117.38" rx="6.47999966"></rect>
                <path d="M45.19,118.19 L45.19,0.809999957 L7,0.809999957 C3.58135737,0.809999957 0.809999957,3.58135737 0.809999957,7 L0.809999957,112 C0.809999957,115.418643 3.58135737,118.19 7,118.19 L45.19,118.19 Z" id="Rectangle-2-Copy-50" stroke="#9B9B9B" stroke-width="1.61999991" fill="#FFFFFF"></path>
                <g id="brand-copy-21" transform="translate(11.000000, 9.000000)" fill="#4A4A4A" fill-rule="nonzero">
                    <g id="#000000ff">
                        <path d="M0.0243116872,0 L1.17755844,0 C1.19314286,0.585742574 1.17880519,1.17148515 1.18566234,1.75722772 C1.92,1.31168317 2.92176623,1.35742574 3.63179221,1.82554455 C4.16415584,2.17069307 4.56062338,2.71960396 4.65537662,3.33148515 C4.71148052,3.72356436 4.6852987,4.13287129 4.53693506,4.50534653 C4.20342857,5.34118812 3.31885714,5.96613861 2.37007792,5.96079208 C1.8638961,5.98574257 1.36955844,5.80514851 0.982441557,5.49980198 C0.730597401,5.74455446 0.379636363,5.86811881 0.0211948041,5.81940594 C0.013090908,3.87980198 0.00623376512,1.93960396 0.0243116872,0 Z M2.08020779,2.58356436 C1.63885714,2.66257426 1.26296104,3.00237624 1.15324675,3.41643564 C0.967480518,4.04079208 1.44187013,4.74950495 2.12072727,4.83326733 C2.83137662,4.97108911 3.55698701,4.37108911 3.5145974,3.6819802 C3.52955844,2.99524752 2.78088312,2.4249505 2.08020779,2.58356436 Z" id="Shape"></path>
                        <path d="M6.72685714,1.46554455 C7.24737662,1.42455446 7.78098701,1.46673267 8.28093506,1.61762376 C8.28779221,1.97108911 8.28841558,2.32514851 8.28218182,2.67861386 C8.27096104,2.70534653 8.24851948,2.76 8.23667532,2.78732673 C7.776,2.5639604 7.24114286,2.51465347 6.73309091,2.56752475 C6.59594805,2.57524752 6.36841558,2.67267327 6.48997403,2.83128713 C6.94441558,3.06356436 7.43127273,3.23584158 7.8825974,3.47346535 C8.3918961,3.74792079 8.66431169,4.35980198 8.50348052,4.8980198 C8.40623377,5.28118812 8.12446753,5.6150495 7.7467013,5.77841584 C7.16197403,6.03386139 6.4881039,5.99762376 5.8747013,5.86633663 C5.66774026,5.83366337 5.46888312,5.67683168 5.46202597,5.46653465 C5.45142857,5.15881188 5.44706494,4.85049505 5.46950649,4.5439604 C6.00561039,4.77683168 6.61963636,4.95920792 7.20685714,4.79346535 C7.39075325,4.75425743 7.43937662,4.50356436 7.2854026,4.40257426 C6.77672727,4.10019802 6.16332468,3.96950495 5.69080519,3.61009901 C5.23948052,3.22693069 5.17215584,2.51881188 5.52374026,2.05425743 C5.78742857,1.6770297 6.26867532,1.50178218 6.72685714,1.46554455 Z" id="Shape"></path>
                        <path d="M9.87677922,1.92772277 C10.358026,1.52376238 11.0331429,1.41920792 11.654026,1.4560396 C12.1795325,1.48217822 12.7193766,1.65089109 13.0902857,2.01980198 C13.3633247,2.28475248 13.5017143,2.65782178 13.4954805,3.02673267 C13.4985974,3.95465347 13.4998442,4.88257426 13.4954805,5.81049505 C13.2155844,5.82950495 12.9338182,5.82534653 12.6539221,5.81821782 C12.4675325,5.8170297 12.3141818,5.64118812 12.3285195,5.46772277 C12.3235325,4.65564356 12.3297662,3.84356436 12.326026,3.03148515 C12.3397403,2.87584158 12.2275325,2.73683168 12.0797922,2.6809901 C11.7518961,2.54019802 11.3747532,2.54079208 11.0269091,2.6019802 C10.8211948,2.6429703 10.5624935,2.74574257 10.5437922,2.97623762 C10.5238442,3.92257426 10.5537662,4.86950495 10.5294545,5.81584158 C10.1442078,5.82475248 9.75896104,5.82891089 9.37371429,5.81346535 C9.36187013,4.88435644 9.37122078,3.95524752 9.36935065,3.02613861 C9.36374026,2.61267327 9.5414026,2.19564356 9.87677922,1.92772277 Z" id="Shape"></path>
                        <path d="M15.4404156,1.70792079 C16.2052987,1.31940594 17.2313766,1.34970297 17.8946494,1.91405941 C18.1365195,1.66039604 18.4924675,1.54752475 18.8477922,1.59267327 C18.8608831,3.00178218 18.8658701,4.41207921 18.8446753,5.82118812 C18.4918442,5.86158416 18.1377662,5.75049505 17.8958961,5.49920792 C17.5106494,5.8009901 17.0231688,5.98455446 16.5201039,5.96079208 C15.6492468,5.97029703 14.8232727,5.45108911 14.4361558,4.71623762 C14.1899221,4.26594059 14.1375584,3.73366337 14.2366753,3.23821782 C14.3650909,2.58772277 14.8413506,2.02811881 15.4404156,1.70792079 Z M16.3555325,2.57940594 C15.739013,2.65960396 15.2714805,3.26316832 15.3662338,3.84831683 C15.4260779,4.39009901 15.9478442,4.84752475 16.521974,4.84693069 C17.1821299,4.88792079 17.7905455,4.31465347 17.7556364,3.68435644 C17.7730909,3.00831683 17.0493506,2.43920792 16.3555325,2.57940594 Z" id="Shape"></path>
                        <path d="M19.3365195,1.60336634 C19.6232727,1.57841584 19.9118961,1.59326733 20.1992727,1.58910891 C20.3251948,1.59386139 20.4673247,1.58435644 20.5701818,1.66633663 C20.6630649,1.74356436 20.7067013,1.8570297 20.7590649,1.95980198 C21.0545455,2.61207921 21.3581299,3.26079208 21.6536104,3.91247525 C22.0145455,3.15029703 22.3561558,2.37980198 22.7152208,1.6170297 C23.1229091,1.5570297 23.553039,1.59980198 23.9688312,1.5980198 C23.9326753,1.77445545 23.8435325,1.93425743 23.7693506,2.09821782 C23.2282597,3.26613861 22.694026,4.4370297 22.1510649,5.60435644 C21.9877403,6.0029703 21.2777143,5.98039604 21.1449351,5.56871287 C20.6306494,4.45663366 20.1201039,3.34336634 19.6064416,2.23128713 C19.5154286,2.02217822 19.4013506,1.8219802 19.3365195,1.60336634 Z" id="Shape"></path>
                    </g>
                </g>
                <path d="M19.6732821,40 L19.6732821,35.9191506 L20.5176912,35.9191506 L20.5176912,37.4750783 L22.1123786,37.4750783 L22.1123786,35.9191506 L22.9595563,35.9191506 L22.9595563,40 L22.1123786,40 L22.1123786,38.1782911 L20.5176912,38.1782911 L20.5176912,40 L19.6732821,40 Z M25.0636578,39.4435205 C25.2943718,39.4435205 25.4715575,39.3613876 25.5952202,39.1971192 C25.7188829,39.0328508 25.7807134,38.7993717 25.7807134,38.4966749 C25.7807134,38.1939781 25.7188829,37.9609604 25.5952202,37.7976149 C25.4715575,37.6342693 25.2943718,37.5525978 25.0636578,37.5525978 C24.8329437,37.5525978 24.6552966,37.6342693 24.530711,37.7976149 C24.4061254,37.9609604 24.3438336,38.1939781 24.3438336,38.4966749 C24.3438336,38.7993717 24.4061254,39.0328508 24.530711,39.1971192 C24.6552966,39.3613876 24.8329437,39.4435205 25.0636578,39.4435205 Z M26.6085112,38.4966749 C26.6085112,38.9396458 26.481159,39.3184726 26.2264507,39.6331665 C25.9717424,39.9478605 25.5850715,40.1052051 25.0664263,40.1052051 C24.5477812,40.1052051 24.1611102,39.9478605 23.906402,39.6331665 C23.6516937,39.3184726 23.5243414,38.9396458 23.5243414,38.4966749 C23.5243414,38.0610868 23.6516937,37.6836443 23.906402,37.3643361 C24.1611102,37.0450279 24.5477812,36.8853761 25.0664263,36.8853761 C25.5850715,36.8853761 25.9717424,37.0450279 26.2264507,37.3643361 C26.481159,37.6836443 26.6085112,38.0610868 26.6085112,38.4966749 Z M30.5453957,36.9158302 C30.678287,36.9158302 30.8093306,36.9416698 30.9385305,36.9933498 C31.0677303,37.0450297 31.1849313,37.1354683 31.2901369,37.2646681 C31.3750397,37.3698737 31.4322559,37.4990716 31.4617873,37.6522657 C31.4802444,37.7537799 31.4894728,37.9023575 31.4894728,38.098003 L31.4839357,40 L30.6755178,40 L30.6755178,38.0786231 C30.6755178,37.964189 30.657061,37.8700591 30.6201467,37.7962306 C30.5500097,37.6559565 30.4208117,37.5858204 30.2325491,37.5858204 C30.014755,37.5858204 29.8643317,37.676259 29.7812747,37.8571388 C29.7388233,37.9531158 29.7175979,38.0684711 29.7175979,38.2032081 L29.7175979,40 L28.9230228,40 L28.9230228,38.2032081 C28.9230228,38.024174 28.9045659,37.8940533 28.8676517,37.8128419 C28.8012061,37.6670306 28.6710853,37.5941261 28.4772855,37.5941261 C28.2521086,37.5941261 28.1007625,37.6670306 28.0232426,37.8128419 C27.9807912,37.895899 27.9595658,38.0195598 27.9595658,38.1838282 L27.9595658,40 L27.1594535,40 L27.1594535,36.9878127 L27.9263431,36.9878127 L27.9263431,37.4280128 C28.0241659,37.2711273 28.1164501,37.1594634 28.2031986,37.0930177 C28.3563927,36.9748921 28.5548038,36.9158302 28.7984378,36.9158302 C29.0291519,36.9158302 29.215566,36.9665866 29.3576858,37.0681007 C29.47212,37.1622321 29.5588672,37.2831244 29.61793,37.4307814 C29.7212899,37.253593 29.8495649,37.1234722 30.0027591,37.0404152 C30.1651817,36.9573581 30.3460588,36.9158302 30.5453957,36.9158302 Z M33.4053126,37.5525978 C33.2225871,37.5525978 33.0809308,37.609814 32.9803395,37.7242482 C32.8797481,37.8386823 32.8165334,37.9937198 32.7906935,38.1893653 L34.0171631,38.1893653 C34.0042432,37.9807998 33.9410285,37.8225324 33.8275172,37.7145582 C33.7140058,37.6065841 33.5732724,37.5525978 33.4053126,37.5525978 Z M33.4053126,36.9019875 C33.6563295,36.9019875 33.8824258,36.9490524 34.0836084,37.0431838 C34.2847911,37.1373151 34.4509027,37.2858927 34.5819483,37.488921 C34.7000738,37.6679551 34.7766698,37.8755946 34.8117383,38.1118458 C34.8320411,38.2502742 34.8403467,38.4496082 34.8366553,38.7098536 L32.7713136,38.7098536 C32.7823879,39.0125504 32.8774406,39.2248041 33.0564747,39.3466211 C33.1653717,39.4222953 33.2964153,39.4601319 33.4496095,39.4601319 C33.6120321,39.4601319 33.7439986,39.4139898 33.8455128,39.3217041 C33.9008841,39.2718699 33.9497948,39.2026567 33.9922461,39.1140625 L34.7978955,39.1140625 C34.7775927,39.2930966 34.6843856,39.4748966 34.5182715,39.6594678 C34.2598718,39.952936 33.8981176,40.099668 33.4329981,40.099668 C33.04909,40.099668 32.7104069,39.9760071 32.4169386,39.7286817 C32.1234704,39.4813562 31.9767384,39.078997 31.9767384,38.5215919 C31.9767384,37.9992553 32.1091663,37.5987418 32.374026,37.3200392 C32.6388857,37.0413367 32.9826445,36.9019875 33.4053126,36.9019875 Z M23.6627692,72.6279006 L23.6627692,73.5276808 L24.6649859,73.5276808 C24.84402,73.5276808 24.9893676,73.4939971 25.1010332,73.4266286 C25.2126988,73.3592601 25.2685308,73.239752 25.2685308,73.0681007 C25.2685308,72.8779924 25.1947034,72.7524858 25.0470464,72.6915773 C24.9196923,72.6491259 24.757272,72.6279006 24.5597808,72.6279006 L23.6627692,72.6279006 Z M23.6627692,74.2032081 L23.6627692,75.29125 L24.6649859,75.29125 C24.84402,75.29125 24.9833692,75.2672561 25.0830376,75.2192676 C25.2639174,75.1306734 25.354356,74.9608705 25.354356,74.7098536 C25.354356,74.4975967 25.266686,74.3517876 25.0913433,74.272422 C24.9935205,74.2281249 24.856017,74.2050538 24.6788287,74.2032081 L23.6627692,74.2032081 Z M24.8310992,71.9191506 C25.3312872,71.9265335 25.6856586,72.0714197 25.8942241,72.3538137 C26.0197325,72.5273106 26.0824858,72.7349501 26.0824858,72.9767384 C26.0824858,73.2259096 26.0197325,73.4261664 25.8942241,73.5775148 C25.824087,73.6624175 25.7207287,73.7399363 25.584146,73.8100734 C25.7927115,73.8857476 25.9500561,74.0057171 26.0561846,74.1699854 C26.162313,74.3342538 26.2153764,74.5335878 26.2153764,74.7679932 C26.2153764,75.0097815 26.1544689,75.2266495 26.0326518,75.4186035 C25.9551319,75.5459577 25.8582335,75.6530074 25.7419536,75.7397559 C25.610908,75.8394243 25.456332,75.9077147 25.2782207,75.9446289 C25.1001095,75.9815432 24.906774,76 24.6982086,76 L22.8488141,76 L22.8488141,71.9191506 L24.8310992,71.9191506 Z M27.6716361,76 L26.8825981,76 L26.8825981,71.9191506 L27.6716361,71.9191506 L27.6716361,76 Z M29.7951175,75.4435205 C30.0258315,75.4435205 30.2030172,75.3613876 30.3266799,75.1971192 C30.4503427,75.0328508 30.5121731,74.7993717 30.5121731,74.4966749 C30.5121731,74.1939781 30.4503427,73.9609604 30.3266799,73.7976149 C30.2030172,73.6342693 30.0258315,73.5525978 29.7951175,73.5525978 C29.5644034,73.5525978 29.3867563,73.6342693 29.2621707,73.7976149 C29.1375851,73.9609604 29.0752933,74.1939781 29.0752933,74.4966749 C29.0752933,74.7993717 29.1375851,75.0328508 29.2621707,75.1971192 C29.3867563,75.3613876 29.5644034,75.4435205 29.7951175,75.4435205 Z M31.3399709,74.4966749 C31.3399709,74.9396458 31.2126187,75.3184726 30.9579104,75.6331665 C30.7032021,75.9478605 30.3165312,76.1052051 29.797886,76.1052051 C29.2792409,76.1052051 28.89257,75.9478605 28.6378617,75.6331665 C28.3831534,75.3184726 28.2558011,74.9396458 28.2558011,74.4966749 C28.2558011,74.0610868 28.3831534,73.6836443 28.6378617,73.3643361 C28.89257,73.0450279 29.2792409,72.8853761 29.797886,72.8853761 C30.3165312,72.8853761 30.7032021,73.0450279 30.9579104,73.3643361 C31.2126187,73.6836443 31.3399709,74.0610868 31.3399709,74.4966749 Z M33.2004395,75.3521582 C33.3850108,75.3521582 33.5409711,75.2824836 33.6683253,75.1431324 C33.7956794,75.0037811 33.8593555,74.7818375 33.8593555,74.477295 C33.8593555,74.1912096 33.7989094,73.9734188 33.6780152,73.8239161 C33.5571211,73.6744134 33.3951622,73.5996632 33.1921339,73.5996632 C32.915277,73.5996632 32.7242487,73.729784 32.6190431,73.9900294 C32.5636717,74.1284578 32.5359865,74.2991836 32.5359865,74.502212 C32.5359865,74.6775547 32.5655174,74.833515 32.6245802,74.9700977 C32.7316315,75.224806 32.9235827,75.3521582 33.2004395,75.3521582 Z M33.0038722,72.9102931 C33.1552206,72.9102931 33.287187,72.9333642 33.3997755,72.979507 C33.5917296,73.0588726 33.7467671,73.2046817 33.8648926,73.4169386 L33.8648926,72.9822756 L34.6317822,72.9822756 L34.6317822,75.8449609 C34.6317822,76.2344062 34.5662604,76.5278701 34.4352149,76.7253613 C34.210038,77.0649723 33.7781478,77.2347753 33.1395313,77.2347753 C32.7537775,77.2347753 32.4390883,77.1591023 32.1954543,77.0077539 C31.9518202,76.8564054 31.8170853,76.6303091 31.7912453,76.329458 L32.6494972,76.329458 C32.6716457,76.4217436 32.7076366,76.4881882 32.7574708,76.5287939 C32.8423736,76.6007767 32.9854141,76.6367675 33.1865968,76.6367675 C33.4708365,76.6367675 33.660942,76.5417148 33.756919,76.3516064 C33.8196732,76.2297894 33.8510499,76.0249184 33.8510499,75.7369873 L33.8510499,75.5431885 C33.7753757,75.6723884 33.6941655,75.7692868 33.6074171,75.8338867 C33.4505315,75.953858 33.2465834,76.0138428 32.9955665,76.0138428 C32.6079669,76.0138428 32.2983534,75.8777235 32.0667165,75.605481 C31.8350796,75.3332384 31.7192629,74.9645629 31.7192629,74.4994434 C31.7192629,74.0509354 31.8309268,73.6739543 32.054258,73.3684889 C32.2775892,73.0630235 32.5941241,72.9102931 33.0038722,72.9102931 Z M14.1500158,82.992798 C14.1500158,82.280353 14.3410441,81.7312619 14.7231065,81.345508 C15.0553347,81.0095884 15.4779965,80.8416311 15.9911045,80.8416311 C16.6777095,80.8416311 17.1797357,81.0668046 17.4971982,81.5171584 C17.6725409,81.770021 17.7666708,82.0238026 17.7795908,82.2785109 L16.926876,82.2785109 C16.8715046,82.0828654 16.8004457,81.9352106 16.7136973,81.8355422 C16.5586574,81.6583538 16.3288697,81.5697609 16.0243272,81.5697609 C15.7142475,81.5697609 15.4696943,81.6948061 15.2906602,81.9449001 C15.1116261,82.1949941 15.0221104,82.5489041 15.0221104,83.0066407 C15.0221104,83.4643774 15.1167018,83.8072133 15.3058873,84.0351587 C15.4950728,84.2631042 15.7354732,84.3770752 16.0270957,84.3770752 C16.3261011,84.3770752 16.5540432,84.2792539 16.7109287,84.0836084 C16.7976772,83.9784028 16.8696589,83.8205968 16.926876,83.6101856 L17.7712851,83.6101856 C17.6974566,84.0550023 17.5087354,84.4167564 17.2051157,84.695459 C16.901496,84.9741616 16.512518,85.1135107 16.0381699,85.1135107 C15.4512335,85.1135107 14.9898123,84.9252509 14.6538927,84.5487256 C14.317973,84.1703546 14.1500158,83.6517172 14.1500158,82.992798 Z M19.7120418,84.4435205 C19.9427559,84.4435205 20.1199416,84.3613876 20.2436043,84.1971192 C20.367267,84.0328508 20.4290975,83.7993717 20.4290975,83.4966749 C20.4290975,83.1939781 20.367267,82.9609604 20.2436043,82.7976149 C20.1199416,82.6342693 19.9427559,82.5525978 19.7120418,82.5525978 C19.4813278,82.5525978 19.3036807,82.6342693 19.1790951,82.7976149 C19.0545095,82.9609604 18.9922176,83.1939781 18.9922176,83.4966749 C18.9922176,83.7993717 19.0545095,84.0328508 19.1790951,84.1971192 C19.3036807,84.3613876 19.4813278,84.4435205 19.7120418,84.4435205 Z M21.2568953,83.4966749 C21.2568953,83.9396458 21.129543,84.3184726 20.8748347,84.6331665 C20.6201264,84.9478605 20.2334555,85.1052051 19.7148104,85.1052051 C19.1961652,85.1052051 18.8094943,84.9478605 18.554786,84.6331665 C18.3000777,84.3184726 18.1727255,83.9396458 18.1727255,83.4966749 C18.1727255,83.0610868 18.3000777,82.6836443 18.554786,82.3643361 C18.8094943,82.0450279 19.1961652,81.8853761 19.7148104,81.8853761 C20.2334555,81.8853761 20.6201264,82.0450279 20.8748347,82.3643361 C21.129543,82.6836443 21.2568953,83.0610868 21.2568953,83.4966749 Z M23.4938873,81.9102931 C23.8058127,81.9102931 24.0609786,81.9919647 24.2593927,82.1553102 C24.4578067,82.3186557 24.5570123,82.58951 24.5570123,82.967881 L24.5570123,85 L23.7485943,85 L23.7485943,83.1644483 C23.7485943,83.0057171 23.727369,82.8839019 23.6849176,82.7989991 C23.6073977,82.6439593 23.4597429,82.5664406 23.2419489,82.5664406 C22.9743206,82.5664406 22.790675,82.6799502 22.6910065,82.9069728 C22.6393266,83.0269441 22.613487,83.1801359 22.613487,83.3665528 L22.613487,85 L21.8272175,85 L21.8272175,81.9878127 L22.58857,81.9878127 L22.58857,82.4280128 C22.6900842,82.272973 22.7860598,82.1613091 22.8764997,82.0930177 C23.0389223,81.9712007 23.2447162,81.9102931 23.4938873,81.9102931 Z M24.975064,82.5719777 L24.975064,82.0099611 L25.3958843,82.0099611 L25.3958843,81.1683205 L26.1766167,81.1683205 L26.1766167,82.0099611 L26.6666508,82.0099611 L26.6666508,82.5719777 L26.1766167,82.5719777 L26.1766167,84.1666651 C26.1766167,84.2903278 26.192305,84.3673851 26.2236821,84.3978394 C26.2550592,84.4282936 26.3510348,84.4435205 26.5116118,84.4435205 C26.535606,84.4435205 26.5609842,84.4430591 26.587747,84.4421363 C26.6145099,84.4412134 26.6408109,84.4398291 26.6666508,84.4379834 L26.6666508,85.0276855 L26.292896,85.0415283 C25.9200621,85.0544483 25.6653576,84.9898493 25.5287749,84.8477295 C25.4401807,84.7572896 25.3958843,84.6179404 25.3958843,84.4296778 L25.3958843,82.5719777 L24.975064,82.5719777 Z M28.8371976,83.5326661 C28.7873634,83.5640432 28.7370685,83.5894214 28.6863114,83.6088013 C28.6355543,83.6281813 28.5658797,83.6461767 28.4772855,83.6627882 L28.300098,83.6960108 C28.1339839,83.7255422 28.0149373,83.7615331 27.9429545,83.8039844 C27.8211375,83.8759672 27.7602299,83.9876311 27.7602299,84.1389795 C27.7602299,84.2737165 27.797605,84.3710764 27.8723563,84.431062 C27.9471077,84.4910477 28.0380076,84.5210401 28.145059,84.5210401 C28.3148645,84.5210401 28.4712863,84.4712066 28.614329,84.3715381 C28.7573717,84.2718697 28.8316605,84.0900697 28.8371976,83.8261329 L28.8371976,83.5326661 Z M28.3582377,83.1644483 C28.5040489,83.1459912 28.6083301,83.1229202 28.6710843,83.0952345 C28.7836728,83.047246 28.8399661,82.9724957 28.8399661,82.8709816 C28.8399661,82.7473188 28.797054,82.6619559 28.7112284,82.6148903 C28.6254027,82.5678246 28.4994348,82.5442921 28.3333207,82.5442921 C28.1469037,82.5442921 28.0149373,82.5904342 27.9374174,82.6827198 C27.882046,82.7510112 27.8451323,82.8432954 27.8266752,82.9595753 L27.0653227,82.9595753 C27.0819341,82.6956385 27.1557615,82.4787705 27.286807,82.308965 C27.4953725,82.0431824 27.8534353,81.9102931 28.3610062,81.9102931 C28.6913887,81.9102931 28.9848526,81.9758149 29.2414066,82.1068605 C29.4979606,82.2379061 29.6262356,82.4852278 29.6262356,82.8488331 L29.6262356,84.2331104 C29.6262356,84.3290874 29.6280813,84.4453656 29.6317727,84.5819483 C29.6373099,84.6853082 29.6529982,84.7554442 29.6788382,84.7923584 C29.7046781,84.8292727 29.7434375,84.8597264 29.7951175,84.8837207 L29.7951175,85 L28.9368656,85 C28.9128713,84.9390915 28.8962601,84.8818753 28.8870316,84.8283496 C28.877803,84.774824 28.8704203,84.7139164 28.8648831,84.645625 C28.7559861,84.7637506 28.6304796,84.8643404 28.4883597,84.9473975 C28.3185542,85.0452202 28.126603,85.0941309 27.9125004,85.0941309 C27.639335,85.0941309 27.4137,85.0161507 27.2355888,84.860188 C27.0574776,84.7042253 26.9684233,84.4832046 26.9684233,84.1971192 C26.9684233,83.826131 27.1114638,83.5575839 27.3975492,83.3914698 C27.5544348,83.3010299 27.7851453,83.236431 28.0896879,83.197671 L28.3582377,83.1644483 Z M32.1290089,83.0647804 C32.1142432,82.9521919 32.0764067,82.8506793 32.0154982,82.7602394 C31.926904,82.6384224 31.7894005,82.5775148 31.6029836,82.5775148 C31.337201,82.5775148 31.1554011,82.7094812 31.0575783,82.9734181 C31.0058984,83.1136922 30.9800588,83.3001063 30.9800588,83.5326661 C30.9800588,83.7541516 31.0058984,83.9322601 31.0575783,84.0669971 C31.1517097,84.318014 31.3288954,84.4435205 31.5891408,84.4435205 C31.773712,84.4435205 31.9047556,84.3936871 31.9822756,84.2940186 C32.0597955,84.1943501 32.1068604,84.0651522 32.1234718,83.906421 L32.9291212,83.906421 C32.9106641,84.1463635 32.8239169,84.3733828 32.6688771,84.5874854 C32.4215516,84.9326336 32.0551832,85.1052051 31.5697609,85.1052051 C31.0843386,85.1052051 30.7271986,84.9612417 30.4983303,84.6733106 C30.269462,84.3853795 30.1550296,84.0116283 30.1550296,83.552046 C30.1550296,83.0334008 30.2814589,82.6301188 30.5343215,82.3421876 C30.7871841,82.0542565 31.1360185,81.9102931 31.5808351,81.9102931 C31.9592062,81.9102931 32.2688197,81.9951946 32.5096852,82.1650002 C32.7505506,82.3348057 32.8931298,82.6347294 32.9374269,83.0647804 L32.1290089,83.0647804 Z M33.1699854,82.5719777 L33.1699854,82.0099611 L33.5908057,82.0099611 L33.5908057,81.1683205 L34.3715381,81.1683205 L34.3715381,82.0099611 L34.8615723,82.0099611 L34.8615723,82.5719777 L34.3715381,82.5719777 L34.3715381,84.1666651 C34.3715381,84.2903278 34.3872264,84.3673851 34.4186035,84.3978394 C34.4499807,84.4282936 34.5459563,84.4435205 34.7065332,84.4435205 C34.7305275,84.4435205 34.7559056,84.4430591 34.7826685,84.4421363 C34.8094313,84.4412134 34.8357323,84.4398291 34.8615723,84.4379834 L34.8615723,85.0276855 L34.4878174,85.0415283 C34.1149835,85.0544483 33.8602791,84.9898493 33.7236964,84.8477295 C33.6351022,84.7572896 33.5908057,84.6179404 33.5908057,84.4296778 L33.5908057,82.5719777 L33.1699854,82.5719777 Z" id="Home-Blog-Contact" fill="#7B7B7B"></path>
                <polygon id="Rectangle-4" fill="#4A4A4A" points="41 46 38.9894378 49 37 46"></polygon>
                <path d="M20.1743904,47.4579151 L21.2098298,47.4579151 L20.7004158,45.8521535 L20.1743904,47.4579151 Z M20.226993,44.9191506 L21.19045,44.9191506 L22.6356354,49 L21.7109382,49 L21.4479255,48.161128 L19.9446004,48.161128 L19.6622078,49 L18.7707333,49 L20.226993,44.9191506 Z M24.720357,45.9158302 C25.1171851,45.9158302 25.4277216,46.0588708 25.6519756,46.3449562 C25.8762296,46.6310416 25.988355,47.0001785 25.988355,47.452378 C25.988355,47.9211889 25.8776139,48.3097055 25.6561284,48.6179395 C25.434643,48.9261734 25.1254908,49.0802881 24.7286627,49.0802881 C24.4794915,49.0802881 24.2792347,49.0304546 24.1278863,48.9307861 C24.0374464,48.8717233 23.9396251,48.768365 23.8344195,48.620708 L23.8344195,49 L23.0619928,49 L23.0619928,44.9246877 L23.8482623,44.9246877 L23.8482623,46.3754103 C23.9479308,46.2351362 24.057749,46.1280865 24.1777203,46.054258 C24.3198401,45.9619724 24.5007172,45.9158302 24.720357,45.9158302 Z M24.5182525,48.4296778 C24.7212809,48.4296778 24.8790869,48.3475448 24.9916753,48.1832764 C25.1042638,48.019008 25.1605572,47.8030629 25.1605572,47.5354346 C25.1605572,47.321332 25.1328719,47.1441463 25.0775005,47.0038722 C24.9722949,46.7380896 24.778498,46.6052003 24.4961041,46.6052003 C24.2100187,46.6052003 24.0134533,46.7353211 23.906402,46.9955665 C23.8510306,47.1339949 23.8233453,47.3130263 23.8233453,47.5326661 C23.8233453,47.7910658 23.8805615,48.0051652 23.9949957,48.1749707 C24.1094299,48.3447763 24.2838471,48.4296778 24.5182525,48.4296778 Z M27.9069633,48.4435205 C28.1376773,48.4435205 28.314863,48.3613876 28.4385257,48.1971192 C28.5621885,48.0328508 28.6240189,47.7993717 28.6240189,47.4966749 C28.6240189,47.1939781 28.5621885,46.9609604 28.4385257,46.7976149 C28.314863,46.6342693 28.1376773,46.5525978 27.9069633,46.5525978 C27.6762492,46.5525978 27.4986021,46.6342693 27.3740165,46.7976149 C27.2494309,46.9609604 27.1871391,47.1939781 27.1871391,47.4966749 C27.1871391,47.7993717 27.2494309,48.0328508 27.3740165,48.1971192 C27.4986021,48.3613876 27.6762492,48.4435205 27.9069633,48.4435205 Z M29.4518167,47.4966749 C29.4518167,47.9396458 29.3244645,48.3184726 29.0697562,48.6331665 C28.8150479,48.9478605 28.428377,49.1052051 27.9097318,49.1052051 C27.3910867,49.1052051 27.0044158,48.9478605 26.7497075,48.6331665 C26.4949992,48.3184726 26.3676469,47.9396458 26.3676469,47.4966749 C26.3676469,47.0610868 26.4949992,46.6836443 26.7497075,46.3643361 C27.0044158,46.0450279 27.3910867,45.8853761 27.9097318,45.8853761 C28.428377,45.8853761 28.8150479,46.0450279 29.0697562,46.3643361 C29.3244645,46.6836443 29.4518167,47.0610868 29.4518167,47.4966749 Z M30.8028713,45.9822756 L30.8028713,47.8012159 C30.8028713,47.9728671 30.8231738,48.102065 30.8637795,48.1888135 C30.9357623,48.3420076 31.0769572,48.4186035 31.2873684,48.4186035 C31.5568424,48.4186035 31.7414108,48.3097082 31.8410793,48.0919141 C31.8927592,47.9737885 31.9185988,47.8178282 31.9185988,47.6240284 L31.9185988,45.9822756 L32.7187111,45.9822756 L32.7187111,49 L31.9518215,49 L31.9518215,48.5736426 C31.9444386,48.5828712 31.9259818,48.6105564 31.8964504,48.6566992 C31.866919,48.702842 31.831851,48.7434471 31.7912453,48.7785156 C31.6675826,48.8892584 31.5480745,48.9649314 31.4327175,49.0055371 C31.3173605,49.0461428 31.1821641,49.0664453 31.0271242,49.0664453 C30.5804619,49.0664453 30.2796153,48.9058708 30.1245755,48.5847168 C30.037827,48.4075284 29.9944534,48.1463641 29.9944534,47.8012159 L29.9944534,45.9822756 L30.8028713,45.9822756 Z M33.1699854,46.5719777 L33.1699854,46.0099611 L33.5908057,46.0099611 L33.5908057,45.1683205 L34.3715381,45.1683205 L34.3715381,46.0099611 L34.8615723,46.0099611 L34.8615723,46.5719777 L34.3715381,46.5719777 L34.3715381,48.1666651 C34.3715381,48.2903278 34.3872264,48.3673851 34.4186035,48.3978394 C34.4499807,48.4282936 34.5459563,48.4435205 34.7065332,48.4435205 C34.7305275,48.4435205 34.7559056,48.4430591 34.7826685,48.4421363 C34.8094313,48.4412134 34.8357323,48.4398291 34.8615723,48.4379834 L34.8615723,49.0276855 L34.4878174,49.0415283 C34.1149835,49.0544483 33.8602791,48.9898493 33.7236964,48.8477295 C33.6351022,48.7572896 33.5908057,48.6179404 33.5908057,48.4296778 L33.5908057,46.5719777 L33.1699854,46.5719777 Z M24.5542437,56 L23.707066,56 L23.707066,51.9191506 L24.5542437,51.9191506 L24.5542437,56 Z M24.975064,53.5719777 L24.975064,53.0099611 L25.3958843,53.0099611 L25.3958843,52.1683205 L26.1766167,52.1683205 L26.1766167,53.0099611 L26.6666508,53.0099611 L26.6666508,53.5719777 L26.1766167,53.5719777 L26.1766167,55.1666651 C26.1766167,55.2903278 26.192305,55.3673851 26.2236821,55.3978394 C26.2550592,55.4282936 26.3510348,55.4435205 26.5116118,55.4435205 C26.535606,55.4435205 26.5609842,55.4430591 26.587747,55.4421363 C26.6145099,55.4412134 26.6408109,55.4398291 26.6666508,55.4379834 L26.6666508,56.0276855 L26.292896,56.0415283 C25.9200621,56.0544483 25.6653576,55.9898493 25.5287749,55.8477295 C25.4401807,55.7572896 25.3958843,55.6179404 25.3958843,55.4296778 L25.3958843,53.5719777 L24.975064,53.5719777 Z M28.3637748,53.5525978 C28.1810493,53.5525978 28.039393,53.609814 27.9388016,53.7242482 C27.8382103,53.8386823 27.7749956,53.9937198 27.7491557,54.1893653 L28.9756253,54.1893653 C28.9627053,53.9807998 28.8994906,53.8225324 28.7859793,53.7145582 C28.672468,53.6065841 28.5317346,53.5525978 28.3637748,53.5525978 Z M28.3637748,52.9019875 C28.6147916,52.9019875 28.840888,52.9490524 29.0420706,53.0431838 C29.2432533,53.1373151 29.4093649,53.2858927 29.5404104,53.488921 C29.658536,53.6679551 29.7351319,53.8755946 29.7702005,54.1118458 C29.7905033,54.2502742 29.7988089,54.4496082 29.7951175,54.7098536 L27.7297758,54.7098536 C27.74085,55.0125504 27.8359028,55.2248041 28.0149369,55.3466211 C28.1238339,55.4222953 28.2548775,55.4601319 28.4080716,55.4601319 C28.5704943,55.4601319 28.7024608,55.4139898 28.8039749,55.3217041 C28.8593463,55.2718699 28.9082569,55.2026567 28.9507083,55.1140625 L29.7563577,55.1140625 C29.7360549,55.2930966 29.6428478,55.4748966 29.4767337,55.6594678 C29.218334,55.952936 28.8565798,56.099668 28.3914603,56.099668 C28.0075522,56.099668 27.668869,55.9760071 27.3754008,55.7286817 C27.0819325,55.4813562 26.9352006,55.078997 26.9352006,54.5215919 C26.9352006,53.9992553 27.0676285,53.5987418 27.3324882,53.3200392 C27.5973479,53.0413367 27.9411067,52.9019875 28.3637748,52.9019875 Z M33.6987794,52.9158302 C33.8316706,52.9158302 33.9627143,52.9416698 34.0919141,52.9933498 C34.221114,53.0450297 34.3383149,53.1354683 34.4435205,53.2646681 C34.5284233,53.3698737 34.5856395,53.4990716 34.6151709,53.6522657 C34.633628,53.7537799 34.6428565,53.9023575 34.6428565,54.098003 L34.6373194,56 L33.8289014,56 L33.8289014,54.0786231 C33.8289014,53.964189 33.8104446,53.8700591 33.7735303,53.7962306 C33.7033933,53.6559565 33.5741954,53.5858204 33.3859327,53.5858204 C33.1681387,53.5858204 33.0177154,53.676259 32.9346583,53.8571388 C32.8922069,53.9531158 32.8709816,54.0684711 32.8709816,54.2032081 L32.8709816,56 L32.0764064,56 L32.0764064,54.2032081 C32.0764064,54.024174 32.0579496,53.8940533 32.0210353,53.8128419 C31.9545897,53.6670306 31.8244689,53.5941261 31.6306691,53.5941261 C31.4054922,53.5941261 31.2541461,53.6670306 31.1766262,53.8128419 C31.1341748,53.895899 31.1129494,54.0195598 31.1129494,54.1838282 L31.1129494,56 L30.3128372,56 L30.3128372,52.9878127 L31.0797268,52.9878127 L31.0797268,53.4280128 C31.1775495,53.2711273 31.2698337,53.1594634 31.3565822,53.0930177 C31.5097763,52.9748921 31.7081874,52.9158302 31.9518215,52.9158302 C32.1825355,52.9158302 32.3689496,52.9665866 32.5110695,53.0681007 C32.6255036,53.1622321 32.7122508,53.2831244 32.7713136,53.4307814 C32.8746735,53.253593 33.0029486,53.1234722 33.1561427,53.0404152 C33.3185654,52.9573581 33.4994424,52.9158302 33.6987794,52.9158302 Z M24.5542437,63 L23.707066,63 L23.707066,58.9191506 L24.5542437,58.9191506 L24.5542437,63 Z M24.975064,60.5719777 L24.975064,60.0099611 L25.3958843,60.0099611 L25.3958843,59.1683205 L26.1766167,59.1683205 L26.1766167,60.0099611 L26.6666508,60.0099611 L26.6666508,60.5719777 L26.1766167,60.5719777 L26.1766167,62.1666651 C26.1766167,62.2903278 26.192305,62.3673851 26.2236821,62.3978394 C26.2550592,62.4282936 26.3510348,62.4435205 26.5116118,62.4435205 C26.535606,62.4435205 26.5609842,62.4430591 26.587747,62.4421363 C26.6145099,62.4412134 26.6408109,62.4398291 26.6666508,62.4379834 L26.6666508,63.0276855 L26.292896,63.0415283 C25.9200621,63.0544483 25.6653576,62.9898493 25.5287749,62.8477295 C25.4401807,62.7572896 25.3958843,62.6179404 25.3958843,62.4296778 L25.3958843,60.5719777 L24.975064,60.5719777 Z M28.3637748,60.5525978 C28.1810493,60.5525978 28.039393,60.609814 27.9388016,60.7242482 C27.8382103,60.8386823 27.7749956,60.9937198 27.7491557,61.1893653 L28.9756253,61.1893653 C28.9627053,60.9807998 28.8994906,60.8225324 28.7859793,60.7145582 C28.672468,60.6065841 28.5317346,60.5525978 28.3637748,60.5525978 Z M28.3637748,59.9019875 C28.6147916,59.9019875 28.840888,59.9490524 29.0420706,60.0431838 C29.2432533,60.1373151 29.4093649,60.2858927 29.5404104,60.488921 C29.658536,60.6679551 29.7351319,60.8755946 29.7702005,61.1118458 C29.7905033,61.2502742 29.7988089,61.4496082 29.7951175,61.7098536 L27.7297758,61.7098536 C27.74085,62.0125504 27.8359028,62.2248041 28.0149369,62.3466211 C28.1238339,62.4222953 28.2548775,62.4601319 28.4080716,62.4601319 C28.5704943,62.4601319 28.7024608,62.4139898 28.8039749,62.3217041 C28.8593463,62.2718699 28.9082569,62.2026567 28.9507083,62.1140625 L29.7563577,62.1140625 C29.7360549,62.2930966 29.6428478,62.4748966 29.4767337,62.6594678 C29.218334,62.952936 28.8565798,63.099668 28.3914603,63.099668 C28.0075522,63.099668 27.668869,62.9760071 27.3754008,62.7286817 C27.0819325,62.4813562 26.9352006,62.078997 26.9352006,61.5215919 C26.9352006,60.9992553 27.0676285,60.5987418 27.3324882,60.3200392 C27.5973479,60.0413367 27.9411067,59.9019875 28.3637748,59.9019875 Z M33.6987794,59.9158302 C33.8316706,59.9158302 33.9627143,59.9416698 34.0919141,59.9933498 C34.221114,60.0450297 34.3383149,60.1354683 34.4435205,60.2646681 C34.5284233,60.3698737 34.5856395,60.4990716 34.6151709,60.6522657 C34.633628,60.7537799 34.6428565,60.9023575 34.6428565,61.098003 L34.6373194,63 L33.8289014,63 L33.8289014,61.0786231 C33.8289014,60.964189 33.8104446,60.8700591 33.7735303,60.7962306 C33.7033933,60.6559565 33.5741954,60.5858204 33.3859327,60.5858204 C33.1681387,60.5858204 33.0177154,60.676259 32.9346583,60.8571388 C32.8922069,60.9531158 32.8709816,61.0684711 32.8709816,61.2032081 L32.8709816,63 L32.0764064,63 L32.0764064,61.2032081 C32.0764064,61.024174 32.0579496,60.8940533 32.0210353,60.8128419 C31.9545897,60.6670306 31.8244689,60.5941261 31.6306691,60.5941261 C31.4054922,60.5941261 31.2541461,60.6670306 31.1766262,60.8128419 C31.1341748,60.895899 31.1129494,61.0195598 31.1129494,61.1838282 L31.1129494,63 L30.3128372,63 L30.3128372,59.9878127 L31.0797268,59.9878127 L31.0797268,60.4280128 C31.1775495,60.2711273 31.2698337,60.1594634 31.3565822,60.0930177 C31.5097763,59.9748921 31.7081874,59.9158302 31.9518215,59.9158302 C32.1825355,59.9158302 32.3689496,59.9665866 32.5110695,60.0681007 C32.6255036,60.1622321 32.7122508,60.2831244 32.7713136,60.4307814 C32.8746735,60.253593 33.0029486,60.1234722 33.1561427,60.0404152 C33.3185654,59.9573581 33.4994424,59.9158302 33.6987794,59.9158302 Z" id="About-Item-Item" fill="#4A4A4A"></path>
            </g>
        </g>
    </g>
</svg>