<?xml version="1.0" encoding="UTF-8"?>
<svg width="178px" height="119px" viewBox="0 0 178 119" version="1.1" xmlns="http://www.w3.org/2000/svg" xmlns:xlink="http://www.w3.org/1999/xlink">
    <!-- Generator: Sketch 51.2 (57519) - http://www.bohemiancoding.com/sketch -->
    <title>Group 20</title>
    <desc>Created with Sketch.</desc>
    <defs></defs>
    <g id="Page-1" stroke="none" stroke-width="1" fill="none" fill-rule="evenodd">
        <g id="Desktop-HD" transform="translate(-511.000000, -2754.000000)">
            <g id="Group-20" transform="translate(511.000000, 2754.000000)">
                <rect id="Rectangle-2-Copy-46" stroke="#9B9B9B" stroke-width="1.61999991" fill="#F9F9F9" x="0.809999957" y="0.809999957" width="176.38" height="117.38" rx="6.47999966"></rect>
                <path d="M132.81,0.809999957 L132.81,118.19 L171,118.19 C174.418643,118.19 177.19,115.418643 177.19,112 L177.19,7 C177.19,3.58135737 174.418643,0.809999957 171,0.809999957 L132.81,0.809999957 Z" id="Rectangle-2-Copy-47" stroke="#9B9B9B" stroke-width="1.61999991" fill="#FFFFFF"></path>
                <g id="brand-copy-20" transform="translate(143.000000, 9.000000)" fill="#4A4A4A" fill-rule="nonzero">
                    <g id="#000000ff">
                        <path d="M0.0243116872,0 L1.17755844,0 C1.19314286,0.585742574 1.17880519,1.17148515 1.18566234,1.75722772 C1.92,1.31168317 2.92176623,1.35742574 3.63179221,1.82554455 C4.16415584,2.17069307 4.56062338,2.71960396 4.65537662,3.33148515 C4.71148052,3.72356436 4.6852987,4.13287129 4.53693506,4.50534653 C4.20342857,5.34118812 3.31885714,5.96613861 2.37007792,5.96079208 C1.8638961,5.98574257 1.36955844,5.80514851 0.982441557,5.49980198 C0.730597401,5.74455446 0.379636363,5.86811881 0.0211948041,5.81940594 C0.013090908,3.87980198 0.00623376512,1.93960396 0.0243116872,0 Z M2.08020779,2.58356436 C1.63885714,2.66257426 1.26296104,3.00237624 1.15324675,3.41643564 C0.967480518,4.04079208 1.44187013,4.74950495 2.12072727,4.83326733 C2.83137662,4.97108911 3.55698701,4.37108911 3.5145974,3.6819802 C3.52955844,2.99524752 2.78088312,2.4249505 2.08020779,2.58356436 Z" id="Shape"></path>
                        <path d="M6.72685714,1.46554455 C7.24737662,1.42455446 7.78098701,1.46673267 8.28093506,1.61762376 C8.28779221,1.97108911 8.28841558,2.32514851 8.28218182,2.67861386 C8.27096104,2.70534653 8.24851948,2.76 8.23667532,2.78732673 C7.776,2.5639604 7.24114286,2.51465347 6.73309091,2.56752475 C6.59594805,2.57524752 6.36841558,2.67267327 6.48997403,2.83128713 C6.94441558,3.06356436 7.43127273,3.23584158 7.8825974,3.47346535 C8.3918961,3.74792079 8.66431169,4.35980198 8.50348052,4.8980198 C8.40623377,5.28118812 8.12446753,5.6150495 7.7467013,5.77841584 C7.16197403,6.03386139 6.4881039,5.99762376 5.8747013,5.86633663 C5.66774026,5.83366337 5.46888312,5.67683168 5.46202597,5.46653465 C5.45142857,5.15881188 5.44706494,4.85049505 5.46950649,4.5439604 C6.00561039,4.77683168 6.61963636,4.95920792 7.20685714,4.79346535 C7.39075325,4.75425743 7.43937662,4.50356436 7.2854026,4.40257426 C6.77672727,4.10019802 6.16332468,3.96950495 5.69080519,3.61009901 C5.23948052,3.22693069 5.17215584,2.51881188 5.52374026,2.05425743 C5.78742857,1.6770297 6.26867532,1.50178218 6.72685714,1.46554455 Z" id="Shape"></path>
                        <path d="M9.87677922,1.92772277 C10.358026,1.52376238 11.0331429,1.41920792 11.654026,1.4560396 C12.1795325,1.48217822 12.7193766,1.65089109 13.0902857,2.01980198 C13.3633247,2.28475248 13.5017143,2.65782178 13.4954805,3.02673267 C13.4985974,3.95465347 13.4998442,4.88257426 13.4954805,5.81049505 C13.2155844,5.82950495 12.9338182,5.82534653 12.6539221,5.81821782 C12.4675325,5.8170297 12.3141818,5.64118812 12.3285195,5.46772277 C12.3235325,4.65564356 12.3297662,3.84356436 12.326026,3.03148515 C12.3397403,2.87584158 12.2275325,2.73683168 12.0797922,2.6809901 C11.7518961,2.54019802 11.3747532,2.54079208 11.0269091,2.6019802 C10.8211948,2.6429703 10.5624935,2.74574257 10.5437922,2.97623762 C10.5238442,3.92257426 10.5537662,4.86950495 10.5294545,5.81584158 C10.1442078,5.82475248 9.75896104,5.82891089 9.37371429,5.81346535 C9.36187013,4.88435644 9.37122078,3.95524752 9.36935065,3.02613861 C9.36374026,2.61267327 9.5414026,2.19564356 9.87677922,1.92772277 Z" id="Shape"></path>
                        <path d="M15.4404156,1.70792079 C16.2052987,1.31940594 17.2313766,1.34970297 17.8946494,1.91405941 C18.1365195,1.66039604 18.4924675,1.54752475 18.8477922,1.59267327 C18.8608831,3.00178218 18.8658701,4.41207921 18.8446753,5.82118812 C18.4918442,5.86158416 18.1377662,5.75049505 17.8958961,5.49920792 C17.5106494,5.8009901 17.0231688,5.98455446 16.5201039,5.96079208 C15.6492468,5.97029703 14.8232727,5.45108911 14.4361558,4.71623762 C14.1899221,4.26594059 14.1375584,3.73366337 14.2366753,3.23821782 C14.3650909,2.58772277 14.8413506,2.02811881 15.4404156,1.70792079 Z M16.3555325,2.57940594 C15.739013,2.65960396 15.2714805,3.26316832 15.3662338,3.84831683 C15.4260779,4.39009901 15.9478442,4.84752475 16.521974,4.84693069 C17.1821299,4.88792079 17.7905455,4.31465347 17.7556364,3.68435644 C17.7730909,3.00831683 17.0493506,2.43920792 16.3555325,2.57940594 Z" id="Shape"></path>
                        <path d="M19.3365195,1.60336634 C19.6232727,1.57841584 19.9118961,1.59326733 20.1992727,1.58910891 C20.3251948,1.59386139 20.4673247,1.58435644 20.5701818,1.66633663 C20.6630649,1.74356436 20.7067013,1.8570297 20.7590649,1.95980198 C21.0545455,2.61207921 21.3581299,3.26079208 21.6536104,3.91247525 C22.0145455,3.15029703 22.3561558,2.37980198 22.7152208,1.6170297 C23.1229091,1.5570297 23.553039,1.59980198 23.9688312,1.5980198 C23.9326753,1.77445545 23.8435325,1.93425743 23.7693506,2.09821782 C23.2282597,3.26613861 22.694026,4.4370297 22.1510649,5.60435644 C21.9877403,6.0029703 21.2777143,5.98039604 21.1449351,5.56871287 C20.6306494,4.45663366 20.1201039,3.34336634 19.6064416,2.23128713 C19.5154286,2.02217822 19.4013506,1.8219802 19.3365195,1.60336634 Z" id="Shape"></path>
                    </g>
                </g>
                <path d="M147.54982,43 L147.54982,38.9191506 L148.394229,38.9191506 L148.394229,40.4750783 L149.988916,40.4750783 L149.988916,38.9191506 L150.836094,38.9191506 L150.836094,43 L149.988916,43 L149.988916,41.1782911 L148.394229,41.1782911 L148.394229,43 L147.54982,43 Z M152.940195,42.4435205 C153.170909,42.4435205 153.348095,42.3613876 153.471758,42.1971192 C153.595421,42.0328508 153.657251,41.7993717 153.657251,41.4966749 C153.657251,41.1939781 153.595421,40.9609604 153.471758,40.7976149 C153.348095,40.6342693 153.170909,40.5525978 152.940195,40.5525978 C152.709481,40.5525978 152.531834,40.6342693 152.407249,40.7976149 C152.282663,40.9609604 152.220371,41.1939781 152.220371,41.4966749 C152.220371,41.7993717 152.282663,42.0328508 152.407249,42.1971192 C152.531834,42.3613876 152.709481,42.4435205 152.940195,42.4435205 Z M154.485049,41.4966749 C154.485049,41.9396458 154.357697,42.3184726 154.102988,42.6331665 C153.84828,42.9478605 153.461609,43.1052051 152.942964,43.1052051 C152.424319,43.1052051 152.037648,42.9478605 151.78294,42.6331665 C151.528231,42.3184726 151.400879,41.9396458 151.400879,41.4966749 C151.400879,41.0610868 151.528231,40.6836443 151.78294,40.3643361 C152.037648,40.0450279 152.424319,39.8853761 152.942964,39.8853761 C153.461609,39.8853761 153.84828,40.0450279 154.102988,40.3643361 C154.357697,40.6836443 154.485049,41.0610868 154.485049,41.4966749 Z M158.421933,39.9158302 C158.554825,39.9158302 158.685868,39.9416698 158.815068,39.9933498 C158.944268,40.0450297 159.061469,40.1354683 159.166675,40.2646681 C159.251577,40.3698737 159.308794,40.4990716 159.338325,40.6522657 C159.356782,40.7537799 159.366011,40.9023575 159.366011,41.098003 L159.360473,43 L158.552055,43 L158.552055,41.0786231 C158.552055,40.964189 158.533599,40.8700591 158.496684,40.7962306 C158.426547,40.6559565 158.297349,40.5858204 158.109087,40.5858204 C157.891293,40.5858204 157.740869,40.676259 157.657812,40.8571388 C157.615361,40.9531158 157.594136,41.0684711 157.594136,41.2032081 L157.594136,43 L156.79956,43 L156.79956,41.2032081 C156.79956,41.024174 156.781104,40.8940533 156.744189,40.8128419 C156.677744,40.6670306 156.547623,40.5941261 156.353823,40.5941261 C156.128646,40.5941261 155.9773,40.6670306 155.89978,40.8128419 C155.857329,40.895899 155.836103,41.0195598 155.836103,41.1838282 L155.836103,43 L155.035991,43 L155.035991,39.9878127 L155.802881,39.9878127 L155.802881,40.4280128 C155.900704,40.2711273 155.992988,40.1594634 156.079736,40.0930177 C156.23293,39.9748921 156.431341,39.9158302 156.674975,39.9158302 C156.90569,39.9158302 157.092104,39.9665866 157.234224,40.0681007 C157.348658,40.1622321 157.435405,40.2831244 157.494468,40.4307814 C157.597828,40.253593 157.726103,40.1234722 157.879297,40.0404152 C158.041719,39.9573581 158.222596,39.9158302 158.421933,39.9158302 Z M161.28185,40.5525978 C161.099125,40.5525978 160.957468,40.609814 160.856877,40.7242482 C160.756286,40.8386823 160.693071,40.9937198 160.667231,41.1893653 L161.893701,41.1893653 C161.880781,40.9807998 161.817566,40.8225324 161.704055,40.7145582 C161.590544,40.6065841 161.44981,40.5525978 161.28185,40.5525978 Z M161.28185,39.9019875 C161.532867,39.9019875 161.758963,39.9490524 161.960146,40.0431838 C162.161329,40.1373151 162.32744,40.2858927 162.458486,40.488921 C162.576612,40.6679551 162.653207,40.8755946 162.688276,41.1118458 C162.708579,41.2502742 162.716884,41.4496082 162.713193,41.7098536 L160.647851,41.7098536 C160.658926,42.0125504 160.753978,42.2248041 160.933012,42.3466211 C161.041909,42.4222953 161.172953,42.4601319 161.326147,42.4601319 C161.48857,42.4601319 161.620536,42.4139898 161.72205,42.3217041 C161.777422,42.2718699 161.826332,42.2026567 161.868784,42.1140625 L162.674433,42.1140625 C162.65413,42.2930966 162.560923,42.4748966 162.394809,42.6594678 C162.136409,42.952936 161.774655,43.099668 161.309536,43.099668 C160.925628,43.099668 160.586945,42.9760071 160.293476,42.7286817 C160.000008,42.4813562 159.853276,42.078997 159.853276,41.5215919 C159.853276,40.9992553 159.985704,40.5987418 160.250564,40.3200392 C160.515423,40.0413367 160.859182,39.9019875 161.28185,39.9019875 Z M148.361006,50.4579151 L149.396446,50.4579151 L148.887032,48.8521535 L148.361006,50.4579151 Z M148.413609,47.9191506 L149.377066,47.9191506 L150.822251,52 L149.897554,52 L149.634541,51.161128 L148.131216,51.161128 L147.848824,52 L146.957349,52 L148.413609,47.9191506 Z M152.906973,48.9158302 C153.303801,48.9158302 153.614337,49.0588708 153.838591,49.3449562 C154.062845,49.6310416 154.174971,50.0001785 154.174971,50.452378 C154.174971,50.9211889 154.06423,51.3097055 153.842744,51.6179395 C153.621259,51.9261734 153.312107,52.0802881 152.915278,52.0802881 C152.666107,52.0802881 152.465851,52.0304546 152.314502,51.9307861 C152.224062,51.8717233 152.126241,51.768365 152.021035,51.620708 L152.021035,52 L151.248609,52 L151.248609,47.9246877 L152.034878,47.9246877 L152.034878,49.3754103 C152.134547,49.2351362 152.244365,49.1280865 152.364336,49.054258 C152.506456,48.9619724 152.687333,48.9158302 152.906973,48.9158302 Z M152.704868,51.4296778 C152.907897,51.4296778 153.065703,51.3475448 153.178291,51.1832764 C153.29088,51.019008 153.347173,50.8030629 153.347173,50.5354346 C153.347173,50.321332 153.319488,50.1441463 153.264116,50.0038722 C153.158911,49.7380896 152.965114,49.6052003 152.68272,49.6052003 C152.396634,49.6052003 152.200069,49.7353211 152.093018,49.9955665 C152.037646,50.1339949 152.009961,50.3130263 152.009961,50.5326661 C152.009961,50.7910658 152.067177,51.0051652 152.181611,51.1749707 C152.296046,51.3447763 152.470463,51.4296778 152.704868,51.4296778 Z M156.093579,51.4435205 C156.324293,51.4435205 156.501479,51.3613876 156.625142,51.1971192 C156.748804,51.0328508 156.810635,50.7993717 156.810635,50.4966749 C156.810635,50.1939781 156.748804,49.9609604 156.625142,49.7976149 C156.501479,49.6342693 156.324293,49.5525978 156.093579,49.5525978 C155.862865,49.5525978 155.685218,49.6342693 155.560632,49.7976149 C155.436047,49.9609604 155.373755,50.1939781 155.373755,50.4966749 C155.373755,50.7993717 155.436047,51.0328508 155.560632,51.1971192 C155.685218,51.3613876 155.862865,51.4435205 156.093579,51.4435205 Z M157.638432,50.4966749 C157.638432,50.9396458 157.51108,51.3184726 157.256372,51.6331665 C157.001664,51.9478605 156.614993,52.1052051 156.096348,52.1052051 C155.577702,52.1052051 155.191032,51.9478605 154.936323,51.6331665 C154.681615,51.3184726 154.554263,50.9396458 154.554263,50.4966749 C154.554263,50.0610868 154.681615,49.6836443 154.936323,49.3643361 C155.191032,49.0450279 155.577702,48.8853761 156.096348,48.8853761 C156.614993,48.8853761 157.001664,49.0450279 157.256372,49.3643361 C157.51108,49.6836443 157.638432,50.0610868 157.638432,50.4966749 Z M158.989487,48.9822756 L158.989487,50.8012159 C158.989487,50.9728671 159.00979,51.102065 159.050395,51.1888135 C159.122378,51.3420076 159.263573,51.4186035 159.473984,51.4186035 C159.743458,51.4186035 159.928027,51.3097082 160.027695,51.0919141 C160.079375,50.9737885 160.105215,50.8178282 160.105215,50.6240284 L160.105215,48.9822756 L160.905327,48.9822756 L160.905327,52 L160.138437,52 L160.138437,51.5736426 C160.131054,51.5828712 160.112598,51.6105564 160.083066,51.6566992 C160.053535,51.702842 160.018467,51.7434471 159.977861,51.7785156 C159.854198,51.8892584 159.73469,51.9649314 159.619333,52.0055371 C159.503976,52.0461428 159.36878,52.0664453 159.21374,52.0664453 C158.767078,52.0664453 158.466231,51.9058708 158.311191,51.5847168 C158.224443,51.4075284 158.181069,51.1463641 158.181069,50.8012159 L158.181069,48.9822756 L158.989487,48.9822756 Z M161.356601,49.5719777 L161.356601,49.0099611 L161.777422,49.0099611 L161.777422,48.1683205 L162.558154,48.1683205 L162.558154,49.0099611 L163.048188,49.0099611 L163.048188,49.5719777 L162.558154,49.5719777 L162.558154,51.1666651 C162.558154,51.2903278 162.573842,51.3673851 162.605219,51.3978394 C162.636596,51.4282936 162.732572,51.4435205 162.893149,51.4435205 C162.917143,51.4435205 162.942521,51.4430591 162.969284,51.4421363 C162.996047,51.4412134 163.022348,51.4398291 163.048188,51.4379834 L163.048188,52.0276855 L162.674433,52.0415283 C162.301599,52.0544483 162.046895,51.9898493 161.910312,51.8477295 C161.821718,51.7572896 161.777422,51.6179404 161.777422,51.4296778 L161.777422,49.5719777 L161.356601,49.5719777 Z M149.961231,57.6279006 L149.961231,58.5276808 L150.963447,58.5276808 C151.142482,58.5276808 151.287829,58.4939971 151.399495,58.4266286 C151.51116,58.3592601 151.566992,58.239752 151.566992,58.0681007 C151.566992,57.8779924 151.493165,57.7524858 151.345508,57.6915773 C151.218154,57.6491259 151.055734,57.6279006 150.858242,57.6279006 L149.961231,57.6279006 Z M149.961231,59.2032081 L149.961231,60.29125 L150.963447,60.29125 C151.142482,60.29125 151.281831,60.2672561 151.381499,60.2192676 C151.562379,60.1306734 151.652818,59.9608705 151.652818,59.7098536 C151.652818,59.4975967 151.565148,59.3517876 151.389805,59.272422 C151.291982,59.2281249 151.154479,59.2050538 150.97729,59.2032081 L149.961231,59.2032081 Z M151.129561,56.9191506 C151.629749,56.9265335 151.98412,57.0714197 152.192686,57.3538137 C152.318194,57.5273106 152.380947,57.7349501 152.380947,57.9767384 C152.380947,58.2259096 152.318194,58.4261664 152.192686,58.5775148 C152.122549,58.6624175 152.01919,58.7399363 151.882608,58.8100734 C152.091173,58.8857476 152.248518,59.0057171 152.354646,59.1699854 C152.460775,59.3342538 152.513838,59.5335878 152.513838,59.7679932 C152.513838,60.0097815 152.45293,60.2266495 152.331113,60.4186035 C152.253594,60.5459577 152.156695,60.6530074 152.040415,60.7397559 C151.90937,60.8394243 151.754794,60.9077147 151.576682,60.9446289 C151.398571,60.9815432 151.205236,61 150.99667,61 L149.147276,61 L149.147276,56.9191506 L151.129561,56.9191506 Z M153.970098,61 L153.18106,61 L153.18106,56.9191506 L153.970098,56.9191506 L153.970098,61 Z M156.093579,60.4435205 C156.324293,60.4435205 156.501479,60.3613876 156.625142,60.1971192 C156.748804,60.0328508 156.810635,59.7993717 156.810635,59.4966749 C156.810635,59.1939781 156.748804,58.9609604 156.625142,58.7976149 C156.501479,58.6342693 156.324293,58.5525978 156.093579,58.5525978 C155.862865,58.5525978 155.685218,58.6342693 155.560632,58.7976149 C155.436047,58.9609604 155.373755,59.1939781 155.373755,59.4966749 C155.373755,59.7993717 155.436047,60.0328508 155.560632,60.1971192 C155.685218,60.3613876 155.862865,60.4435205 156.093579,60.4435205 Z M157.638432,59.4966749 C157.638432,59.9396458 157.51108,60.3184726 157.256372,60.6331665 C157.001664,60.9478605 156.614993,61.1052051 156.096348,61.1052051 C155.577702,61.1052051 155.191032,60.9478605 154.936323,60.6331665 C154.681615,60.3184726 154.554263,59.9396458 154.554263,59.4966749 C154.554263,59.0610868 154.681615,58.6836443 154.936323,58.3643361 C155.191032,58.0450279 155.577702,57.8853761 156.096348,57.8853761 C156.614993,57.8853761 157.001664,58.0450279 157.256372,58.3643361 C157.51108,58.6836443 157.638432,59.0610868 157.638432,59.4966749 Z M159.498901,60.3521582 C159.683472,60.3521582 159.839433,60.2824836 159.966787,60.1431324 C160.094141,60.0037811 160.157817,59.7818375 160.157817,59.477295 C160.157817,59.1912096 160.097371,58.9734188 159.976477,58.8239161 C159.855583,58.6744134 159.693624,58.5996632 159.490595,58.5996632 C159.213739,58.5996632 159.02271,58.729784 158.917505,58.9900294 C158.862133,59.1284578 158.834448,59.2991836 158.834448,59.502212 C158.834448,59.6775547 158.863979,59.833515 158.923042,59.9700977 C159.030093,60.224806 159.222044,60.3521582 159.498901,60.3521582 Z M159.302334,57.9102931 C159.453682,57.9102931 159.585649,57.9333642 159.698237,57.979507 C159.890191,58.0588726 160.045229,58.2046817 160.163354,58.4169386 L160.163354,57.9822756 L160.930244,57.9822756 L160.930244,60.8449609 C160.930244,61.2344062 160.864722,61.5278701 160.733676,61.7253613 C160.5085,62.0649723 160.076609,62.2347753 159.437993,62.2347753 C159.052239,62.2347753 158.73755,62.1591023 158.493916,62.0077539 C158.250282,61.8564054 158.115547,61.6303091 158.089707,61.329458 L158.947959,61.329458 C158.970107,61.4217436 159.006098,61.4881882 159.055932,61.5287939 C159.140835,61.6007767 159.283876,61.6367675 159.485058,61.6367675 C159.769298,61.6367675 159.959404,61.5417148 160.055381,61.3516064 C160.118135,61.2297894 160.149511,61.0249184 160.149511,60.7369873 L160.149511,60.5431885 C160.073837,60.6723884 159.992627,60.7692868 159.905879,60.8338867 C159.748993,60.953858 159.545045,61.0138428 159.294028,61.0138428 C158.906429,61.0138428 158.596815,60.8777235 158.365178,60.605481 C158.133541,60.3332384 158.017724,59.9645629 158.017724,59.4994434 C158.017724,59.0509354 158.129388,58.6739543 158.35272,58.3684889 C158.576051,58.0630235 158.892586,57.9102931 159.302334,57.9102931 Z M140.29067,67.992798 C140.29067,67.280353 140.481698,66.7312619 140.863761,66.345508 C141.195989,66.0095884 141.61865,65.8416311 142.131758,65.8416311 C142.818363,65.8416311 143.32039,66.0668046 143.637852,66.5171584 C143.813195,66.770021 143.907325,67.0238026 143.920245,67.2785109 L143.06753,67.2785109 C143.012159,67.0828654 142.9411,66.9352106 142.854351,66.8355422 C142.699311,66.6583538 142.469524,66.5697609 142.164981,66.5697609 C141.854901,66.5697609 141.610348,66.6948061 141.431314,66.9449001 C141.25228,67.1949941 141.162764,67.5489041 141.162764,68.0066407 C141.162764,68.4643774 141.257356,68.8072133 141.446541,69.0351587 C141.635727,69.2631042 141.876127,69.3770752 142.16775,69.3770752 C142.466755,69.3770752 142.694697,69.2792539 142.851583,69.0836084 C142.938331,68.9784028 143.010313,68.8205968 143.06753,68.6101856 L143.911939,68.6101856 C143.838111,69.0550023 143.649389,69.4167564 143.34577,69.695459 C143.04215,69.9741616 142.653172,70.1135107 142.178824,70.1135107 C141.591887,70.1135107 141.130466,69.9252509 140.794547,69.5487256 C140.458627,69.1703546 140.29067,68.6517172 140.29067,67.992798 Z M145.852696,69.4435205 C146.08341,69.4435205 146.260596,69.3613876 146.384258,69.1971192 C146.507921,69.0328508 146.569751,68.7993717 146.569751,68.4966749 C146.569751,68.1939781 146.507921,67.9609604 146.384258,67.7976149 C146.260596,67.6342693 146.08341,67.5525978 145.852696,67.5525978 C145.621982,67.5525978 145.444335,67.6342693 145.319749,67.7976149 C145.195163,67.9609604 145.132872,68.1939781 145.132872,68.4966749 C145.132872,68.7993717 145.195163,69.0328508 145.319749,69.1971192 C145.444335,69.3613876 145.621982,69.4435205 145.852696,69.4435205 Z M147.397549,68.4966749 C147.397549,68.9396458 147.270197,69.3184726 147.015489,69.6331665 C146.76078,69.9478605 146.374109,70.1052051 145.855464,70.1052051 C145.336819,70.1052051 144.950148,69.9478605 144.69544,69.6331665 C144.440732,69.3184726 144.313379,68.9396458 144.313379,68.4966749 C144.313379,68.0610868 144.440732,67.6836443 144.69544,67.3643361 C144.950148,67.0450279 145.336819,66.8853761 145.855464,66.8853761 C146.374109,66.8853761 146.76078,67.0450279 147.015489,67.3643361 C147.270197,67.6836443 147.397549,68.0610868 147.397549,68.4966749 Z M149.634541,66.9102931 C149.946467,66.9102931 150.201633,66.9919647 150.400047,67.1553102 C150.598461,67.3186557 150.697666,67.58951 150.697666,67.967881 L150.697666,70 L149.889248,70 L149.889248,68.1644483 C149.889248,68.0057171 149.868023,67.8839019 149.825572,67.7989991 C149.748052,67.6439593 149.600397,67.5664406 149.382603,67.5664406 C149.114975,67.5664406 148.931329,67.6799502 148.83166,67.9069728 C148.779981,68.0269441 148.754141,68.1801359 148.754141,68.3665528 L148.754141,70 L147.967871,70 L147.967871,66.9878127 L148.729224,66.9878127 L148.729224,67.4280128 C148.830738,67.272973 148.926714,67.1613091 149.017154,67.0930177 C149.179576,66.9712007 149.38537,66.9102931 149.634541,66.9102931 Z M151.115718,67.5719777 L151.115718,67.0099611 L151.536538,67.0099611 L151.536538,66.1683205 L152.317271,66.1683205 L152.317271,67.0099611 L152.807305,67.0099611 L152.807305,67.5719777 L152.317271,67.5719777 L152.317271,69.1666651 C152.317271,69.2903278 152.332959,69.3673851 152.364336,69.3978394 C152.395713,69.4282936 152.491689,69.4435205 152.652266,69.4435205 C152.67626,69.4435205 152.701638,69.4430591 152.728401,69.4421363 C152.755164,69.4412134 152.781465,69.4398291 152.807305,69.4379834 L152.807305,70.0276855 L152.43355,70.0415283 C152.060716,70.0544483 151.806012,69.9898493 151.669429,69.8477295 C151.580835,69.7572896 151.536538,69.6179404 151.536538,69.4296778 L151.536538,67.5719777 L151.115718,67.5719777 Z M154.977852,68.5326661 C154.928017,68.5640432 154.877722,68.5894214 154.826965,68.6088013 C154.776208,68.6281813 154.706534,68.6461767 154.617939,68.6627882 L154.440752,68.6960108 C154.274638,68.7255422 154.155591,68.7615331 154.083608,68.8039844 C153.961791,68.8759672 153.900884,68.9876311 153.900884,69.1389795 C153.900884,69.2737165 153.938259,69.3710764 154.01301,69.431062 C154.087762,69.4910477 154.178662,69.5210401 154.285713,69.5210401 C154.455518,69.5210401 154.61194,69.4712066 154.754983,69.3715381 C154.898026,69.2718697 154.972314,69.0900697 154.977852,68.8261329 L154.977852,68.5326661 Z M154.498892,68.1644483 C154.644703,68.1459912 154.748984,68.1229202 154.811738,68.0952345 C154.924327,68.047246 154.98062,67.9724957 154.98062,67.8709816 C154.98062,67.7473188 154.937708,67.6619559 154.851882,67.6148903 C154.766057,67.5678246 154.640089,67.5442921 154.473975,67.5442921 C154.287558,67.5442921 154.155591,67.5904342 154.078071,67.6827198 C154.0227,67.7510112 153.985786,67.8432954 153.967329,67.9595753 L153.205977,67.9595753 C153.222588,67.6956385 153.296415,67.4787705 153.427461,67.308965 C153.636027,67.0431824 153.994089,66.9102931 154.50166,66.9102931 C154.832043,66.9102931 155.125507,66.9758149 155.382061,67.1068605 C155.638615,67.2379061 155.76689,67.4852278 155.76689,67.8488331 L155.76689,69.2331104 C155.76689,69.3290874 155.768735,69.4453656 155.772427,69.5819483 C155.777964,69.6853082 155.793652,69.7554442 155.819492,69.7923584 C155.845332,69.8292727 155.884091,69.8597264 155.935771,69.8837207 L155.935771,70 L155.07752,70 C155.053525,69.9390915 155.036914,69.8818753 155.027686,69.8283496 C155.018457,69.774824 155.011074,69.7139164 155.005537,69.645625 C154.89664,69.7637506 154.771134,69.8643404 154.629014,69.9473975 C154.459208,70.0452202 154.267257,70.0941309 154.053154,70.0941309 C153.779989,70.0941309 153.554354,70.0161507 153.376243,69.860188 C153.198132,69.7042253 153.109077,69.4832046 153.109077,69.1971192 C153.109077,68.826131 153.252118,68.5575839 153.538203,68.3914698 C153.695089,68.3010299 153.925799,68.236431 154.230342,68.197671 L154.498892,68.1644483 Z M158.269663,68.0647804 C158.254897,67.9521919 158.217061,67.8506793 158.156152,67.7602394 C158.067558,67.6384224 157.930054,67.5775148 157.743638,67.5775148 C157.477855,67.5775148 157.296055,67.7094812 157.198232,67.9734181 C157.146552,68.1136922 157.120713,68.3001063 157.120713,68.5326661 C157.120713,68.7541516 157.146552,68.9322601 157.198232,69.0669971 C157.292364,69.318014 157.469549,69.4435205 157.729795,69.4435205 C157.914366,69.4435205 158.04541,69.3936871 158.12293,69.2940186 C158.200449,69.1943501 158.247514,69.0651522 158.264126,68.906421 L159.069775,68.906421 C159.051318,69.1463635 158.964571,69.3733828 158.809531,69.5874854 C158.562206,69.9326336 158.195837,70.1052051 157.710415,70.1052051 C157.224993,70.1052051 156.867853,69.9612417 156.638984,69.6733106 C156.410116,69.3853795 156.295684,69.0116283 156.295684,68.552046 C156.295684,68.0334008 156.422113,67.6301188 156.674975,67.3421876 C156.927838,67.0542565 157.276672,66.9102931 157.721489,66.9102931 C158.09986,66.9102931 158.409474,66.9951946 158.650339,67.1650002 C158.891205,67.3348057 159.033784,67.6347294 159.078081,68.0647804 L158.269663,68.0647804 Z M159.310639,67.5719777 L159.310639,67.0099611 L159.73146,67.0099611 L159.73146,66.1683205 L160.512192,66.1683205 L160.512192,67.0099611 L161.002226,67.0099611 L161.002226,67.5719777 L160.512192,67.5719777 L160.512192,69.1666651 C160.512192,69.2903278 160.52788,69.3673851 160.559258,69.3978394 C160.590635,69.4282936 160.68661,69.4435205 160.847187,69.4435205 C160.871181,69.4435205 160.89656,69.4430591 160.923322,69.4421363 C160.950085,69.4412134 160.976386,69.4398291 161.002226,69.4379834 L161.002226,70.0276855 L160.628471,70.0415283 C160.255638,70.0544483 160.000933,69.9898493 159.86435,69.8477295 C159.775756,69.7572896 159.73146,69.6179404 159.73146,69.4296778 L159.73146,67.5719777 L159.310639,67.5719777 Z M163.147856,65.9191506 L164.014414,65.9191506 L164.014414,68.427461 C164.014414,68.7080093 164.047636,68.9128803 164.114082,69.0420801 C164.217441,69.2709484 164.442615,69.3853809 164.789609,69.3853809 C165.134757,69.3853809 165.359008,69.2709484 165.462368,69.0420801 C165.528813,68.9128803 165.562036,68.7080093 165.562036,68.427461 L165.562036,65.9191506 L166.428593,65.9191506 L166.428593,68.427461 C166.428593,68.8612034 166.361226,69.1989637 166.226489,69.440752 C165.975472,69.8837229 165.496517,70.1052051 164.789609,70.1052051 C164.082701,70.1052051 163.602823,69.8837229 163.34996,69.440752 C163.215224,69.1989637 163.147856,68.8612034 163.147856,68.427461 L163.147856,65.9191506 Z M167.793491,69.036543 C167.810102,69.1768172 167.846093,69.2764841 167.901464,69.3355469 C167.999287,69.4407525 168.180164,69.4933545 168.444101,69.4933545 C168.599141,69.4933545 168.72234,69.4702835 168.813703,69.4241407 C168.905066,69.3779978 168.950746,69.3087847 168.950746,69.2164991 C168.950746,69.1279049 168.913833,69.0605374 168.840004,69.0143946 C168.766176,68.9682518 168.492092,68.8888873 168.017743,68.7762989 C167.676287,68.6913961 167.435425,68.5852693 167.295151,68.4579151 C167.154877,68.3324067 167.084741,68.1515296 167.084741,67.9152784 C167.084741,67.6365759 167.194097,67.3970983 167.412814,67.1968385 C167.631531,66.9965787 167.939299,66.8964504 168.336127,66.8964504 C168.712653,66.8964504 169.019498,66.971662 169.256672,67.1220876 C169.493846,67.2725131 169.629965,67.5322932 169.665033,67.9014357 L168.875995,67.9014357 C168.864921,67.7999215 168.836313,67.7196342 168.79017,67.6605714 C168.703422,67.5535201 168.555767,67.4999952 168.347201,67.4999952 C168.17555,67.4999952 168.053274,67.5267577 167.980368,67.5802833 C167.907462,67.633809 167.87101,67.6965623 167.87101,67.768545 C167.87101,67.8589849 167.909769,67.9245067 167.987289,67.9651124 C168.064809,68.0075638 168.338893,68.0804683 168.80955,68.1838282 C169.123321,68.2576567 169.358646,68.3693206 169.515531,68.5188233 C169.670571,68.6701717 169.74809,68.8593544 169.74809,69.086377 C169.74809,69.3853824 169.636888,69.6294742 169.414479,69.8186597 C169.192071,70.0078452 168.848312,70.1024365 168.383193,70.1024365 C167.908845,70.1024365 167.558626,70.0023081 167.332526,69.8020484 C167.106426,69.6017886 166.993378,69.3466227 166.993378,69.036543 L167.793491,69.036543 Z" id="Home-About-Blog-Cont-Copy-14" fill="#4A4A4A"></path>
            </g>
        </g>
    </g>
</svg>