<?xml version="1.0" encoding="UTF-8"?>
<svg width="178px" height="119px" viewBox="0 0 178 119" version="1.1" xmlns="http://www.w3.org/2000/svg" xmlns:xlink="http://www.w3.org/1999/xlink">
    <!-- Generator: Sketch 51.2 (57519) - http://www.bohemiancoding.com/sketch -->
    <title>Group 23</title>
    <desc>Created with Sketch.</desc>
    <defs></defs>
    <g id="Page-1" stroke="none" stroke-width="1" fill="none" fill-rule="evenodd">
        <g id="Desktop-HD" transform="translate(-273.000000, -2942.000000)">
            <g id="Group-23" transform="translate(273.000000, 2942.000000)">
                <rect id="Rectangle-2-Copy-52" stroke="#9B9B9B" stroke-width="1.61999991" fill="#F9F9F9" x="0.809999957" y="0.809999957" width="176.38" height="117.38" rx="6.47999966"></rect>
                <path d="M20.19,118.19 L20.19,0.809999957 L7,0.809999957 C3.58135737,0.809999957 0.809999957,3.58135737 0.809999957,7 L0.809999957,112 C0.809999957,115.418643 3.58135737,118.19 7,118.19 L20.19,118.19 Z" id="Rectangle-2-Copy-53" stroke="#9B9B9B" stroke-width="1.61999991" fill="#FFFFFF"></path>
                <g id="brand-copy-23" transform="translate(8.000000, 9.000000)" fill="#4A4A4A" fill-rule="nonzero">
                    <g id="#000000ff">
                        <path d="M0.0243116872,0 L1.17755844,0 C1.19314286,0.585742574 1.17880519,1.17148515 1.18566234,1.75722772 C1.92,1.31168317 2.92176623,1.35742574 3.63179221,1.82554455 C4.16415584,2.17069307 4.56062338,2.71960396 4.65537662,3.33148515 C4.71148052,3.72356436 4.6852987,4.13287129 4.53693506,4.50534653 C4.20342857,5.34118812 3.31885714,5.96613861 2.37007792,5.96079208 C1.8638961,5.98574257 1.36955844,5.80514851 0.982441557,5.49980198 C0.730597401,5.74455446 0.379636363,5.86811881 0.0211948041,5.81940594 C0.013090908,3.87980198 0.00623376512,1.93960396 0.0243116872,0 Z M2.08020779,2.58356436 C1.63885714,2.66257426 1.26296104,3.00237624 1.15324675,3.41643564 C0.967480518,4.04079208 1.44187013,4.74950495 2.12072727,4.83326733 C2.83137662,4.97108911 3.55698701,4.37108911 3.5145974,3.6819802 C3.52955844,2.99524752 2.78088312,2.4249505 2.08020779,2.58356436 Z" id="Shape"></path>
                    </g>
                </g>
                <path d="M14,55.6 L14,55.7 C14,55.8656854 13.8586162,56 13.6842105,56 L6.31578947,56 C6.14138376,56 6,55.8656854 6,55.7 L6,50.2 L7.05263158,50.2 L7.05263158,49 L14,49 L14,55.6 Z M13.3684211,55.4 L13.3684211,49.6 L7.68421053,49.6 L7.68421053,55 L7.05263158,55 L7.05263158,50.8 L6.63157895,50.8 L6.63157895,55.4 L13.3684211,55.4 Z M8.21052632,50 L12.9473684,50 L12.9473684,50.6 L8.21052632,50.6 L8.21052632,50 Z M8.21052632,51 L12.9473684,51 L12.9473684,51.6 L8.21052632,51.6 L8.21052632,51 Z M10.9473684,52 L12.9473684,52 L12.9473684,52.6 L10.9473684,52.6 L10.9473684,52 Z M8.21052632,52 L10.4210526,52 L10.4210526,54.6 L8.21052632,54.6 L8.21052632,52 Z M8.73684211,52.5 L9.89473684,52.5 L9.89473684,54.1 L8.73684211,54.1 L8.73684211,52.5 Z M10.9473684,53 L12.9473684,53 L12.9473684,53.6 L10.9473684,53.6 L10.9473684,53 Z M10.9473684,54 L12.9473684,54 L12.9473684,54.6 L10.9473684,54.6 L10.9473684,54 Z" id="newspaper-o" fill="#000000"></path>
                <path d="M10,32 L14,35.8042739 L13.5636364,36.212239 L13.1709091,35.8450704 L13.1709091,39 L10.64,39 L10.64,36.2394366 L9.37454545,36.2394366 L9.37454545,39 L6.84363636,39 L6.84363636,35.8450704 L6.43636364,36.212239 L6,35.8042739 L10,32 Z M10,32.863526 L7.47636364,35.2535211 L7.47636364,38.4084507 L8.74181818,38.4084507 L8.74181818,35.6478873 L11.2727273,35.6478873 L11.2727273,38.4084507 L12.5381818,38.4084507 L12.5381818,35.2535211 L10,32.863526 Z" id="home" fill="#000000" fill-rule="nonzero"></path>
                <path d="M6,67 L14,67 L14,73 L6,73 L6,67 Z M6.63157895,67.5625 L6.63157895,72.4375 L13.3684211,72.4375 L13.3684211,67.5625 L6.63157895,67.5625 Z M6.63157895,70.5625 L8.52631579,69.25 L10.1052632,70.75 L11.5789474,70.09375 L13.3684211,71.078125 L13.3684211,71.640625 L11.5789474,70.65625 L10,71.40625 L8.52631579,70 L6.63157895,71.3125 L6.63157895,70.5625 Z M12.0263158,68.125 C12.2044956,68.125 12.3586896,68.1829834 12.488898,68.2989502 C12.6191064,68.414917 12.6842105,68.5522461 12.6842105,68.7109375 C12.6842105,68.8696289 12.6191064,69.006958 12.488898,69.1229248 C12.3586896,69.2388916 12.2044956,69.296875 12.0263158,69.296875 C11.848136,69.296875 11.6939419,69.2388916 11.5637336,69.1229248 C11.4335252,69.006958 11.3684211,68.8696289 11.3684211,68.7109375 C11.3684211,68.5522461 11.4335252,68.414917 11.5637336,68.2989502 C11.6939419,68.1829834 11.848136,68.125 12.0263158,68.125 Z" id="image" fill="#000000"></path>
                <path d="M6,83 L14,83 L14,88 L6,88 L6,83 Z M7.26315789,83.568306 L10,85.1785064 L12.7368421,83.568306 L7.26315789,83.568306 Z M6.63157895,83.852459 L6.63157895,87.4444444 L13.3684211,87.4444444 L13.3684211,83.852459 L10,85.8415301 L6.63157895,83.852459 Z" id="envelope" fill="#000000" fill-rule="nonzero"></path>
            </g>
        </g>
    </g>
</svg>