<?xml version="1.0" encoding="UTF-8"?>
<svg width="178px" height="119px" viewBox="0 0 178 119" version="1.1" xmlns="http://www.w3.org/2000/svg" xmlns:xlink="http://www.w3.org/1999/xlink">
    <!-- Generator: Sketch 51.2 (57519) - http://www.bohemiancoding.com/sketch -->
    <title>Group 22</title>
    <desc>Created with Sketch.</desc>
    <defs></defs>
    <g id="Page-1" stroke="none" stroke-width="1" fill="none" fill-rule="evenodd">
        <g id="Desktop-HD" transform="translate(-989.000000, -2754.000000)">
            <g id="Group-22" transform="translate(989.000000, 2754.000000)">
                <rect id="Rectangle-2-Copy-49" stroke="#9B9B9B" stroke-width="1.61999991" fill="#F9F9F9" x="0.809999957" y="0.809999957" width="176.38" height="117.38" rx="6.47999966"></rect>
                <path d="M132.81,0.809999957 L132.81,118.19 L171,118.19 C174.418643,118.19 177.19,115.418643 177.19,112 L177.19,7 C177.19,3.58135737 174.418643,0.809999957 171,0.809999957 L132.81,0.809999957 Z" id="Rectangle-2-Copy-51" stroke="#9B9B9B" stroke-width="1.61999991" fill="#FFFFFF"></path>
                <g id="brand-copy-22" transform="translate(143.000000, 9.000000)" fill="#4A4A4A" fill-rule="nonzero">
                    <g id="#000000ff">
                        <path d="M0.0243116872,0 L1.17755844,0 C1.19314286,0.585742574 1.17880519,1.17148515 1.18566234,1.75722772 C1.92,1.31168317 2.92176623,1.35742574 3.63179221,1.82554455 C4.16415584,2.17069307 4.56062338,2.71960396 4.65537662,3.33148515 C4.71148052,3.72356436 4.6852987,4.13287129 4.53693506,4.50534653 C4.20342857,5.34118812 3.31885714,5.96613861 2.37007792,5.96079208 C1.8638961,5.98574257 1.36955844,5.80514851 0.982441557,5.49980198 C0.730597401,5.74455446 0.379636363,5.86811881 0.0211948041,5.81940594 C0.013090908,3.87980198 0.00623376512,1.93960396 0.0243116872,0 Z M2.08020779,2.58356436 C1.63885714,2.66257426 1.26296104,3.00237624 1.15324675,3.41643564 C0.967480518,4.04079208 1.44187013,4.74950495 2.12072727,4.83326733 C2.83137662,4.97108911 3.55698701,4.37108911 3.5145974,3.6819802 C3.52955844,2.99524752 2.78088312,2.4249505 2.08020779,2.58356436 Z" id="Shape"></path>
                        <path d="M6.72685714,1.46554455 C7.24737662,1.42455446 7.78098701,1.46673267 8.28093506,1.61762376 C8.28779221,1.97108911 8.28841558,2.32514851 8.28218182,2.67861386 C8.27096104,2.70534653 8.24851948,2.76 8.23667532,2.78732673 C7.776,2.5639604 7.24114286,2.51465347 6.73309091,2.56752475 C6.59594805,2.57524752 6.36841558,2.67267327 6.48997403,2.83128713 C6.94441558,3.06356436 7.43127273,3.23584158 7.8825974,3.47346535 C8.3918961,3.74792079 8.66431169,4.35980198 8.50348052,4.8980198 C8.40623377,5.28118812 8.12446753,5.6150495 7.7467013,5.77841584 C7.16197403,6.03386139 6.4881039,5.99762376 5.8747013,5.86633663 C5.66774026,5.83366337 5.46888312,5.67683168 5.46202597,5.46653465 C5.45142857,5.15881188 5.44706494,4.85049505 5.46950649,4.5439604 C6.00561039,4.77683168 6.61963636,4.95920792 7.20685714,4.79346535 C7.39075325,4.75425743 7.43937662,4.50356436 7.2854026,4.40257426 C6.77672727,4.10019802 6.16332468,3.96950495 5.69080519,3.61009901 C5.23948052,3.22693069 5.17215584,2.51881188 5.52374026,2.05425743 C5.78742857,1.6770297 6.26867532,1.50178218 6.72685714,1.46554455 Z" id="Shape"></path>
                        <path d="M9.87677922,1.92772277 C10.358026,1.52376238 11.0331429,1.41920792 11.654026,1.4560396 C12.1795325,1.48217822 12.7193766,1.65089109 13.0902857,2.01980198 C13.3633247,2.28475248 13.5017143,2.65782178 13.4954805,3.02673267 C13.4985974,3.95465347 13.4998442,4.88257426 13.4954805,5.81049505 C13.2155844,5.82950495 12.9338182,5.82534653 12.6539221,5.81821782 C12.4675325,5.8170297 12.3141818,5.64118812 12.3285195,5.46772277 C12.3235325,4.65564356 12.3297662,3.84356436 12.326026,3.03148515 C12.3397403,2.87584158 12.2275325,2.73683168 12.0797922,2.6809901 C11.7518961,2.54019802 11.3747532,2.54079208 11.0269091,2.6019802 C10.8211948,2.6429703 10.5624935,2.74574257 10.5437922,2.97623762 C10.5238442,3.92257426 10.5537662,4.86950495 10.5294545,5.81584158 C10.1442078,5.82475248 9.75896104,5.82891089 9.37371429,5.81346535 C9.36187013,4.88435644 9.37122078,3.95524752 9.36935065,3.02613861 C9.36374026,2.61267327 9.5414026,2.19564356 9.87677922,1.92772277 Z" id="Shape"></path>
                        <path d="M15.4404156,1.70792079 C16.2052987,1.31940594 17.2313766,1.34970297 17.8946494,1.91405941 C18.1365195,1.66039604 18.4924675,1.54752475 18.8477922,1.59267327 C18.8608831,3.00178218 18.8658701,4.41207921 18.8446753,5.82118812 C18.4918442,5.86158416 18.1377662,5.75049505 17.8958961,5.49920792 C17.5106494,5.8009901 17.0231688,5.98455446 16.5201039,5.96079208 C15.6492468,5.97029703 14.8232727,5.45108911 14.4361558,4.71623762 C14.1899221,4.26594059 14.1375584,3.73366337 14.2366753,3.23821782 C14.3650909,2.58772277 14.8413506,2.02811881 15.4404156,1.70792079 Z M16.3555325,2.57940594 C15.739013,2.65960396 15.2714805,3.26316832 15.3662338,3.84831683 C15.4260779,4.39009901 15.9478442,4.84752475 16.521974,4.84693069 C17.1821299,4.88792079 17.7905455,4.31465347 17.7556364,3.68435644 C17.7730909,3.00831683 17.0493506,2.43920792 16.3555325,2.57940594 Z" id="Shape"></path>
                        <path d="M19.3365195,1.60336634 C19.6232727,1.57841584 19.9118961,1.59326733 20.1992727,1.58910891 C20.3251948,1.59386139 20.4673247,1.58435644 20.5701818,1.66633663 C20.6630649,1.74356436 20.7067013,1.8570297 20.7590649,1.95980198 C21.0545455,2.61207921 21.3581299,3.26079208 21.6536104,3.91247525 C22.0145455,3.15029703 22.3561558,2.37980198 22.7152208,1.6170297 C23.1229091,1.5570297 23.553039,1.59980198 23.9688312,1.5980198 C23.9326753,1.77445545 23.8435325,1.93425743 23.7693506,2.09821782 C23.2282597,3.26613861 22.694026,4.4370297 22.1510649,5.60435644 C21.9877403,6.0029703 21.2777143,5.98039604 21.1449351,5.56871287 C20.6306494,4.45663366 20.1201039,3.34336634 19.6064416,2.23128713 C19.5154286,2.02217822 19.4013506,1.8219802 19.3365195,1.60336634 Z" id="Shape"></path>
                    </g>
                </g>
                <path d="M151.673282,40 L151.673282,35.9191506 L152.517691,35.9191506 L152.517691,37.4750783 L154.112379,37.4750783 L154.112379,35.9191506 L154.959556,35.9191506 L154.959556,40 L154.112379,40 L154.112379,38.1782911 L152.517691,38.1782911 L152.517691,40 L151.673282,40 Z M157.063658,39.4435205 C157.294372,39.4435205 157.471558,39.3613876 157.59522,39.1971192 C157.718883,39.0328508 157.780713,38.7993717 157.780713,38.4966749 C157.780713,38.1939781 157.718883,37.9609604 157.59522,37.7976149 C157.471558,37.6342693 157.294372,37.5525978 157.063658,37.5525978 C156.832944,37.5525978 156.655297,37.6342693 156.530711,37.7976149 C156.406125,37.9609604 156.343834,38.1939781 156.343834,38.4966749 C156.343834,38.7993717 156.406125,39.0328508 156.530711,39.1971192 C156.655297,39.3613876 156.832944,39.4435205 157.063658,39.4435205 Z M158.608511,38.4966749 C158.608511,38.9396458 158.481159,39.3184726 158.226451,39.6331665 C157.971742,39.9478605 157.585071,40.1052051 157.066426,40.1052051 C156.547781,40.1052051 156.16111,39.9478605 155.906402,39.6331665 C155.651694,39.3184726 155.524341,38.9396458 155.524341,38.4966749 C155.524341,38.0610868 155.651694,37.6836443 155.906402,37.3643361 C156.16111,37.0450279 156.547781,36.8853761 157.066426,36.8853761 C157.585071,36.8853761 157.971742,37.0450279 158.226451,37.3643361 C158.481159,37.6836443 158.608511,38.0610868 158.608511,38.4966749 Z M162.545396,36.9158302 C162.678287,36.9158302 162.809331,36.9416698 162.93853,36.9933498 C163.06773,37.0450297 163.184931,37.1354683 163.290137,37.2646681 C163.37504,37.3698737 163.432256,37.4990716 163.461787,37.6522657 C163.480244,37.7537799 163.489473,37.9023575 163.489473,38.098003 L163.483936,40 L162.675518,40 L162.675518,38.0786231 C162.675518,37.964189 162.657061,37.8700591 162.620147,37.7962306 C162.55001,37.6559565 162.420812,37.5858204 162.232549,37.5858204 C162.014755,37.5858204 161.864332,37.676259 161.781275,37.8571388 C161.738823,37.9531158 161.717598,38.0684711 161.717598,38.2032081 L161.717598,40 L160.923023,40 L160.923023,38.2032081 C160.923023,38.024174 160.904566,37.8940533 160.867652,37.8128419 C160.801206,37.6670306 160.671085,37.5941261 160.477286,37.5941261 C160.252109,37.5941261 160.100762,37.6670306 160.023243,37.8128419 C159.980791,37.895899 159.959566,38.0195598 159.959566,38.1838282 L159.959566,40 L159.159454,40 L159.159454,36.9878127 L159.926343,36.9878127 L159.926343,37.4280128 C160.024166,37.2711273 160.11645,37.1594634 160.203199,37.0930177 C160.356393,36.9748921 160.554804,36.9158302 160.798438,36.9158302 C161.029152,36.9158302 161.215566,36.9665866 161.357686,37.0681007 C161.47212,37.1622321 161.558867,37.2831244 161.61793,37.4307814 C161.72129,37.253593 161.849565,37.1234722 162.002759,37.0404152 C162.165182,36.9573581 162.346059,36.9158302 162.545396,36.9158302 Z M165.405313,37.5525978 C165.222587,37.5525978 165.080931,37.609814 164.980339,37.7242482 C164.879748,37.8386823 164.816533,37.9937198 164.790693,38.1893653 L166.017163,38.1893653 C166.004243,37.9807998 165.941028,37.8225324 165.827517,37.7145582 C165.714006,37.6065841 165.573272,37.5525978 165.405313,37.5525978 Z M165.405313,36.9019875 C165.656329,36.9019875 165.882426,36.9490524 166.083608,37.0431838 C166.284791,37.1373151 166.450903,37.2858927 166.581948,37.488921 C166.700074,37.6679551 166.77667,37.8755946 166.811738,38.1118458 C166.832041,38.2502742 166.840347,38.4496082 166.836655,38.7098536 L164.771314,38.7098536 C164.782388,39.0125504 164.877441,39.2248041 165.056475,39.3466211 C165.165372,39.4222953 165.296415,39.4601319 165.449609,39.4601319 C165.612032,39.4601319 165.743999,39.4139898 165.845513,39.3217041 C165.900884,39.2718699 165.949795,39.2026567 165.992246,39.1140625 L166.797896,39.1140625 C166.777593,39.2930966 166.684386,39.4748966 166.518272,39.6594678 C166.259872,39.952936 165.898118,40.099668 165.432998,40.099668 C165.04909,40.099668 164.710407,39.9760071 164.416939,39.7286817 C164.12347,39.4813562 163.976738,39.078997 163.976738,38.5215919 C163.976738,37.9992553 164.109166,37.5987418 164.374026,37.3200392 C164.638886,37.0413367 164.982644,36.9019875 165.405313,36.9019875 Z M155.662769,72.6279006 L155.662769,73.5276808 L156.664986,73.5276808 C156.84402,73.5276808 156.989368,73.4939971 157.101033,73.4266286 C157.212699,73.3592601 157.268531,73.239752 157.268531,73.0681007 C157.268531,72.8779924 157.194703,72.7524858 157.047046,72.6915773 C156.919692,72.6491259 156.757272,72.6279006 156.559781,72.6279006 L155.662769,72.6279006 Z M155.662769,74.2032081 L155.662769,75.29125 L156.664986,75.29125 C156.84402,75.29125 156.983369,75.2672561 157.083038,75.2192676 C157.263917,75.1306734 157.354356,74.9608705 157.354356,74.7098536 C157.354356,74.4975967 157.266686,74.3517876 157.091343,74.272422 C156.993521,74.2281249 156.856017,74.2050538 156.678829,74.2032081 L155.662769,74.2032081 Z M156.831099,71.9191506 C157.331287,71.9265335 157.685659,72.0714197 157.894224,72.3538137 C158.019733,72.5273106 158.082486,72.7349501 158.082486,72.9767384 C158.082486,73.2259096 158.019733,73.4261664 157.894224,73.5775148 C157.824087,73.6624175 157.720729,73.7399363 157.584146,73.8100734 C157.792711,73.8857476 157.950056,74.0057171 158.056185,74.1699854 C158.162313,74.3342538 158.215376,74.5335878 158.215376,74.7679932 C158.215376,75.0097815 158.154469,75.2266495 158.032652,75.4186035 C157.955132,75.5459577 157.858233,75.6530074 157.741954,75.7397559 C157.610908,75.8394243 157.456332,75.9077147 157.278221,75.9446289 C157.100109,75.9815432 156.906774,76 156.698209,76 L154.848814,76 L154.848814,71.9191506 L156.831099,71.9191506 Z M159.671636,76 L158.882598,76 L158.882598,71.9191506 L159.671636,71.9191506 L159.671636,76 Z M161.795117,75.4435205 C162.025831,75.4435205 162.203017,75.3613876 162.32668,75.1971192 C162.450343,75.0328508 162.512173,74.7993717 162.512173,74.4966749 C162.512173,74.1939781 162.450343,73.9609604 162.32668,73.7976149 C162.203017,73.6342693 162.025831,73.5525978 161.795117,73.5525978 C161.564403,73.5525978 161.386756,73.6342693 161.262171,73.7976149 C161.137585,73.9609604 161.075293,74.1939781 161.075293,74.4966749 C161.075293,74.7993717 161.137585,75.0328508 161.262171,75.1971192 C161.386756,75.3613876 161.564403,75.4435205 161.795117,75.4435205 Z M163.339971,74.4966749 C163.339971,74.9396458 163.212619,75.3184726 162.95791,75.6331665 C162.703202,75.9478605 162.316531,76.1052051 161.797886,76.1052051 C161.279241,76.1052051 160.89257,75.9478605 160.637862,75.6331665 C160.383153,75.3184726 160.255801,74.9396458 160.255801,74.4966749 C160.255801,74.0610868 160.383153,73.6836443 160.637862,73.3643361 C160.89257,73.0450279 161.279241,72.8853761 161.797886,72.8853761 C162.316531,72.8853761 162.703202,73.0450279 162.95791,73.3643361 C163.212619,73.6836443 163.339971,74.0610868 163.339971,74.4966749 Z M165.20044,75.3521582 C165.385011,75.3521582 165.540971,75.2824836 165.668325,75.1431324 C165.795679,75.0037811 165.859356,74.7818375 165.859356,74.477295 C165.859356,74.1912096 165.798909,73.9734188 165.678015,73.8239161 C165.557121,73.6744134 165.395162,73.5996632 165.192134,73.5996632 C164.915277,73.5996632 164.724249,73.729784 164.619043,73.9900294 C164.563672,74.1284578 164.535986,74.2991836 164.535986,74.502212 C164.535986,74.6775547 164.565517,74.833515 164.62458,74.9700977 C164.731632,75.224806 164.923583,75.3521582 165.20044,75.3521582 Z M165.003872,72.9102931 C165.155221,72.9102931 165.287187,72.9333642 165.399775,72.979507 C165.59173,73.0588726 165.746767,73.2046817 165.864893,73.4169386 L165.864893,72.9822756 L166.631782,72.9822756 L166.631782,75.8449609 C166.631782,76.2344062 166.56626,76.5278701 166.435215,76.7253613 C166.210038,77.0649723 165.778148,77.2347753 165.139531,77.2347753 C164.753777,77.2347753 164.439088,77.1591023 164.195454,77.0077539 C163.95182,76.8564054 163.817085,76.6303091 163.791245,76.329458 L164.649497,76.329458 C164.671646,76.4217436 164.707637,76.4881882 164.757471,76.5287939 C164.842374,76.6007767 164.985414,76.6367675 165.186597,76.6367675 C165.470836,76.6367675 165.660942,76.5417148 165.756919,76.3516064 C165.819673,76.2297894 165.85105,76.0249184 165.85105,75.7369873 L165.85105,75.5431885 C165.775376,75.6723884 165.694166,75.7692868 165.607417,75.8338867 C165.450532,75.953858 165.246583,76.0138428 164.995567,76.0138428 C164.607967,76.0138428 164.298353,75.8777235 164.066716,75.605481 C163.83508,75.3332384 163.719263,74.9645629 163.719263,74.4994434 C163.719263,74.0509354 163.830927,73.6739543 164.054258,73.3684889 C164.277589,73.0630235 164.594124,72.9102931 165.003872,72.9102931 Z M146.150016,82.992798 C146.150016,82.280353 146.341044,81.7312619 146.723107,81.345508 C147.055335,81.0095884 147.477997,80.8416311 147.991105,80.8416311 C148.677709,80.8416311 149.179736,81.0668046 149.497198,81.5171584 C149.672541,81.770021 149.766671,82.0238026 149.779591,82.2785109 L148.926876,82.2785109 C148.871505,82.0828654 148.800446,81.9352106 148.713697,81.8355422 C148.558657,81.6583538 148.32887,81.5697609 148.024327,81.5697609 C147.714248,81.5697609 147.469694,81.6948061 147.29066,81.9449001 C147.111626,82.1949941 147.02211,82.5489041 147.02211,83.0066407 C147.02211,83.4643774 147.116702,83.8072133 147.305887,84.0351587 C147.495073,84.2631042 147.735473,84.3770752 148.027096,84.3770752 C148.326101,84.3770752 148.554043,84.2792539 148.710929,84.0836084 C148.797677,83.9784028 148.869659,83.8205968 148.926876,83.6101856 L149.771285,83.6101856 C149.697457,84.0550023 149.508735,84.4167564 149.205116,84.695459 C148.901496,84.9741616 148.512518,85.1135107 148.03817,85.1135107 C147.451233,85.1135107 146.989812,84.9252509 146.653893,84.5487256 C146.317973,84.1703546 146.150016,83.6517172 146.150016,82.992798 Z M151.712042,84.4435205 C151.942756,84.4435205 152.119942,84.3613876 152.243604,84.1971192 C152.367267,84.0328508 152.429097,83.7993717 152.429097,83.4966749 C152.429097,83.1939781 152.367267,82.9609604 152.243604,82.7976149 C152.119942,82.6342693 151.942756,82.5525978 151.712042,82.5525978 C151.481328,82.5525978 151.303681,82.6342693 151.179095,82.7976149 C151.054509,82.9609604 150.992218,83.1939781 150.992218,83.4966749 C150.992218,83.7993717 151.054509,84.0328508 151.179095,84.1971192 C151.303681,84.3613876 151.481328,84.4435205 151.712042,84.4435205 Z M153.256895,83.4966749 C153.256895,83.9396458 153.129543,84.3184726 152.874835,84.6331665 C152.620126,84.9478605 152.233456,85.1052051 151.71481,85.1052051 C151.196165,85.1052051 150.809494,84.9478605 150.554786,84.6331665 C150.300078,84.3184726 150.172726,83.9396458 150.172726,83.4966749 C150.172726,83.0610868 150.300078,82.6836443 150.554786,82.3643361 C150.809494,82.0450279 151.196165,81.8853761 151.71481,81.8853761 C152.233456,81.8853761 152.620126,82.0450279 152.874835,82.3643361 C153.129543,82.6836443 153.256895,83.0610868 153.256895,83.4966749 Z M155.493887,81.9102931 C155.805813,81.9102931 156.060979,81.9919647 156.259393,82.1553102 C156.457807,82.3186557 156.557012,82.58951 156.557012,82.967881 L156.557012,85 L155.748594,85 L155.748594,83.1644483 C155.748594,83.0057171 155.727369,82.8839019 155.684918,82.7989991 C155.607398,82.6439593 155.459743,82.5664406 155.241949,82.5664406 C154.974321,82.5664406 154.790675,82.6799502 154.691007,82.9069728 C154.639327,83.0269441 154.613487,83.1801359 154.613487,83.3665528 L154.613487,85 L153.827217,85 L153.827217,81.9878127 L154.58857,81.9878127 L154.58857,82.4280128 C154.690084,82.272973 154.78606,82.1613091 154.8765,82.0930177 C155.038922,81.9712007 155.244716,81.9102931 155.493887,81.9102931 Z M156.975064,82.5719777 L156.975064,82.0099611 L157.395884,82.0099611 L157.395884,81.1683205 L158.176617,81.1683205 L158.176617,82.0099611 L158.666651,82.0099611 L158.666651,82.5719777 L158.176617,82.5719777 L158.176617,84.1666651 C158.176617,84.2903278 158.192305,84.3673851 158.223682,84.3978394 C158.255059,84.4282936 158.351035,84.4435205 158.511612,84.4435205 C158.535606,84.4435205 158.560984,84.4430591 158.587747,84.4421363 C158.61451,84.4412134 158.640811,84.4398291 158.666651,84.4379834 L158.666651,85.0276855 L158.292896,85.0415283 C157.920062,85.0544483 157.665358,84.9898493 157.528775,84.8477295 C157.440181,84.7572896 157.395884,84.6179404 157.395884,84.4296778 L157.395884,82.5719777 L156.975064,82.5719777 Z M160.837198,83.5326661 C160.787363,83.5640432 160.737068,83.5894214 160.686311,83.6088013 C160.635554,83.6281813 160.56588,83.6461767 160.477286,83.6627882 L160.300098,83.6960108 C160.133984,83.7255422 160.014937,83.7615331 159.942954,83.8039844 C159.821137,83.8759672 159.76023,83.9876311 159.76023,84.1389795 C159.76023,84.2737165 159.797605,84.3710764 159.872356,84.431062 C159.947108,84.4910477 160.038008,84.5210401 160.145059,84.5210401 C160.314864,84.5210401 160.471286,84.4712066 160.614329,84.3715381 C160.757372,84.2718697 160.83166,84.0900697 160.837198,83.8261329 L160.837198,83.5326661 Z M160.358238,83.1644483 C160.504049,83.1459912 160.60833,83.1229202 160.671084,83.0952345 C160.783673,83.047246 160.839966,82.9724957 160.839966,82.8709816 C160.839966,82.7473188 160.797054,82.6619559 160.711228,82.6148903 C160.625403,82.5678246 160.499435,82.5442921 160.333321,82.5442921 C160.146904,82.5442921 160.014937,82.5904342 159.937417,82.6827198 C159.882046,82.7510112 159.845132,82.8432954 159.826675,82.9595753 L159.065323,82.9595753 C159.081934,82.6956385 159.155761,82.4787705 159.286807,82.308965 C159.495373,82.0431824 159.853435,81.9102931 160.361006,81.9102931 C160.691389,81.9102931 160.984853,81.9758149 161.241407,82.1068605 C161.497961,82.2379061 161.626236,82.4852278 161.626236,82.8488331 L161.626236,84.2331104 C161.626236,84.3290874 161.628081,84.4453656 161.631773,84.5819483 C161.63731,84.6853082 161.652998,84.7554442 161.678838,84.7923584 C161.704678,84.8292727 161.743438,84.8597264 161.795117,84.8837207 L161.795117,85 L160.936866,85 C160.912871,84.9390915 160.89626,84.8818753 160.887032,84.8283496 C160.877803,84.774824 160.87042,84.7139164 160.864883,84.645625 C160.755986,84.7637506 160.63048,84.8643404 160.48836,84.9473975 C160.318554,85.0452202 160.126603,85.0941309 159.9125,85.0941309 C159.639335,85.0941309 159.4137,85.0161507 159.235589,84.860188 C159.057478,84.7042253 158.968423,84.4832046 158.968423,84.1971192 C158.968423,83.826131 159.111464,83.5575839 159.397549,83.3914698 C159.554435,83.3010299 159.785145,83.236431 160.089688,83.197671 L160.358238,83.1644483 Z M164.129009,83.0647804 C164.114243,82.9521919 164.076407,82.8506793 164.015498,82.7602394 C163.926904,82.6384224 163.789401,82.5775148 163.602984,82.5775148 C163.337201,82.5775148 163.155401,82.7094812 163.057578,82.9734181 C163.005898,83.1136922 162.980059,83.3001063 162.980059,83.5326661 C162.980059,83.7541516 163.005898,83.9322601 163.057578,84.0669971 C163.15171,84.318014 163.328895,84.4435205 163.589141,84.4435205 C163.773712,84.4435205 163.904756,84.3936871 163.982276,84.2940186 C164.059795,84.1943501 164.10686,84.0651522 164.123472,83.906421 L164.929121,83.906421 C164.910664,84.1463635 164.823917,84.3733828 164.668877,84.5874854 C164.421552,84.9326336 164.055183,85.1052051 163.569761,85.1052051 C163.084339,85.1052051 162.727199,84.9612417 162.49833,84.6733106 C162.269462,84.3853795 162.15503,84.0116283 162.15503,83.552046 C162.15503,83.0334008 162.281459,82.6301188 162.534322,82.3421876 C162.787184,82.0542565 163.136018,81.9102931 163.580835,81.9102931 C163.959206,81.9102931 164.26882,81.9951946 164.509685,82.1650002 C164.750551,82.3348057 164.89313,82.6347294 164.937427,83.0647804 L164.129009,83.0647804 Z M165.169985,82.5719777 L165.169985,82.0099611 L165.590806,82.0099611 L165.590806,81.1683205 L166.371538,81.1683205 L166.371538,82.0099611 L166.861572,82.0099611 L166.861572,82.5719777 L166.371538,82.5719777 L166.371538,84.1666651 C166.371538,84.2903278 166.387226,84.3673851 166.418604,84.3978394 C166.449981,84.4282936 166.545956,84.4435205 166.706533,84.4435205 C166.730527,84.4435205 166.755906,84.4430591 166.782668,84.4421363 C166.809431,84.4412134 166.835732,84.4398291 166.861572,84.4379834 L166.861572,85.0276855 L166.487817,85.0415283 C166.114984,85.0544483 165.860279,84.9898493 165.723696,84.8477295 C165.635102,84.7572896 165.590806,84.6179404 165.590806,84.4296778 L165.590806,82.5719777 L165.169985,82.5719777 Z" id="Home-Blog-Contact-Copy" fill="#7B7B7B"></path>
                <polygon id="Rectangle-4-Copy" fill="#4A4A4A" points="173 46 170.989438 49 169 46"></polygon>
                <path d="M152.17439,47.4579151 L153.20983,47.4579151 L152.700416,45.8521535 L152.17439,47.4579151 Z M152.226993,44.9191506 L153.19045,44.9191506 L154.635635,49 L153.710938,49 L153.447926,48.161128 L151.9446,48.161128 L151.662208,49 L150.770733,49 L152.226993,44.9191506 Z M156.720357,45.9158302 C157.117185,45.9158302 157.427722,46.0588708 157.651976,46.3449562 C157.87623,46.6310416 157.988355,47.0001785 157.988355,47.452378 C157.988355,47.9211889 157.877614,48.3097055 157.656128,48.6179395 C157.434643,48.9261734 157.125491,49.0802881 156.728663,49.0802881 C156.479491,49.0802881 156.279235,49.0304546 156.127886,48.9307861 C156.037446,48.8717233 155.939625,48.768365 155.83442,48.620708 L155.83442,49 L155.061993,49 L155.061993,44.9246877 L155.848262,44.9246877 L155.848262,46.3754103 C155.947931,46.2351362 156.057749,46.1280865 156.17772,46.054258 C156.31984,45.9619724 156.500717,45.9158302 156.720357,45.9158302 Z M156.518253,48.4296778 C156.721281,48.4296778 156.879087,48.3475448 156.991675,48.1832764 C157.104264,48.019008 157.160557,47.8030629 157.160557,47.5354346 C157.160557,47.321332 157.132872,47.1441463 157.077501,47.0038722 C156.972295,46.7380896 156.778498,46.6052003 156.496104,46.6052003 C156.210019,46.6052003 156.013453,46.7353211 155.906402,46.9955665 C155.851031,47.1339949 155.823345,47.3130263 155.823345,47.5326661 C155.823345,47.7910658 155.880562,48.0051652 155.994996,48.1749707 C156.10943,48.3447763 156.283847,48.4296778 156.518253,48.4296778 Z M159.906963,48.4435205 C160.137677,48.4435205 160.314863,48.3613876 160.438526,48.1971192 C160.562188,48.0328508 160.624019,47.7993717 160.624019,47.4966749 C160.624019,47.1939781 160.562188,46.9609604 160.438526,46.7976149 C160.314863,46.6342693 160.137677,46.5525978 159.906963,46.5525978 C159.676249,46.5525978 159.498602,46.6342693 159.374017,46.7976149 C159.249431,46.9609604 159.187139,47.1939781 159.187139,47.4966749 C159.187139,47.7993717 159.249431,48.0328508 159.374017,48.1971192 C159.498602,48.3613876 159.676249,48.4435205 159.906963,48.4435205 Z M161.451817,47.4966749 C161.451817,47.9396458 161.324464,48.3184726 161.069756,48.6331665 C160.815048,48.9478605 160.428377,49.1052051 159.909732,49.1052051 C159.391087,49.1052051 159.004416,48.9478605 158.749707,48.6331665 C158.494999,48.3184726 158.367647,47.9396458 158.367647,47.4966749 C158.367647,47.0610868 158.494999,46.6836443 158.749707,46.3643361 C159.004416,46.0450279 159.391087,45.8853761 159.909732,45.8853761 C160.428377,45.8853761 160.815048,46.0450279 161.069756,46.3643361 C161.324464,46.6836443 161.451817,47.0610868 161.451817,47.4966749 Z M162.802871,45.9822756 L162.802871,47.8012159 C162.802871,47.9728671 162.823174,48.102065 162.86378,48.1888135 C162.935762,48.3420076 163.076957,48.4186035 163.287368,48.4186035 C163.556842,48.4186035 163.741411,48.3097082 163.841079,48.0919141 C163.892759,47.9737885 163.918599,47.8178282 163.918599,47.6240284 L163.918599,45.9822756 L164.718711,45.9822756 L164.718711,49 L163.951821,49 L163.951821,48.5736426 C163.944439,48.5828712 163.925982,48.6105564 163.89645,48.6566992 C163.866919,48.702842 163.831851,48.7434471 163.791245,48.7785156 C163.667583,48.8892584 163.548074,48.9649314 163.432717,49.0055371 C163.31736,49.0461428 163.182164,49.0664453 163.027124,49.0664453 C162.580462,49.0664453 162.279615,48.9058708 162.124575,48.5847168 C162.037827,48.4075284 161.994453,48.1463641 161.994453,47.8012159 L161.994453,45.9822756 L162.802871,45.9822756 Z M165.169985,46.5719777 L165.169985,46.0099611 L165.590806,46.0099611 L165.590806,45.1683205 L166.371538,45.1683205 L166.371538,46.0099611 L166.861572,46.0099611 L166.861572,46.5719777 L166.371538,46.5719777 L166.371538,48.1666651 C166.371538,48.2903278 166.387226,48.3673851 166.418604,48.3978394 C166.449981,48.4282936 166.545956,48.4435205 166.706533,48.4435205 C166.730527,48.4435205 166.755906,48.4430591 166.782668,48.4421363 C166.809431,48.4412134 166.835732,48.4398291 166.861572,48.4379834 L166.861572,49.0276855 L166.487817,49.0415283 C166.114984,49.0544483 165.860279,48.9898493 165.723696,48.8477295 C165.635102,48.7572896 165.590806,48.6179404 165.590806,48.4296778 L165.590806,46.5719777 L165.169985,46.5719777 Z M156.554244,56 L155.707066,56 L155.707066,51.9191506 L156.554244,51.9191506 L156.554244,56 Z M156.975064,53.5719777 L156.975064,53.0099611 L157.395884,53.0099611 L157.395884,52.1683205 L158.176617,52.1683205 L158.176617,53.0099611 L158.666651,53.0099611 L158.666651,53.5719777 L158.176617,53.5719777 L158.176617,55.1666651 C158.176617,55.2903278 158.192305,55.3673851 158.223682,55.3978394 C158.255059,55.4282936 158.351035,55.4435205 158.511612,55.4435205 C158.535606,55.4435205 158.560984,55.4430591 158.587747,55.4421363 C158.61451,55.4412134 158.640811,55.4398291 158.666651,55.4379834 L158.666651,56.0276855 L158.292896,56.0415283 C157.920062,56.0544483 157.665358,55.9898493 157.528775,55.8477295 C157.440181,55.7572896 157.395884,55.6179404 157.395884,55.4296778 L157.395884,53.5719777 L156.975064,53.5719777 Z M160.363775,53.5525978 C160.181049,53.5525978 160.039393,53.609814 159.938802,53.7242482 C159.83821,53.8386823 159.774996,53.9937198 159.749156,54.1893653 L160.975625,54.1893653 C160.962705,53.9807998 160.899491,53.8225324 160.785979,53.7145582 C160.672468,53.6065841 160.531735,53.5525978 160.363775,53.5525978 Z M160.363775,52.9019875 C160.614792,52.9019875 160.840888,52.9490524 161.042071,53.0431838 C161.243253,53.1373151 161.409365,53.2858927 161.54041,53.488921 C161.658536,53.6679551 161.735132,53.8755946 161.7702,54.1118458 C161.790503,54.2502742 161.798809,54.4496082 161.795117,54.7098536 L159.729776,54.7098536 C159.74085,55.0125504 159.835903,55.2248041 160.014937,55.3466211 C160.123834,55.4222953 160.254878,55.4601319 160.408072,55.4601319 C160.570494,55.4601319 160.702461,55.4139898 160.803975,55.3217041 C160.859346,55.2718699 160.908257,55.2026567 160.950708,55.1140625 L161.756358,55.1140625 C161.736055,55.2930966 161.642848,55.4748966 161.476734,55.6594678 C161.218334,55.952936 160.85658,56.099668 160.39146,56.099668 C160.007552,56.099668 159.668869,55.9760071 159.375401,55.7286817 C159.081933,55.4813562 158.935201,55.078997 158.935201,54.5215919 C158.935201,53.9992553 159.067628,53.5987418 159.332488,53.3200392 C159.597348,53.0413367 159.941107,52.9019875 160.363775,52.9019875 Z M165.698779,52.9158302 C165.831671,52.9158302 165.962714,52.9416698 166.091914,52.9933498 C166.221114,53.0450297 166.338315,53.1354683 166.443521,53.2646681 C166.528423,53.3698737 166.58564,53.4990716 166.615171,53.6522657 C166.633628,53.7537799 166.642856,53.9023575 166.642856,54.098003 L166.637319,56 L165.828901,56 L165.828901,54.0786231 C165.828901,53.964189 165.810445,53.8700591 165.77353,53.7962306 C165.703393,53.6559565 165.574195,53.5858204 165.385933,53.5858204 C165.168139,53.5858204 165.017715,53.676259 164.934658,53.8571388 C164.892207,53.9531158 164.870982,54.0684711 164.870982,54.2032081 L164.870982,56 L164.076406,56 L164.076406,54.2032081 C164.076406,54.024174 164.05795,53.8940533 164.021035,53.8128419 C163.95459,53.6670306 163.824469,53.5941261 163.630669,53.5941261 C163.405492,53.5941261 163.254146,53.6670306 163.176626,53.8128419 C163.134175,53.895899 163.112949,54.0195598 163.112949,54.1838282 L163.112949,56 L162.312837,56 L162.312837,52.9878127 L163.079727,52.9878127 L163.079727,53.4280128 C163.17755,53.2711273 163.269834,53.1594634 163.356582,53.0930177 C163.509776,52.9748921 163.708187,52.9158302 163.951821,52.9158302 C164.182535,52.9158302 164.36895,52.9665866 164.511069,53.0681007 C164.625504,53.1622321 164.712251,53.2831244 164.771314,53.4307814 C164.874673,53.253593 165.002949,53.1234722 165.156143,53.0404152 C165.318565,52.9573581 165.499442,52.9158302 165.698779,52.9158302 Z M156.554244,63 L155.707066,63 L155.707066,58.9191506 L156.554244,58.9191506 L156.554244,63 Z M156.975064,60.5719777 L156.975064,60.0099611 L157.395884,60.0099611 L157.395884,59.1683205 L158.176617,59.1683205 L158.176617,60.0099611 L158.666651,60.0099611 L158.666651,60.5719777 L158.176617,60.5719777 L158.176617,62.1666651 C158.176617,62.2903278 158.192305,62.3673851 158.223682,62.3978394 C158.255059,62.4282936 158.351035,62.4435205 158.511612,62.4435205 C158.535606,62.4435205 158.560984,62.4430591 158.587747,62.4421363 C158.61451,62.4412134 158.640811,62.4398291 158.666651,62.4379834 L158.666651,63.0276855 L158.292896,63.0415283 C157.920062,63.0544483 157.665358,62.9898493 157.528775,62.8477295 C157.440181,62.7572896 157.395884,62.6179404 157.395884,62.4296778 L157.395884,60.5719777 L156.975064,60.5719777 Z M160.363775,60.5525978 C160.181049,60.5525978 160.039393,60.609814 159.938802,60.7242482 C159.83821,60.8386823 159.774996,60.9937198 159.749156,61.1893653 L160.975625,61.1893653 C160.962705,60.9807998 160.899491,60.8225324 160.785979,60.7145582 C160.672468,60.6065841 160.531735,60.5525978 160.363775,60.5525978 Z M160.363775,59.9019875 C160.614792,59.9019875 160.840888,59.9490524 161.042071,60.0431838 C161.243253,60.1373151 161.409365,60.2858927 161.54041,60.488921 C161.658536,60.6679551 161.735132,60.8755946 161.7702,61.1118458 C161.790503,61.2502742 161.798809,61.4496082 161.795117,61.7098536 L159.729776,61.7098536 C159.74085,62.0125504 159.835903,62.2248041 160.014937,62.3466211 C160.123834,62.4222953 160.254878,62.4601319 160.408072,62.4601319 C160.570494,62.4601319 160.702461,62.4139898 160.803975,62.3217041 C160.859346,62.2718699 160.908257,62.2026567 160.950708,62.1140625 L161.756358,62.1140625 C161.736055,62.2930966 161.642848,62.4748966 161.476734,62.6594678 C161.218334,62.952936 160.85658,63.099668 160.39146,63.099668 C160.007552,63.099668 159.668869,62.9760071 159.375401,62.7286817 C159.081933,62.4813562 158.935201,62.078997 158.935201,61.5215919 C158.935201,60.9992553 159.067628,60.5987418 159.332488,60.3200392 C159.597348,60.0413367 159.941107,59.9019875 160.363775,59.9019875 Z M165.698779,59.9158302 C165.831671,59.9158302 165.962714,59.9416698 166.091914,59.9933498 C166.221114,60.0450297 166.338315,60.1354683 166.443521,60.2646681 C166.528423,60.3698737 166.58564,60.4990716 166.615171,60.6522657 C166.633628,60.7537799 166.642856,60.9023575 166.642856,61.098003 L166.637319,63 L165.828901,63 L165.828901,61.0786231 C165.828901,60.964189 165.810445,60.8700591 165.77353,60.7962306 C165.703393,60.6559565 165.574195,60.5858204 165.385933,60.5858204 C165.168139,60.5858204 165.017715,60.676259 164.934658,60.8571388 C164.892207,60.9531158 164.870982,61.0684711 164.870982,61.2032081 L164.870982,63 L164.076406,63 L164.076406,61.2032081 C164.076406,61.024174 164.05795,60.8940533 164.021035,60.8128419 C163.95459,60.6670306 163.824469,60.5941261 163.630669,60.5941261 C163.405492,60.5941261 163.254146,60.6670306 163.176626,60.8128419 C163.134175,60.895899 163.112949,61.0195598 163.112949,61.1838282 L163.112949,63 L162.312837,63 L162.312837,59.9878127 L163.079727,59.9878127 L163.079727,60.4280128 C163.17755,60.2711273 163.269834,60.1594634 163.356582,60.0930177 C163.509776,59.9748921 163.708187,59.9158302 163.951821,59.9158302 C164.182535,59.9158302 164.36895,59.9665866 164.511069,60.0681007 C164.625504,60.1622321 164.712251,60.2831244 164.771314,60.4307814 C164.874673,60.253593 165.002949,60.1234722 165.156143,60.0404152 C165.318565,59.9573581 165.499442,59.9158302 165.698779,59.9158302 Z" id="About-Item-Item-Copy" fill="#4A4A4A"></path>
            </g>
        </g>
    </g>
</svg>