<?xml version="1.0" encoding="UTF-8"?>
<svg width="178px" height="119px" viewBox="0 0 178 119" version="1.1" xmlns="http://www.w3.org/2000/svg" xmlns:xlink="http://www.w3.org/1999/xlink">
    <!-- Generator: Sketch 51.2 (57519) - http://www.bohemiancoding.com/sketch -->
    <title>Group 24</title>
    <desc>Created with Sketch.</desc>
    <defs></defs>
    <g id="Page-1" stroke="none" stroke-width="1" fill="none" fill-rule="evenodd">
        <g id="Desktop-HD" transform="translate(-511.000000, -2942.000000)">
            <g id="Group-24" transform="translate(511.000000, 2942.000000)">
                <rect id="Rectangle-2-Copy-54" stroke="#9B9B9B" stroke-width="1.61999991" fill="#F9F9F9" x="0.809999957" y="0.809999957" width="176.38" height="117.38" rx="6.47999966"></rect>
                <path d="M157.81,0.809999957 L157.81,118.19 L171,118.19 C174.418643,118.19 177.19,115.418643 177.19,112 L177.19,7 C177.19,3.58135737 174.418643,0.809999957 171,0.809999957 L157.81,0.809999957 Z" id="Rectangle-2-Copy-55" stroke="#9B9B9B" stroke-width="1.61999991" fill="#FFFFFF"></path>
                <g id="brand-copy-24" transform="translate(165.000000, 9.000000)" fill="#4A4A4A" fill-rule="nonzero">
                    <g id="#000000ff">
                        <path d="M0.0243116872,0 L1.17755844,0 C1.19314286,0.585742574 1.17880519,1.17148515 1.18566234,1.75722772 C1.92,1.31168317 2.92176623,1.35742574 3.63179221,1.82554455 C4.16415584,2.17069307 4.56062338,2.71960396 4.65537662,3.33148515 C4.71148052,3.72356436 4.6852987,4.13287129 4.53693506,4.50534653 C4.20342857,5.34118812 3.31885714,5.96613861 2.37007792,5.96079208 C1.8638961,5.98574257 1.36955844,5.80514851 0.982441557,5.49980198 C0.730597401,5.74455446 0.379636363,5.86811881 0.0211948041,5.81940594 C0.013090908,3.87980198 0.00623376512,1.93960396 0.0243116872,0 Z M2.08020779,2.58356436 C1.63885714,2.66257426 1.26296104,3.00237624 1.15324675,3.41643564 C0.967480518,4.04079208 1.44187013,4.74950495 2.12072727,4.83326733 C2.83137662,4.97108911 3.55698701,4.37108911 3.5145974,3.6819802 C3.52955844,2.99524752 2.78088312,2.4249505 2.08020779,2.58356436 Z" id="Shape"></path>
                    </g>
                </g>
                <path d="M171,55.6 L171,55.7 C171,55.8656854 170.858616,56 170.684211,56 L163.315789,56 C163.141384,56 163,55.8656854 163,55.7 L163,50.2 L164.052632,50.2 L164.052632,49 L171,49 L171,55.6 Z M170.368421,55.4 L170.368421,49.6 L164.684211,49.6 L164.684211,55 L164.052632,55 L164.052632,50.8 L163.631579,50.8 L163.631579,55.4 L170.368421,55.4 Z M165.210526,50 L169.947368,50 L169.947368,50.6 L165.210526,50.6 L165.210526,50 Z M165.210526,51 L169.947368,51 L169.947368,51.6 L165.210526,51.6 L165.210526,51 Z M167.947368,52 L169.947368,52 L169.947368,52.6 L167.947368,52.6 L167.947368,52 Z M165.210526,52 L167.421053,52 L167.421053,54.6 L165.210526,54.6 L165.210526,52 Z M165.736842,52.5 L166.894737,52.5 L166.894737,54.1 L165.736842,54.1 L165.736842,52.5 Z M167.947368,53 L169.947368,53 L169.947368,53.6 L167.947368,53.6 L167.947368,53 Z M167.947368,54 L169.947368,54 L169.947368,54.6 L167.947368,54.6 L167.947368,54 Z" id="newspaper-o-copy" fill="#000000"></path>
                <path d="M167,32 L171,35.8042739 L170.563636,36.212239 L170.170909,35.8450704 L170.170909,39 L167.64,39 L167.64,36.2394366 L166.374545,36.2394366 L166.374545,39 L163.843636,39 L163.843636,35.8450704 L163.436364,36.212239 L163,35.8042739 L167,32 Z M167,32.863526 L164.476364,35.2535211 L164.476364,38.4084507 L165.741818,38.4084507 L165.741818,35.6478873 L168.272727,35.6478873 L168.272727,38.4084507 L169.538182,38.4084507 L169.538182,35.2535211 L167,32.863526 Z" id="home-copy" fill="#000000" fill-rule="nonzero"></path>
                <path d="M163,67 L171,67 L171,73 L163,73 L163,67 Z M163.631579,67.5625 L163.631579,72.4375 L170.368421,72.4375 L170.368421,67.5625 L163.631579,67.5625 Z M163.631579,70.5625 L165.526316,69.25 L167.105263,70.75 L168.578947,70.09375 L170.368421,71.078125 L170.368421,71.640625 L168.578947,70.65625 L167,71.40625 L165.526316,70 L163.631579,71.3125 L163.631579,70.5625 Z M169.026316,68.125 C169.204496,68.125 169.35869,68.1829834 169.488898,68.2989502 C169.619106,68.414917 169.684211,68.5522461 169.684211,68.7109375 C169.684211,68.8696289 169.619106,69.006958 169.488898,69.1229248 C169.35869,69.2388916 169.204496,69.296875 169.026316,69.296875 C168.848136,69.296875 168.693942,69.2388916 168.563734,69.1229248 C168.433525,69.006958 168.368421,68.8696289 168.368421,68.7109375 C168.368421,68.5522461 168.433525,68.414917 168.563734,68.2989502 C168.693942,68.1829834 168.848136,68.125 169.026316,68.125 Z" id="image-copy" fill="#000000"></path>
                <path d="M163,83 L171,83 L171,88 L163,88 L163,83 Z M164.263158,83.568306 L167,85.1785064 L169.736842,83.568306 L164.263158,83.568306 Z M163.631579,83.852459 L163.631579,87.4444444 L170.368421,87.4444444 L170.368421,83.852459 L167,85.8415301 L163.631579,83.852459 Z" id="envelope-copy" fill="#000000" fill-rule="nonzero"></path>
            </g>
        </g>
    </g>
</svg>