<?xml version="1.0" encoding="UTF-8"?>
<svg width="786px" height="53px" viewBox="0 0 786 53" version="1.1" xmlns="http://www.w3.org/2000/svg" xmlns:xlink="http://www.w3.org/1999/xlink">
    <!-- Generator: Sketch 49.3 (51167) - http://www.bohemiancoding.com/sketch -->
    <title>Group 6</title>
    <desc>Created with Sketch.</desc>
    <defs></defs>
    <g id="Page-1" stroke="none" stroke-width="1" fill="none" fill-rule="evenodd">
        <g id="Desktop-HD" transform="translate(-563.000000, -499.000000)">
            <g id="Group-6" transform="translate(563.000000, 499.000000)">
                <rect id="Rectangle-2" fill="#FFFFFF" x="0" y="0" width="786" height="53"></rect>
                <g id="Group-3" transform="translate(464.000000, 21.000000)" fill="#CECECE">
                    <rect id="Rectangle-3" x="235.250883" y="0" width="56.7491166" height="11"></rect>
                    <rect id="Rectangle-3-Copy-2" x="78.4169611" y="0" width="56.7491166" height="11"></rect>
                    <rect id="Rectangle-3-Copy" x="156.833922" y="0" width="56.7491166" height="11"></rect>
                    <rect id="Rectangle-3-Copy-3" x="0" y="0" width="56.7491166" height="11"></rect>
                </g>
                <path d="M28.0357709,15 L31.6462946,15 C31.6950854,16.8647796 31.6501978,18.7295591 31.6716658,20.5943387 C33.9706912,19.1758958 37.1069676,19.3215226 39.3298792,20.8118332 C40.996575,21.9106537 42.2378145,23.6581753 42.5344629,25.6061701 C42.71011,26.8543999 42.6281414,28.157476 42.1636524,29.3432943 C41.119528,32.0042931 38.3501588,33.9938956 35.3797712,33.9768743 C33.7950441,34.0563071 32.247398,33.4813649 31.035433,32.5092588 C30.2469727,33.2884567 29.1482025,33.6818382 28.0260128,33.5267551 C28.0006415,27.3518005 27.9791735,21.1749546 28.0357709,15 Z M34.4722612,23.2250774 C33.090504,23.4766146 31.9136685,24.5584137 31.5701808,25.8766199 C30.9885938,27.8643312 32.4737876,30.120601 34.5991174,30.3872682 C36.8239806,30.8260399 39.0956831,28.9158702 38.962972,26.7220119 C39.0098112,24.5357186 36.6658983,22.7201117 34.4722612,23.2250774 Z M49.019744,19.6657314 C50.6493588,19.5352347 52.3199578,19.6695139 53.8851686,20.1498932 C53.9066366,21.2751912 53.9085882,22.4023805 53.8890719,23.5276785 C53.8539425,23.6127851 53.7836836,23.7867808 53.7466026,23.8737786 C52.3043447,23.1626659 50.6298424,23.0056915 49.0392604,23.1740134 C48.6099008,23.1985998 47.8975543,23.508766 48.278123,24.0137316 C49.7008644,24.7532132 51.2250909,25.3016777 52.6380742,26.0581806 C54.2325595,26.9319414 55.0854238,28.8799363 54.5819021,30.5934153 C54.2774471,31.8132761 53.3953084,32.8761627 52.2126179,33.3962584 C50.3819849,34.209499 48.2722681,34.0941323 46.3518598,33.6761644 C45.7039172,33.5721453 45.0813458,33.0728534 45.0598778,32.4033484 C45.0267,31.4236772 45.0130386,30.4421147 45.0832974,29.466226 C46.761703,30.2075988 48.6840629,30.7882148 50.5225025,30.260554 C51.0982347,30.135731 51.2504622,29.3376205 50.7684085,29.0161068 C49.1758748,28.0534569 47.2554665,27.6373803 45.7761277,26.4931697 C44.3631443,25.2733089 44.1523678,23.0189303 45.2530896,21.5399673 C46.078631,20.339019 47.5852927,19.7810981 49.019744,19.6657314 Z M58.8813527,21.1371295 C60.3880144,19.8510746 62.5016345,19.5182133 64.4454624,19.6354713 C66.0906902,19.7186866 67.7808056,20.2558036 68.942028,21.4302743 C69.7968439,22.273775 70.2301067,23.4614845 70.2105904,24.6359552 C70.2203486,27.5900989 70.2242518,30.5442426 70.2105904,33.4983863 C69.3343065,33.5589065 68.4521678,33.5456677 67.5758839,33.5229726 C66.9923453,33.5191901 66.5122432,32.959378 66.5571308,32.4071309 C66.5415177,29.8217823 66.5610341,27.2364338 66.5493242,24.6510853 C66.5922602,24.1555759 66.240966,23.7130217 65.7784287,23.5352436 C64.751869,23.0870156 63.5711301,23.0889069 62.4821182,23.2837064 C61.8380788,23.4142031 61.0281505,23.7413906 60.9696015,24.4751984 C60.9071492,27.487971 61.0008276,30.5026349 60.9247139,33.5154076 C59.7186038,33.5437764 58.5124938,33.5570152 57.3063837,33.5078425 C57.2693027,30.5499164 57.2985772,27.5919902 57.2927223,24.634064 C57.2751576,23.317749 57.8313734,21.9900865 58.8813527,21.1371295 Z M76.2996897,20.4373643 C78.6943451,19.2004821 81.9067354,19.2969363 83.9832744,21.0936306 C84.7405085,20.2860638 85.8548918,19.9267249 86.9673234,20.0704604 C87.0083077,24.5565224 87.0239208,29.0463669 86.9575652,33.5324289 C85.8529401,33.6610344 84.7444118,33.3073693 83.9871776,32.5073675 C82.7810676,33.4681261 81.2548895,34.0525246 79.6799205,33.9768743 C76.9534873,34.0071344 74.3675717,32.3541757 73.1556067,30.0146906 C72.3847111,28.5811176 72.2207738,26.8865512 72.5310837,25.3092428 C72.9331204,23.2383162 74.4241691,21.4567519 76.2996897,20.4373643 Z M79.164689,23.2118386 C77.2345226,23.4671583 75.7707968,25.3886756 76.0674452,27.2515639 C76.2548021,28.9763904 77.8883201,30.4326584 79.6857754,30.4307672 C81.7525563,30.5612639 83.6573514,28.7362007 83.5480599,26.7295769 C83.6027057,24.5773262 81.3368581,22.7655019 79.164689,23.2118386 Z M88.4974047,20.1045031 C89.3951566,20.0250703 90.2987633,20.0723517 91.1984668,20.0591129 C91.5926969,20.074243 92.0376696,20.0439828 92.3596892,20.3049763 C92.6504828,20.5508398 92.7870972,20.9120699 92.9510345,21.2392574 C93.8761092,23.3158577 94.8265551,25.3811105 95.7516298,27.4558196 C96.8816261,25.0293367 97.9511218,22.5763762 99.0752632,20.148002 C100.351632,19.956985 101.69826,20.0931555 103,20.0874818 C102.886805,20.6491851 102.607721,21.1579333 102.375477,21.6799203 C100.681458,25.3981319 99.0089076,29.1257997 97.3090341,32.84212 C96.7977059,34.1111536 94.5747943,34.0392858 94.1590962,32.7286446 C92.5489978,29.1882112 90.9506092,25.6439953 89.3424624,22.1035619 C89.0575238,21.4378394 88.7003747,20.8004857 88.4974047,20.1045031 Z" id="Combined-Shape" fill="#CECECE" fill-rule="nonzero"></path>
            </g>
        </g>
    </g>
</svg>